G04 #@! TF.GenerationSoftware,KiCad,Pcbnew,7.0.1*
G04 #@! TF.CreationDate,2023-03-23T18:13:04+01:00*
G04 #@! TF.ProjectId,Project_Gmic,50726f6a-6563-4745-9f47-6d69632e6b69,V1.1*
G04 #@! TF.SameCoordinates,Original*
G04 #@! TF.FileFunction,Soldermask,Bot*
G04 #@! TF.FilePolarity,Negative*
%FSLAX46Y46*%
G04 Gerber Fmt 4.6, Leading zero omitted, Abs format (unit mm)*
G04 Created by KiCad (PCBNEW 7.0.1) date 2023-03-23 18:13:04*
%MOMM*%
%LPD*%
G01*
G04 APERTURE LIST*
G04 Aperture macros list*
%AMRoundRect*
0 Rectangle with rounded corners*
0 $1 Rounding radius*
0 $2 $3 $4 $5 $6 $7 $8 $9 X,Y pos of 4 corners*
0 Add a 4 corners polygon primitive as box body*
4,1,4,$2,$3,$4,$5,$6,$7,$8,$9,$2,$3,0*
0 Add four circle primitives for the rounded corners*
1,1,$1+$1,$2,$3*
1,1,$1+$1,$4,$5*
1,1,$1+$1,$6,$7*
1,1,$1+$1,$8,$9*
0 Add four rect primitives between the rounded corners*
20,1,$1+$1,$2,$3,$4,$5,0*
20,1,$1+$1,$4,$5,$6,$7,0*
20,1,$1+$1,$6,$7,$8,$9,0*
20,1,$1+$1,$8,$9,$2,$3,0*%
G04 Aperture macros list end*
%ADD10O,3.100000X3.500000*%
%ADD11R,1.800000X1.800000*%
%ADD12O,1.800000X1.800000*%
%ADD13C,1.200000*%
%ADD14C,2.550000*%
%ADD15C,2.400000*%
%ADD16C,0.700000*%
%ADD17O,0.900000X2.400000*%
%ADD18O,0.900000X1.700000*%
%ADD19R,1.446000X1.446000*%
%ADD20C,1.446000*%
%ADD21C,0.900000*%
%ADD22C,3.000000*%
%ADD23RoundRect,0.250000X0.250000X0.475000X-0.250000X0.475000X-0.250000X-0.475000X0.250000X-0.475000X0*%
%ADD24RoundRect,0.250000X0.475000X-0.250000X0.475000X0.250000X-0.475000X0.250000X-0.475000X-0.250000X0*%
%ADD25RoundRect,0.250000X-0.250000X-0.475000X0.250000X-0.475000X0.250000X0.475000X-0.250000X0.475000X0*%
%ADD26RoundRect,0.250000X-0.475000X0.250000X-0.475000X-0.250000X0.475000X-0.250000X0.475000X0.250000X0*%
%ADD27RoundRect,0.250000X0.450000X-0.262500X0.450000X0.262500X-0.450000X0.262500X-0.450000X-0.262500X0*%
%ADD28RoundRect,0.250000X-0.262500X-0.450000X0.262500X-0.450000X0.262500X0.450000X-0.262500X0.450000X0*%
%ADD29RoundRect,0.250000X-0.450000X0.262500X-0.450000X-0.262500X0.450000X-0.262500X0.450000X0.262500X0*%
%ADD30RoundRect,0.150000X0.825000X0.150000X-0.825000X0.150000X-0.825000X-0.150000X0.825000X-0.150000X0*%
%ADD31RoundRect,0.150000X-0.150000X0.825000X-0.150000X-0.825000X0.150000X-0.825000X0.150000X0.825000X0*%
G04 APERTURE END LIST*
D10*
X51549000Y-131841000D03*
X41749000Y-131841000D03*
D11*
X49149000Y-124841000D03*
D12*
X46649000Y-124841000D03*
X44149000Y-124841000D03*
D13*
X30560000Y-150400000D03*
X40560000Y-150400000D03*
X30560000Y-147900000D03*
X40560000Y-147900000D03*
X35560000Y-142900000D03*
D14*
X35560000Y-147900000D03*
X40560000Y-142900000D03*
X30560000Y-142900000D03*
D15*
X37560000Y-142900000D03*
X33560000Y-142900000D03*
D16*
X17780000Y-144780000D03*
X18630000Y-144780000D03*
X19480000Y-144780000D03*
X20330000Y-144780000D03*
X21180000Y-144780000D03*
X22030000Y-144780000D03*
X22880000Y-144780000D03*
X23730000Y-144780000D03*
X23730000Y-146130000D03*
X22880000Y-146130000D03*
X22030000Y-146130000D03*
X21180000Y-146130000D03*
X20330000Y-146130000D03*
X19480000Y-146130000D03*
X18630000Y-146130000D03*
X17780000Y-146130000D03*
D17*
X16430000Y-145760000D03*
D18*
X16430000Y-149140000D03*
D17*
X25080000Y-145760000D03*
D18*
X25080000Y-149140000D03*
D19*
X29972000Y-97282000D03*
D20*
X29972000Y-99822000D03*
D19*
X29972000Y-109220000D03*
D20*
X29972000Y-111760000D03*
D21*
X54051000Y-147677000D03*
X54051000Y-144677000D03*
D22*
X6096000Y-147574000D03*
X6096000Y-114808000D03*
X49784000Y-114808000D03*
D23*
X36698000Y-99822000D03*
X34798000Y-99822000D03*
X36698000Y-111760000D03*
X34798000Y-111760000D03*
D24*
X36322000Y-132903000D03*
X36322000Y-131003000D03*
D25*
X34417000Y-134747000D03*
X36317000Y-134747000D03*
D24*
X29083000Y-124836000D03*
X29083000Y-122936000D03*
D26*
X30734000Y-101920000D03*
X30734000Y-103820000D03*
D24*
X36322000Y-126873000D03*
X36322000Y-124973000D03*
D26*
X28702000Y-101920000D03*
X28702000Y-103820000D03*
D24*
X26670000Y-131572000D03*
X26670000Y-129672000D03*
D27*
X32766000Y-101623500D03*
X32766000Y-99798500D03*
D28*
X21693500Y-149225000D03*
X23518500Y-149225000D03*
D27*
X32766000Y-113561500D03*
X32766000Y-111736500D03*
D28*
X37060500Y-120015000D03*
X38885500Y-120015000D03*
D29*
X32639000Y-134088500D03*
X32639000Y-135913500D03*
D27*
X30607000Y-136802500D03*
X30607000Y-134977500D03*
D29*
X42926000Y-103378000D03*
X42926000Y-105203000D03*
X33401000Y-105029000D03*
X33401000Y-106854000D03*
D27*
X42291000Y-112418500D03*
X42291000Y-110593500D03*
X40259000Y-112395000D03*
X40259000Y-110570000D03*
X31115000Y-122832500D03*
X31115000Y-121007500D03*
X33147000Y-124737500D03*
X33147000Y-122912500D03*
D29*
X41910000Y-119991500D03*
X41910000Y-121816500D03*
D26*
X32766000Y-115255000D03*
X32766000Y-117155000D03*
D23*
X34478000Y-138938000D03*
X32578000Y-138938000D03*
D24*
X28702000Y-131572000D03*
X28702000Y-129672000D03*
D30*
X40640000Y-103886000D03*
X40640000Y-105156000D03*
X40640000Y-106426000D03*
X40640000Y-107696000D03*
X35690000Y-107696000D03*
X35690000Y-106426000D03*
X35690000Y-105156000D03*
X35690000Y-103886000D03*
X41972000Y-114300000D03*
X41972000Y-115570000D03*
X41972000Y-116840000D03*
X41972000Y-118110000D03*
X37022000Y-118110000D03*
X37022000Y-116840000D03*
X37022000Y-115570000D03*
X37022000Y-114300000D03*
D31*
X30607000Y-126938000D03*
X31877000Y-126938000D03*
X33147000Y-126938000D03*
X34417000Y-126938000D03*
X34417000Y-131888000D03*
X33147000Y-131888000D03*
X31877000Y-131888000D03*
X30607000Y-131888000D03*
D23*
X38923000Y-122047000D03*
X37023000Y-122047000D03*
D26*
X30734000Y-115255000D03*
X30734000Y-117155000D03*
D28*
X19661500Y-142748000D03*
X21486500Y-142748000D03*
M02*
