G04 #@! TF.GenerationSoftware,KiCad,Pcbnew,7.0.1*
G04 #@! TF.CreationDate,2023-03-23T18:13:04+01:00*
G04 #@! TF.ProjectId,Project_Gmic,50726f6a-6563-4745-9f47-6d69632e6b69,V1.1*
G04 #@! TF.SameCoordinates,Original*
G04 #@! TF.FileFunction,Soldermask,Top*
G04 #@! TF.FilePolarity,Negative*
%FSLAX46Y46*%
G04 Gerber Fmt 4.6, Leading zero omitted, Abs format (unit mm)*
G04 Created by KiCad (PCBNEW 7.0.1) date 2023-03-23 18:13:04*
%MOMM*%
%LPD*%
G01*
G04 APERTURE LIST*
G04 Aperture macros list*
%AMRoundRect*
0 Rectangle with rounded corners*
0 $1 Rounding radius*
0 $2 $3 $4 $5 $6 $7 $8 $9 X,Y pos of 4 corners*
0 Add a 4 corners polygon primitive as box body*
4,1,4,$2,$3,$4,$5,$6,$7,$8,$9,$2,$3,0*
0 Add four circle primitives for the rounded corners*
1,1,$1+$1,$2,$3*
1,1,$1+$1,$4,$5*
1,1,$1+$1,$6,$7*
1,1,$1+$1,$8,$9*
0 Add four rect primitives between the rounded corners*
20,1,$1+$1,$2,$3,$4,$5,0*
20,1,$1+$1,$4,$5,$6,$7,0*
20,1,$1+$1,$6,$7,$8,$9,0*
20,1,$1+$1,$8,$9,$2,$3,0*%
G04 Aperture macros list end*
%ADD10O,3.100000X3.500000*%
%ADD11R,1.800000X1.800000*%
%ADD12O,1.800000X1.800000*%
%ADD13C,1.200000*%
%ADD14C,2.550000*%
%ADD15C,2.400000*%
%ADD16RoundRect,0.250000X-0.250000X-0.475000X0.250000X-0.475000X0.250000X0.475000X-0.250000X0.475000X0*%
%ADD17RoundRect,0.250000X0.475000X-0.250000X0.475000X0.250000X-0.475000X0.250000X-0.475000X-0.250000X0*%
%ADD18C,0.700000*%
%ADD19O,0.900000X2.400000*%
%ADD20O,0.900000X1.700000*%
%ADD21R,1.446000X1.446000*%
%ADD22C,1.446000*%
%ADD23RoundRect,0.250000X-0.262500X-0.450000X0.262500X-0.450000X0.262500X0.450000X-0.262500X0.450000X0*%
%ADD24R,0.800000X1.000000*%
%ADD25C,0.900000*%
%ADD26R,1.500000X0.700000*%
%ADD27C,3.000000*%
%ADD28RoundRect,0.150000X0.512500X0.150000X-0.512500X0.150000X-0.512500X-0.150000X0.512500X-0.150000X0*%
%ADD29RoundRect,0.250000X0.250000X0.475000X-0.250000X0.475000X-0.250000X-0.475000X0.250000X-0.475000X0*%
%ADD30RoundRect,0.150000X0.150000X-0.587500X0.150000X0.587500X-0.150000X0.587500X-0.150000X-0.587500X0*%
%ADD31RoundRect,0.250000X-0.450000X0.262500X-0.450000X-0.262500X0.450000X-0.262500X0.450000X0.262500X0*%
%ADD32RoundRect,0.150000X0.150000X-0.512500X0.150000X0.512500X-0.150000X0.512500X-0.150000X-0.512500X0*%
G04 APERTURE END LIST*
D10*
X51549000Y-131841000D03*
X41749000Y-131841000D03*
D11*
X49149000Y-124841000D03*
D12*
X46649000Y-124841000D03*
X44149000Y-124841000D03*
D13*
X30560000Y-150400000D03*
X40560000Y-150400000D03*
X30560000Y-147900000D03*
X40560000Y-147900000D03*
X35560000Y-142900000D03*
D14*
X35560000Y-147900000D03*
X40560000Y-142900000D03*
X30560000Y-142900000D03*
D15*
X37560000Y-142900000D03*
X33560000Y-142900000D03*
D16*
X42103000Y-107950000D03*
X44003000Y-107950000D03*
X39436000Y-114427000D03*
X41336000Y-114427000D03*
D17*
X18796000Y-142870000D03*
X18796000Y-140970000D03*
X20828000Y-142870000D03*
X20828000Y-140970000D03*
X22860000Y-142870000D03*
X22860000Y-140970000D03*
D18*
X17780000Y-144780000D03*
X18630000Y-144780000D03*
X19480000Y-144780000D03*
X20330000Y-144780000D03*
X21180000Y-144780000D03*
X22030000Y-144780000D03*
X22880000Y-144780000D03*
X23730000Y-144780000D03*
X23730000Y-146130000D03*
X22880000Y-146130000D03*
X22030000Y-146130000D03*
X21180000Y-146130000D03*
X20330000Y-146130000D03*
X19480000Y-146130000D03*
X18630000Y-146130000D03*
X17780000Y-146130000D03*
D19*
X16430000Y-145760000D03*
D20*
X16430000Y-149140000D03*
D19*
X25080000Y-145760000D03*
D20*
X25080000Y-149140000D03*
D21*
X29972000Y-97282000D03*
D22*
X29972000Y-99822000D03*
D21*
X29972000Y-109220000D03*
D22*
X29972000Y-111760000D03*
D23*
X38354000Y-108839000D03*
X40179000Y-108839000D03*
D24*
X52941000Y-149827000D03*
X55151000Y-149827000D03*
D25*
X54051000Y-147677000D03*
X54051000Y-144677000D03*
D24*
X52941000Y-142527000D03*
X55151000Y-142527000D03*
D26*
X52291000Y-148427000D03*
X52291000Y-145427000D03*
X52291000Y-143927000D03*
D27*
X6096000Y-147574000D03*
X6096000Y-114808000D03*
X49784000Y-114808000D03*
D17*
X18095000Y-129159000D03*
X18095000Y-127259000D03*
D28*
X40375000Y-112522000D03*
X40375000Y-111572000D03*
X40375000Y-110622000D03*
X38100000Y-110622000D03*
X38100000Y-112522000D03*
D16*
X39497000Y-116459000D03*
X41397000Y-116459000D03*
D29*
X21712000Y-122682000D03*
X19812000Y-122682000D03*
D30*
X20066000Y-137160000D03*
X21966000Y-137160000D03*
X21016000Y-135285000D03*
D31*
X42291000Y-109831500D03*
X42291000Y-111656500D03*
D29*
X21712000Y-124714000D03*
X19812000Y-124714000D03*
D17*
X20127000Y-129220000D03*
X20127000Y-127320000D03*
D32*
X21910000Y-129021000D03*
X22860000Y-129021000D03*
X23810000Y-129021000D03*
X23810000Y-126746000D03*
X21910000Y-126746000D03*
M02*
