G04 #@! TF.GenerationSoftware,KiCad,Pcbnew,8.0.6*
G04 #@! TF.CreationDate,2025-03-14T09:35:17+01:00*
G04 #@! TF.ProjectId,Project_Gmic,50726f6a-6563-4745-9f47-6d69632e6b69,V1.2*
G04 #@! TF.SameCoordinates,Original*
G04 #@! TF.FileFunction,Copper,L2,Bot*
G04 #@! TF.FilePolarity,Positive*
%FSLAX46Y46*%
G04 Gerber Fmt 4.6, Leading zero omitted, Abs format (unit mm)*
G04 Created by KiCad (PCBNEW 8.0.6) date 2025-03-14 09:35:17*
%MOMM*%
%LPD*%
G01*
G04 APERTURE LIST*
G04 Aperture macros list*
%AMRoundRect*
0 Rectangle with rounded corners*
0 $1 Rounding radius*
0 $2 $3 $4 $5 $6 $7 $8 $9 X,Y pos of 4 corners*
0 Add a 4 corners polygon primitive as box body*
4,1,4,$2,$3,$4,$5,$6,$7,$8,$9,$2,$3,0*
0 Add four circle primitives for the rounded corners*
1,1,$1+$1,$2,$3*
1,1,$1+$1,$4,$5*
1,1,$1+$1,$6,$7*
1,1,$1+$1,$8,$9*
0 Add four rect primitives between the rounded corners*
20,1,$1+$1,$2,$3,$4,$5,0*
20,1,$1+$1,$4,$5,$6,$7,0*
20,1,$1+$1,$6,$7,$8,$9,0*
20,1,$1+$1,$8,$9,$2,$3,0*%
G04 Aperture macros list end*
G04 #@! TA.AperFunction,ComponentPad*
%ADD10C,2.550000*%
G04 #@! TD*
G04 #@! TA.AperFunction,ComponentPad*
%ADD11C,2.400000*%
G04 #@! TD*
G04 #@! TA.AperFunction,ComponentPad*
%ADD12C,0.700000*%
G04 #@! TD*
G04 #@! TA.AperFunction,ComponentPad*
%ADD13O,0.900000X2.400000*%
G04 #@! TD*
G04 #@! TA.AperFunction,ComponentPad*
%ADD14O,0.900000X1.700000*%
G04 #@! TD*
G04 #@! TA.AperFunction,ComponentPad*
%ADD15R,1.446000X1.446000*%
G04 #@! TD*
G04 #@! TA.AperFunction,ComponentPad*
%ADD16C,1.446000*%
G04 #@! TD*
G04 #@! TA.AperFunction,ComponentPad*
%ADD17O,3.100000X3.500000*%
G04 #@! TD*
G04 #@! TA.AperFunction,ComponentPad*
%ADD18R,1.800000X1.800000*%
G04 #@! TD*
G04 #@! TA.AperFunction,ComponentPad*
%ADD19O,1.800000X1.800000*%
G04 #@! TD*
G04 #@! TA.AperFunction,SMDPad,CuDef*
%ADD20RoundRect,0.250000X0.475000X-0.250000X0.475000X0.250000X-0.475000X0.250000X-0.475000X-0.250000X0*%
G04 #@! TD*
G04 #@! TA.AperFunction,SMDPad,CuDef*
%ADD21RoundRect,0.250000X-0.475000X0.250000X-0.475000X-0.250000X0.475000X-0.250000X0.475000X0.250000X0*%
G04 #@! TD*
G04 #@! TA.AperFunction,SMDPad,CuDef*
%ADD22RoundRect,0.250000X0.250000X0.475000X-0.250000X0.475000X-0.250000X-0.475000X0.250000X-0.475000X0*%
G04 #@! TD*
G04 #@! TA.AperFunction,SMDPad,CuDef*
%ADD23RoundRect,0.250000X0.450000X-0.262500X0.450000X0.262500X-0.450000X0.262500X-0.450000X-0.262500X0*%
G04 #@! TD*
G04 #@! TA.AperFunction,SMDPad,CuDef*
%ADD24RoundRect,0.250000X-0.450000X0.262500X-0.450000X-0.262500X0.450000X-0.262500X0.450000X0.262500X0*%
G04 #@! TD*
G04 #@! TA.AperFunction,SMDPad,CuDef*
%ADD25RoundRect,0.250000X0.262500X0.450000X-0.262500X0.450000X-0.262500X-0.450000X0.262500X-0.450000X0*%
G04 #@! TD*
G04 #@! TA.AperFunction,SMDPad,CuDef*
%ADD26RoundRect,0.250000X-0.262500X-0.450000X0.262500X-0.450000X0.262500X0.450000X-0.262500X0.450000X0*%
G04 #@! TD*
G04 #@! TA.AperFunction,SMDPad,CuDef*
%ADD27RoundRect,0.150000X-0.150000X0.825000X-0.150000X-0.825000X0.150000X-0.825000X0.150000X0.825000X0*%
G04 #@! TD*
G04 #@! TA.AperFunction,SMDPad,CuDef*
%ADD28RoundRect,0.150000X-0.512500X-0.150000X0.512500X-0.150000X0.512500X0.150000X-0.512500X0.150000X0*%
G04 #@! TD*
G04 #@! TA.AperFunction,ViaPad*
%ADD29C,0.800000*%
G04 #@! TD*
G04 #@! TA.AperFunction,Conductor*
%ADD30C,0.300000*%
G04 #@! TD*
G04 APERTURE END LIST*
D10*
X83820000Y-147900000D03*
X88820000Y-142900000D03*
X78820000Y-142900000D03*
D11*
X85820000Y-142900000D03*
X81820000Y-142900000D03*
D12*
X66040000Y-144780000D03*
X66890000Y-144780000D03*
X67740000Y-144780000D03*
X68590000Y-144780000D03*
X69440000Y-144780000D03*
X70290000Y-144780000D03*
X71140000Y-144780000D03*
X71990000Y-144780000D03*
X71990000Y-146130000D03*
X71140000Y-146130000D03*
X70290000Y-146130000D03*
X69440000Y-146130000D03*
X68590000Y-146130000D03*
X67740000Y-146130000D03*
X66890000Y-146130000D03*
X66040000Y-146130000D03*
D13*
X64690000Y-145760000D03*
D14*
X64690000Y-149140000D03*
D13*
X73340000Y-145760000D03*
D14*
X73340000Y-149140000D03*
D15*
X78232000Y-97282000D03*
D16*
X78232000Y-99822000D03*
D15*
X78232000Y-109220000D03*
D16*
X78232000Y-111760000D03*
D17*
X101166000Y-131841000D03*
X91366000Y-131841000D03*
D18*
X98766000Y-124841000D03*
D19*
X96266000Y-124841000D03*
X93766000Y-124841000D03*
D20*
X83124000Y-101788000D03*
X83124000Y-99888000D03*
D21*
X83058000Y-109794000D03*
X83058000Y-111694000D03*
D22*
X78862000Y-114300000D03*
X76962000Y-114300000D03*
X82418000Y-121920000D03*
X80518000Y-121920000D03*
D23*
X81026000Y-101623500D03*
X81026000Y-99798500D03*
D24*
X75184000Y-147400000D03*
X75184000Y-149225000D03*
D23*
X81026000Y-113561500D03*
X81026000Y-111736500D03*
D25*
X67611000Y-142748000D03*
X65786000Y-142748000D03*
D26*
X85447500Y-101346000D03*
X87272500Y-101346000D03*
X86971500Y-110998000D03*
X88796500Y-110998000D03*
D21*
X58928000Y-119380000D03*
X58928000Y-121280000D03*
D27*
X85725000Y-103697000D03*
X86995000Y-103697000D03*
X88265000Y-103697000D03*
X89535000Y-103697000D03*
X89535000Y-108647000D03*
X88265000Y-108647000D03*
X86995000Y-108647000D03*
X85725000Y-108647000D03*
D22*
X78862000Y-102362000D03*
X76962000Y-102362000D03*
D21*
X60960000Y-120462000D03*
X60960000Y-122362000D03*
D26*
X70057000Y-148082000D03*
X71882000Y-148082000D03*
D21*
X85090000Y-110876000D03*
X85090000Y-112776000D03*
D26*
X80725000Y-117856000D03*
X82550000Y-117856000D03*
D28*
X84582000Y-121158000D03*
X84582000Y-120208000D03*
X84582000Y-119258000D03*
X86857000Y-119258000D03*
X86857000Y-121158000D03*
D22*
X83688000Y-106426000D03*
X81788000Y-106426000D03*
D21*
X91186000Y-121478000D03*
X91186000Y-123378000D03*
X89154000Y-121544000D03*
X89154000Y-123444000D03*
D25*
X82343000Y-119888000D03*
X80518000Y-119888000D03*
D29*
X80576284Y-137723284D03*
X60576284Y-113723284D03*
X56576284Y-129723284D03*
X52576284Y-125723284D03*
X68576284Y-109723284D03*
X88576284Y-97723284D03*
X96576284Y-109723284D03*
X68576284Y-93723284D03*
X68576284Y-101723284D03*
X60576284Y-145723284D03*
X52576284Y-121723284D03*
X92576284Y-109723284D03*
X72576284Y-105723284D03*
X80576284Y-109723284D03*
X96576284Y-129723284D03*
X52576284Y-133723284D03*
X52576284Y-141723284D03*
X68576284Y-105723284D03*
X60576284Y-109723284D03*
X84576284Y-137723284D03*
X72576284Y-93723284D03*
X52576284Y-117723284D03*
X100576284Y-109723284D03*
X92576284Y-101723284D03*
X96576284Y-105723284D03*
X100576284Y-117723284D03*
X56576284Y-141723284D03*
X92576284Y-105723284D03*
X64576284Y-101723284D03*
X88576284Y-137723284D03*
X56576284Y-109723284D03*
X64576284Y-109723284D03*
X56576284Y-105723284D03*
X84836000Y-114046000D03*
X56576284Y-137723284D03*
X56576284Y-133723284D03*
X60576284Y-141723284D03*
X76576284Y-93723284D03*
X64576284Y-97723284D03*
X52576284Y-137723284D03*
X60576284Y-105723284D03*
X60576284Y-129723284D03*
X65786000Y-119380000D03*
X52576284Y-129723284D03*
X76576284Y-117723284D03*
X80576284Y-93723284D03*
X64576284Y-105723284D03*
X60576284Y-137723284D03*
X84576284Y-93723284D03*
X100576284Y-121723284D03*
X60576284Y-101723284D03*
X72576284Y-101723284D03*
X60576284Y-125723284D03*
X96576284Y-137723284D03*
X84576284Y-97723284D03*
X80576284Y-97723284D03*
X52576284Y-109723284D03*
X60576284Y-149723284D03*
X72576284Y-97723284D03*
X68576284Y-97723284D03*
X60576284Y-133723284D03*
X64540000Y-140770000D03*
X75184000Y-146558000D03*
X75184000Y-148082000D03*
X61092500Y-119314000D03*
X82550000Y-116078000D03*
X85852000Y-116078000D03*
X86614000Y-122682000D03*
X88900000Y-117856000D03*
X85725000Y-103697000D03*
X86995000Y-108647000D03*
X86614000Y-133500500D03*
X87884000Y-112522000D03*
D30*
X78255500Y-99798500D02*
X78232000Y-99822000D01*
X81026000Y-99798500D02*
X78255500Y-99798500D01*
X83034500Y-99798500D02*
X83124000Y-99888000D01*
X81026000Y-99798500D02*
X83034500Y-99798500D01*
X83124000Y-102711552D02*
X85384448Y-104972000D01*
X86995000Y-103697000D02*
X86995000Y-101623500D01*
X86694999Y-104972000D02*
X86995000Y-104671999D01*
X83124000Y-101788000D02*
X83124000Y-102711552D01*
X86995000Y-101623500D02*
X87272500Y-101346000D01*
X85384448Y-104972000D02*
X86694999Y-104972000D01*
X86995000Y-104671999D02*
X86995000Y-103697000D01*
X78255500Y-111736500D02*
X78232000Y-111760000D01*
X81026000Y-111736500D02*
X78255500Y-111736500D01*
X81026000Y-111736500D02*
X83015500Y-111736500D01*
X83015500Y-111736500D02*
X83058000Y-111694000D01*
X83058000Y-109794000D02*
X83058000Y-109294000D01*
X88265000Y-110466500D02*
X88796500Y-110998000D01*
X84980000Y-107372000D02*
X87814000Y-107372000D01*
X88265000Y-108647000D02*
X88265000Y-110466500D01*
X83058000Y-109294000D02*
X84980000Y-107372000D01*
X88265000Y-107823000D02*
X88265000Y-108647000D01*
X87814000Y-107372000D02*
X88265000Y-107823000D01*
X83919501Y-120208000D02*
X83312000Y-120815501D01*
X85090000Y-113792000D02*
X84836000Y-114046000D01*
X83312000Y-120815501D02*
X83312000Y-123952000D01*
X85090000Y-112776000D02*
X85090000Y-113792000D01*
X84582000Y-120208000D02*
X83919501Y-120208000D01*
X75184000Y-147400000D02*
X75184000Y-148082000D01*
X65786000Y-142016000D02*
X64540000Y-140770000D01*
X71990000Y-147974000D02*
X71882000Y-148082000D01*
X66040000Y-144780000D02*
X66040000Y-146130000D01*
X71990000Y-144780000D02*
X71990000Y-146130000D01*
X75184000Y-147400000D02*
X75184000Y-146558000D01*
X66040000Y-144780000D02*
X66040000Y-143002000D01*
X66040000Y-143002000D02*
X65786000Y-142748000D01*
X71990000Y-146130000D02*
X71990000Y-147974000D01*
X65786000Y-142748000D02*
X65786000Y-142016000D01*
X91186000Y-120142000D02*
X91186000Y-121478000D01*
X86614000Y-122682000D02*
X86614000Y-121401000D01*
X81026000Y-117555000D02*
X80725000Y-117856000D01*
X81026000Y-116078000D02*
X81026000Y-117555000D01*
X83688000Y-104285500D02*
X81026000Y-101623500D01*
X86857000Y-121158000D02*
X88006000Y-121158000D01*
X78862000Y-102362000D02*
X80287500Y-102362000D01*
X83688000Y-106426000D02*
X83688000Y-104285500D01*
X81026000Y-113561500D02*
X81026000Y-116078000D01*
X61092500Y-119314000D02*
X64328500Y-116078000D01*
X64328500Y-116078000D02*
X73660000Y-116078000D01*
X85090000Y-111171744D02*
X82700244Y-113561500D01*
X73660000Y-109220000D02*
X73660000Y-116078000D01*
X85090000Y-110876000D02*
X85090000Y-111171744D01*
X78862000Y-104018000D02*
X73660000Y-109220000D01*
X80287500Y-114300000D02*
X81026000Y-113561500D01*
X86614000Y-121401000D02*
X86857000Y-121158000D01*
X88006000Y-121158000D02*
X88392000Y-121544000D01*
X60960000Y-119446500D02*
X61092500Y-119314000D01*
X73660000Y-116078000D02*
X81026000Y-116078000D01*
X59878000Y-119380000D02*
X60960000Y-120462000D01*
X58928000Y-119380000D02*
X59878000Y-119380000D01*
X81026000Y-116078000D02*
X82550000Y-116078000D01*
X85725000Y-108647000D02*
X85725000Y-110241000D01*
X82700244Y-113561500D02*
X81026000Y-113561500D01*
X60960000Y-120462000D02*
X60960000Y-119446500D01*
X91120000Y-121544000D02*
X91186000Y-121478000D01*
X85725000Y-110241000D02*
X85090000Y-110876000D01*
X78862000Y-102362000D02*
X78862000Y-104018000D01*
X78862000Y-114300000D02*
X80287500Y-114300000D01*
X88900000Y-117856000D02*
X91186000Y-120142000D01*
X85852000Y-116078000D02*
X87122000Y-116078000D01*
X87122000Y-116078000D02*
X88900000Y-117856000D01*
X89154000Y-121544000D02*
X91120000Y-121544000D01*
X80287500Y-102362000D02*
X81026000Y-101623500D01*
X89154000Y-121544000D02*
X88392000Y-121544000D01*
X67740000Y-142877000D02*
X67611000Y-142748000D01*
X67740000Y-144780000D02*
X67740000Y-142877000D01*
X70290000Y-147849000D02*
X70057000Y-148082000D01*
X70290000Y-146130000D02*
X70290000Y-147849000D01*
X85725000Y-103697000D02*
X85725000Y-101623500D01*
X85725000Y-101623500D02*
X85447500Y-101346000D01*
X82343000Y-119888000D02*
X82936000Y-119888000D01*
X82418000Y-119963000D02*
X82343000Y-119888000D01*
X82936000Y-119888000D02*
X83566000Y-119258000D01*
X83566000Y-119258000D02*
X84582000Y-119258000D01*
X82343000Y-118063000D02*
X82550000Y-117856000D01*
X82343000Y-119888000D02*
X82343000Y-118063000D01*
X82418000Y-121920000D02*
X82418000Y-119963000D01*
X66890000Y-144780000D02*
X66890000Y-146130000D01*
X71140000Y-146130000D02*
X71140000Y-144780000D01*
X86971500Y-110998000D02*
X86971500Y-108670500D01*
X86971500Y-108670500D02*
X86995000Y-108647000D01*
X86857000Y-119258000D02*
X84582000Y-116983000D01*
X84957000Y-121158000D02*
X86857000Y-119258000D01*
X89535000Y-105941999D02*
X89535000Y-108647000D01*
X84582000Y-121158000D02*
X84582000Y-131468500D01*
X88769744Y-112522000D02*
X87884000Y-112522000D01*
X84582000Y-131468500D02*
X86614000Y-133500500D01*
X89535000Y-109682000D02*
X89835000Y-109982000D01*
X89835000Y-111456744D02*
X88769744Y-112522000D01*
X84582000Y-116983000D02*
X84582000Y-116078000D01*
X89835000Y-109982000D02*
X89835000Y-111456744D01*
X89535000Y-108647000D02*
X89535000Y-109682000D01*
X84582000Y-121158000D02*
X84957000Y-121158000D01*
X87884000Y-112776000D02*
X87884000Y-112522000D01*
X88265000Y-104671999D02*
X89535000Y-105941999D01*
X84582000Y-116078000D02*
X87884000Y-112776000D01*
X88265000Y-103697000D02*
X88265000Y-104671999D01*
G04 #@! TA.AperFunction,Conductor*
G36*
X86466868Y-112472319D02*
G01*
X86503066Y-112483300D01*
X86537831Y-112486724D01*
X86603662Y-112513305D01*
X86644672Y-112571259D01*
X86647841Y-112642185D01*
X86614576Y-112701212D01*
X86322693Y-112993096D01*
X86260382Y-113027120D01*
X86233599Y-113030000D01*
X85344000Y-113030000D01*
X85344000Y-113784001D01*
X85348799Y-113788800D01*
X85382825Y-113851112D01*
X85377760Y-113921927D01*
X85348799Y-113966990D01*
X83843700Y-115472089D01*
X83843692Y-115472098D01*
X83818689Y-115509519D01*
X83764212Y-115555046D01*
X83693769Y-115563893D01*
X83629725Y-115533252D01*
X83601134Y-115495679D01*
X83589389Y-115472092D01*
X83575058Y-115443311D01*
X83496817Y-115339703D01*
X83440982Y-115265764D01*
X83276561Y-115115875D01*
X83276560Y-115115874D01*
X83087412Y-114998759D01*
X83087405Y-114998755D01*
X83087401Y-114998753D01*
X83087396Y-114998751D01*
X82879946Y-114918383D01*
X82840972Y-114911097D01*
X82661243Y-114877500D01*
X82438757Y-114877500D01*
X82220060Y-114918382D01*
X82220057Y-114918382D01*
X82220052Y-114918384D01*
X82220051Y-114918384D01*
X82148016Y-114946291D01*
X82077270Y-114952248D01*
X82014534Y-114919011D01*
X81979727Y-114857132D01*
X81976500Y-114828800D01*
X81976500Y-114823147D01*
X81996502Y-114755026D01*
X82043104Y-114712025D01*
X82062450Y-114701685D01*
X82222410Y-114570410D01*
X82232539Y-114558068D01*
X82291215Y-114518098D01*
X82329939Y-114512000D01*
X82793856Y-114512000D01*
X82793861Y-114512000D01*
X82885677Y-114493736D01*
X82977495Y-114475473D01*
X83049145Y-114445794D01*
X83150474Y-114403823D01*
X83306152Y-114299802D01*
X83972834Y-113633119D01*
X84035143Y-113599097D01*
X84105958Y-113604161D01*
X84140081Y-113623385D01*
X84141661Y-113624634D01*
X84292474Y-113717657D01*
X84460678Y-113773393D01*
X84460681Y-113773394D01*
X84564483Y-113783999D01*
X84564483Y-113784000D01*
X84836000Y-113784000D01*
X84836000Y-112822144D01*
X84856002Y-112754023D01*
X84872905Y-112733049D01*
X85047049Y-112558905D01*
X85109361Y-112524879D01*
X85136144Y-112522000D01*
X86322999Y-112522000D01*
X86341200Y-112503799D01*
X86403512Y-112469774D01*
X86466868Y-112472319D01*
G37*
G04 #@! TD.AperFunction*
G04 #@! TA.AperFunction,Conductor*
G36*
X81070031Y-103027844D02*
G01*
X81115095Y-103056805D01*
X82700595Y-104642305D01*
X82734621Y-104704617D01*
X82737500Y-104731400D01*
X82737500Y-105107319D01*
X82717498Y-105175440D01*
X82695690Y-105199937D01*
X82695966Y-105200213D01*
X82691593Y-105204585D01*
X82620336Y-105291412D01*
X82561658Y-105331381D01*
X82490687Y-105333281D01*
X82456791Y-105318719D01*
X82360527Y-105259343D01*
X82192321Y-105203606D01*
X82192318Y-105203605D01*
X82088516Y-105193000D01*
X82042000Y-105193000D01*
X82042000Y-107659000D01*
X82088517Y-107659000D01*
X82088516Y-107658999D01*
X82192318Y-107648394D01*
X82192321Y-107648393D01*
X82360525Y-107592657D01*
X82456790Y-107533280D01*
X82525269Y-107514543D01*
X82593008Y-107535802D01*
X82620336Y-107560587D01*
X82691589Y-107647409D01*
X82691590Y-107647410D01*
X82851550Y-107778685D01*
X82947761Y-107830111D01*
X82998409Y-107879863D01*
X83014119Y-107949100D01*
X82989903Y-108015839D01*
X82977460Y-108030328D01*
X82544299Y-108463489D01*
X82481987Y-108497515D01*
X82467555Y-108499787D01*
X82429032Y-108503581D01*
X82377066Y-108508700D01*
X82245052Y-108548745D01*
X82179045Y-108568768D01*
X81996552Y-108666313D01*
X81836590Y-108797590D01*
X81705313Y-108957552D01*
X81607768Y-109140045D01*
X81547698Y-109338072D01*
X81532500Y-109492385D01*
X81532500Y-110095614D01*
X81547698Y-110249928D01*
X81547700Y-110249934D01*
X81551034Y-110260924D01*
X81551668Y-110331917D01*
X81513820Y-110391983D01*
X81449505Y-110422052D01*
X81430460Y-110423500D01*
X80524385Y-110423500D01*
X80370072Y-110438698D01*
X80172045Y-110498768D01*
X79989552Y-110596313D01*
X79829588Y-110727591D01*
X79819461Y-110739932D01*
X79760785Y-110779902D01*
X79722061Y-110786000D01*
X79461747Y-110786000D01*
X79393626Y-110765998D01*
X79365936Y-110741831D01*
X79353773Y-110727590D01*
X79312608Y-110679392D01*
X79201807Y-110584758D01*
X79162999Y-110525308D01*
X79162493Y-110454313D01*
X79200449Y-110394315D01*
X79208130Y-110388080D01*
X79317904Y-110305904D01*
X79405444Y-110188965D01*
X79405444Y-110188964D01*
X79456494Y-110052093D01*
X79462999Y-109991597D01*
X79463000Y-109991585D01*
X79463000Y-109474000D01*
X78599195Y-109474000D01*
X78646674Y-109391764D01*
X78677000Y-109278585D01*
X78677000Y-109161415D01*
X78646674Y-109048236D01*
X78599195Y-108966000D01*
X79463000Y-108966000D01*
X79463000Y-108448414D01*
X79462999Y-108448402D01*
X79456494Y-108387906D01*
X79405444Y-108251035D01*
X79405444Y-108251034D01*
X79317904Y-108134095D01*
X79200965Y-108046555D01*
X79064093Y-107995505D01*
X79003597Y-107989000D01*
X78486000Y-107989000D01*
X78486000Y-108852805D01*
X78403764Y-108805326D01*
X78290585Y-108775000D01*
X78173415Y-108775000D01*
X78060236Y-108805326D01*
X77978000Y-108852805D01*
X77978000Y-107989000D01*
X77460402Y-107989000D01*
X77399906Y-107995505D01*
X77263035Y-108046555D01*
X77263034Y-108046555D01*
X77146095Y-108134095D01*
X77058555Y-108251034D01*
X77058555Y-108251035D01*
X77007505Y-108387906D01*
X77001000Y-108448402D01*
X77001000Y-108966000D01*
X77864805Y-108966000D01*
X77817326Y-109048236D01*
X77787000Y-109161415D01*
X77787000Y-109278585D01*
X77817326Y-109391764D01*
X77864805Y-109474000D01*
X77001000Y-109474000D01*
X77001000Y-109991597D01*
X77007505Y-110052093D01*
X77058555Y-110188964D01*
X77058555Y-110188965D01*
X77146095Y-110305904D01*
X77255869Y-110388080D01*
X77298416Y-110444916D01*
X77303480Y-110515732D01*
X77269455Y-110578044D01*
X77262191Y-110584758D01*
X77151395Y-110679388D01*
X76995650Y-110861741D01*
X76870353Y-111066208D01*
X76778584Y-111287758D01*
X76722604Y-111520935D01*
X76703789Y-111760000D01*
X76722604Y-111999064D01*
X76778584Y-112232241D01*
X76778585Y-112232243D01*
X76870354Y-112453793D01*
X76995651Y-112658260D01*
X77151392Y-112840608D01*
X77204695Y-112886133D01*
X77243504Y-112945584D01*
X77244010Y-113016578D01*
X77216000Y-113064174D01*
X77216000Y-114428000D01*
X77195998Y-114496121D01*
X77142342Y-114542614D01*
X77090000Y-114554000D01*
X75954000Y-114554000D01*
X75954000Y-114825516D01*
X75964605Y-114929318D01*
X75964606Y-114929325D01*
X75975390Y-114961868D01*
X75977830Y-115032823D01*
X75941521Y-115093833D01*
X75877992Y-115125528D01*
X75855785Y-115127500D01*
X74736500Y-115127500D01*
X74668379Y-115107498D01*
X74621886Y-115053842D01*
X74610500Y-115001500D01*
X74610500Y-113774483D01*
X75954000Y-113774483D01*
X75954000Y-114046000D01*
X76708000Y-114046000D01*
X76708000Y-113067000D01*
X76661483Y-113067000D01*
X76557681Y-113077605D01*
X76557678Y-113077606D01*
X76389474Y-113133342D01*
X76238660Y-113226365D01*
X76238654Y-113226370D01*
X76113370Y-113351654D01*
X76113365Y-113351660D01*
X76020342Y-113502474D01*
X75964606Y-113670678D01*
X75964605Y-113670681D01*
X75954000Y-113774483D01*
X74610500Y-113774483D01*
X74610500Y-109665900D01*
X74630502Y-109597779D01*
X74647405Y-109576805D01*
X77272694Y-106951516D01*
X80780000Y-106951516D01*
X80790605Y-107055318D01*
X80790606Y-107055321D01*
X80846342Y-107223525D01*
X80939365Y-107374339D01*
X80939370Y-107374345D01*
X81064654Y-107499629D01*
X81064660Y-107499634D01*
X81215474Y-107592657D01*
X81383678Y-107648393D01*
X81383681Y-107648394D01*
X81487483Y-107658999D01*
X81487483Y-107659000D01*
X81534000Y-107659000D01*
X81534000Y-106680000D01*
X80780000Y-106680000D01*
X80780000Y-106951516D01*
X77272694Y-106951516D01*
X78323727Y-105900483D01*
X80780000Y-105900483D01*
X80780000Y-106172000D01*
X81534000Y-106172000D01*
X81534000Y-105193000D01*
X81487483Y-105193000D01*
X81383681Y-105203605D01*
X81383678Y-105203606D01*
X81215474Y-105259342D01*
X81064660Y-105352365D01*
X81064654Y-105352370D01*
X80939370Y-105477654D01*
X80939365Y-105477660D01*
X80846342Y-105628474D01*
X80790606Y-105796678D01*
X80790605Y-105796681D01*
X80780000Y-105900483D01*
X78323727Y-105900483D01*
X79600297Y-104623913D01*
X79600302Y-104623908D01*
X79704323Y-104468230D01*
X79775973Y-104295250D01*
X79788217Y-104233698D01*
X79805416Y-104147231D01*
X79812500Y-104111617D01*
X79812500Y-103924383D01*
X79812500Y-103680681D01*
X79832502Y-103612560D01*
X79854309Y-103588064D01*
X79854033Y-103587788D01*
X79858404Y-103583416D01*
X79858406Y-103583412D01*
X79858410Y-103583410D01*
X79989685Y-103423450D01*
X80013389Y-103379104D01*
X80063141Y-103328456D01*
X80124511Y-103312500D01*
X80381112Y-103312500D01*
X80381117Y-103312500D01*
X80472933Y-103294236D01*
X80564751Y-103275973D01*
X80649294Y-103240954D01*
X80737730Y-103204323D01*
X80893408Y-103100302D01*
X80936906Y-103056803D01*
X80999215Y-103022780D01*
X81070031Y-103027844D01*
G37*
G04 #@! TD.AperFunction*
G04 #@! TA.AperFunction,Conductor*
G36*
X83825368Y-91485502D02*
G01*
X83846342Y-91502405D01*
X104077595Y-111733657D01*
X104111621Y-111795969D01*
X104114500Y-111822752D01*
X104114500Y-139828000D01*
X104094498Y-139896121D01*
X104040842Y-139942614D01*
X103988500Y-139954000D01*
X76326000Y-139954000D01*
X76257879Y-139933998D01*
X76211386Y-139880342D01*
X76200000Y-139828000D01*
X76200000Y-133350000D01*
X62230000Y-133350000D01*
X62230000Y-142865099D01*
X62209998Y-142933220D01*
X62156342Y-142979713D01*
X62132776Y-142987561D01*
X62132819Y-142987735D01*
X62091373Y-142997863D01*
X62091370Y-142997864D01*
X62091365Y-142997866D01*
X61923684Y-143064335D01*
X61923683Y-143064335D01*
X61923682Y-143064336D01*
X61775004Y-143166445D01*
X61774999Y-143166449D01*
X61722198Y-143212200D01*
X61651817Y-143281160D01*
X61546691Y-143427729D01*
X61476816Y-143594017D01*
X61476810Y-143594032D01*
X61457126Y-143661069D01*
X61444697Y-143708748D01*
X61444696Y-143708756D01*
X61424500Y-143887998D01*
X61424500Y-153518500D01*
X61404498Y-153586621D01*
X61350842Y-153633114D01*
X61298500Y-153644500D01*
X48411500Y-153644500D01*
X48343379Y-153624498D01*
X48296886Y-153570842D01*
X48285500Y-153518500D01*
X48285500Y-147462540D01*
X52655500Y-147462540D01*
X52655500Y-147685459D01*
X52684594Y-147906456D01*
X52684596Y-147906463D01*
X52742290Y-148121781D01*
X52827595Y-148327726D01*
X52827596Y-148327727D01*
X52827601Y-148327737D01*
X52939049Y-148520770D01*
X53074753Y-148697624D01*
X53074762Y-148697634D01*
X53232365Y-148855237D01*
X53232375Y-148855246D01*
X53232376Y-148855247D01*
X53409226Y-148990948D01*
X53602274Y-149102405D01*
X53808219Y-149187710D01*
X54023537Y-149245404D01*
X54023541Y-149245404D01*
X54023543Y-149245405D01*
X54080501Y-149252903D01*
X54244543Y-149274500D01*
X54244550Y-149274500D01*
X54467450Y-149274500D01*
X54467457Y-149274500D01*
X54667191Y-149248204D01*
X54688456Y-149245405D01*
X54688456Y-149245404D01*
X54688463Y-149245404D01*
X54903781Y-149187710D01*
X55109726Y-149102405D01*
X55302774Y-148990948D01*
X55479624Y-148855247D01*
X55637247Y-148697624D01*
X55772948Y-148520774D01*
X55884405Y-148327726D01*
X55969710Y-148121781D01*
X56027404Y-147906463D01*
X56056500Y-147685457D01*
X56056500Y-147462543D01*
X56027404Y-147241537D01*
X55969710Y-147026219D01*
X55884405Y-146820274D01*
X55772948Y-146627226D01*
X55637247Y-146450376D01*
X55637246Y-146450375D01*
X55637237Y-146450365D01*
X55479634Y-146292762D01*
X55479624Y-146292753D01*
X55302770Y-146157049D01*
X55109737Y-146045601D01*
X55109732Y-146045598D01*
X55109726Y-146045595D01*
X54903781Y-145960290D01*
X54688463Y-145902596D01*
X54688456Y-145902594D01*
X54467459Y-145873500D01*
X54467457Y-145873500D01*
X54244543Y-145873500D01*
X54244540Y-145873500D01*
X54023543Y-145902594D01*
X53884812Y-145939767D01*
X53808219Y-145960290D01*
X53620635Y-146037990D01*
X53602272Y-146045596D01*
X53602262Y-146045601D01*
X53409229Y-146157049D01*
X53232375Y-146292753D01*
X53232365Y-146292762D01*
X53074762Y-146450365D01*
X53074753Y-146450375D01*
X52939049Y-146627229D01*
X52827601Y-146820262D01*
X52827596Y-146820272D01*
X52827595Y-146820274D01*
X52742290Y-147026219D01*
X52684594Y-147241543D01*
X52655500Y-147462540D01*
X48285500Y-147462540D01*
X48285500Y-122662516D01*
X59727000Y-122662516D01*
X59737605Y-122766318D01*
X59737606Y-122766321D01*
X59793342Y-122934525D01*
X59886365Y-123085339D01*
X59886370Y-123085345D01*
X60011654Y-123210629D01*
X60011660Y-123210634D01*
X60162474Y-123303657D01*
X60330678Y-123359393D01*
X60330681Y-123359394D01*
X60434483Y-123369999D01*
X60434483Y-123370000D01*
X60706000Y-123370000D01*
X61214000Y-123370000D01*
X61485517Y-123370000D01*
X61485516Y-123369999D01*
X61589318Y-123359394D01*
X61589321Y-123359393D01*
X61757525Y-123303657D01*
X61908339Y-123210634D01*
X61908345Y-123210629D01*
X62033629Y-123085345D01*
X62033634Y-123085339D01*
X62126657Y-122934525D01*
X62182393Y-122766321D01*
X62182394Y-122766318D01*
X62192999Y-122662516D01*
X62193000Y-122662516D01*
X62193000Y-122616000D01*
X61214000Y-122616000D01*
X61214000Y-123370000D01*
X60706000Y-123370000D01*
X60706000Y-122616000D01*
X59727000Y-122616000D01*
X59727000Y-122662516D01*
X48285500Y-122662516D01*
X48285500Y-122445516D01*
X79510000Y-122445516D01*
X79520605Y-122549318D01*
X79520606Y-122549321D01*
X79576342Y-122717525D01*
X79669365Y-122868339D01*
X79669370Y-122868345D01*
X79794654Y-122993629D01*
X79794660Y-122993634D01*
X79945474Y-123086657D01*
X80113678Y-123142393D01*
X80113681Y-123142394D01*
X80217483Y-123152999D01*
X80217483Y-123153000D01*
X80264000Y-123153000D01*
X80264000Y-122174000D01*
X79510000Y-122174000D01*
X79510000Y-122445516D01*
X48285500Y-122445516D01*
X48285500Y-121580516D01*
X57695000Y-121580516D01*
X57705605Y-121684318D01*
X57705606Y-121684321D01*
X57761342Y-121852525D01*
X57854365Y-122003339D01*
X57854370Y-122003345D01*
X57979654Y-122128629D01*
X57979660Y-122128634D01*
X58130474Y-122221657D01*
X58298678Y-122277393D01*
X58298681Y-122277394D01*
X58402483Y-122287999D01*
X58402483Y-122288000D01*
X58674000Y-122288000D01*
X58674000Y-121534000D01*
X57695000Y-121534000D01*
X57695000Y-121580516D01*
X48285500Y-121580516D01*
X48285500Y-119078385D01*
X57402500Y-119078385D01*
X57402500Y-119681614D01*
X57417698Y-119835927D01*
X57477768Y-120033954D01*
X57574800Y-120215488D01*
X57575315Y-120216450D01*
X57706590Y-120376410D01*
X57793412Y-120447662D01*
X57833380Y-120506338D01*
X57835281Y-120577309D01*
X57820720Y-120611207D01*
X57761342Y-120707475D01*
X57705606Y-120875678D01*
X57705605Y-120875681D01*
X57695000Y-120979483D01*
X57695000Y-121026000D01*
X59056000Y-121026000D01*
X59124121Y-121046002D01*
X59170614Y-121099658D01*
X59182000Y-121152000D01*
X59182000Y-122288000D01*
X59453517Y-122288000D01*
X59453516Y-122287999D01*
X59557318Y-122277394D01*
X59557327Y-122277392D01*
X59684000Y-122235416D01*
X59684000Y-122234000D01*
X59704002Y-122165879D01*
X59757658Y-122119386D01*
X59810000Y-122108000D01*
X62193000Y-122108000D01*
X62193000Y-122061483D01*
X62182394Y-121957681D01*
X62182393Y-121957678D01*
X62126657Y-121789474D01*
X62067280Y-121693209D01*
X62048543Y-121624729D01*
X62069802Y-121556991D01*
X62094586Y-121529664D01*
X62181410Y-121458410D01*
X62312685Y-121298450D01*
X62410232Y-121115954D01*
X62470300Y-120917934D01*
X62485500Y-120763608D01*
X62485500Y-120388516D01*
X79497500Y-120388516D01*
X79508105Y-120492318D01*
X79508106Y-120492321D01*
X79563842Y-120660525D01*
X79656865Y-120811339D01*
X79661418Y-120817097D01*
X79659952Y-120818255D01*
X79689374Y-120872135D01*
X79684309Y-120942950D01*
X79672071Y-120964707D01*
X79673218Y-120965415D01*
X79576342Y-121122474D01*
X79520606Y-121290678D01*
X79520605Y-121290681D01*
X79510000Y-121394483D01*
X79510000Y-121666000D01*
X80264000Y-121666000D01*
X80264000Y-120142000D01*
X79497500Y-120142000D01*
X79497500Y-120388516D01*
X62485500Y-120388516D01*
X62485500Y-120160392D01*
X62477934Y-120083571D01*
X62470301Y-120006072D01*
X62470300Y-120006070D01*
X62470300Y-120006066D01*
X62410232Y-119808046D01*
X62312685Y-119625550D01*
X62306517Y-119618035D01*
X62278764Y-119552691D01*
X62278454Y-119526479D01*
X62279794Y-119512014D01*
X62305997Y-119446030D01*
X62316153Y-119434555D01*
X64685305Y-117065405D01*
X64747617Y-117031379D01*
X64774400Y-117028500D01*
X73566384Y-117028500D01*
X79309353Y-117028500D01*
X79377474Y-117048502D01*
X79423967Y-117102158D01*
X79434071Y-117172432D01*
X79429929Y-117191066D01*
X79427782Y-117198147D01*
X79427198Y-117200072D01*
X79412000Y-117354385D01*
X79412000Y-118357614D01*
X79427198Y-118511927D01*
X79427199Y-118511933D01*
X79427200Y-118511934D01*
X79436791Y-118543552D01*
X79487268Y-118709954D01*
X79584814Y-118892448D01*
X79584816Y-118892451D01*
X79594319Y-118904031D01*
X79622071Y-118969378D01*
X79610088Y-119039356D01*
X79604160Y-119050107D01*
X79563843Y-119115471D01*
X79508106Y-119283678D01*
X79508105Y-119283681D01*
X79497500Y-119387483D01*
X79497500Y-119634000D01*
X80646000Y-119634000D01*
X80714121Y-119654002D01*
X80760614Y-119707658D01*
X80772000Y-119760000D01*
X80772000Y-123153000D01*
X80818517Y-123153000D01*
X80818516Y-123152999D01*
X80922318Y-123142394D01*
X80922321Y-123142393D01*
X81090525Y-123086657D01*
X81186790Y-123027280D01*
X81255269Y-123008543D01*
X81323008Y-123029802D01*
X81350336Y-123054587D01*
X81420843Y-123140500D01*
X81421590Y-123141410D01*
X81581550Y-123272685D01*
X81764046Y-123370232D01*
X81962066Y-123430300D01*
X81962070Y-123430300D01*
X81962072Y-123430301D01*
X82047727Y-123438737D01*
X82116392Y-123445500D01*
X82116401Y-123445500D01*
X82719599Y-123445500D01*
X82719608Y-123445500D01*
X82807331Y-123436859D01*
X82873927Y-123430301D01*
X82873928Y-123430300D01*
X82873934Y-123430300D01*
X83071954Y-123370232D01*
X83254450Y-123272685D01*
X83414410Y-123141410D01*
X83414412Y-123141406D01*
X83414416Y-123141404D01*
X83416405Y-123139416D01*
X83417703Y-123138706D01*
X83419195Y-123137483D01*
X83419427Y-123137765D01*
X83478717Y-123105390D01*
X83549532Y-123110455D01*
X83606368Y-123153002D01*
X83631179Y-123219522D01*
X83631500Y-123228511D01*
X83631500Y-131562119D01*
X83668027Y-131745750D01*
X83668029Y-131745755D01*
X83739677Y-131918730D01*
X83843697Y-132074407D01*
X83843702Y-132074413D01*
X85390338Y-133621048D01*
X85424363Y-133683360D01*
X85426705Y-133698516D01*
X85428884Y-133722034D01*
X85489768Y-133936020D01*
X85489774Y-133936037D01*
X85588938Y-134135184D01*
X85588942Y-134135189D01*
X85723017Y-134312735D01*
X85887438Y-134462624D01*
X85887439Y-134462625D01*
X86076587Y-134579740D01*
X86076590Y-134579741D01*
X86076599Y-134579747D01*
X86166989Y-134614764D01*
X86284053Y-134660116D01*
X86284056Y-134660116D01*
X86284060Y-134660118D01*
X86502757Y-134701000D01*
X86502760Y-134701000D01*
X86725240Y-134701000D01*
X86725243Y-134701000D01*
X86943940Y-134660118D01*
X86943944Y-134660116D01*
X86943946Y-134660116D01*
X86997298Y-134639446D01*
X87151401Y-134579747D01*
X87340562Y-134462624D01*
X87504981Y-134312736D01*
X87639058Y-134135189D01*
X87639059Y-134135185D01*
X87639061Y-134135184D01*
X87738225Y-133936037D01*
X87738226Y-133936033D01*
X87738229Y-133936028D01*
X87799115Y-133722036D01*
X87819643Y-133500500D01*
X87799115Y-133278964D01*
X87738229Y-133064972D01*
X87738227Y-133064968D01*
X87738225Y-133064962D01*
X87639061Y-132865815D01*
X87639057Y-132865810D01*
X87504982Y-132688264D01*
X87340561Y-132538375D01*
X87340560Y-132538374D01*
X87151412Y-132421259D01*
X87151405Y-132421255D01*
X87151401Y-132421253D01*
X87151396Y-132421251D01*
X86943944Y-132340883D01*
X86943938Y-132340881D01*
X86803524Y-132314632D01*
X86740239Y-132282453D01*
X86737583Y-132279873D01*
X85944647Y-131486937D01*
X89015500Y-131486937D01*
X89015500Y-132195062D01*
X89055716Y-132500536D01*
X89055717Y-132500542D01*
X89055718Y-132500544D01*
X89135465Y-132798164D01*
X89253378Y-133082830D01*
X89253379Y-133082831D01*
X89253384Y-133082842D01*
X89407440Y-133349675D01*
X89595004Y-133594111D01*
X89595023Y-133594132D01*
X89812867Y-133811976D01*
X89812877Y-133811985D01*
X89812883Y-133811991D01*
X89812886Y-133811993D01*
X89812888Y-133811995D01*
X90057324Y-133999559D01*
X90324157Y-134153615D01*
X90324161Y-134153616D01*
X90324170Y-134153622D01*
X90608836Y-134271535D01*
X90906456Y-134351282D01*
X90906462Y-134351282D01*
X90906463Y-134351283D01*
X90941515Y-134355897D01*
X91211940Y-134391500D01*
X91211947Y-134391500D01*
X91520053Y-134391500D01*
X91520060Y-134391500D01*
X91825544Y-134351282D01*
X92123164Y-134271535D01*
X92407830Y-134153622D01*
X92674670Y-133999562D01*
X92674670Y-133999561D01*
X92674675Y-133999559D01*
X92816632Y-133890630D01*
X92919117Y-133811991D01*
X93136991Y-133594117D01*
X93215630Y-133491632D01*
X93324559Y-133349675D01*
X93478615Y-133082842D01*
X93478614Y-133082842D01*
X93478622Y-133082830D01*
X93596535Y-132798164D01*
X93676282Y-132500544D01*
X93716500Y-132195060D01*
X93716500Y-131486940D01*
X93716500Y-131486937D01*
X98815500Y-131486937D01*
X98815500Y-132195062D01*
X98855716Y-132500536D01*
X98855717Y-132500542D01*
X98855718Y-132500544D01*
X98935465Y-132798164D01*
X99053378Y-133082830D01*
X99053379Y-133082831D01*
X99053384Y-133082842D01*
X99207440Y-133349675D01*
X99395004Y-133594111D01*
X99395023Y-133594132D01*
X99612867Y-133811976D01*
X99612877Y-133811985D01*
X99612883Y-133811991D01*
X99612886Y-133811993D01*
X99612888Y-133811995D01*
X99857324Y-133999559D01*
X100124157Y-134153615D01*
X100124161Y-134153616D01*
X100124170Y-134153622D01*
X100408836Y-134271535D01*
X100706456Y-134351282D01*
X100706462Y-134351282D01*
X100706463Y-134351283D01*
X100741515Y-134355897D01*
X101011940Y-134391500D01*
X101011947Y-134391500D01*
X101320053Y-134391500D01*
X101320060Y-134391500D01*
X101625544Y-134351282D01*
X101923164Y-134271535D01*
X102207830Y-134153622D01*
X102474670Y-133999562D01*
X102474670Y-133999561D01*
X102474675Y-133999559D01*
X102616632Y-133890630D01*
X102719117Y-133811991D01*
X102936991Y-133594117D01*
X103015630Y-133491632D01*
X103124559Y-133349675D01*
X103278615Y-133082842D01*
X103278614Y-133082842D01*
X103278622Y-133082830D01*
X103396535Y-132798164D01*
X103476282Y-132500544D01*
X103516500Y-132195060D01*
X103516500Y-131486940D01*
X103476282Y-131181456D01*
X103396535Y-130883836D01*
X103278622Y-130599170D01*
X103278616Y-130599161D01*
X103278615Y-130599157D01*
X103124559Y-130332324D01*
X102936995Y-130087888D01*
X102936993Y-130087886D01*
X102936991Y-130087883D01*
X102936985Y-130087877D01*
X102936976Y-130087867D01*
X102719132Y-129870023D01*
X102719111Y-129870004D01*
X102474675Y-129682440D01*
X102207842Y-129528384D01*
X102207834Y-129528380D01*
X102207830Y-129528378D01*
X101923164Y-129410465D01*
X101625544Y-129330718D01*
X101625542Y-129330717D01*
X101625536Y-129330716D01*
X101320062Y-129290500D01*
X101320060Y-129290500D01*
X101011940Y-129290500D01*
X101011937Y-129290500D01*
X100706463Y-129330716D01*
X100408836Y-129410465D01*
X100124168Y-129528379D01*
X100124157Y-129528384D01*
X99857324Y-129682440D01*
X99612888Y-129870004D01*
X99612867Y-129870023D01*
X99395023Y-130087867D01*
X99395004Y-130087888D01*
X99207440Y-130332324D01*
X99053384Y-130599157D01*
X99053379Y-130599168D01*
X98935465Y-130883836D01*
X98855716Y-131181463D01*
X98815500Y-131486937D01*
X93716500Y-131486937D01*
X93676282Y-131181456D01*
X93596535Y-130883836D01*
X93478622Y-130599170D01*
X93478616Y-130599161D01*
X93478615Y-130599157D01*
X93324559Y-130332324D01*
X93136995Y-130087888D01*
X93136993Y-130087886D01*
X93136991Y-130087883D01*
X93136985Y-130087877D01*
X93136976Y-130087867D01*
X92919132Y-129870023D01*
X92919111Y-129870004D01*
X92674675Y-129682440D01*
X92407842Y-129528384D01*
X92407834Y-129528380D01*
X92407830Y-129528378D01*
X92123164Y-129410465D01*
X91825544Y-129330718D01*
X91825542Y-129330717D01*
X91825536Y-129330716D01*
X91520062Y-129290500D01*
X91520060Y-129290500D01*
X91211940Y-129290500D01*
X91211937Y-129290500D01*
X90906463Y-129330716D01*
X90608836Y-129410465D01*
X90324168Y-129528379D01*
X90324157Y-129528384D01*
X90057324Y-129682440D01*
X89812888Y-129870004D01*
X89812867Y-129870023D01*
X89595023Y-130087867D01*
X89595004Y-130087888D01*
X89407440Y-130332324D01*
X89253384Y-130599157D01*
X89253379Y-130599168D01*
X89135465Y-130883836D01*
X89055716Y-131181463D01*
X89015500Y-131486937D01*
X85944647Y-131486937D01*
X85569405Y-131111695D01*
X85535379Y-131049383D01*
X85532500Y-131022600D01*
X85532500Y-123605918D01*
X85552502Y-123537797D01*
X85606158Y-123491304D01*
X85676432Y-123481200D01*
X85741012Y-123510694D01*
X85743386Y-123512803D01*
X85887438Y-123644124D01*
X85887439Y-123644125D01*
X86076587Y-123761240D01*
X86076590Y-123761241D01*
X86076599Y-123761247D01*
X86166989Y-123796264D01*
X86284053Y-123841616D01*
X86284056Y-123841616D01*
X86284060Y-123841618D01*
X86502757Y-123882500D01*
X86502760Y-123882500D01*
X86725240Y-123882500D01*
X86725243Y-123882500D01*
X86943940Y-123841618D01*
X86943944Y-123841616D01*
X86943946Y-123841616D01*
X86997298Y-123820946D01*
X87151401Y-123761247D01*
X87178423Y-123744516D01*
X87921000Y-123744516D01*
X87931605Y-123848318D01*
X87931606Y-123848321D01*
X87987342Y-124016525D01*
X88080365Y-124167339D01*
X88080370Y-124167345D01*
X88205654Y-124292629D01*
X88205660Y-124292634D01*
X88356474Y-124385657D01*
X88524678Y-124441393D01*
X88524681Y-124441394D01*
X88628483Y-124451999D01*
X88628483Y-124452000D01*
X88900000Y-124452000D01*
X88900000Y-123698000D01*
X89408000Y-123698000D01*
X89408000Y-124452000D01*
X89679517Y-124452000D01*
X89679516Y-124451999D01*
X89783318Y-124441394D01*
X89783321Y-124441393D01*
X89951525Y-124385657D01*
X90102339Y-124292634D01*
X90124336Y-124270637D01*
X90186648Y-124236611D01*
X90257463Y-124241675D01*
X90279580Y-124252490D01*
X90388474Y-124319657D01*
X90556678Y-124375393D01*
X90556681Y-124375394D01*
X90660483Y-124385999D01*
X90660483Y-124386000D01*
X90932000Y-124386000D01*
X90932000Y-123632000D01*
X91440000Y-123632000D01*
X91440000Y-124386000D01*
X91711517Y-124386000D01*
X91711516Y-124385999D01*
X91815318Y-124375394D01*
X91815327Y-124375392D01*
X91941402Y-124333615D01*
X92012357Y-124331174D01*
X92073367Y-124367482D01*
X92105063Y-124431010D01*
X92103877Y-124481256D01*
X92079779Y-124586838D01*
X92079778Y-124586843D01*
X92060732Y-124841000D01*
X92079778Y-125095160D01*
X92136491Y-125343635D01*
X92229605Y-125580884D01*
X92229608Y-125580892D01*
X92357038Y-125801608D01*
X92515953Y-126000881D01*
X92612568Y-126090525D01*
X92702783Y-126174232D01*
X92702789Y-126174236D01*
X92913356Y-126317799D01*
X92913363Y-126317803D01*
X92913366Y-126317805D01*
X93023447Y-126370817D01*
X93142991Y-126428387D01*
X93143004Y-126428392D01*
X93386531Y-126503510D01*
X93386534Y-126503510D01*
X93386542Y-126503513D01*
X93638565Y-126541500D01*
X93638570Y-126541500D01*
X93893430Y-126541500D01*
X93893435Y-126541500D01*
X94145458Y-126503513D01*
X94145468Y-126503510D01*
X94388995Y-126428392D01*
X94388997Y-126428390D01*
X94389004Y-126428389D01*
X94618634Y-126317805D01*
X94829217Y-126174232D01*
X94930299Y-126080441D01*
X94993839Y-126048771D01*
X95064416Y-126056480D01*
X95101699Y-126080440D01*
X95202783Y-126174232D01*
X95202789Y-126174236D01*
X95413356Y-126317799D01*
X95413363Y-126317803D01*
X95413366Y-126317805D01*
X95523447Y-126370817D01*
X95642991Y-126428387D01*
X95643004Y-126428392D01*
X95886531Y-126503510D01*
X95886534Y-126503510D01*
X95886542Y-126503513D01*
X96138565Y-126541500D01*
X96138570Y-126541500D01*
X96393430Y-126541500D01*
X96393435Y-126541500D01*
X96645458Y-126503513D01*
X96645468Y-126503510D01*
X96888995Y-126428392D01*
X96888997Y-126428390D01*
X96889004Y-126428389D01*
X97118634Y-126317805D01*
X97146597Y-126298739D01*
X97214147Y-126276892D01*
X97282787Y-126295032D01*
X97306671Y-126313750D01*
X97363737Y-126370816D01*
X97363739Y-126370817D01*
X97516474Y-126466787D01*
X97516475Y-126466787D01*
X97516478Y-126466789D01*
X97686745Y-126526368D01*
X97821046Y-126541500D01*
X99710954Y-126541500D01*
X99845255Y-126526368D01*
X100015522Y-126466789D01*
X100168262Y-126370816D01*
X100295816Y-126243262D01*
X100391789Y-126090522D01*
X100451368Y-125920255D01*
X100466500Y-125785954D01*
X100466500Y-123896046D01*
X100451368Y-123761745D01*
X100391789Y-123591478D01*
X100391787Y-123591475D01*
X100391787Y-123591474D01*
X100295817Y-123438739D01*
X100295816Y-123438737D01*
X100168262Y-123311183D01*
X100168260Y-123311182D01*
X100015525Y-123215212D01*
X100015522Y-123215211D01*
X99943473Y-123190000D01*
X99845255Y-123155632D01*
X99710954Y-123140500D01*
X97821046Y-123140500D01*
X97686745Y-123155632D01*
X97686742Y-123155632D01*
X97686742Y-123155633D01*
X97516477Y-123215211D01*
X97516474Y-123215212D01*
X97363740Y-123311181D01*
X97306671Y-123368250D01*
X97244358Y-123402275D01*
X97173543Y-123397209D01*
X97146598Y-123383260D01*
X97118636Y-123364196D01*
X97118628Y-123364191D01*
X96889013Y-123253614D01*
X96888995Y-123253607D01*
X96645468Y-123178489D01*
X96645458Y-123178487D01*
X96393435Y-123140500D01*
X96138565Y-123140500D01*
X95928545Y-123172155D01*
X95886541Y-123178487D01*
X95886531Y-123178489D01*
X95643004Y-123253607D01*
X95642991Y-123253612D01*
X95413363Y-123364196D01*
X95413356Y-123364200D01*
X95202783Y-123507767D01*
X95202781Y-123507768D01*
X95101701Y-123601557D01*
X95038160Y-123633228D01*
X94967583Y-123625518D01*
X94930299Y-123601557D01*
X94829218Y-123507768D01*
X94829216Y-123507767D01*
X94618643Y-123364200D01*
X94618636Y-123364196D01*
X94389008Y-123253612D01*
X94388995Y-123253607D01*
X94145468Y-123178489D01*
X94145458Y-123178487D01*
X93893435Y-123140500D01*
X93638565Y-123140500D01*
X93428545Y-123172155D01*
X93386541Y-123178487D01*
X93386531Y-123178489D01*
X93143004Y-123253607D01*
X93142991Y-123253612D01*
X92913363Y-123364196D01*
X92913356Y-123364200D01*
X92702789Y-123507763D01*
X92702777Y-123507773D01*
X92580114Y-123621587D01*
X92516573Y-123653258D01*
X92445997Y-123645548D01*
X92425758Y-123632000D01*
X91440000Y-123632000D01*
X90932000Y-123632000D01*
X90429999Y-123632000D01*
X90400904Y-123661095D01*
X90338592Y-123695121D01*
X90311809Y-123698000D01*
X89408000Y-123698000D01*
X88900000Y-123698000D01*
X87921000Y-123698000D01*
X87921000Y-123744516D01*
X87178423Y-123744516D01*
X87340562Y-123644124D01*
X87504981Y-123494236D01*
X87639058Y-123316689D01*
X87696836Y-123200654D01*
X87745106Y-123148591D01*
X87813860Y-123130889D01*
X87881270Y-123153168D01*
X87898722Y-123167723D01*
X87920999Y-123190000D01*
X89910001Y-123190000D01*
X89939096Y-123160905D01*
X90001408Y-123126879D01*
X90028191Y-123124000D01*
X92419000Y-123124000D01*
X92419000Y-123077483D01*
X92408394Y-122973681D01*
X92408393Y-122973678D01*
X92352657Y-122805474D01*
X92293280Y-122709209D01*
X92274543Y-122640729D01*
X92295802Y-122572991D01*
X92320586Y-122545664D01*
X92407410Y-122474410D01*
X92538685Y-122314450D01*
X92636232Y-122131954D01*
X92696300Y-121933934D01*
X92711500Y-121779608D01*
X92711500Y-121176392D01*
X92698658Y-121046002D01*
X92696301Y-121022072D01*
X92696300Y-121022070D01*
X92696300Y-121022066D01*
X92636232Y-120824046D01*
X92538685Y-120641550D01*
X92407410Y-120481590D01*
X92247450Y-120350315D01*
X92247448Y-120350314D01*
X92247447Y-120350313D01*
X92203102Y-120326609D01*
X92152455Y-120276856D01*
X92136500Y-120215488D01*
X92136500Y-120048387D01*
X92136499Y-120048380D01*
X92131825Y-120024881D01*
X92099974Y-119864756D01*
X92099973Y-119864750D01*
X92099624Y-119863908D01*
X92028322Y-119691769D01*
X91924302Y-119536092D01*
X91791908Y-119403698D01*
X90123661Y-117735451D01*
X90089635Y-117673139D01*
X90087294Y-117657990D01*
X90085115Y-117634464D01*
X90024229Y-117420472D01*
X90024227Y-117420468D01*
X90024225Y-117420462D01*
X89925061Y-117221315D01*
X89925057Y-117221310D01*
X89909014Y-117200066D01*
X89876677Y-117157244D01*
X89790982Y-117043764D01*
X89626561Y-116893875D01*
X89626560Y-116893874D01*
X89437412Y-116776759D01*
X89437405Y-116776755D01*
X89437401Y-116776753D01*
X89437396Y-116776751D01*
X89229944Y-116696383D01*
X89229938Y-116696381D01*
X89089524Y-116670132D01*
X89026239Y-116637953D01*
X89023583Y-116635373D01*
X87727913Y-115339702D01*
X87727907Y-115339697D01*
X87617258Y-115265764D01*
X87572230Y-115235677D01*
X87470901Y-115193705D01*
X87399256Y-115164029D01*
X87399251Y-115164027D01*
X87280786Y-115140463D01*
X87280784Y-115140462D01*
X87215619Y-115127500D01*
X87215617Y-115127500D01*
X87215616Y-115127500D01*
X87180900Y-115127500D01*
X87112779Y-115107498D01*
X87066286Y-115053842D01*
X87056182Y-114983568D01*
X87085676Y-114918988D01*
X87091792Y-114912417D01*
X87307669Y-114696540D01*
X96343500Y-114696540D01*
X96343500Y-114696543D01*
X96343500Y-114919457D01*
X96347033Y-114946291D01*
X96372594Y-115140456D01*
X96372596Y-115140462D01*
X96372596Y-115140463D01*
X96430290Y-115355781D01*
X96515595Y-115561726D01*
X96515596Y-115561727D01*
X96515601Y-115561737D01*
X96627049Y-115754770D01*
X96762753Y-115931624D01*
X96762762Y-115931634D01*
X96920365Y-116089237D01*
X96920375Y-116089246D01*
X96920376Y-116089247D01*
X97097226Y-116224948D01*
X97290274Y-116336405D01*
X97496219Y-116421710D01*
X97711537Y-116479404D01*
X97711541Y-116479404D01*
X97711543Y-116479405D01*
X97768501Y-116486903D01*
X97932543Y-116508500D01*
X97932550Y-116508500D01*
X98155450Y-116508500D01*
X98155457Y-116508500D01*
X98355191Y-116482204D01*
X98376456Y-116479405D01*
X98376456Y-116479404D01*
X98376463Y-116479404D01*
X98591781Y-116421710D01*
X98797726Y-116336405D01*
X98990774Y-116224948D01*
X99167624Y-116089247D01*
X99325247Y-115931624D01*
X99460948Y-115754774D01*
X99572405Y-115561726D01*
X99657710Y-115355781D01*
X99715404Y-115140463D01*
X99744500Y-114919457D01*
X99744500Y-114696543D01*
X99721007Y-114518098D01*
X99715405Y-114475543D01*
X99715404Y-114475541D01*
X99715404Y-114475537D01*
X99657710Y-114260219D01*
X99572405Y-114054274D01*
X99460948Y-113861226D01*
X99325247Y-113684376D01*
X99325246Y-113684375D01*
X99325237Y-113684365D01*
X99167634Y-113526762D01*
X99167624Y-113526753D01*
X99068658Y-113450814D01*
X98990774Y-113391052D01*
X98990773Y-113391051D01*
X98990770Y-113391049D01*
X98797737Y-113279601D01*
X98797732Y-113279598D01*
X98797726Y-113279595D01*
X98591781Y-113194290D01*
X98376463Y-113136596D01*
X98376456Y-113136594D01*
X98155459Y-113107500D01*
X98155457Y-113107500D01*
X97932543Y-113107500D01*
X97932540Y-113107500D01*
X97711543Y-113136594D01*
X97496219Y-113194290D01*
X97290272Y-113279596D01*
X97290262Y-113279601D01*
X97097229Y-113391049D01*
X96920375Y-113526753D01*
X96920365Y-113526762D01*
X96762762Y-113684365D01*
X96762753Y-113684375D01*
X96627049Y-113861229D01*
X96515601Y-114054262D01*
X96515596Y-114054272D01*
X96430290Y-114260219D01*
X96372594Y-114475543D01*
X96343500Y-114696540D01*
X87307669Y-114696540D01*
X88372509Y-113631699D01*
X88416091Y-113603304D01*
X88421393Y-113601250D01*
X88421392Y-113601250D01*
X88421401Y-113601247D01*
X88598856Y-113491371D01*
X88665186Y-113472500D01*
X88863360Y-113472500D01*
X88863361Y-113472500D01*
X88972384Y-113450814D01*
X89046995Y-113435973D01*
X89118645Y-113406294D01*
X89219974Y-113364323D01*
X89375652Y-113260302D01*
X90573301Y-112062653D01*
X90573360Y-112062564D01*
X90581352Y-112050606D01*
X90677319Y-111906979D01*
X90677322Y-111906975D01*
X90748973Y-111733995D01*
X90772781Y-111614302D01*
X90785500Y-111550361D01*
X90785500Y-111363128D01*
X90785500Y-109888384D01*
X90748973Y-109704749D01*
X90701732Y-109590700D01*
X90677323Y-109531770D01*
X90656734Y-109500957D01*
X90635520Y-109433205D01*
X90635500Y-109430956D01*
X90635500Y-107766870D01*
X90635500Y-107766862D01*
X90625417Y-107653448D01*
X90572237Y-107467594D01*
X90499818Y-107328955D01*
X90485500Y-107270619D01*
X90485500Y-105848383D01*
X90485499Y-105848380D01*
X90448973Y-105664748D01*
X90377322Y-105491768D01*
X90273302Y-105336091D01*
X90140908Y-105203697D01*
X90126477Y-105189266D01*
X90092451Y-105126954D01*
X90097516Y-105056139D01*
X90126477Y-105011075D01*
X90209052Y-104928500D01*
X90293681Y-104785401D01*
X90340065Y-104625749D01*
X90343000Y-104588456D01*
X90343000Y-103951000D01*
X89491500Y-103951000D01*
X89423379Y-103930998D01*
X89376886Y-103877342D01*
X89365500Y-103825000D01*
X89365500Y-103443000D01*
X89789000Y-103443000D01*
X90342999Y-103443000D01*
X90342999Y-102805543D01*
X90340065Y-102768249D01*
X90293681Y-102608599D01*
X90209051Y-102465498D01*
X90209050Y-102465496D01*
X90091503Y-102347949D01*
X90091501Y-102347948D01*
X89948401Y-102263318D01*
X89789000Y-102217007D01*
X89789000Y-103443000D01*
X89365500Y-103443000D01*
X89365500Y-102816870D01*
X89365500Y-102816862D01*
X89355417Y-102703448D01*
X89302237Y-102517594D01*
X89302236Y-102517592D01*
X89302236Y-102517591D01*
X89295317Y-102504345D01*
X89281000Y-102446011D01*
X89281000Y-102217006D01*
X89280999Y-102217006D01*
X89220703Y-102234524D01*
X89149707Y-102234321D01*
X89096272Y-102199764D01*
X89095090Y-102200947D01*
X89090577Y-102196434D01*
X88940751Y-102074265D01*
X88769407Y-101984763D01*
X88722308Y-101971286D01*
X88676837Y-101958275D01*
X88616848Y-101920306D01*
X88586909Y-101855930D01*
X88585500Y-101837137D01*
X88585500Y-100844401D01*
X88585500Y-100844392D01*
X88570300Y-100690066D01*
X88510232Y-100492046D01*
X88412685Y-100309550D01*
X88281410Y-100149590D01*
X88121450Y-100018315D01*
X88121448Y-100018314D01*
X88121447Y-100018313D01*
X87938954Y-99920768D01*
X87907923Y-99911355D01*
X87740934Y-99860700D01*
X87740933Y-99860699D01*
X87740927Y-99860698D01*
X87586614Y-99845500D01*
X87586608Y-99845500D01*
X86958392Y-99845500D01*
X86958385Y-99845500D01*
X86804072Y-99860698D01*
X86606045Y-99920768D01*
X86419396Y-100020535D01*
X86349890Y-100035007D01*
X86300604Y-100020535D01*
X86113954Y-99920768D01*
X86082923Y-99911355D01*
X85915934Y-99860700D01*
X85915933Y-99860699D01*
X85915927Y-99860698D01*
X85761614Y-99845500D01*
X85761608Y-99845500D01*
X85133392Y-99845500D01*
X85133385Y-99845500D01*
X84979072Y-99860698D01*
X84812075Y-99911355D01*
X84741081Y-99911988D01*
X84681015Y-99874138D01*
X84650947Y-99809823D01*
X84649500Y-99790780D01*
X84649500Y-99586401D01*
X84649500Y-99586392D01*
X84634300Y-99432066D01*
X84574232Y-99234046D01*
X84476685Y-99051550D01*
X84345410Y-98891590D01*
X84185450Y-98760315D01*
X84185448Y-98760314D01*
X84185447Y-98760313D01*
X84002954Y-98662768D01*
X83804927Y-98602698D01*
X83650614Y-98587500D01*
X83650608Y-98587500D01*
X82597392Y-98587500D01*
X82597385Y-98587500D01*
X82443072Y-98602698D01*
X82245046Y-98662767D01*
X82212001Y-98680430D01*
X82142495Y-98694899D01*
X82076199Y-98669494D01*
X82072677Y-98666707D01*
X82062452Y-98658316D01*
X82062453Y-98658316D01*
X81879954Y-98560768D01*
X81681934Y-98500700D01*
X81681933Y-98500699D01*
X81681927Y-98500698D01*
X81527614Y-98485500D01*
X81527608Y-98485500D01*
X80524392Y-98485500D01*
X80524385Y-98485500D01*
X80370072Y-98500698D01*
X80172045Y-98560768D01*
X79989552Y-98658313D01*
X79829588Y-98789591D01*
X79819461Y-98801932D01*
X79760785Y-98841902D01*
X79722061Y-98848000D01*
X79461747Y-98848000D01*
X79393626Y-98827998D01*
X79365936Y-98803831D01*
X79353773Y-98789590D01*
X79312608Y-98741392D01*
X79201807Y-98646758D01*
X79162999Y-98587308D01*
X79162493Y-98516313D01*
X79200449Y-98456315D01*
X79208130Y-98450080D01*
X79317904Y-98367904D01*
X79405444Y-98250965D01*
X79405444Y-98250964D01*
X79456494Y-98114093D01*
X79462999Y-98053597D01*
X79463000Y-98053585D01*
X79463000Y-97536000D01*
X78599195Y-97536000D01*
X78646674Y-97453764D01*
X78677000Y-97340585D01*
X78677000Y-97223415D01*
X78646674Y-97110236D01*
X78599195Y-97028000D01*
X79463000Y-97028000D01*
X79463000Y-96510414D01*
X79462999Y-96510402D01*
X79456494Y-96449906D01*
X79405444Y-96313035D01*
X79405444Y-96313034D01*
X79317904Y-96196095D01*
X79200965Y-96108555D01*
X79064093Y-96057505D01*
X79003597Y-96051000D01*
X78486000Y-96051000D01*
X78486000Y-96914805D01*
X78403764Y-96867326D01*
X78290585Y-96837000D01*
X78173415Y-96837000D01*
X78060236Y-96867326D01*
X77978000Y-96914805D01*
X77978000Y-96051000D01*
X77460402Y-96051000D01*
X77399906Y-96057505D01*
X77263035Y-96108555D01*
X77263034Y-96108555D01*
X77146095Y-96196095D01*
X77058555Y-96313034D01*
X77058555Y-96313035D01*
X77007505Y-96449906D01*
X77001000Y-96510402D01*
X77001000Y-97028000D01*
X77864805Y-97028000D01*
X77817326Y-97110236D01*
X77787000Y-97223415D01*
X77787000Y-97340585D01*
X77817326Y-97453764D01*
X77864805Y-97536000D01*
X77001000Y-97536000D01*
X77001000Y-98053597D01*
X77007505Y-98114093D01*
X77058555Y-98250964D01*
X77058555Y-98250965D01*
X77146095Y-98367904D01*
X77255869Y-98450080D01*
X77298416Y-98506916D01*
X77303480Y-98577732D01*
X77269455Y-98640044D01*
X77262191Y-98646758D01*
X77151395Y-98741388D01*
X76995650Y-98923741D01*
X76870353Y-99128208D01*
X76778584Y-99349758D01*
X76722604Y-99582935D01*
X76703789Y-99822000D01*
X76722604Y-100061065D01*
X76740289Y-100134730D01*
X76778584Y-100294241D01*
X76778585Y-100294243D01*
X76870354Y-100515793D01*
X76995651Y-100720260D01*
X77151392Y-100902608D01*
X77204695Y-100948133D01*
X77243504Y-101007584D01*
X77244010Y-101078578D01*
X77216000Y-101126174D01*
X77216000Y-103595000D01*
X77262517Y-103595000D01*
X77262516Y-103594999D01*
X77366318Y-103584394D01*
X77366321Y-103584393D01*
X77534525Y-103528657D01*
X77630790Y-103469280D01*
X77699269Y-103450543D01*
X77767008Y-103471802D01*
X77794336Y-103496587D01*
X77832263Y-103542801D01*
X77860017Y-103608148D01*
X77848035Y-103678127D01*
X77823959Y-103711830D01*
X72921702Y-108614086D01*
X72921697Y-108614092D01*
X72817677Y-108769769D01*
X72778683Y-108863911D01*
X72746027Y-108942750D01*
X72741403Y-108966000D01*
X72710627Y-109120722D01*
X72710624Y-109120736D01*
X72709500Y-109126383D01*
X72709500Y-115001500D01*
X72689498Y-115069621D01*
X72635842Y-115116114D01*
X72583500Y-115127500D01*
X64234880Y-115127500D01*
X64169714Y-115140463D01*
X64051248Y-115164027D01*
X64051243Y-115164029D01*
X64015212Y-115178954D01*
X63878269Y-115235677D01*
X63722591Y-115339698D01*
X63722585Y-115339703D01*
X60968914Y-118093374D01*
X60906602Y-118127400D01*
X60902972Y-118128133D01*
X60762562Y-118154381D01*
X60762555Y-118154383D01*
X60555103Y-118234751D01*
X60555087Y-118234759D01*
X60365939Y-118351874D01*
X60365932Y-118351879D01*
X60324985Y-118389207D01*
X60261168Y-118420317D01*
X60190661Y-118411986D01*
X60154288Y-118387402D01*
X60154195Y-118387517D01*
X60152970Y-118386512D01*
X60150998Y-118385179D01*
X60149414Y-118383595D01*
X60149410Y-118383590D01*
X59989450Y-118252315D01*
X59989448Y-118252314D01*
X59989447Y-118252313D01*
X59806954Y-118154768D01*
X59608927Y-118094698D01*
X59454614Y-118079500D01*
X59454608Y-118079500D01*
X58401392Y-118079500D01*
X58401385Y-118079500D01*
X58247072Y-118094698D01*
X58049045Y-118154768D01*
X57866552Y-118252313D01*
X57706590Y-118383590D01*
X57575313Y-118543552D01*
X57477768Y-118726045D01*
X57417698Y-118924072D01*
X57402500Y-119078385D01*
X48285500Y-119078385D01*
X48285500Y-114696540D01*
X52655500Y-114696540D01*
X52655500Y-114696543D01*
X52655500Y-114919457D01*
X52659033Y-114946291D01*
X52684594Y-115140456D01*
X52684596Y-115140462D01*
X52684596Y-115140463D01*
X52742290Y-115355781D01*
X52827595Y-115561726D01*
X52827596Y-115561727D01*
X52827601Y-115561737D01*
X52939049Y-115754770D01*
X53074753Y-115931624D01*
X53074762Y-115931634D01*
X53232365Y-116089237D01*
X53232375Y-116089246D01*
X53232376Y-116089247D01*
X53409226Y-116224948D01*
X53602274Y-116336405D01*
X53808219Y-116421710D01*
X54023537Y-116479404D01*
X54023541Y-116479404D01*
X54023543Y-116479405D01*
X54080501Y-116486903D01*
X54244543Y-116508500D01*
X54244550Y-116508500D01*
X54467450Y-116508500D01*
X54467457Y-116508500D01*
X54667191Y-116482204D01*
X54688456Y-116479405D01*
X54688456Y-116479404D01*
X54688463Y-116479404D01*
X54903781Y-116421710D01*
X55109726Y-116336405D01*
X55302774Y-116224948D01*
X55479624Y-116089247D01*
X55637247Y-115931624D01*
X55772948Y-115754774D01*
X55884405Y-115561726D01*
X55969710Y-115355781D01*
X56027404Y-115140463D01*
X56056500Y-114919457D01*
X56056500Y-114696543D01*
X56033007Y-114518098D01*
X56027405Y-114475543D01*
X56027404Y-114475541D01*
X56027404Y-114475537D01*
X55969710Y-114260219D01*
X55884405Y-114054274D01*
X55772948Y-113861226D01*
X55637247Y-113684376D01*
X55637246Y-113684375D01*
X55637237Y-113684365D01*
X55479634Y-113526762D01*
X55479624Y-113526753D01*
X55380658Y-113450814D01*
X55302774Y-113391052D01*
X55302773Y-113391051D01*
X55302770Y-113391049D01*
X55109737Y-113279601D01*
X55109732Y-113279598D01*
X55109726Y-113279595D01*
X54903781Y-113194290D01*
X54688463Y-113136596D01*
X54688456Y-113136594D01*
X54467459Y-113107500D01*
X54467457Y-113107500D01*
X54244543Y-113107500D01*
X54244540Y-113107500D01*
X54023543Y-113136594D01*
X53808219Y-113194290D01*
X53602272Y-113279596D01*
X53602262Y-113279601D01*
X53409229Y-113391049D01*
X53232375Y-113526753D01*
X53232365Y-113526762D01*
X53074762Y-113684365D01*
X53074753Y-113684375D01*
X52939049Y-113861229D01*
X52827601Y-114054262D01*
X52827596Y-114054272D01*
X52742290Y-114260219D01*
X52684594Y-114475543D01*
X52655500Y-114696540D01*
X48285500Y-114696540D01*
X48285500Y-111822752D01*
X48305502Y-111754631D01*
X48322405Y-111733657D01*
X57168546Y-102887516D01*
X75954000Y-102887516D01*
X75964605Y-102991318D01*
X75964606Y-102991321D01*
X76020342Y-103159525D01*
X76113365Y-103310339D01*
X76113370Y-103310345D01*
X76238654Y-103435629D01*
X76238660Y-103435634D01*
X76389474Y-103528657D01*
X76557678Y-103584393D01*
X76557681Y-103584394D01*
X76661483Y-103594999D01*
X76661483Y-103595000D01*
X76708000Y-103595000D01*
X76708000Y-102616000D01*
X75954000Y-102616000D01*
X75954000Y-102887516D01*
X57168546Y-102887516D01*
X58219579Y-101836483D01*
X75954000Y-101836483D01*
X75954000Y-102108000D01*
X76708000Y-102108000D01*
X76708000Y-101129000D01*
X76661483Y-101129000D01*
X76557681Y-101139605D01*
X76557678Y-101139606D01*
X76389474Y-101195342D01*
X76238660Y-101288365D01*
X76238654Y-101288370D01*
X76113370Y-101413654D01*
X76113365Y-101413660D01*
X76020342Y-101564474D01*
X75964606Y-101732678D01*
X75964605Y-101732681D01*
X75954000Y-101836483D01*
X58219579Y-101836483D01*
X68553657Y-91502405D01*
X68615969Y-91468379D01*
X68642752Y-91465500D01*
X83757247Y-91465500D01*
X83825368Y-91485502D01*
G37*
G04 #@! TD.AperFunction*
G04 #@! TA.AperFunction,Conductor*
G36*
X65032495Y-143783685D02*
G01*
X65043917Y-143792889D01*
X65044185Y-143792552D01*
X65049845Y-143797028D01*
X65049847Y-143797029D01*
X65049848Y-143797030D01*
X65200762Y-143890115D01*
X65296505Y-143921840D01*
X65353948Y-143961610D01*
X65380772Y-144026126D01*
X65381500Y-144039545D01*
X65381500Y-144097501D01*
X65361815Y-144164540D01*
X65309011Y-144210295D01*
X65239853Y-144220239D01*
X65188610Y-144200604D01*
X65139998Y-144168123D01*
X65139991Y-144168119D01*
X64967103Y-144096507D01*
X64967100Y-144096506D01*
X64940000Y-144091115D01*
X64940000Y-144843011D01*
X64930060Y-144825795D01*
X64874205Y-144769940D01*
X64805796Y-144730444D01*
X64729496Y-144710000D01*
X64650504Y-144710000D01*
X64574204Y-144730444D01*
X64505795Y-144769940D01*
X64449940Y-144825795D01*
X64440000Y-144843011D01*
X64440000Y-144091116D01*
X64439999Y-144091115D01*
X64412899Y-144096506D01*
X64412896Y-144096507D01*
X64240008Y-144168119D01*
X64239999Y-144168124D01*
X64084410Y-144272086D01*
X64084406Y-144272089D01*
X63952089Y-144404406D01*
X63952086Y-144404410D01*
X63848124Y-144559999D01*
X63848119Y-144560008D01*
X63776508Y-144732894D01*
X63776506Y-144732902D01*
X63740000Y-144916428D01*
X63740000Y-145510000D01*
X64390000Y-145510000D01*
X64390000Y-146010000D01*
X63740000Y-146010000D01*
X63740000Y-146603571D01*
X63776506Y-146787097D01*
X63776508Y-146787105D01*
X63848119Y-146959991D01*
X63848124Y-146960000D01*
X63952086Y-147115589D01*
X63952089Y-147115593D01*
X64084406Y-147247910D01*
X64084410Y-147247913D01*
X64239999Y-147351875D01*
X64240012Y-147351882D01*
X64412889Y-147423489D01*
X64412896Y-147423491D01*
X64440000Y-147428882D01*
X64440000Y-146676988D01*
X64449940Y-146694205D01*
X64505795Y-146750060D01*
X64574204Y-146789556D01*
X64650504Y-146810000D01*
X64729496Y-146810000D01*
X64805796Y-146789556D01*
X64874205Y-146750060D01*
X64930060Y-146694205D01*
X64940000Y-146676988D01*
X64940000Y-147428881D01*
X64967103Y-147423491D01*
X64967110Y-147423489D01*
X65139987Y-147351882D01*
X65140000Y-147351875D01*
X65295589Y-147247913D01*
X65295593Y-147247910D01*
X65427911Y-147115592D01*
X65533799Y-146957119D01*
X65587412Y-146912313D01*
X65656736Y-146903606D01*
X65687336Y-146912729D01*
X65711745Y-146923597D01*
X65773242Y-146950978D01*
X65773248Y-146950980D01*
X65949768Y-146988500D01*
X65949769Y-146988500D01*
X66130231Y-146988500D01*
X66130232Y-146988500D01*
X66306752Y-146950980D01*
X66306754Y-146950978D01*
X66306757Y-146950978D01*
X66414564Y-146902979D01*
X66483814Y-146893694D01*
X66515436Y-146902979D01*
X66623242Y-146950978D01*
X66623248Y-146950980D01*
X66799768Y-146988500D01*
X66799769Y-146988500D01*
X66980231Y-146988500D01*
X66980232Y-146988500D01*
X67156752Y-146950980D01*
X67156754Y-146950978D01*
X67156757Y-146950978D01*
X67264564Y-146902979D01*
X67333814Y-146893694D01*
X67365436Y-146902979D01*
X67473242Y-146950978D01*
X67473248Y-146950980D01*
X67649768Y-146988500D01*
X67649769Y-146988500D01*
X67830231Y-146988500D01*
X67830232Y-146988500D01*
X68006752Y-146950980D01*
X68006754Y-146950978D01*
X68006757Y-146950978D01*
X68114564Y-146902979D01*
X68183814Y-146893694D01*
X68215436Y-146902979D01*
X68323242Y-146950978D01*
X68323248Y-146950980D01*
X68499768Y-146988500D01*
X68499769Y-146988500D01*
X68680231Y-146988500D01*
X68680232Y-146988500D01*
X68856752Y-146950980D01*
X68856754Y-146950978D01*
X68856757Y-146950978D01*
X68964564Y-146902979D01*
X69033814Y-146893694D01*
X69065436Y-146902979D01*
X69167286Y-146948326D01*
X69220523Y-146993576D01*
X69240844Y-147060425D01*
X69221799Y-147127649D01*
X69204534Y-147149283D01*
X69195471Y-147158345D01*
X69102386Y-147309259D01*
X69102384Y-147309264D01*
X69046613Y-147477572D01*
X69036000Y-147581447D01*
X69036000Y-148582537D01*
X69036001Y-148582553D01*
X69042527Y-148646428D01*
X69046613Y-148686426D01*
X69102385Y-148854738D01*
X69195470Y-149005652D01*
X69320848Y-149131030D01*
X69471762Y-149224115D01*
X69640074Y-149279887D01*
X69743955Y-149290500D01*
X70370044Y-149290499D01*
X70473926Y-149279887D01*
X70642238Y-149224115D01*
X70793152Y-149131030D01*
X70881819Y-149042363D01*
X70943142Y-149008878D01*
X71012834Y-149013862D01*
X71057181Y-149042363D01*
X71145848Y-149131030D01*
X71296762Y-149224115D01*
X71465074Y-149279887D01*
X71568955Y-149290500D01*
X72195044Y-149290499D01*
X72253399Y-149284537D01*
X72322089Y-149297306D01*
X72372974Y-149345186D01*
X72390000Y-149407895D01*
X72390000Y-149633571D01*
X72426506Y-149817097D01*
X72426508Y-149817105D01*
X72498119Y-149989991D01*
X72498124Y-149990000D01*
X72602086Y-150145589D01*
X72602089Y-150145593D01*
X72734406Y-150277910D01*
X72734410Y-150277913D01*
X72889999Y-150381875D01*
X72890012Y-150381882D01*
X73062889Y-150453489D01*
X73062896Y-150453491D01*
X73090000Y-150458882D01*
X73090000Y-149706988D01*
X73099940Y-149724205D01*
X73155795Y-149780060D01*
X73224204Y-149819556D01*
X73300504Y-149840000D01*
X73379496Y-149840000D01*
X73455796Y-149819556D01*
X73524205Y-149780060D01*
X73580060Y-149724205D01*
X73590000Y-149706988D01*
X73590000Y-150458881D01*
X73617103Y-150453491D01*
X73617110Y-150453489D01*
X73789987Y-150381882D01*
X73790000Y-150381875D01*
X73945589Y-150277913D01*
X73945593Y-150277910D01*
X74077910Y-150145593D01*
X74077914Y-150145588D01*
X74097397Y-150116430D01*
X74151008Y-150071624D01*
X74220333Y-150062915D01*
X74265597Y-150079780D01*
X74414875Y-150171856D01*
X74414880Y-150171858D01*
X74581302Y-150227005D01*
X74581309Y-150227006D01*
X74684019Y-150237499D01*
X74933999Y-150237499D01*
X74934000Y-150237498D01*
X74934000Y-149475000D01*
X74065000Y-149475000D01*
X73997961Y-149455315D01*
X73952206Y-149402511D01*
X73951843Y-149400843D01*
X73941000Y-149390000D01*
X73640000Y-149390000D01*
X73640000Y-148890000D01*
X74209000Y-148890000D01*
X74276039Y-148909685D01*
X74321794Y-148962489D01*
X74322156Y-148964156D01*
X74333000Y-148975000D01*
X75002560Y-148975000D01*
X75028341Y-148977710D01*
X75088513Y-148990500D01*
X75279484Y-148990500D01*
X75279487Y-148990500D01*
X75284219Y-148989494D01*
X75353884Y-148994809D01*
X75409619Y-149036945D01*
X75433725Y-149102525D01*
X75434000Y-149110784D01*
X75434000Y-150237499D01*
X75683972Y-150237499D01*
X75683986Y-150237498D01*
X75786697Y-150227005D01*
X75953119Y-150171858D01*
X75953126Y-150171855D01*
X76010902Y-150136218D01*
X76078294Y-150117777D01*
X76144958Y-150138699D01*
X76189728Y-150192340D01*
X76200000Y-150241756D01*
X76200000Y-153520500D01*
X76180315Y-153587539D01*
X76127511Y-153633294D01*
X76076000Y-153644500D01*
X62354000Y-153644500D01*
X62286961Y-153624815D01*
X62241206Y-153572011D01*
X62230000Y-153520500D01*
X62230000Y-148646428D01*
X63740000Y-148646428D01*
X63740000Y-148890000D01*
X64390000Y-148890000D01*
X64390000Y-149390000D01*
X63740000Y-149390000D01*
X63740000Y-149633571D01*
X63776506Y-149817097D01*
X63776508Y-149817105D01*
X63848119Y-149989991D01*
X63848124Y-149990000D01*
X63952086Y-150145589D01*
X63952089Y-150145593D01*
X64084406Y-150277910D01*
X64084410Y-150277913D01*
X64239999Y-150381875D01*
X64240012Y-150381882D01*
X64412889Y-150453489D01*
X64412896Y-150453491D01*
X64440000Y-150458882D01*
X64440000Y-149706988D01*
X64449940Y-149724205D01*
X64505795Y-149780060D01*
X64574204Y-149819556D01*
X64650504Y-149840000D01*
X64729496Y-149840000D01*
X64805796Y-149819556D01*
X64874205Y-149780060D01*
X64930060Y-149724205D01*
X64940000Y-149706988D01*
X64940000Y-150458881D01*
X64967103Y-150453491D01*
X64967110Y-150453489D01*
X65139987Y-150381882D01*
X65140000Y-150381875D01*
X65295589Y-150277913D01*
X65295593Y-150277910D01*
X65427910Y-150145593D01*
X65427913Y-150145589D01*
X65531875Y-149990000D01*
X65531880Y-149989991D01*
X65603491Y-149817105D01*
X65603493Y-149817097D01*
X65639999Y-149633571D01*
X65640000Y-149633569D01*
X65640000Y-149390000D01*
X64990000Y-149390000D01*
X64990000Y-148890000D01*
X65640000Y-148890000D01*
X65640000Y-148646430D01*
X65639999Y-148646428D01*
X65603493Y-148462902D01*
X65603491Y-148462894D01*
X65531880Y-148290008D01*
X65531875Y-148289999D01*
X65427913Y-148134410D01*
X65427910Y-148134406D01*
X65295593Y-148002089D01*
X65295589Y-148002086D01*
X65140000Y-147898124D01*
X65139991Y-147898119D01*
X64967103Y-147826507D01*
X64967100Y-147826506D01*
X64940000Y-147821115D01*
X64940000Y-148573011D01*
X64930060Y-148555795D01*
X64874205Y-148499940D01*
X64805796Y-148460444D01*
X64729496Y-148440000D01*
X64650504Y-148440000D01*
X64574204Y-148460444D01*
X64505795Y-148499940D01*
X64449940Y-148555795D01*
X64440000Y-148573011D01*
X64440000Y-147821116D01*
X64439999Y-147821115D01*
X64412899Y-147826506D01*
X64412896Y-147826507D01*
X64240008Y-147898119D01*
X64239999Y-147898124D01*
X64084410Y-148002086D01*
X64084406Y-148002089D01*
X63952089Y-148134406D01*
X63952086Y-148134410D01*
X63848124Y-148289999D01*
X63848119Y-148290008D01*
X63776508Y-148462894D01*
X63776506Y-148462902D01*
X63740000Y-148646428D01*
X62230000Y-148646428D01*
X62230000Y-143888000D01*
X62249685Y-143820961D01*
X62302489Y-143775206D01*
X62354000Y-143764000D01*
X64965456Y-143764000D01*
X65032495Y-143783685D01*
G37*
G04 #@! TD.AperFunction*
G04 #@! TA.AperFunction,Conductor*
G36*
X73590000Y-147428881D02*
G01*
X73617103Y-147423491D01*
X73617110Y-147423489D01*
X73789987Y-147351882D01*
X73793039Y-147350251D01*
X73794822Y-147349879D01*
X73795623Y-147349548D01*
X73795685Y-147349699D01*
X73861441Y-147336004D01*
X73926687Y-147361000D01*
X73968061Y-147417302D01*
X73975500Y-147459605D01*
X73975500Y-147713036D01*
X73975502Y-147713057D01*
X73982612Y-147782665D01*
X73969842Y-147851357D01*
X73921960Y-147902241D01*
X73854170Y-147919161D01*
X73795822Y-147900145D01*
X73795369Y-147900994D01*
X73790592Y-147898441D01*
X73790362Y-147898366D01*
X73790001Y-147898125D01*
X73789991Y-147898119D01*
X73617103Y-147826507D01*
X73617100Y-147826506D01*
X73590000Y-147821115D01*
X73590000Y-148573011D01*
X73580060Y-148555795D01*
X73524205Y-148499940D01*
X73455796Y-148460444D01*
X73379496Y-148440000D01*
X73300504Y-148440000D01*
X73224204Y-148460444D01*
X73155795Y-148499940D01*
X73099940Y-148555795D01*
X73090000Y-148573011D01*
X73090000Y-147821116D01*
X73089999Y-147821115D01*
X73056921Y-147827696D01*
X73056689Y-147826533D01*
X72993130Y-147827102D01*
X72934016Y-147789855D01*
X72904424Y-147726561D01*
X72902999Y-147707817D01*
X72902999Y-147581462D01*
X72902999Y-147581456D01*
X72900166Y-147553729D01*
X72912934Y-147485040D01*
X72960814Y-147434154D01*
X73028603Y-147417232D01*
X73059520Y-147422468D01*
X73062890Y-147423490D01*
X73090000Y-147428882D01*
X73090000Y-146676988D01*
X73099940Y-146694205D01*
X73155795Y-146750060D01*
X73224204Y-146789556D01*
X73300504Y-146810000D01*
X73379496Y-146810000D01*
X73455796Y-146789556D01*
X73524205Y-146750060D01*
X73580060Y-146694205D01*
X73590000Y-146676988D01*
X73590000Y-147428881D01*
G37*
G04 #@! TD.AperFunction*
G04 #@! TA.AperFunction,Conductor*
G36*
X76143039Y-143783685D02*
G01*
X76188794Y-143836489D01*
X76200000Y-143888000D01*
X76200000Y-146037990D01*
X76180315Y-146105029D01*
X76127511Y-146150784D01*
X76058353Y-146160728D01*
X75994797Y-146131703D01*
X75968613Y-146099990D01*
X75951677Y-146070658D01*
X75923040Y-146021056D01*
X75795253Y-145879134D01*
X75640752Y-145766882D01*
X75466288Y-145689206D01*
X75466286Y-145689205D01*
X75279487Y-145649500D01*
X75088513Y-145649500D01*
X74901714Y-145689205D01*
X74727246Y-145766883D01*
X74572745Y-145879135D01*
X74464213Y-145999673D01*
X74404726Y-146036322D01*
X74334869Y-146034991D01*
X74293648Y-146010000D01*
X73640000Y-146010000D01*
X73640000Y-145510000D01*
X74290000Y-145510000D01*
X74290000Y-144916430D01*
X74289999Y-144916428D01*
X74253493Y-144732902D01*
X74253491Y-144732894D01*
X74181880Y-144560008D01*
X74181875Y-144559999D01*
X74077913Y-144404410D01*
X74077910Y-144404406D01*
X73945593Y-144272089D01*
X73945589Y-144272086D01*
X73790000Y-144168124D01*
X73789991Y-144168119D01*
X73617103Y-144096507D01*
X73617100Y-144096506D01*
X73590000Y-144091115D01*
X73590000Y-144843011D01*
X73580060Y-144825795D01*
X73524205Y-144769940D01*
X73455796Y-144730444D01*
X73379496Y-144710000D01*
X73300504Y-144710000D01*
X73224204Y-144730444D01*
X73155795Y-144769940D01*
X73099940Y-144825795D01*
X73090000Y-144843011D01*
X73090000Y-144091116D01*
X73089999Y-144091115D01*
X73062899Y-144096506D01*
X73062896Y-144096507D01*
X72890008Y-144168119D01*
X72889999Y-144168124D01*
X72794602Y-144231867D01*
X72727924Y-144252745D01*
X72660544Y-144234260D01*
X72633561Y-144211738D01*
X72567614Y-144138497D01*
X72421614Y-144032421D01*
X72351667Y-144001279D01*
X72298430Y-143956029D01*
X72278109Y-143889180D01*
X72297154Y-143821956D01*
X72349520Y-143775701D01*
X72402103Y-143764000D01*
X76076000Y-143764000D01*
X76143039Y-143783685D01*
G37*
G04 #@! TD.AperFunction*
M02*
