M48
; DRILL file {KiCad 7.0.1} date Thu Mar 23 18:13:20 2023
; FORMAT={-:-/ absolute / metric / decimal}
; #@! TF.CreationDate,2023-03-23T18:13:20+01:00
; #@! TF.GenerationSoftware,Kicad,Pcbnew,7.0.1
; #@! TF.FileFunction,Plated,1,2,PTH
FMAT,2
METRIC
; #@! TA.AperFunction,Plated,PTH,ViaDrill
T1C0.400
; #@! TA.AperFunction,Plated,PTH,ComponentDrill
T2C0.400
; #@! TA.AperFunction,Plated,PTH,ComponentDrill
T3C0.600
; #@! TA.AperFunction,Plated,PTH,ComponentDrill
T4C0.890
; #@! TA.AperFunction,Plated,PTH,ComponentDrill
T5C1.000
; #@! TA.AperFunction,Plated,PTH,ComponentDrill
T6C1.700
; #@! TA.AperFunction,Plated,PTH,ComponentDrill
T7C1.900
%
G90
G05
T1
X17.78Y-125.222
X18.796Y-139.192
X21.082Y-138.43
X22.86Y-139.192
X26.67Y-133.35
X26.797Y-101.981
X26.797Y-115.189
X30.607Y-138.176
X35.34Y-102.0
X35.687Y-108.966
X43.053Y-106.553
X43.815Y-116.84
X44.34Y-119.0
X49.657Y-147.066
T2
X17.78Y-144.78
X17.78Y-146.13
X18.63Y-144.78
X18.63Y-146.13
X19.48Y-144.78
X19.48Y-146.13
X20.33Y-144.78
X20.33Y-146.13
X21.18Y-144.78
X21.18Y-146.13
X22.03Y-144.78
X22.03Y-146.13
X22.88Y-144.78
X22.88Y-146.13
X23.73Y-144.78
X23.73Y-146.13
T4
X29.972Y-97.282
X29.972Y-99.822
X29.972Y-109.22
X29.972Y-111.76
T5
X44.149Y-124.841
X46.649Y-124.841
X49.149Y-124.841
T6
X30.56Y-142.9
X33.56Y-142.9
X35.56Y-147.9
X37.56Y-142.9
X40.56Y-142.9
T3
G00X16.43Y-145.01
M15
G01X16.43Y-146.51
M16
G05
G00X16.43Y-148.74
M15
G01X16.43Y-149.54
M16
G05
G00X25.08Y-145.01
M15
G01X25.08Y-146.51
M16
G05
G00X25.08Y-148.74
M15
G01X25.08Y-149.54
M16
G05
T7
G00X41.749Y-131.641
M15
G01X41.749Y-132.041
M16
G05
G00X51.549Y-131.641
M15
G01X51.549Y-132.041
M16
G05
T0
M30
