G04 #@! TF.GenerationSoftware,KiCad,Pcbnew,8.0.6*
G04 #@! TF.CreationDate,2025-03-14T09:35:17+01:00*
G04 #@! TF.ProjectId,Project_Gmic,50726f6a-6563-4745-9f47-6d69632e6b69,V1.2*
G04 #@! TF.SameCoordinates,Original*
G04 #@! TF.FileFunction,Copper,L1,Top*
G04 #@! TF.FilePolarity,Positive*
%FSLAX46Y46*%
G04 Gerber Fmt 4.6, Leading zero omitted, Abs format (unit mm)*
G04 Created by KiCad (PCBNEW 8.0.6) date 2025-03-14 09:35:17*
%MOMM*%
%LPD*%
G01*
G04 APERTURE LIST*
G04 Aperture macros list*
%AMRoundRect*
0 Rectangle with rounded corners*
0 $1 Rounding radius*
0 $2 $3 $4 $5 $6 $7 $8 $9 X,Y pos of 4 corners*
0 Add a 4 corners polygon primitive as box body*
4,1,4,$2,$3,$4,$5,$6,$7,$8,$9,$2,$3,0*
0 Add four circle primitives for the rounded corners*
1,1,$1+$1,$2,$3*
1,1,$1+$1,$4,$5*
1,1,$1+$1,$6,$7*
1,1,$1+$1,$8,$9*
0 Add four rect primitives between the rounded corners*
20,1,$1+$1,$2,$3,$4,$5,0*
20,1,$1+$1,$4,$5,$6,$7,0*
20,1,$1+$1,$6,$7,$8,$9,0*
20,1,$1+$1,$8,$9,$2,$3,0*%
G04 Aperture macros list end*
%ADD10C,0.300000*%
G04 #@! TA.AperFunction,NonConductor*
%ADD11C,0.300000*%
G04 #@! TD*
G04 #@! TA.AperFunction,ComponentPad*
%ADD12C,2.550000*%
G04 #@! TD*
G04 #@! TA.AperFunction,ComponentPad*
%ADD13C,2.400000*%
G04 #@! TD*
G04 #@! TA.AperFunction,SMDPad,CuDef*
%ADD14RoundRect,0.250000X-1.050000X-0.550000X1.050000X-0.550000X1.050000X0.550000X-1.050000X0.550000X0*%
G04 #@! TD*
G04 #@! TA.AperFunction,SMDPad,CuDef*
%ADD15RoundRect,0.250000X0.250000X0.475000X-0.250000X0.475000X-0.250000X-0.475000X0.250000X-0.475000X0*%
G04 #@! TD*
G04 #@! TA.AperFunction,SMDPad,CuDef*
%ADD16RoundRect,0.250000X0.475000X-0.250000X0.475000X0.250000X-0.475000X0.250000X-0.475000X-0.250000X0*%
G04 #@! TD*
G04 #@! TA.AperFunction,SMDPad,CuDef*
%ADD17RoundRect,0.250000X-0.550000X1.050000X-0.550000X-1.050000X0.550000X-1.050000X0.550000X1.050000X0*%
G04 #@! TD*
G04 #@! TA.AperFunction,SMDPad,CuDef*
%ADD18RoundRect,0.250000X-0.250000X-0.475000X0.250000X-0.475000X0.250000X0.475000X-0.250000X0.475000X0*%
G04 #@! TD*
G04 #@! TA.AperFunction,SMDPad,CuDef*
%ADD19RoundRect,0.250000X-0.475000X0.250000X-0.475000X-0.250000X0.475000X-0.250000X0.475000X0.250000X0*%
G04 #@! TD*
G04 #@! TA.AperFunction,SMDPad,CuDef*
%ADD20RoundRect,0.250000X-0.650000X0.325000X-0.650000X-0.325000X0.650000X-0.325000X0.650000X0.325000X0*%
G04 #@! TD*
G04 #@! TA.AperFunction,ComponentPad*
%ADD21C,0.700000*%
G04 #@! TD*
G04 #@! TA.AperFunction,ComponentPad*
%ADD22O,0.900000X2.400000*%
G04 #@! TD*
G04 #@! TA.AperFunction,ComponentPad*
%ADD23O,0.900000X1.700000*%
G04 #@! TD*
G04 #@! TA.AperFunction,ComponentPad*
%ADD24R,1.446000X1.446000*%
G04 #@! TD*
G04 #@! TA.AperFunction,ComponentPad*
%ADD25C,1.446000*%
G04 #@! TD*
G04 #@! TA.AperFunction,SMDPad,CuDef*
%ADD26RoundRect,0.250000X0.262500X0.450000X-0.262500X0.450000X-0.262500X-0.450000X0.262500X-0.450000X0*%
G04 #@! TD*
G04 #@! TA.AperFunction,SMDPad,CuDef*
%ADD27RoundRect,0.250000X-0.450000X0.262500X-0.450000X-0.262500X0.450000X-0.262500X0.450000X0.262500X0*%
G04 #@! TD*
G04 #@! TA.AperFunction,SMDPad,CuDef*
%ADD28RoundRect,0.250000X0.450000X-0.262500X0.450000X0.262500X-0.450000X0.262500X-0.450000X-0.262500X0*%
G04 #@! TD*
G04 #@! TA.AperFunction,SMDPad,CuDef*
%ADD29RoundRect,0.250000X1.050000X0.550000X-1.050000X0.550000X-1.050000X-0.550000X1.050000X-0.550000X0*%
G04 #@! TD*
G04 #@! TA.AperFunction,SMDPad,CuDef*
%ADD30R,0.800000X1.000000*%
G04 #@! TD*
G04 #@! TA.AperFunction,SMDPad,CuDef*
%ADD31R,1.500000X0.700000*%
G04 #@! TD*
G04 #@! TA.AperFunction,SMDPad,CuDef*
%ADD32RoundRect,0.150000X0.512500X0.150000X-0.512500X0.150000X-0.512500X-0.150000X0.512500X-0.150000X0*%
G04 #@! TD*
G04 #@! TA.AperFunction,SMDPad,CuDef*
%ADD33RoundRect,0.150000X0.150000X-0.875000X0.150000X0.875000X-0.150000X0.875000X-0.150000X-0.875000X0*%
G04 #@! TD*
G04 #@! TA.AperFunction,ComponentPad*
%ADD34O,3.100000X3.500000*%
G04 #@! TD*
G04 #@! TA.AperFunction,ComponentPad*
%ADD35R,1.800000X1.800000*%
G04 #@! TD*
G04 #@! TA.AperFunction,ComponentPad*
%ADD36O,1.800000X1.800000*%
G04 #@! TD*
G04 #@! TA.AperFunction,SMDPad,CuDef*
%ADD37RoundRect,0.150000X-0.150000X0.825000X-0.150000X-0.825000X0.150000X-0.825000X0.150000X0.825000X0*%
G04 #@! TD*
G04 #@! TA.AperFunction,SMDPad,CuDef*
%ADD38RoundRect,0.250000X0.650000X-0.325000X0.650000X0.325000X-0.650000X0.325000X-0.650000X-0.325000X0*%
G04 #@! TD*
G04 #@! TA.AperFunction,SMDPad,CuDef*
%ADD39RoundRect,0.150000X0.150000X-0.587500X0.150000X0.587500X-0.150000X0.587500X-0.150000X-0.587500X0*%
G04 #@! TD*
G04 #@! TA.AperFunction,SMDPad,CuDef*
%ADD40RoundRect,0.218750X0.381250X-0.218750X0.381250X0.218750X-0.381250X0.218750X-0.381250X-0.218750X0*%
G04 #@! TD*
G04 #@! TA.AperFunction,SMDPad,CuDef*
%ADD41R,0.800000X1.400000*%
G04 #@! TD*
G04 #@! TA.AperFunction,SMDPad,CuDef*
%ADD42RoundRect,0.150000X-0.825000X-0.150000X0.825000X-0.150000X0.825000X0.150000X-0.825000X0.150000X0*%
G04 #@! TD*
G04 #@! TA.AperFunction,ViaPad*
%ADD43C,0.800000*%
G04 #@! TD*
G04 #@! TA.AperFunction,Conductor*
%ADD44C,0.300000*%
G04 #@! TD*
G04 #@! TA.AperFunction,Conductor*
%ADD45C,0.600000*%
G04 #@! TD*
G04 APERTURE END LIST*
D10*
D11*
X62126857Y-107453757D02*
X61984000Y-107382328D01*
X61984000Y-107382328D02*
X61769714Y-107382328D01*
X61769714Y-107382328D02*
X61555428Y-107453757D01*
X61555428Y-107453757D02*
X61412571Y-107596614D01*
X61412571Y-107596614D02*
X61341142Y-107739471D01*
X61341142Y-107739471D02*
X61269714Y-108025185D01*
X61269714Y-108025185D02*
X61269714Y-108239471D01*
X61269714Y-108239471D02*
X61341142Y-108525185D01*
X61341142Y-108525185D02*
X61412571Y-108668042D01*
X61412571Y-108668042D02*
X61555428Y-108810900D01*
X61555428Y-108810900D02*
X61769714Y-108882328D01*
X61769714Y-108882328D02*
X61912571Y-108882328D01*
X61912571Y-108882328D02*
X62126857Y-108810900D01*
X62126857Y-108810900D02*
X62198285Y-108739471D01*
X62198285Y-108739471D02*
X62198285Y-108239471D01*
X62198285Y-108239471D02*
X61912571Y-108239471D01*
X63626857Y-107453757D02*
X63484000Y-107382328D01*
X63484000Y-107382328D02*
X63269714Y-107382328D01*
X63269714Y-107382328D02*
X63055428Y-107453757D01*
X63055428Y-107453757D02*
X62912571Y-107596614D01*
X62912571Y-107596614D02*
X62841142Y-107739471D01*
X62841142Y-107739471D02*
X62769714Y-108025185D01*
X62769714Y-108025185D02*
X62769714Y-108239471D01*
X62769714Y-108239471D02*
X62841142Y-108525185D01*
X62841142Y-108525185D02*
X62912571Y-108668042D01*
X62912571Y-108668042D02*
X63055428Y-108810900D01*
X63055428Y-108810900D02*
X63269714Y-108882328D01*
X63269714Y-108882328D02*
X63412571Y-108882328D01*
X63412571Y-108882328D02*
X63626857Y-108810900D01*
X63626857Y-108810900D02*
X63698285Y-108739471D01*
X63698285Y-108739471D02*
X63698285Y-108239471D01*
X63698285Y-108239471D02*
X63412571Y-108239471D01*
D12*
X83820000Y-147900000D03*
X88820000Y-142900000D03*
X78820000Y-142900000D03*
D13*
X85820000Y-142900000D03*
X81820000Y-142900000D03*
D14*
X70314000Y-140970000D03*
X73914000Y-140970000D03*
D15*
X66910000Y-138780000D03*
X65010000Y-138780000D03*
D16*
X68072000Y-116962000D03*
X68072000Y-115062000D03*
D14*
X69066000Y-119888000D03*
X72666000Y-119888000D03*
D17*
X57912000Y-119888000D03*
X57912000Y-123488000D03*
D18*
X69916000Y-123444000D03*
X71816000Y-123444000D03*
D19*
X98044000Y-143388000D03*
X98044000Y-145288000D03*
D20*
X84328000Y-131621000D03*
X84328000Y-134571000D03*
D16*
X78740000Y-123820000D03*
X78740000Y-121920000D03*
X77470000Y-130170000D03*
X77470000Y-128270000D03*
D21*
X66040000Y-144780000D03*
X66890000Y-144780000D03*
X67740000Y-144780000D03*
X68590000Y-144780000D03*
X69440000Y-144780000D03*
X70290000Y-144780000D03*
X71140000Y-144780000D03*
X71990000Y-144780000D03*
X71990000Y-146130000D03*
X71140000Y-146130000D03*
X70290000Y-146130000D03*
X69440000Y-146130000D03*
X68590000Y-146130000D03*
X67740000Y-146130000D03*
X66890000Y-146130000D03*
X66040000Y-146130000D03*
D22*
X64690000Y-145760000D03*
D23*
X64690000Y-149140000D03*
D22*
X73340000Y-145760000D03*
D23*
X73340000Y-149140000D03*
D24*
X78232000Y-97282000D03*
D25*
X78232000Y-99822000D03*
D24*
X78232000Y-109220000D03*
D25*
X78232000Y-111760000D03*
D26*
X94488000Y-139192000D03*
X92663000Y-139192000D03*
D27*
X86614000Y-117555000D03*
X86614000Y-119380000D03*
X88646000Y-131675500D03*
X88646000Y-133500500D03*
D28*
X88138000Y-107338500D03*
X88138000Y-105513500D03*
X90170000Y-107338500D03*
X90170000Y-105513500D03*
X86614000Y-133500500D03*
X86614000Y-131675500D03*
X80772000Y-121816500D03*
X80772000Y-119991500D03*
D27*
X93726000Y-120245500D03*
X93726000Y-122070500D03*
D29*
X67354000Y-123444000D03*
X63754000Y-123444000D03*
D19*
X84582000Y-115702000D03*
X84582000Y-117602000D03*
D30*
X101201000Y-149827000D03*
X103411000Y-149827000D03*
X101201000Y-142527000D03*
X103411000Y-142527000D03*
D31*
X100551000Y-148427000D03*
X100551000Y-145427000D03*
X100551000Y-143927000D03*
D32*
X63367500Y-119314000D03*
X63367500Y-118364000D03*
X63367500Y-117414000D03*
X61092500Y-117414000D03*
X61092500Y-119314000D03*
D33*
X64515000Y-136510000D03*
X65785000Y-136510000D03*
X67055000Y-136510000D03*
X68325000Y-136510000D03*
X69595000Y-136510000D03*
X70865000Y-136510000D03*
X72135000Y-136510000D03*
X73405000Y-136510000D03*
X73405000Y-127210000D03*
X72135000Y-127210000D03*
X70865000Y-127210000D03*
X69595000Y-127210000D03*
X68325000Y-127210000D03*
X67055000Y-127210000D03*
X65785000Y-127210000D03*
X64515000Y-127210000D03*
D34*
X101166000Y-131841000D03*
X91366000Y-131841000D03*
D35*
X98766000Y-124841000D03*
D36*
X96266000Y-124841000D03*
X93766000Y-124841000D03*
D37*
X90551000Y-110301000D03*
X89281000Y-110301000D03*
X88011000Y-110301000D03*
X86741000Y-110301000D03*
X86741000Y-115251000D03*
X88011000Y-115251000D03*
X89281000Y-115251000D03*
X90551000Y-115251000D03*
D38*
X81788000Y-134571000D03*
X81788000Y-131621000D03*
D19*
X88900000Y-117856000D03*
X88900000Y-119756000D03*
D39*
X65010000Y-142657500D03*
X66910000Y-142657500D03*
X65960000Y-140782500D03*
D40*
X65786000Y-118410500D03*
X65786000Y-116285500D03*
D28*
X76708000Y-123952000D03*
X76708000Y-122127000D03*
D19*
X90932000Y-117856000D03*
X90932000Y-119756000D03*
D41*
X94996000Y-141471000D03*
X92456000Y-141471000D03*
X92456000Y-150121000D03*
X94996000Y-150121000D03*
D42*
X80140000Y-125730000D03*
X80140000Y-127000000D03*
X80140000Y-128270000D03*
X80140000Y-129540000D03*
X85090000Y-129540000D03*
X85090000Y-128270000D03*
X85090000Y-127000000D03*
X85090000Y-125730000D03*
D15*
X86548000Y-123698000D03*
X84648000Y-123698000D03*
D19*
X87884000Y-125730000D03*
X87884000Y-127630000D03*
D43*
X80576284Y-137723284D03*
X60576284Y-113723284D03*
X56576284Y-129723284D03*
X52576284Y-125723284D03*
X68576284Y-109723284D03*
X88576284Y-97723284D03*
X96576284Y-109723284D03*
X68576284Y-93723284D03*
X68576284Y-101723284D03*
X60576284Y-145723284D03*
X52576284Y-121723284D03*
X92576284Y-109723284D03*
X72576284Y-105723284D03*
X80576284Y-109723284D03*
X96576284Y-129723284D03*
X52576284Y-133723284D03*
X52576284Y-141723284D03*
X68576284Y-105723284D03*
X60576284Y-109723284D03*
X84576284Y-137723284D03*
X72576284Y-93723284D03*
X52576284Y-117723284D03*
X100576284Y-109723284D03*
X92576284Y-101723284D03*
X96576284Y-105723284D03*
X100576284Y-117723284D03*
X56576284Y-141723284D03*
X92576284Y-105723284D03*
X64576284Y-101723284D03*
X88576284Y-137723284D03*
X56576284Y-109723284D03*
X64576284Y-109723284D03*
X56576284Y-105723284D03*
X84836000Y-114046000D03*
X56576284Y-137723284D03*
X56576284Y-133723284D03*
X60576284Y-141723284D03*
X76576284Y-93723284D03*
X64576284Y-97723284D03*
X52576284Y-137723284D03*
X60576284Y-105723284D03*
X60576284Y-129723284D03*
X65786000Y-119380000D03*
X52576284Y-129723284D03*
X76576284Y-117723284D03*
X80576284Y-93723284D03*
X64576284Y-105723284D03*
X60576284Y-137723284D03*
X84576284Y-93723284D03*
X100576284Y-121723284D03*
X60576284Y-101723284D03*
X72576284Y-101723284D03*
X60576284Y-125723284D03*
X96576284Y-137723284D03*
X84576284Y-97723284D03*
X80576284Y-97723284D03*
X52576284Y-109723284D03*
X60576284Y-149723284D03*
X72576284Y-97723284D03*
X68576284Y-97723284D03*
X60576284Y-133723284D03*
X64540000Y-140770000D03*
X75184000Y-146558000D03*
X75184000Y-148082000D03*
X61092500Y-119314000D03*
X82550000Y-116078000D03*
X85852000Y-116078000D03*
X86614000Y-122682000D03*
X88900000Y-117856000D03*
X85725000Y-103697000D03*
X86995000Y-108647000D03*
X86614000Y-133500500D03*
X87884000Y-112522000D03*
D44*
X70126000Y-140782000D02*
X70314000Y-140970000D01*
X70314000Y-140104000D02*
X69760000Y-139550000D01*
X67680000Y-139550000D02*
X66910000Y-138780000D01*
X69760000Y-139550000D02*
X67680000Y-139550000D01*
X67056000Y-136652000D02*
X67056000Y-138806000D01*
X66923000Y-140782500D02*
X65960000Y-140782500D01*
X67056000Y-136652000D02*
X68326000Y-136652000D01*
X70314000Y-140970000D02*
X70314000Y-140104000D01*
X66923500Y-140782000D02*
X70126000Y-140782000D01*
X67056000Y-138806000D02*
X66924000Y-138938000D01*
X66923500Y-138938500D02*
X66924000Y-138938000D01*
X66923500Y-140782000D02*
X66923000Y-140782500D01*
X65786000Y-118410500D02*
X65786000Y-119380000D01*
X62705001Y-118364000D02*
X62230000Y-117888999D01*
X78100000Y-129540000D02*
X77470000Y-130170000D01*
X62230000Y-117888999D02*
X62230000Y-115570000D01*
X63367500Y-118364000D02*
X62705001Y-118364000D01*
X65786000Y-118410500D02*
X63414000Y-118410500D01*
X63414000Y-118410500D02*
X63367500Y-118364000D01*
X80140000Y-129540000D02*
X78100000Y-129540000D01*
X66040000Y-144780000D02*
X66040000Y-146130000D01*
X71990000Y-144780000D02*
X71990000Y-146130000D01*
X65220000Y-143960000D02*
X63880000Y-143960000D01*
X66040000Y-144780000D02*
X65220000Y-143960000D01*
X61092500Y-119314000D02*
X58486000Y-119314000D01*
X90551000Y-117475000D02*
X90932000Y-117856000D01*
X83142000Y-116670000D02*
X82550000Y-116078000D01*
X85260000Y-116670000D02*
X83142000Y-116670000D01*
X85852000Y-116078000D02*
X85260000Y-116670000D01*
X86548000Y-123698000D02*
X86548000Y-124394000D01*
X90551000Y-115251000D02*
X90551000Y-117475000D01*
X86548000Y-124394000D02*
X87884000Y-125730000D01*
X58486000Y-119314000D02*
X57912000Y-119888000D01*
X85090000Y-125730000D02*
X87884000Y-125730000D01*
X86548000Y-123698000D02*
X86548000Y-122748000D01*
X90932000Y-117856000D02*
X88900000Y-117856000D01*
X86548000Y-122748000D02*
X86614000Y-122682000D01*
X96127000Y-141471000D02*
X98044000Y-143388000D01*
X94996000Y-141471000D02*
X96127000Y-141471000D01*
X100551000Y-145427000D02*
X98183000Y-145427000D01*
X98183000Y-145427000D02*
X98044000Y-145288000D01*
X88138000Y-105513500D02*
X87541500Y-105513500D01*
X87541500Y-105513500D02*
X85725000Y-103697000D01*
X84328000Y-134571000D02*
X87575500Y-134571000D01*
X87575500Y-134571000D02*
X88646000Y-133500500D01*
X84328000Y-134571000D02*
X81788000Y-134571000D01*
X69077000Y-119899000D02*
X69077000Y-121589000D01*
X69077000Y-121589000D02*
X69916000Y-122428000D01*
X63367500Y-119314000D02*
X67354000Y-123300500D01*
X68072000Y-116962000D02*
X69066000Y-117956000D01*
X67056000Y-127352000D02*
X67056000Y-123742000D01*
X68326000Y-127352000D02*
X67056000Y-127352000D01*
X69916000Y-123444000D02*
X69916000Y-122428000D01*
X67354000Y-123444000D02*
X69916000Y-123444000D01*
X67056000Y-123742000D02*
X67354000Y-123444000D01*
X66802000Y-117414000D02*
X63367500Y-117414000D01*
X69066000Y-117956000D02*
X69066000Y-119888000D01*
X67254000Y-116962000D02*
X66802000Y-117414000D01*
X69066000Y-119888000D02*
X69077000Y-119899000D01*
X68072000Y-116962000D02*
X67254000Y-116962000D01*
X67354000Y-123300500D02*
X67354000Y-123444000D01*
X81114999Y-127000000D02*
X80140000Y-127000000D01*
X81788000Y-127673001D02*
X81114999Y-127000000D01*
X78740000Y-123820000D02*
X78740000Y-124330000D01*
X80140000Y-125730000D02*
X80140000Y-127000000D01*
X78740000Y-124330000D02*
X80140000Y-125730000D01*
X81788000Y-131621000D02*
X81788000Y-127673001D01*
X86741000Y-115251000D02*
X86741000Y-117428000D01*
X86741000Y-117428000D02*
X86614000Y-117555000D01*
X86614000Y-117555000D02*
X84629000Y-117555000D01*
X84629000Y-117555000D02*
X84582000Y-117602000D01*
X84328000Y-131621000D02*
X86559500Y-131621000D01*
X85090000Y-130859000D02*
X84328000Y-131621000D01*
X85090000Y-129540000D02*
X85090000Y-130859000D01*
X86559500Y-131621000D02*
X86614000Y-131675500D01*
X80668500Y-121920000D02*
X80772000Y-121816500D01*
X76915000Y-121920000D02*
X76708000Y-122127000D01*
X78740000Y-121920000D02*
X80668500Y-121920000D01*
X78740000Y-121920000D02*
X76915000Y-121920000D01*
X76708000Y-127508000D02*
X77470000Y-128270000D01*
X77470000Y-128270000D02*
X80140000Y-128270000D01*
X76708000Y-123952000D02*
X76708000Y-127508000D01*
X66910000Y-143940000D02*
X66910000Y-142657500D01*
X66890000Y-144018000D02*
X66890000Y-143960000D01*
X66890000Y-143960000D02*
X66910000Y-143940000D01*
X71140000Y-144285026D02*
X70872974Y-144018000D01*
X66910000Y-142657500D02*
X65010000Y-142657500D01*
X71140000Y-144780000D02*
X71140000Y-144285026D01*
X66890000Y-144780000D02*
X66890000Y-146130000D01*
X71140000Y-146130000D02*
X71140000Y-144780000D01*
X66890000Y-144780000D02*
X66890000Y-144018000D01*
X70872974Y-144018000D02*
X66890000Y-144018000D01*
D45*
X94996000Y-150121000D02*
X94996000Y-149076000D01*
X90308000Y-144388000D02*
X89662000Y-145034000D01*
X79974000Y-144054000D02*
X78820000Y-142900000D01*
X80954000Y-145034000D02*
X79974000Y-144054000D01*
X91070000Y-145150000D02*
X90308000Y-144388000D01*
X89662000Y-145034000D02*
X80954000Y-145034000D01*
X90308000Y-144388000D02*
X88820000Y-142900000D01*
X94996000Y-149076000D02*
X91070000Y-145150000D01*
X92456000Y-150121000D02*
X91635000Y-149300000D01*
X91635000Y-149300000D02*
X85220000Y-149300000D01*
X85220000Y-149300000D02*
X83820000Y-147900000D01*
D44*
X92663000Y-139192000D02*
X92663000Y-141264000D01*
X92663000Y-141264000D02*
X92456000Y-141471000D01*
X93726000Y-120245500D02*
X93726000Y-119380000D01*
X92456000Y-118872000D02*
X87884000Y-118872000D01*
X87376000Y-119380000D02*
X86614000Y-119380000D01*
X92456000Y-118872000D02*
X92456000Y-114935000D01*
X93218000Y-118872000D02*
X92456000Y-118872000D01*
X90551000Y-113030000D02*
X90551000Y-110301000D01*
X87884000Y-118872000D02*
X87376000Y-119380000D01*
X92456000Y-114935000D02*
X90551000Y-113030000D01*
X93726000Y-119380000D02*
X93218000Y-118872000D01*
X86995000Y-108647000D02*
X86995000Y-106553000D01*
X89257500Y-106426000D02*
X90170000Y-105513500D01*
X86995000Y-106553000D02*
X87122000Y-106426000D01*
X87122000Y-106426000D02*
X89257500Y-106426000D01*
X85090000Y-128270000D02*
X86064999Y-128270000D01*
X85090000Y-128270000D02*
X85090000Y-127000000D01*
X100551000Y-148305629D02*
X100551000Y-148427000D01*
X102362000Y-143596629D02*
X103124000Y-144358629D01*
X88646000Y-131675500D02*
X88646000Y-130556000D01*
X103124000Y-144358629D02*
X103124000Y-145732629D01*
X103124000Y-145732629D02*
X100551000Y-148305629D01*
X92964000Y-129540000D02*
X102362000Y-138938000D01*
X88646000Y-130556000D02*
X88646000Y-129540000D01*
X86064999Y-128270000D02*
X87334999Y-129540000D01*
X102362000Y-138938000D02*
X102362000Y-143596629D01*
X88646000Y-129540000D02*
X89662000Y-129540000D01*
X87334999Y-129540000D02*
X88646000Y-129540000D01*
X89662000Y-129540000D02*
X92964000Y-129540000D01*
X89281000Y-108712000D02*
X90932000Y-108712000D01*
X89281000Y-108712000D02*
X89281000Y-110301000D01*
X89154000Y-107338500D02*
X88138000Y-107338500D01*
X91694000Y-109474000D02*
X91694000Y-113030000D01*
X90170000Y-107338500D02*
X89408000Y-107338500D01*
X96266000Y-119380000D02*
X96266000Y-124841000D01*
X89281000Y-107465500D02*
X89281000Y-108712000D01*
X89281000Y-107465500D02*
X89408000Y-107338500D01*
X89408000Y-107338500D02*
X89154000Y-107338500D01*
X93345000Y-116459000D02*
X96266000Y-119380000D01*
X89154000Y-107338500D02*
X89281000Y-107465500D01*
X91694000Y-113030000D02*
X93345000Y-114681000D01*
X90932000Y-108712000D02*
X91694000Y-109474000D01*
X93345000Y-114681000D02*
X93345000Y-116459000D01*
X88011000Y-110301000D02*
X88011000Y-112395000D01*
X88011000Y-112395000D02*
X87884000Y-112522000D01*
X87172500Y-118567500D02*
X82196000Y-118567500D01*
X87630000Y-117348000D02*
X87630000Y-118110000D01*
X87630000Y-118110000D02*
X87172500Y-118567500D01*
X89281000Y-115251000D02*
X88011000Y-115251000D01*
X88011000Y-116967000D02*
X87630000Y-117348000D01*
X82196000Y-118567500D02*
X80772000Y-119991500D01*
X88011000Y-115251000D02*
X88011000Y-116967000D01*
X93726000Y-124801000D02*
X93766000Y-124841000D01*
X93726000Y-122070500D02*
X93726000Y-124801000D01*
G04 #@! TA.AperFunction,Conductor*
G36*
X83825368Y-91485502D02*
G01*
X83846342Y-91502405D01*
X104077595Y-111733657D01*
X104111621Y-111795969D01*
X104114500Y-111822752D01*
X104114500Y-139828000D01*
X104094498Y-139896121D01*
X104040842Y-139942614D01*
X103988500Y-139954000D01*
X103438500Y-139954000D01*
X103370379Y-139933998D01*
X103323886Y-139880342D01*
X103312500Y-139828000D01*
X103312500Y-138844388D01*
X103312499Y-138844380D01*
X103305999Y-138811700D01*
X103305997Y-138811694D01*
X103292089Y-138741769D01*
X103275973Y-138660749D01*
X103245049Y-138586092D01*
X103204323Y-138487770D01*
X103116123Y-138355770D01*
X103116123Y-138355769D01*
X103116121Y-138355768D01*
X103100302Y-138332092D01*
X102967908Y-138199698D01*
X98362321Y-133594111D01*
X96255147Y-131486937D01*
X98815500Y-131486937D01*
X98815500Y-132195062D01*
X98855716Y-132500536D01*
X98855717Y-132500542D01*
X98855718Y-132500544D01*
X98935465Y-132798164D01*
X99053378Y-133082830D01*
X99053379Y-133082831D01*
X99053384Y-133082842D01*
X99207440Y-133349675D01*
X99395004Y-133594111D01*
X99395023Y-133594132D01*
X99612867Y-133811976D01*
X99612877Y-133811985D01*
X99612883Y-133811991D01*
X99612886Y-133811993D01*
X99612888Y-133811995D01*
X99857324Y-133999559D01*
X100124157Y-134153615D01*
X100124161Y-134153616D01*
X100124170Y-134153622D01*
X100408836Y-134271535D01*
X100706456Y-134351282D01*
X100706462Y-134351282D01*
X100706463Y-134351283D01*
X100741515Y-134355897D01*
X101011940Y-134391500D01*
X101011947Y-134391500D01*
X101320053Y-134391500D01*
X101320060Y-134391500D01*
X101625544Y-134351282D01*
X101923164Y-134271535D01*
X102207830Y-134153622D01*
X102474670Y-133999562D01*
X102474670Y-133999561D01*
X102474675Y-133999559D01*
X102616632Y-133890630D01*
X102719117Y-133811991D01*
X102936991Y-133594117D01*
X103029166Y-133473992D01*
X103124559Y-133349675D01*
X103151639Y-133302772D01*
X103278622Y-133082830D01*
X103396535Y-132798164D01*
X103476282Y-132500544D01*
X103516500Y-132195060D01*
X103516500Y-131486940D01*
X103476282Y-131181456D01*
X103396535Y-130883836D01*
X103278622Y-130599170D01*
X103278616Y-130599161D01*
X103278615Y-130599157D01*
X103124559Y-130332324D01*
X102936995Y-130087888D01*
X102936993Y-130087886D01*
X102936991Y-130087883D01*
X102936985Y-130087877D01*
X102936976Y-130087867D01*
X102719132Y-129870023D01*
X102719111Y-129870004D01*
X102474675Y-129682440D01*
X102207842Y-129528384D01*
X102207834Y-129528380D01*
X102207830Y-129528378D01*
X101923164Y-129410465D01*
X101625544Y-129330718D01*
X101625542Y-129330717D01*
X101625536Y-129330716D01*
X101320062Y-129290500D01*
X101320060Y-129290500D01*
X101011940Y-129290500D01*
X101011937Y-129290500D01*
X100706463Y-129330716D01*
X100557987Y-129370500D01*
X100408836Y-129410465D01*
X100189767Y-129501207D01*
X100124168Y-129528379D01*
X100124157Y-129528384D01*
X99857324Y-129682440D01*
X99612888Y-129870004D01*
X99612867Y-129870023D01*
X99395023Y-130087867D01*
X99395004Y-130087888D01*
X99207440Y-130332324D01*
X99053384Y-130599157D01*
X99053379Y-130599168D01*
X98935465Y-130883836D01*
X98855716Y-131181463D01*
X98815500Y-131486937D01*
X96255147Y-131486937D01*
X93569913Y-128801702D01*
X93569907Y-128801697D01*
X93456519Y-128725934D01*
X93414230Y-128697677D01*
X93312901Y-128655705D01*
X93241254Y-128626028D01*
X93241251Y-128626027D01*
X93149433Y-128607763D01*
X93149432Y-128607762D01*
X93057622Y-128589500D01*
X93057617Y-128589500D01*
X93057616Y-128589500D01*
X89755616Y-128589500D01*
X89025665Y-128589500D01*
X88957544Y-128569498D01*
X88911051Y-128515842D01*
X88900947Y-128445568D01*
X88930441Y-128380988D01*
X88936570Y-128374405D01*
X88957629Y-128353345D01*
X88957634Y-128353339D01*
X89050657Y-128202525D01*
X89106393Y-128034321D01*
X89106394Y-128034318D01*
X89116999Y-127930516D01*
X89117000Y-127930516D01*
X89117000Y-127884000D01*
X87756000Y-127884000D01*
X87687879Y-127863998D01*
X87641386Y-127810342D01*
X87630000Y-127758000D01*
X87630000Y-127502000D01*
X87650002Y-127433879D01*
X87703658Y-127387386D01*
X87756000Y-127376000D01*
X89117000Y-127376000D01*
X89117000Y-127329483D01*
X89106394Y-127225681D01*
X89106393Y-127225678D01*
X89050657Y-127057474D01*
X88991280Y-126961209D01*
X88972543Y-126892729D01*
X88993802Y-126824991D01*
X89018586Y-126797664D01*
X89105410Y-126726410D01*
X89236685Y-126566450D01*
X89334232Y-126383954D01*
X89394300Y-126185934D01*
X89409500Y-126031608D01*
X89409500Y-125428392D01*
X89399970Y-125331631D01*
X89394301Y-125274072D01*
X89394300Y-125274070D01*
X89394300Y-125274066D01*
X89334232Y-125076046D01*
X89236685Y-124893550D01*
X89105410Y-124733590D01*
X88945450Y-124602315D01*
X88945448Y-124602314D01*
X88945447Y-124602313D01*
X88762954Y-124504768D01*
X88564927Y-124444698D01*
X88410614Y-124429500D01*
X88410608Y-124429500D01*
X87979900Y-124429500D01*
X87911779Y-124409498D01*
X87890805Y-124392595D01*
X87879370Y-124381160D01*
X87845344Y-124318848D01*
X87843072Y-124279714D01*
X87848500Y-124224608D01*
X87848500Y-123171392D01*
X87836961Y-123054232D01*
X87833301Y-123017074D01*
X87833300Y-123017072D01*
X87833300Y-123017066D01*
X87806219Y-122927792D01*
X87801333Y-122879596D01*
X87813374Y-122749654D01*
X87819643Y-122682000D01*
X87799115Y-122460464D01*
X87738229Y-122246472D01*
X87738227Y-122246468D01*
X87738225Y-122246462D01*
X87639061Y-122047315D01*
X87639057Y-122047310D01*
X87504982Y-121869764D01*
X87340561Y-121719875D01*
X87340560Y-121719874D01*
X87151412Y-121602759D01*
X87151405Y-121602755D01*
X87151401Y-121602753D01*
X87149628Y-121602066D01*
X86943946Y-121522383D01*
X86904972Y-121515097D01*
X86725243Y-121481500D01*
X86502757Y-121481500D01*
X86390948Y-121502401D01*
X86284053Y-121522383D01*
X86076603Y-121602751D01*
X86076587Y-121602759D01*
X85887439Y-121719874D01*
X85887438Y-121719875D01*
X85723017Y-121869764D01*
X85588942Y-122047310D01*
X85588938Y-122047315D01*
X85489774Y-122246462D01*
X85489768Y-122246479D01*
X85427291Y-122466066D01*
X85425724Y-122465620D01*
X85397007Y-122522074D01*
X85335716Y-122557905D01*
X85264782Y-122554912D01*
X85239199Y-122542860D01*
X85220528Y-122531343D01*
X85052321Y-122475606D01*
X85052318Y-122475605D01*
X84948516Y-122465000D01*
X84902000Y-122465000D01*
X84902000Y-123826000D01*
X84881998Y-123894121D01*
X84828342Y-123940614D01*
X84776000Y-123952000D01*
X83640000Y-123952000D01*
X83640000Y-124223516D01*
X83650605Y-124327318D01*
X83650606Y-124327321D01*
X83706343Y-124495527D01*
X83777409Y-124610744D01*
X83796146Y-124679223D01*
X83774886Y-124746962D01*
X83743843Y-124777790D01*
X83744201Y-124778228D01*
X83739740Y-124781865D01*
X83739512Y-124782092D01*
X83739252Y-124782263D01*
X83589429Y-124904429D01*
X83467265Y-125054248D01*
X83377763Y-125225592D01*
X83324581Y-125411454D01*
X83324581Y-125411455D01*
X83314500Y-125524860D01*
X83314500Y-125935139D01*
X83324581Y-126048544D01*
X83324581Y-126048545D01*
X83377762Y-126234405D01*
X83377763Y-126234406D01*
X83415506Y-126306664D01*
X83429316Y-126376305D01*
X83415506Y-126423336D01*
X83377763Y-126495593D01*
X83377762Y-126495594D01*
X83324581Y-126681454D01*
X83324581Y-126681455D01*
X83314500Y-126794860D01*
X83314500Y-127205139D01*
X83324581Y-127318544D01*
X83324581Y-127318545D01*
X83377762Y-127504405D01*
X83377763Y-127504406D01*
X83415506Y-127576664D01*
X83429316Y-127646305D01*
X83415506Y-127693336D01*
X83377763Y-127765593D01*
X83377762Y-127765594D01*
X83324581Y-127951454D01*
X83324581Y-127951455D01*
X83314500Y-128064860D01*
X83314500Y-128475139D01*
X83324581Y-128588544D01*
X83324581Y-128588545D01*
X83377762Y-128774405D01*
X83377763Y-128774406D01*
X83415506Y-128846664D01*
X83429316Y-128916305D01*
X83415506Y-128963336D01*
X83377763Y-129035593D01*
X83377762Y-129035594D01*
X83324581Y-129221454D01*
X83324581Y-129221455D01*
X83314500Y-129334860D01*
X83314500Y-129745139D01*
X83324581Y-129858544D01*
X83324581Y-129858545D01*
X83377763Y-130044407D01*
X83417790Y-130121034D01*
X83431601Y-130190675D01*
X83405569Y-130256726D01*
X83347959Y-130298219D01*
X83342691Y-130299944D01*
X83327881Y-130304437D01*
X83274044Y-130320768D01*
X83117396Y-130404499D01*
X83047890Y-130418971D01*
X82998604Y-130404499D01*
X82841956Y-130320769D01*
X82841955Y-130320768D01*
X82841954Y-130320768D01*
X82827918Y-130316510D01*
X82768539Y-130277592D01*
X82739627Y-130212749D01*
X82738500Y-130195937D01*
X82738500Y-127579386D01*
X82738499Y-127579382D01*
X82701973Y-127395750D01*
X82630322Y-127222770D01*
X82526302Y-127067093D01*
X82393908Y-126934699D01*
X81863234Y-126404025D01*
X81829208Y-126341713D01*
X81834273Y-126270898D01*
X81840645Y-126256597D01*
X81852237Y-126234406D01*
X81905417Y-126048552D01*
X81906924Y-126031608D01*
X81909655Y-126000881D01*
X81915500Y-125935138D01*
X81915500Y-125524862D01*
X81906924Y-125428401D01*
X81905418Y-125411455D01*
X81905418Y-125411454D01*
X81905417Y-125411451D01*
X81905417Y-125411448D01*
X81852237Y-125225594D01*
X81806548Y-125138126D01*
X81762734Y-125054248D01*
X81707863Y-124986955D01*
X81640571Y-124904429D01*
X81562782Y-124841000D01*
X81490751Y-124782265D01*
X81319407Y-124692763D01*
X81226955Y-124666309D01*
X81133552Y-124639583D01*
X81133550Y-124639582D01*
X81133544Y-124639581D01*
X81020139Y-124629500D01*
X81020138Y-124629500D01*
X80435900Y-124629500D01*
X80367779Y-124609498D01*
X80346805Y-124592595D01*
X80252462Y-124498252D01*
X80218436Y-124435940D01*
X80220982Y-124372582D01*
X80250300Y-124275934D01*
X80265500Y-124121608D01*
X80265500Y-123518392D01*
X80257035Y-123432446D01*
X80250301Y-123364072D01*
X80250300Y-123364070D01*
X80250300Y-123364066D01*
X80228461Y-123292074D01*
X80227829Y-123221081D01*
X80258453Y-123172483D01*
X83640000Y-123172483D01*
X83640000Y-123444000D01*
X84394000Y-123444000D01*
X84394000Y-122465000D01*
X84347483Y-122465000D01*
X84243681Y-122475605D01*
X84243678Y-122475606D01*
X84075474Y-122531342D01*
X83924660Y-122624365D01*
X83924654Y-122624370D01*
X83799370Y-122749654D01*
X83799365Y-122749660D01*
X83706342Y-122900474D01*
X83650606Y-123068678D01*
X83650605Y-123068681D01*
X83640000Y-123172483D01*
X80258453Y-123172483D01*
X80265679Y-123161015D01*
X80329994Y-123130947D01*
X80349037Y-123129500D01*
X81273599Y-123129500D01*
X81273608Y-123129500D01*
X81361331Y-123120859D01*
X81427927Y-123114301D01*
X81427928Y-123114300D01*
X81427934Y-123114300D01*
X81625954Y-123054232D01*
X81808450Y-122956685D01*
X81968410Y-122825410D01*
X82099685Y-122665450D01*
X82197232Y-122482954D01*
X82257300Y-122284934D01*
X82257424Y-122283681D01*
X82272499Y-122130614D01*
X82272500Y-122130608D01*
X82272500Y-121502392D01*
X82257300Y-121348066D01*
X82197232Y-121150046D01*
X82099685Y-120967550D01*
X82099681Y-120967546D01*
X82097464Y-120963397D01*
X82082992Y-120893891D01*
X82097464Y-120844603D01*
X82099681Y-120840454D01*
X82099685Y-120840450D01*
X82197232Y-120657954D01*
X82257300Y-120459934D01*
X82258716Y-120445563D01*
X82272499Y-120305614D01*
X82272500Y-120305608D01*
X82272500Y-119887400D01*
X82292502Y-119819279D01*
X82309405Y-119798305D01*
X82552805Y-119554905D01*
X82615117Y-119520879D01*
X82641900Y-119518000D01*
X84987500Y-119518000D01*
X85055621Y-119538002D01*
X85102114Y-119591658D01*
X85113500Y-119644000D01*
X85113500Y-119694114D01*
X85128698Y-119848427D01*
X85128699Y-119848433D01*
X85128700Y-119848434D01*
X85188768Y-120046454D01*
X85286315Y-120228950D01*
X85417590Y-120388910D01*
X85577550Y-120520185D01*
X85760046Y-120617732D01*
X85958066Y-120677800D01*
X85958070Y-120677800D01*
X85958072Y-120677801D01*
X86045789Y-120686440D01*
X86112392Y-120693000D01*
X86112401Y-120693000D01*
X87115599Y-120693000D01*
X87115608Y-120693000D01*
X87203331Y-120684359D01*
X87269927Y-120677801D01*
X87269928Y-120677800D01*
X87269934Y-120677800D01*
X87467954Y-120617732D01*
X87650450Y-120520185D01*
X87681229Y-120494925D01*
X87746570Y-120467173D01*
X87816548Y-120479152D01*
X87850255Y-120503230D01*
X87951654Y-120604629D01*
X87951660Y-120604634D01*
X88102474Y-120697657D01*
X88270678Y-120753393D01*
X88270681Y-120753394D01*
X88374483Y-120763999D01*
X88374483Y-120764000D01*
X88646000Y-120764000D01*
X88646000Y-119948500D01*
X88666002Y-119880379D01*
X88719658Y-119833886D01*
X88772000Y-119822500D01*
X89037309Y-119822500D01*
X89105430Y-119842502D01*
X89151923Y-119896158D01*
X89162027Y-119966432D01*
X89154000Y-119984007D01*
X89154000Y-120764000D01*
X89425517Y-120764000D01*
X89425516Y-120763999D01*
X89529318Y-120753394D01*
X89529321Y-120753393D01*
X89697525Y-120697657D01*
X89849853Y-120603700D01*
X89918332Y-120584963D01*
X89982147Y-120603700D01*
X90134474Y-120697657D01*
X90302678Y-120753393D01*
X90302681Y-120753394D01*
X90406483Y-120763999D01*
X90406483Y-120764000D01*
X90678000Y-120764000D01*
X90678000Y-119987058D01*
X90671570Y-119975283D01*
X90676635Y-119904468D01*
X90719182Y-119847632D01*
X90785702Y-119822821D01*
X90794691Y-119822500D01*
X91060000Y-119822500D01*
X91128121Y-119842502D01*
X91174614Y-119896158D01*
X91186000Y-119948500D01*
X91186000Y-120764000D01*
X91457517Y-120764000D01*
X91457516Y-120763999D01*
X91561318Y-120753394D01*
X91561321Y-120753393D01*
X91729525Y-120697657D01*
X91880339Y-120604634D01*
X92010449Y-120474524D01*
X92072761Y-120440499D01*
X92143577Y-120445563D01*
X92200413Y-120488110D01*
X92225224Y-120554630D01*
X92225393Y-120557423D01*
X92225500Y-120559616D01*
X92240698Y-120713927D01*
X92300768Y-120911954D01*
X92400535Y-121098604D01*
X92415007Y-121168110D01*
X92400535Y-121217396D01*
X92300768Y-121404045D01*
X92240698Y-121602072D01*
X92225500Y-121756385D01*
X92225500Y-122384614D01*
X92240698Y-122538927D01*
X92300768Y-122736954D01*
X92389808Y-122903536D01*
X92398315Y-122919450D01*
X92529590Y-123079410D01*
X92689550Y-123210685D01*
X92708895Y-123221025D01*
X92759543Y-123270775D01*
X92775500Y-123332147D01*
X92775500Y-123391597D01*
X92755498Y-123459718D01*
X92720480Y-123495702D01*
X92702787Y-123507765D01*
X92702785Y-123507767D01*
X92702777Y-123507773D01*
X92515953Y-123681118D01*
X92357038Y-123880391D01*
X92229608Y-124101107D01*
X92229605Y-124101115D01*
X92136491Y-124338364D01*
X92079778Y-124586839D01*
X92060732Y-124841000D01*
X92079778Y-125095160D01*
X92136491Y-125343635D01*
X92229605Y-125580884D01*
X92229608Y-125580892D01*
X92357038Y-125801608D01*
X92515953Y-126000881D01*
X92612568Y-126090525D01*
X92702783Y-126174232D01*
X92702789Y-126174236D01*
X92913356Y-126317799D01*
X92913363Y-126317803D01*
X92913366Y-126317805D01*
X93045748Y-126381557D01*
X93142991Y-126428387D01*
X93143004Y-126428392D01*
X93386531Y-126503510D01*
X93386534Y-126503510D01*
X93386542Y-126503513D01*
X93638565Y-126541500D01*
X93638570Y-126541500D01*
X93893430Y-126541500D01*
X93893435Y-126541500D01*
X94145458Y-126503513D01*
X94171134Y-126495593D01*
X94388995Y-126428392D01*
X94388997Y-126428390D01*
X94389004Y-126428389D01*
X94618634Y-126317805D01*
X94829217Y-126174232D01*
X94930299Y-126080441D01*
X94993839Y-126048771D01*
X95064416Y-126056480D01*
X95101699Y-126080440D01*
X95202783Y-126174232D01*
X95202789Y-126174236D01*
X95413356Y-126317799D01*
X95413363Y-126317803D01*
X95413366Y-126317805D01*
X95545748Y-126381557D01*
X95642991Y-126428387D01*
X95643004Y-126428392D01*
X95886531Y-126503510D01*
X95886534Y-126503510D01*
X95886542Y-126503513D01*
X96138565Y-126541500D01*
X96138570Y-126541500D01*
X96393430Y-126541500D01*
X96393435Y-126541500D01*
X96645458Y-126503513D01*
X96671134Y-126495593D01*
X96888995Y-126428392D01*
X96888997Y-126428390D01*
X96889004Y-126428389D01*
X97118634Y-126317805D01*
X97146597Y-126298739D01*
X97214147Y-126276892D01*
X97282787Y-126295032D01*
X97306671Y-126313750D01*
X97363737Y-126370816D01*
X97363739Y-126370817D01*
X97516474Y-126466787D01*
X97516475Y-126466787D01*
X97516478Y-126466789D01*
X97686745Y-126526368D01*
X97821046Y-126541500D01*
X99710954Y-126541500D01*
X99845255Y-126526368D01*
X100015522Y-126466789D01*
X100168262Y-126370816D01*
X100295816Y-126243262D01*
X100391789Y-126090522D01*
X100451368Y-125920255D01*
X100466500Y-125785954D01*
X100466500Y-123896046D01*
X100451368Y-123761745D01*
X100391789Y-123591478D01*
X100391787Y-123591475D01*
X100391787Y-123591474D01*
X100295817Y-123438739D01*
X100295816Y-123438737D01*
X100168262Y-123311183D01*
X100168260Y-123311182D01*
X100015525Y-123215212D01*
X100015522Y-123215211D01*
X99890274Y-123171385D01*
X99845255Y-123155632D01*
X99710954Y-123140500D01*
X97821046Y-123140500D01*
X97686745Y-123155632D01*
X97686742Y-123155632D01*
X97686742Y-123155633D01*
X97516477Y-123215211D01*
X97516474Y-123215212D01*
X97409536Y-123282406D01*
X97341214Y-123301712D01*
X97273301Y-123281016D01*
X97227358Y-123226889D01*
X97216500Y-123175719D01*
X97216500Y-119286382D01*
X97216499Y-119286380D01*
X97215028Y-119278982D01*
X97215026Y-119278977D01*
X97191500Y-119160699D01*
X97187890Y-119142550D01*
X97179973Y-119102749D01*
X97143882Y-119015618D01*
X97108323Y-118929770D01*
X97004302Y-118774092D01*
X97004297Y-118774086D01*
X94332405Y-116102194D01*
X94298379Y-116039882D01*
X94295500Y-116013099D01*
X94295500Y-114696543D01*
X96343500Y-114696543D01*
X96343500Y-114919457D01*
X96351294Y-114978660D01*
X96372594Y-115140456D01*
X96372596Y-115140463D01*
X96430290Y-115355781D01*
X96515595Y-115561726D01*
X96515596Y-115561727D01*
X96515601Y-115561737D01*
X96627049Y-115754770D01*
X96762753Y-115931624D01*
X96762762Y-115931634D01*
X96920365Y-116089237D01*
X96920375Y-116089246D01*
X97097229Y-116224950D01*
X97226415Y-116299536D01*
X97290274Y-116336405D01*
X97496219Y-116421710D01*
X97711537Y-116479404D01*
X97711541Y-116479404D01*
X97711543Y-116479405D01*
X97768501Y-116486903D01*
X97932543Y-116508500D01*
X97932550Y-116508500D01*
X98155450Y-116508500D01*
X98155457Y-116508500D01*
X98355191Y-116482204D01*
X98376456Y-116479405D01*
X98376456Y-116479404D01*
X98376463Y-116479404D01*
X98591781Y-116421710D01*
X98797726Y-116336405D01*
X98990774Y-116224948D01*
X99167624Y-116089247D01*
X99325247Y-115931624D01*
X99460948Y-115754774D01*
X99572405Y-115561726D01*
X99657710Y-115355781D01*
X99715404Y-115140463D01*
X99744500Y-114919457D01*
X99744500Y-114696543D01*
X99715404Y-114475537D01*
X99657710Y-114260219D01*
X99572405Y-114054274D01*
X99460948Y-113861226D01*
X99325247Y-113684376D01*
X99325246Y-113684375D01*
X99325237Y-113684365D01*
X99167634Y-113526762D01*
X99167624Y-113526753D01*
X99100829Y-113475500D01*
X98990774Y-113391052D01*
X98990773Y-113391051D01*
X98990770Y-113391049D01*
X98797737Y-113279601D01*
X98797732Y-113279598D01*
X98797726Y-113279595D01*
X98591781Y-113194290D01*
X98444714Y-113154883D01*
X98376456Y-113136594D01*
X98155459Y-113107500D01*
X98155457Y-113107500D01*
X97932543Y-113107500D01*
X97932540Y-113107500D01*
X97711543Y-113136594D01*
X97525549Y-113186431D01*
X97496219Y-113194290D01*
X97388811Y-113238780D01*
X97290272Y-113279596D01*
X97290262Y-113279601D01*
X97097229Y-113391049D01*
X96920375Y-113526753D01*
X96920365Y-113526762D01*
X96762762Y-113684365D01*
X96762753Y-113684375D01*
X96627049Y-113861229D01*
X96515601Y-114054262D01*
X96515596Y-114054272D01*
X96515595Y-114054274D01*
X96506972Y-114075092D01*
X96430290Y-114260219D01*
X96372594Y-114475543D01*
X96343630Y-114695555D01*
X96343500Y-114696543D01*
X94295500Y-114696543D01*
X94295500Y-114587385D01*
X94295499Y-114587381D01*
X94258973Y-114403749D01*
X94198373Y-114257448D01*
X94187323Y-114230770D01*
X94083302Y-114075092D01*
X94083297Y-114075086D01*
X92681405Y-112673194D01*
X92647379Y-112610882D01*
X92644500Y-112584099D01*
X92644500Y-109380385D01*
X92644499Y-109380381D01*
X92642882Y-109372251D01*
X92607973Y-109196749D01*
X92560661Y-109082528D01*
X92536323Y-109023770D01*
X92432302Y-108868092D01*
X91642564Y-108078354D01*
X91608541Y-108016044D01*
X91611085Y-107952690D01*
X91655300Y-107806934D01*
X91670500Y-107652608D01*
X91670500Y-107024392D01*
X91655300Y-106870066D01*
X91595232Y-106672046D01*
X91497685Y-106489550D01*
X91497681Y-106489546D01*
X91495464Y-106485397D01*
X91480992Y-106415891D01*
X91495464Y-106366603D01*
X91497681Y-106362454D01*
X91497685Y-106362450D01*
X91595232Y-106179954D01*
X91655300Y-105981934D01*
X91670500Y-105827608D01*
X91670500Y-105199392D01*
X91655300Y-105045066D01*
X91595232Y-104847046D01*
X91497685Y-104664550D01*
X91366410Y-104504590D01*
X91206450Y-104373315D01*
X91206448Y-104373314D01*
X91206447Y-104373313D01*
X91023954Y-104275768D01*
X90825927Y-104215698D01*
X90671614Y-104200500D01*
X90671608Y-104200500D01*
X89668392Y-104200500D01*
X89668385Y-104200500D01*
X89514072Y-104215698D01*
X89316045Y-104275768D01*
X89213396Y-104330635D01*
X89143890Y-104345107D01*
X89094604Y-104330635D01*
X88991954Y-104275768D01*
X88793927Y-104215698D01*
X88639614Y-104200500D01*
X88639608Y-104200500D01*
X87636392Y-104200500D01*
X87633293Y-104200652D01*
X87633238Y-104199535D01*
X87567903Y-104187104D01*
X87536279Y-104164069D01*
X86948661Y-103576451D01*
X86914635Y-103514139D01*
X86912294Y-103498990D01*
X86910115Y-103475464D01*
X86849229Y-103261472D01*
X86849227Y-103261468D01*
X86849225Y-103261462D01*
X86750061Y-103062315D01*
X86750057Y-103062310D01*
X86615982Y-102884764D01*
X86451561Y-102734875D01*
X86451560Y-102734874D01*
X86262412Y-102617759D01*
X86262405Y-102617755D01*
X86262401Y-102617753D01*
X86262396Y-102617751D01*
X86054946Y-102537383D01*
X86015972Y-102530097D01*
X85836243Y-102496500D01*
X85613757Y-102496500D01*
X85472674Y-102522873D01*
X85395053Y-102537383D01*
X85187603Y-102617751D01*
X85187587Y-102617759D01*
X84998439Y-102734874D01*
X84998438Y-102734875D01*
X84834017Y-102884764D01*
X84699942Y-103062310D01*
X84699938Y-103062315D01*
X84600774Y-103261462D01*
X84600768Y-103261479D01*
X84539885Y-103475460D01*
X84519357Y-103697000D01*
X84539885Y-103918539D01*
X84600768Y-104132520D01*
X84600774Y-104132537D01*
X84699938Y-104331684D01*
X84699942Y-104331689D01*
X84834017Y-104509235D01*
X84998438Y-104659124D01*
X84998439Y-104659125D01*
X85187587Y-104776240D01*
X85187590Y-104776241D01*
X85187599Y-104776247D01*
X85395055Y-104856616D01*
X85395060Y-104856618D01*
X85535473Y-104882865D01*
X85598758Y-104915044D01*
X85601415Y-104917625D01*
X86354694Y-105670904D01*
X86388720Y-105733216D01*
X86383655Y-105804031D01*
X86354695Y-105849094D01*
X86256697Y-105947092D01*
X86152677Y-106102770D01*
X86145785Y-106119409D01*
X86081029Y-106275743D01*
X86081027Y-106275748D01*
X86044500Y-106459381D01*
X86044500Y-107871349D01*
X86024498Y-107939470D01*
X86019050Y-107947281D01*
X85969942Y-108012310D01*
X85969938Y-108012315D01*
X85870774Y-108211462D01*
X85870768Y-108211479D01*
X85809885Y-108425460D01*
X85789357Y-108647000D01*
X85809885Y-108868539D01*
X85870768Y-109082520D01*
X85870774Y-109082536D01*
X85943143Y-109227871D01*
X85955603Y-109297765D01*
X85951351Y-109319185D01*
X85935934Y-109372251D01*
X85933000Y-109409543D01*
X85933000Y-110047000D01*
X86784500Y-110047000D01*
X86852621Y-110067002D01*
X86899114Y-110120658D01*
X86910500Y-110173000D01*
X86910500Y-111181139D01*
X86920581Y-111294544D01*
X86920581Y-111294545D01*
X86973762Y-111480404D01*
X86980681Y-111493649D01*
X86995000Y-111551988D01*
X86995000Y-111664909D01*
X86974998Y-111733030D01*
X86969550Y-111740841D01*
X86858942Y-111887310D01*
X86858938Y-111887315D01*
X86759774Y-112086462D01*
X86759768Y-112086479D01*
X86698885Y-112300460D01*
X86678357Y-112522000D01*
X86698885Y-112743539D01*
X86759768Y-112957520D01*
X86759774Y-112957537D01*
X86858938Y-113156684D01*
X86858942Y-113156689D01*
X86947204Y-113273568D01*
X86972294Y-113339984D01*
X86957494Y-113409421D01*
X86907503Y-113459833D01*
X86846654Y-113475500D01*
X86535860Y-113475500D01*
X86422455Y-113485581D01*
X86422454Y-113485581D01*
X86236592Y-113538763D01*
X86065248Y-113628265D01*
X85915429Y-113750429D01*
X85793265Y-113900248D01*
X85703763Y-114071592D01*
X85650581Y-114257454D01*
X85650581Y-114257455D01*
X85640500Y-114370860D01*
X85640500Y-114695555D01*
X85620498Y-114763676D01*
X85566842Y-114810169D01*
X85496568Y-114820273D01*
X85448353Y-114802796D01*
X85379525Y-114760342D01*
X85211321Y-114704606D01*
X85211318Y-114704605D01*
X85107516Y-114694000D01*
X84836000Y-114694000D01*
X84836000Y-115395484D01*
X84822790Y-115451647D01*
X84767973Y-115561737D01*
X84725175Y-115647686D01*
X84723203Y-115646704D01*
X84685845Y-115695315D01*
X84619017Y-115719283D01*
X84611618Y-115719500D01*
X84454000Y-115719500D01*
X84385879Y-115699498D01*
X84339386Y-115645842D01*
X84328000Y-115593500D01*
X84328000Y-114694000D01*
X84056483Y-114694000D01*
X83952681Y-114704605D01*
X83952678Y-114704606D01*
X83784474Y-114760342D01*
X83633660Y-114853365D01*
X83633654Y-114853370D01*
X83508370Y-114978654D01*
X83508365Y-114978660D01*
X83449318Y-115074391D01*
X83396532Y-115121869D01*
X83326457Y-115133272D01*
X83275747Y-115115371D01*
X83087412Y-114998759D01*
X83087405Y-114998755D01*
X83087401Y-114998753D01*
X83087396Y-114998751D01*
X82879946Y-114918383D01*
X82840972Y-114911097D01*
X82661243Y-114877500D01*
X82438757Y-114877500D01*
X82338503Y-114896241D01*
X82220053Y-114918383D01*
X82012603Y-114998751D01*
X82012587Y-114998759D01*
X81823439Y-115115874D01*
X81823438Y-115115875D01*
X81659017Y-115265764D01*
X81524942Y-115443310D01*
X81524938Y-115443315D01*
X81425774Y-115642462D01*
X81425768Y-115642479D01*
X81364885Y-115856460D01*
X81344357Y-116078000D01*
X81364885Y-116299539D01*
X81425768Y-116513520D01*
X81425774Y-116513537D01*
X81524938Y-116712684D01*
X81524942Y-116712689D01*
X81659017Y-116890235D01*
X81823438Y-117040124D01*
X81823439Y-117040125D01*
X82012587Y-117157240D01*
X82012590Y-117157241D01*
X82012599Y-117157247D01*
X82220055Y-117237616D01*
X82220060Y-117237618D01*
X82360473Y-117263865D01*
X82423758Y-117296044D01*
X82426415Y-117298625D01*
X82529695Y-117401905D01*
X82563721Y-117464217D01*
X82558656Y-117535032D01*
X82516109Y-117591868D01*
X82449589Y-117616679D01*
X82440600Y-117617000D01*
X82102382Y-117617000D01*
X82081645Y-117621125D01*
X82060908Y-117625250D01*
X81918748Y-117653527D01*
X81918743Y-117653529D01*
X81745769Y-117725178D01*
X81652498Y-117787500D01*
X81590095Y-117829196D01*
X81590088Y-117829201D01*
X80777695Y-118641595D01*
X80715383Y-118675621D01*
X80688600Y-118678500D01*
X80270385Y-118678500D01*
X80116072Y-118693698D01*
X79918045Y-118753768D01*
X79735552Y-118851313D01*
X79575590Y-118982590D01*
X79444313Y-119142552D01*
X79346768Y-119325045D01*
X79286698Y-119523072D01*
X79271500Y-119677385D01*
X79271500Y-120305614D01*
X79286699Y-120459931D01*
X79287906Y-120465997D01*
X79285871Y-120466401D01*
X79286422Y-120527916D01*
X79248573Y-120587983D01*
X79184259Y-120618052D01*
X79165213Y-120619500D01*
X78213385Y-120619500D01*
X78059072Y-120634698D01*
X77861045Y-120694768D01*
X77678550Y-120792314D01*
X77678548Y-120792315D01*
X77612886Y-120846202D01*
X77547538Y-120873954D01*
X77496379Y-120869376D01*
X77363927Y-120829198D01*
X77209614Y-120814000D01*
X77209608Y-120814000D01*
X76206392Y-120814000D01*
X76206385Y-120814000D01*
X76052072Y-120829198D01*
X75854045Y-120889268D01*
X75666896Y-120989302D01*
X75597390Y-121003774D01*
X75531094Y-120978370D01*
X75489056Y-120921157D01*
X75481500Y-120878180D01*
X75481500Y-117220005D01*
X75481499Y-117219990D01*
X75474754Y-117157248D01*
X75463093Y-117048783D01*
X75451707Y-116996441D01*
X75441954Y-116956537D01*
X75423346Y-116909594D01*
X75375488Y-116788858D01*
X75375487Y-116788857D01*
X75340730Y-116738249D01*
X75273371Y-116640169D01*
X75273369Y-116640166D01*
X75226875Y-116586510D01*
X75226861Y-116586495D01*
X75157922Y-116516134D01*
X75157919Y-116516131D01*
X75011348Y-116411006D01*
X75011349Y-116411006D01*
X74845059Y-116341131D01*
X74845060Y-116341131D01*
X74776922Y-116321124D01*
X74729251Y-116308697D01*
X74729243Y-116308696D01*
X74550001Y-116288500D01*
X74550000Y-116288500D01*
X70527500Y-116288500D01*
X70459379Y-116268498D01*
X70412886Y-116214842D01*
X70401500Y-116162500D01*
X70401500Y-113410005D01*
X70401499Y-113409990D01*
X70391090Y-113313173D01*
X70383093Y-113238783D01*
X70371707Y-113186441D01*
X70361954Y-113146537D01*
X70361953Y-113146534D01*
X70295488Y-112978858D01*
X70295487Y-112978857D01*
X70274741Y-112948650D01*
X70193371Y-112830169D01*
X70193369Y-112830166D01*
X70146875Y-112776510D01*
X70146861Y-112776495D01*
X70077922Y-112706134D01*
X70077919Y-112706131D01*
X69931348Y-112601006D01*
X69931349Y-112601006D01*
X69765059Y-112531131D01*
X69765060Y-112531131D01*
X69696922Y-112511124D01*
X69649251Y-112498697D01*
X69649243Y-112498696D01*
X69470001Y-112478500D01*
X69470000Y-112478500D01*
X64896000Y-112478500D01*
X64895990Y-112478500D01*
X64724780Y-112496907D01*
X64672431Y-112508295D01*
X64632534Y-112518046D01*
X64464858Y-112584511D01*
X64464857Y-112584512D01*
X64316166Y-112686630D01*
X64262510Y-112733124D01*
X64262495Y-112733138D01*
X64192134Y-112802077D01*
X64192131Y-112802080D01*
X64087006Y-112948650D01*
X64017131Y-113114940D01*
X63997128Y-113183065D01*
X63984697Y-113230748D01*
X63984696Y-113230756D01*
X63964500Y-113409998D01*
X63964500Y-115865310D01*
X63979421Y-116019633D01*
X63979422Y-116019638D01*
X63988672Y-116067024D01*
X63988677Y-116067046D01*
X63993581Y-116090337D01*
X64012976Y-116146127D01*
X64016451Y-116217039D01*
X63981036Y-116278572D01*
X63917976Y-116311190D01*
X63893962Y-116313500D01*
X62799860Y-116313500D01*
X62686455Y-116323581D01*
X62686454Y-116323581D01*
X62500592Y-116376763D01*
X62329252Y-116466264D01*
X62329250Y-116466265D01*
X62329249Y-116466266D01*
X62313137Y-116479404D01*
X62309623Y-116482269D01*
X62244187Y-116509814D01*
X62174247Y-116497609D01*
X62150377Y-116482269D01*
X62130751Y-116466266D01*
X62045451Y-116421709D01*
X61959407Y-116376763D01*
X61834875Y-116341130D01*
X61773552Y-116323583D01*
X61773550Y-116323582D01*
X61773544Y-116323581D01*
X61660139Y-116313500D01*
X61660138Y-116313500D01*
X60524862Y-116313500D01*
X60524860Y-116313500D01*
X60411455Y-116323581D01*
X60411454Y-116323581D01*
X60225592Y-116376763D01*
X60054248Y-116466265D01*
X59904429Y-116588429D01*
X59782265Y-116738248D01*
X59692763Y-116909592D01*
X59639581Y-117095454D01*
X59639581Y-117095455D01*
X59629500Y-117208860D01*
X59629500Y-117619139D01*
X59639581Y-117732544D01*
X59639581Y-117732545D01*
X59692763Y-117918407D01*
X59782265Y-118089751D01*
X59837814Y-118157875D01*
X59865360Y-118223310D01*
X59853157Y-118293250D01*
X59805079Y-118345490D01*
X59740162Y-118363500D01*
X59475045Y-118363500D01*
X59406924Y-118343498D01*
X59363923Y-118296896D01*
X59339686Y-118251552D01*
X59339685Y-118251550D01*
X59208410Y-118091590D01*
X59048450Y-117960315D01*
X59048448Y-117960314D01*
X59048447Y-117960313D01*
X58865954Y-117862768D01*
X58755297Y-117829201D01*
X58667934Y-117802700D01*
X58667933Y-117802699D01*
X58667927Y-117802698D01*
X58513614Y-117787500D01*
X58513608Y-117787500D01*
X57310392Y-117787500D01*
X57310385Y-117787500D01*
X57156072Y-117802698D01*
X56958045Y-117862768D01*
X56775552Y-117960313D01*
X56615590Y-118091590D01*
X56484313Y-118251552D01*
X56386768Y-118434045D01*
X56326698Y-118632072D01*
X56311500Y-118786385D01*
X56311500Y-120989614D01*
X56326698Y-121143927D01*
X56386768Y-121341954D01*
X56483209Y-121522382D01*
X56484315Y-121524450D01*
X56615590Y-121684410D01*
X56658804Y-121719875D01*
X56743953Y-121789754D01*
X56783922Y-121848431D01*
X56785823Y-121919403D01*
X56766520Y-121957984D01*
X56767218Y-121958415D01*
X56670342Y-122115474D01*
X56614606Y-122283678D01*
X56614605Y-122283681D01*
X56604000Y-122387483D01*
X56604000Y-123234000D01*
X59220000Y-123234000D01*
X59220000Y-122387483D01*
X59209394Y-122283681D01*
X59209393Y-122283678D01*
X59153657Y-122115474D01*
X59056782Y-121958415D01*
X59058047Y-121957634D01*
X59034581Y-121899455D01*
X59047836Y-121829707D01*
X59080044Y-121789756D01*
X59208410Y-121684410D01*
X59339685Y-121524450D01*
X59437232Y-121341954D01*
X59497300Y-121143934D01*
X59499846Y-121118090D01*
X59503859Y-121077331D01*
X59512500Y-120989608D01*
X59512500Y-120390500D01*
X59532502Y-120322379D01*
X59586158Y-120275886D01*
X59638500Y-120264500D01*
X60028619Y-120264500D01*
X60086955Y-120278818D01*
X60225594Y-120351237D01*
X60411448Y-120404417D01*
X60411453Y-120404417D01*
X60411455Y-120404418D01*
X60447150Y-120407591D01*
X60524862Y-120414500D01*
X60586407Y-120414500D01*
X60631922Y-120423008D01*
X60670164Y-120437823D01*
X60762553Y-120473616D01*
X60762556Y-120473616D01*
X60762560Y-120473618D01*
X60981257Y-120514500D01*
X60981260Y-120514500D01*
X61126144Y-120514500D01*
X61194265Y-120534502D01*
X61240758Y-120588158D01*
X61250862Y-120658432D01*
X61242305Y-120689311D01*
X61223131Y-120734940D01*
X61203124Y-120803077D01*
X61190697Y-120850748D01*
X61190696Y-120850756D01*
X61170500Y-121029998D01*
X61170500Y-131954009D01*
X61188907Y-132125219D01*
X61200295Y-132177568D01*
X61210046Y-132217465D01*
X61276511Y-132385141D01*
X61276512Y-132385142D01*
X61378630Y-132533833D01*
X61425124Y-132587489D01*
X61425138Y-132587504D01*
X61494077Y-132657865D01*
X61494080Y-132657868D01*
X61594970Y-132730230D01*
X61638667Y-132786186D01*
X61645175Y-132856884D01*
X61623921Y-132906053D01*
X61546691Y-133013729D01*
X61476816Y-133180017D01*
X61476810Y-133180032D01*
X61457126Y-133247069D01*
X61444697Y-133294748D01*
X61444696Y-133294756D01*
X61424500Y-133473998D01*
X61424500Y-153518500D01*
X61404498Y-153586621D01*
X61350842Y-153633114D01*
X61298500Y-153644500D01*
X48411500Y-153644500D01*
X48343379Y-153624498D01*
X48296886Y-153570842D01*
X48285500Y-153518500D01*
X48285500Y-147462540D01*
X52655500Y-147462540D01*
X52655500Y-147685459D01*
X52684594Y-147906456D01*
X52684596Y-147906463D01*
X52742290Y-148121781D01*
X52827595Y-148327726D01*
X52827596Y-148327727D01*
X52827601Y-148327737D01*
X52939049Y-148520770D01*
X53074753Y-148697624D01*
X53074762Y-148697634D01*
X53232365Y-148855237D01*
X53232375Y-148855246D01*
X53232376Y-148855247D01*
X53409226Y-148990948D01*
X53602274Y-149102405D01*
X53808219Y-149187710D01*
X54023537Y-149245404D01*
X54023541Y-149245404D01*
X54023543Y-149245405D01*
X54080501Y-149252903D01*
X54244543Y-149274500D01*
X54244550Y-149274500D01*
X54467450Y-149274500D01*
X54467457Y-149274500D01*
X54667191Y-149248204D01*
X54688456Y-149245405D01*
X54688456Y-149245404D01*
X54688463Y-149245404D01*
X54903781Y-149187710D01*
X55109726Y-149102405D01*
X55302774Y-148990948D01*
X55479624Y-148855247D01*
X55637247Y-148697624D01*
X55772948Y-148520774D01*
X55884405Y-148327726D01*
X55969710Y-148121781D01*
X56027404Y-147906463D01*
X56056500Y-147685457D01*
X56056500Y-147462543D01*
X56027404Y-147241537D01*
X55969710Y-147026219D01*
X55884405Y-146820274D01*
X55772948Y-146627226D01*
X55637247Y-146450376D01*
X55637246Y-146450375D01*
X55637237Y-146450365D01*
X55479634Y-146292762D01*
X55479624Y-146292753D01*
X55302770Y-146157049D01*
X55109737Y-146045601D01*
X55109732Y-146045598D01*
X55109726Y-146045595D01*
X54903781Y-145960290D01*
X54688463Y-145902596D01*
X54688456Y-145902594D01*
X54467459Y-145873500D01*
X54467457Y-145873500D01*
X54244543Y-145873500D01*
X54244540Y-145873500D01*
X54023543Y-145902594D01*
X53808219Y-145960290D01*
X53602272Y-146045596D01*
X53602262Y-146045601D01*
X53409229Y-146157049D01*
X53232375Y-146292753D01*
X53232365Y-146292762D01*
X53074762Y-146450365D01*
X53074753Y-146450375D01*
X52939049Y-146627229D01*
X52827601Y-146820262D01*
X52827596Y-146820272D01*
X52742290Y-147026219D01*
X52684594Y-147241543D01*
X52655500Y-147462540D01*
X48285500Y-147462540D01*
X48285500Y-124588516D01*
X56604000Y-124588516D01*
X56614605Y-124692318D01*
X56614606Y-124692321D01*
X56670342Y-124860525D01*
X56763365Y-125011339D01*
X56763370Y-125011345D01*
X56888654Y-125136629D01*
X56888660Y-125136634D01*
X57039474Y-125229657D01*
X57207678Y-125285393D01*
X57207681Y-125285394D01*
X57311483Y-125295999D01*
X57311483Y-125296000D01*
X57658000Y-125296000D01*
X58166000Y-125296000D01*
X58512517Y-125296000D01*
X58512516Y-125295999D01*
X58616318Y-125285394D01*
X58616321Y-125285393D01*
X58784525Y-125229657D01*
X58935339Y-125136634D01*
X58935345Y-125136629D01*
X59060629Y-125011345D01*
X59060634Y-125011339D01*
X59153657Y-124860525D01*
X59209393Y-124692321D01*
X59209394Y-124692318D01*
X59219999Y-124588516D01*
X59220000Y-124588516D01*
X59220000Y-123742000D01*
X58166000Y-123742000D01*
X58166000Y-125296000D01*
X57658000Y-125296000D01*
X57658000Y-123742000D01*
X56604000Y-123742000D01*
X56604000Y-124588516D01*
X48285500Y-124588516D01*
X48285500Y-114696543D01*
X52655500Y-114696543D01*
X52655500Y-114919457D01*
X52663294Y-114978660D01*
X52684594Y-115140456D01*
X52684596Y-115140463D01*
X52742290Y-115355781D01*
X52827595Y-115561726D01*
X52827596Y-115561727D01*
X52827601Y-115561737D01*
X52939049Y-115754770D01*
X53074753Y-115931624D01*
X53074762Y-115931634D01*
X53232365Y-116089237D01*
X53232375Y-116089246D01*
X53409229Y-116224950D01*
X53538415Y-116299536D01*
X53602274Y-116336405D01*
X53808219Y-116421710D01*
X54023537Y-116479404D01*
X54023541Y-116479404D01*
X54023543Y-116479405D01*
X54080501Y-116486903D01*
X54244543Y-116508500D01*
X54244550Y-116508500D01*
X54467450Y-116508500D01*
X54467457Y-116508500D01*
X54667191Y-116482204D01*
X54688456Y-116479405D01*
X54688456Y-116479404D01*
X54688463Y-116479404D01*
X54903781Y-116421710D01*
X55109726Y-116336405D01*
X55302774Y-116224948D01*
X55479624Y-116089247D01*
X55637247Y-115931624D01*
X55772948Y-115754774D01*
X55884405Y-115561726D01*
X55969710Y-115355781D01*
X56027404Y-115140463D01*
X56056500Y-114919457D01*
X56056500Y-114696543D01*
X56027404Y-114475537D01*
X55969710Y-114260219D01*
X55884405Y-114054274D01*
X55772948Y-113861226D01*
X55637247Y-113684376D01*
X55637246Y-113684375D01*
X55637237Y-113684365D01*
X55479634Y-113526762D01*
X55479624Y-113526753D01*
X55412829Y-113475500D01*
X55302774Y-113391052D01*
X55302773Y-113391051D01*
X55302770Y-113391049D01*
X55109737Y-113279601D01*
X55109732Y-113279598D01*
X55109726Y-113279595D01*
X54903781Y-113194290D01*
X54756714Y-113154883D01*
X54688456Y-113136594D01*
X54467459Y-113107500D01*
X54467457Y-113107500D01*
X54244543Y-113107500D01*
X54244540Y-113107500D01*
X54023543Y-113136594D01*
X53837549Y-113186431D01*
X53808219Y-113194290D01*
X53700811Y-113238780D01*
X53602272Y-113279596D01*
X53602262Y-113279601D01*
X53409229Y-113391049D01*
X53232375Y-113526753D01*
X53232365Y-113526762D01*
X53074762Y-113684365D01*
X53074753Y-113684375D01*
X52939049Y-113861229D01*
X52827601Y-114054262D01*
X52827596Y-114054272D01*
X52827595Y-114054274D01*
X52818972Y-114075092D01*
X52742290Y-114260219D01*
X52684594Y-114475543D01*
X52655630Y-114695555D01*
X52655500Y-114696543D01*
X48285500Y-114696543D01*
X48285500Y-111822752D01*
X48303926Y-111760000D01*
X76703789Y-111760000D01*
X76722604Y-111999064D01*
X76778584Y-112232241D01*
X76780548Y-112236981D01*
X76870354Y-112453793D01*
X76995651Y-112658260D01*
X77151392Y-112840608D01*
X77333740Y-112996349D01*
X77538207Y-113121646D01*
X77759757Y-113213415D01*
X77992935Y-113269396D01*
X78232000Y-113288211D01*
X78471065Y-113269396D01*
X78704243Y-113213415D01*
X78925793Y-113121646D01*
X79130260Y-112996349D01*
X79312608Y-112840608D01*
X79468349Y-112658260D01*
X79593646Y-112453793D01*
X79685415Y-112232243D01*
X79741396Y-111999065D01*
X79760211Y-111760000D01*
X79741396Y-111520935D01*
X79685415Y-111287757D01*
X79645940Y-111192456D01*
X85933001Y-111192456D01*
X85935934Y-111229750D01*
X85982318Y-111389400D01*
X86066948Y-111532501D01*
X86066949Y-111532503D01*
X86184497Y-111650051D01*
X86327600Y-111734681D01*
X86487000Y-111780991D01*
X86487000Y-110555000D01*
X85933001Y-110555000D01*
X85933001Y-111192456D01*
X79645940Y-111192456D01*
X79593646Y-111066207D01*
X79468349Y-110861740D01*
X79312608Y-110679392D01*
X79201807Y-110584758D01*
X79162999Y-110525308D01*
X79162493Y-110454313D01*
X79200449Y-110394315D01*
X79208130Y-110388080D01*
X79317904Y-110305904D01*
X79405444Y-110188965D01*
X79405444Y-110188964D01*
X79456494Y-110052093D01*
X79462999Y-109991597D01*
X79463000Y-109991585D01*
X79463000Y-109474000D01*
X78599195Y-109474000D01*
X78646674Y-109391764D01*
X78677000Y-109278585D01*
X78677000Y-109161415D01*
X78646674Y-109048236D01*
X78599195Y-108966000D01*
X79463000Y-108966000D01*
X79463000Y-108448414D01*
X79462999Y-108448402D01*
X79456494Y-108387906D01*
X79405444Y-108251035D01*
X79405444Y-108251034D01*
X79317904Y-108134095D01*
X79200965Y-108046555D01*
X79064093Y-107995505D01*
X79003597Y-107989000D01*
X78486000Y-107989000D01*
X78486000Y-108852805D01*
X78403764Y-108805326D01*
X78290585Y-108775000D01*
X78173415Y-108775000D01*
X78060236Y-108805326D01*
X77978000Y-108852805D01*
X77978000Y-107989000D01*
X77460402Y-107989000D01*
X77399906Y-107995505D01*
X77263035Y-108046555D01*
X77263034Y-108046555D01*
X77146095Y-108134095D01*
X77058555Y-108251034D01*
X77058555Y-108251035D01*
X77007505Y-108387906D01*
X77001000Y-108448402D01*
X77001000Y-108966000D01*
X77864805Y-108966000D01*
X77817326Y-109048236D01*
X77787000Y-109161415D01*
X77787000Y-109278585D01*
X77817326Y-109391764D01*
X77864805Y-109474000D01*
X77001000Y-109474000D01*
X77001000Y-109991597D01*
X77007505Y-110052093D01*
X77058555Y-110188964D01*
X77058555Y-110188965D01*
X77146095Y-110305904D01*
X77255869Y-110388080D01*
X77298416Y-110444916D01*
X77303480Y-110515732D01*
X77269455Y-110578044D01*
X77262191Y-110584758D01*
X77151395Y-110679388D01*
X76995650Y-110861741D01*
X76870353Y-111066208D01*
X76778584Y-111287758D01*
X76722604Y-111520935D01*
X76703789Y-111760000D01*
X48303926Y-111760000D01*
X48305502Y-111754631D01*
X48322405Y-111733657D01*
X50216509Y-109839553D01*
X60311510Y-109839553D01*
X64653785Y-109839553D01*
X64653785Y-106425103D01*
X60311510Y-106425103D01*
X60311510Y-109839553D01*
X50216509Y-109839553D01*
X60234062Y-99822000D01*
X76703789Y-99822000D01*
X76722604Y-100061064D01*
X76778584Y-100294241D01*
X76778585Y-100294243D01*
X76870354Y-100515793D01*
X76995651Y-100720260D01*
X77151392Y-100902608D01*
X77333740Y-101058349D01*
X77538207Y-101183646D01*
X77759757Y-101275415D01*
X77992935Y-101331396D01*
X78232000Y-101350211D01*
X78471065Y-101331396D01*
X78704243Y-101275415D01*
X78925793Y-101183646D01*
X79130260Y-101058349D01*
X79312608Y-100902608D01*
X79468349Y-100720260D01*
X79593646Y-100515793D01*
X79685415Y-100294243D01*
X79741396Y-100061065D01*
X79760211Y-99822000D01*
X79741396Y-99582935D01*
X79685415Y-99349757D01*
X79593646Y-99128207D01*
X79468349Y-98923740D01*
X79312608Y-98741392D01*
X79201807Y-98646758D01*
X79162999Y-98587308D01*
X79162493Y-98516313D01*
X79200449Y-98456315D01*
X79208130Y-98450080D01*
X79317904Y-98367904D01*
X79405444Y-98250965D01*
X79405444Y-98250964D01*
X79456494Y-98114093D01*
X79462999Y-98053597D01*
X79463000Y-98053585D01*
X79463000Y-97536000D01*
X78599195Y-97536000D01*
X78646674Y-97453764D01*
X78677000Y-97340585D01*
X78677000Y-97223415D01*
X78646674Y-97110236D01*
X78599195Y-97028000D01*
X79463000Y-97028000D01*
X79463000Y-96510414D01*
X79462999Y-96510402D01*
X79456494Y-96449906D01*
X79405444Y-96313035D01*
X79405444Y-96313034D01*
X79317904Y-96196095D01*
X79200965Y-96108555D01*
X79064093Y-96057505D01*
X79003597Y-96051000D01*
X78486000Y-96051000D01*
X78486000Y-96914805D01*
X78403764Y-96867326D01*
X78290585Y-96837000D01*
X78173415Y-96837000D01*
X78060236Y-96867326D01*
X77978000Y-96914805D01*
X77978000Y-96051000D01*
X77460402Y-96051000D01*
X77399906Y-96057505D01*
X77263035Y-96108555D01*
X77263034Y-96108555D01*
X77146095Y-96196095D01*
X77058555Y-96313034D01*
X77058555Y-96313035D01*
X77007505Y-96449906D01*
X77001000Y-96510402D01*
X77001000Y-97028000D01*
X77864805Y-97028000D01*
X77817326Y-97110236D01*
X77787000Y-97223415D01*
X77787000Y-97340585D01*
X77817326Y-97453764D01*
X77864805Y-97536000D01*
X77001000Y-97536000D01*
X77001000Y-98053597D01*
X77007505Y-98114093D01*
X77058555Y-98250964D01*
X77058555Y-98250965D01*
X77146095Y-98367904D01*
X77255869Y-98450080D01*
X77298416Y-98506916D01*
X77303480Y-98577732D01*
X77269455Y-98640044D01*
X77262191Y-98646758D01*
X77151395Y-98741388D01*
X76995650Y-98923741D01*
X76870353Y-99128208D01*
X76778584Y-99349758D01*
X76722604Y-99582935D01*
X76703789Y-99822000D01*
X60234062Y-99822000D01*
X68553657Y-91502405D01*
X68615969Y-91468379D01*
X68642752Y-91465500D01*
X83757247Y-91465500D01*
X83825368Y-91485502D01*
G37*
G04 #@! TD.AperFunction*
G04 #@! TA.AperFunction,Conductor*
G36*
X75666895Y-125089696D02*
G01*
X75671546Y-125092182D01*
X75671550Y-125092185D01*
X75690897Y-125102526D01*
X75741544Y-125152276D01*
X75757500Y-125213647D01*
X75757500Y-127601618D01*
X75794027Y-127785251D01*
X75794029Y-127785256D01*
X75810728Y-127825571D01*
X75865675Y-127958227D01*
X75865676Y-127958229D01*
X75865677Y-127958230D01*
X75923266Y-128044417D01*
X75944480Y-128112167D01*
X75944500Y-128114417D01*
X75944500Y-128571614D01*
X75959698Y-128725927D01*
X75959699Y-128725933D01*
X75959700Y-128725934D01*
X76019768Y-128923954D01*
X76117315Y-129106450D01*
X76248590Y-129266410D01*
X76335412Y-129337662D01*
X76375380Y-129396338D01*
X76377281Y-129467309D01*
X76362720Y-129501207D01*
X76303342Y-129597475D01*
X76247606Y-129765678D01*
X76247605Y-129765681D01*
X76237000Y-129869483D01*
X76237000Y-129916000D01*
X77598000Y-129916000D01*
X77666121Y-129936002D01*
X77712614Y-129989658D01*
X77724000Y-130042000D01*
X77724000Y-131178000D01*
X77995517Y-131178000D01*
X77995516Y-131177999D01*
X78099318Y-131167394D01*
X78099321Y-131167393D01*
X78267525Y-131111657D01*
X78418339Y-131018634D01*
X78418345Y-131018629D01*
X78543629Y-130893345D01*
X78543634Y-130893339D01*
X78636657Y-130742525D01*
X78692393Y-130574321D01*
X78692394Y-130574318D01*
X78702999Y-130470516D01*
X78703000Y-130470516D01*
X78703000Y-130311849D01*
X78723002Y-130243728D01*
X78776658Y-130197235D01*
X78846932Y-130187131D01*
X78901517Y-130210291D01*
X78901679Y-130210019D01*
X78903717Y-130211224D01*
X78906224Y-130212288D01*
X78908497Y-130214051D01*
X79051598Y-130298681D01*
X79211251Y-130345065D01*
X79211249Y-130345065D01*
X79248543Y-130347999D01*
X79886000Y-130347999D01*
X79886000Y-129496500D01*
X79906002Y-129428379D01*
X79959658Y-129381886D01*
X80012000Y-129370500D01*
X80268000Y-129370500D01*
X80336121Y-129390502D01*
X80382614Y-129444158D01*
X80394000Y-129496500D01*
X80394000Y-130348000D01*
X80405334Y-130359334D01*
X80439360Y-130421646D01*
X80434295Y-130492461D01*
X80396177Y-130545825D01*
X80391590Y-130549589D01*
X80260313Y-130709552D01*
X80162768Y-130892045D01*
X80102698Y-131090072D01*
X80087500Y-131244385D01*
X80087500Y-131997614D01*
X80102698Y-132151927D01*
X80162768Y-132349954D01*
X80256064Y-132524498D01*
X80260315Y-132532450D01*
X80391590Y-132692410D01*
X80551550Y-132823685D01*
X80734046Y-132921232D01*
X80912701Y-132975425D01*
X80972082Y-133014340D01*
X81000997Y-133079181D01*
X80990267Y-133149362D01*
X80943298Y-133202601D01*
X80912702Y-133216573D01*
X80812208Y-133247058D01*
X80734045Y-133270768D01*
X80551552Y-133368313D01*
X80391590Y-133499590D01*
X80260313Y-133659552D01*
X80162768Y-133842045D01*
X80102698Y-134040072D01*
X80087500Y-134194385D01*
X80087500Y-134947614D01*
X80102698Y-135101927D01*
X80162768Y-135299954D01*
X80245799Y-135455294D01*
X80260315Y-135482450D01*
X80391590Y-135642410D01*
X80551550Y-135773685D01*
X80734046Y-135871232D01*
X80932066Y-135931300D01*
X80932070Y-135931300D01*
X80932072Y-135931301D01*
X81019789Y-135939940D01*
X81086392Y-135946500D01*
X81086401Y-135946500D01*
X82489599Y-135946500D01*
X82489608Y-135946500D01*
X82577331Y-135937859D01*
X82643927Y-135931301D01*
X82643928Y-135931300D01*
X82643934Y-135931300D01*
X82841954Y-135871232D01*
X82998604Y-135787499D01*
X83068109Y-135773028D01*
X83117395Y-135787499D01*
X83274046Y-135871232D01*
X83472066Y-135931300D01*
X83472070Y-135931300D01*
X83472072Y-135931301D01*
X83559789Y-135939940D01*
X83626392Y-135946500D01*
X83626401Y-135946500D01*
X85029599Y-135946500D01*
X85029608Y-135946500D01*
X85117331Y-135937859D01*
X85183927Y-135931301D01*
X85183928Y-135931300D01*
X85183934Y-135931300D01*
X85381954Y-135871232D01*
X85564450Y-135773685D01*
X85724410Y-135642410D01*
X85785833Y-135567564D01*
X85844509Y-135527598D01*
X85883231Y-135521500D01*
X87669112Y-135521500D01*
X87669117Y-135521500D01*
X87760933Y-135503236D01*
X87852751Y-135484973D01*
X87924401Y-135455294D01*
X88025730Y-135413323D01*
X88181408Y-135309302D01*
X88640306Y-134850403D01*
X88702617Y-134816380D01*
X88729400Y-134813500D01*
X89147599Y-134813500D01*
X89147608Y-134813500D01*
X89235331Y-134804859D01*
X89301927Y-134798301D01*
X89301928Y-134798300D01*
X89301934Y-134798300D01*
X89499954Y-134738232D01*
X89682450Y-134640685D01*
X89842410Y-134509410D01*
X89973685Y-134349450D01*
X90071232Y-134166954D01*
X90071231Y-134166954D01*
X90074150Y-134161495D01*
X90076322Y-134162656D01*
X90114036Y-134115825D01*
X90181392Y-134093383D01*
X90248928Y-134110181D01*
X90324170Y-134153622D01*
X90608836Y-134271535D01*
X90906456Y-134351282D01*
X90906462Y-134351282D01*
X90906463Y-134351283D01*
X90941515Y-134355897D01*
X91211940Y-134391500D01*
X91211947Y-134391500D01*
X91520053Y-134391500D01*
X91520060Y-134391500D01*
X91825544Y-134351282D01*
X92123164Y-134271535D01*
X92407830Y-134153622D01*
X92674670Y-133999562D01*
X92674670Y-133999561D01*
X92674675Y-133999559D01*
X92816632Y-133890630D01*
X92919117Y-133811991D01*
X93136991Y-133594117D01*
X93229166Y-133473992D01*
X93324559Y-133349675D01*
X93351639Y-133302772D01*
X93478622Y-133082830D01*
X93596535Y-132798164D01*
X93676282Y-132500544D01*
X93716500Y-132195060D01*
X93716500Y-131940900D01*
X93736502Y-131872779D01*
X93790158Y-131826286D01*
X93860432Y-131816182D01*
X93925012Y-131845676D01*
X93931595Y-131851805D01*
X101374595Y-139294805D01*
X101408621Y-139357117D01*
X101411500Y-139383900D01*
X101411500Y-139828000D01*
X101391498Y-139896121D01*
X101337842Y-139942614D01*
X101285500Y-139954000D01*
X95619967Y-139954000D01*
X95551846Y-139933998D01*
X95505353Y-139880342D01*
X95495249Y-139810068D01*
X95496759Y-139801621D01*
X95497894Y-139796315D01*
X95508499Y-139692516D01*
X95508500Y-139692516D01*
X95508500Y-139446000D01*
X94360000Y-139446000D01*
X94291879Y-139425998D01*
X94245386Y-139372342D01*
X94234000Y-139320000D01*
X94234000Y-138938000D01*
X94742000Y-138938000D01*
X95508500Y-138938000D01*
X95508500Y-138691483D01*
X95497894Y-138587681D01*
X95497893Y-138587678D01*
X95442157Y-138419474D01*
X95349134Y-138268660D01*
X95349129Y-138268654D01*
X95223845Y-138143370D01*
X95223839Y-138143365D01*
X95073025Y-138050342D01*
X94904821Y-137994606D01*
X94904818Y-137994605D01*
X94801016Y-137984000D01*
X94742000Y-137984000D01*
X94742000Y-138938000D01*
X94234000Y-138938000D01*
X94234000Y-137984000D01*
X94174983Y-137984000D01*
X94071181Y-137994605D01*
X94071178Y-137994606D01*
X93902970Y-138050344D01*
X93873101Y-138068768D01*
X93804621Y-138087505D01*
X93736883Y-138066246D01*
X93709554Y-138041460D01*
X93671912Y-137995593D01*
X93671910Y-137995590D01*
X93511950Y-137864315D01*
X93511948Y-137864314D01*
X93511947Y-137864313D01*
X93329454Y-137766768D01*
X93131427Y-137706698D01*
X92977114Y-137691500D01*
X92977108Y-137691500D01*
X92348892Y-137691500D01*
X92348885Y-137691500D01*
X92194572Y-137706698D01*
X91996545Y-137766768D01*
X91814052Y-137864313D01*
X91654090Y-137995590D01*
X91522813Y-138155552D01*
X91425268Y-138338045D01*
X91365198Y-138536072D01*
X91350000Y-138690385D01*
X91350000Y-139693614D01*
X91362020Y-139815650D01*
X91348791Y-139885403D01*
X91299951Y-139936931D01*
X91236627Y-139954000D01*
X77131500Y-139954000D01*
X77063379Y-139933998D01*
X77016886Y-139880342D01*
X77005500Y-139828000D01*
X77005500Y-133474004D01*
X77005499Y-133473992D01*
X76997097Y-133395848D01*
X76987090Y-133302772D01*
X76975884Y-133251261D01*
X76966134Y-133211365D01*
X76899665Y-133043684D01*
X76797550Y-132894998D01*
X76764524Y-132856884D01*
X76751799Y-132842198D01*
X76682839Y-132771817D01*
X76536270Y-132666691D01*
X76431010Y-132622460D01*
X76369981Y-132596815D01*
X76369975Y-132596813D01*
X76369967Y-132596810D01*
X76302930Y-132577126D01*
X76255251Y-132564697D01*
X76255243Y-132564696D01*
X76076001Y-132544500D01*
X76076000Y-132544500D01*
X75494341Y-132544500D01*
X75426220Y-132524498D01*
X75379727Y-132470842D01*
X75369623Y-132400568D01*
X75378180Y-132369689D01*
X75428868Y-132249059D01*
X75428870Y-132249055D01*
X75448872Y-132180934D01*
X75451040Y-132172616D01*
X75461302Y-132133251D01*
X75461303Y-132133243D01*
X75461304Y-132133241D01*
X75481500Y-131954000D01*
X75481500Y-130470516D01*
X76237000Y-130470516D01*
X76247605Y-130574318D01*
X76247606Y-130574321D01*
X76303342Y-130742525D01*
X76396365Y-130893339D01*
X76396370Y-130893345D01*
X76521654Y-131018629D01*
X76521660Y-131018634D01*
X76672474Y-131111657D01*
X76840678Y-131167393D01*
X76840681Y-131167394D01*
X76944483Y-131177999D01*
X76944483Y-131178000D01*
X77216000Y-131178000D01*
X77216000Y-130424000D01*
X76237000Y-130424000D01*
X76237000Y-130470516D01*
X75481500Y-130470516D01*
X75481500Y-125200819D01*
X75501502Y-125132698D01*
X75555158Y-125086205D01*
X75625432Y-125076101D01*
X75666895Y-125089696D01*
G37*
G04 #@! TD.AperFunction*
G04 #@! TA.AperFunction,Conductor*
G36*
X69538121Y-113304002D02*
G01*
X69584614Y-113357658D01*
X69596000Y-113410000D01*
X69596000Y-117094000D01*
X74550000Y-117094000D01*
X74618121Y-117114002D01*
X74664614Y-117167658D01*
X74676000Y-117220000D01*
X74676000Y-131954000D01*
X74655998Y-132022121D01*
X74602342Y-132068614D01*
X74550000Y-132080000D01*
X62102000Y-132080000D01*
X62033879Y-132059998D01*
X61987386Y-132006342D01*
X61976000Y-131954000D01*
X61976000Y-128118216D01*
X64015001Y-128118216D01*
X64024911Y-128186247D01*
X64024912Y-128186248D01*
X64076214Y-128291190D01*
X64158809Y-128373785D01*
X64158811Y-128373786D01*
X64263749Y-128425087D01*
X64263748Y-128425087D01*
X64265000Y-128425268D01*
X64265000Y-128425267D01*
X64765000Y-128425267D01*
X64766251Y-128425087D01*
X64871188Y-128373786D01*
X64871190Y-128373785D01*
X64953785Y-128291190D01*
X64953786Y-128291188D01*
X65005086Y-128186251D01*
X65005087Y-128186249D01*
X65014999Y-128118220D01*
X65015000Y-128118216D01*
X65285001Y-128118216D01*
X65294911Y-128186247D01*
X65294912Y-128186248D01*
X65346214Y-128291190D01*
X65428809Y-128373785D01*
X65428811Y-128373786D01*
X65533749Y-128425087D01*
X65533748Y-128425087D01*
X65535000Y-128425268D01*
X65535000Y-127460000D01*
X65285001Y-127460000D01*
X65285001Y-128118216D01*
X65015000Y-128118216D01*
X65015000Y-128118214D01*
X65015000Y-127460000D01*
X64765000Y-127460000D01*
X64765000Y-128425267D01*
X64265000Y-128425267D01*
X64265000Y-127460000D01*
X64015001Y-127460000D01*
X64015001Y-128118216D01*
X61976000Y-128118216D01*
X61976000Y-126301779D01*
X64015000Y-126301779D01*
X64015000Y-126960000D01*
X64265000Y-126960000D01*
X64765000Y-126960000D01*
X65014999Y-126960000D01*
X65014999Y-126301783D01*
X65014998Y-126301779D01*
X65285000Y-126301779D01*
X65285000Y-126960000D01*
X65535000Y-126960000D01*
X65535000Y-125994730D01*
X65533749Y-125994912D01*
X65428811Y-126046213D01*
X65428809Y-126046214D01*
X65346214Y-126128809D01*
X65346213Y-126128811D01*
X65294913Y-126233748D01*
X65294912Y-126233750D01*
X65285000Y-126301779D01*
X65014998Y-126301779D01*
X65005088Y-126233752D01*
X65005087Y-126233751D01*
X64953785Y-126128809D01*
X64871190Y-126046214D01*
X64871188Y-126046213D01*
X64766250Y-125994912D01*
X64765000Y-125994730D01*
X64765000Y-126960000D01*
X64265000Y-126960000D01*
X64265000Y-125994730D01*
X64263749Y-125994912D01*
X64158811Y-126046213D01*
X64158809Y-126046214D01*
X64076214Y-126128809D01*
X64076213Y-126128811D01*
X64024913Y-126233748D01*
X64024912Y-126233750D01*
X64015000Y-126301779D01*
X61976000Y-126301779D01*
X61976000Y-124048209D01*
X62254001Y-124048209D01*
X62256851Y-124078606D01*
X62256852Y-124078609D01*
X62301653Y-124206644D01*
X62301653Y-124206645D01*
X62382207Y-124315792D01*
X62491354Y-124396346D01*
X62619389Y-124441147D01*
X62619394Y-124441148D01*
X62649797Y-124443999D01*
X63504000Y-124443999D01*
X64004000Y-124443999D01*
X64858195Y-124443999D01*
X64858209Y-124443998D01*
X64888606Y-124441148D01*
X64888609Y-124441147D01*
X65016644Y-124396346D01*
X65016645Y-124396346D01*
X65125792Y-124315792D01*
X65206346Y-124206645D01*
X65206346Y-124206644D01*
X65251147Y-124078610D01*
X65251148Y-124078605D01*
X65253999Y-124048205D01*
X65254000Y-124048199D01*
X65254000Y-123694000D01*
X64004000Y-123694000D01*
X64004000Y-124443999D01*
X63504000Y-124443999D01*
X63504000Y-123694000D01*
X62254001Y-123694000D01*
X62254001Y-124048209D01*
X61976000Y-124048209D01*
X61976000Y-122839794D01*
X62254000Y-122839794D01*
X62254000Y-123194000D01*
X63504000Y-123194000D01*
X64004000Y-123194000D01*
X65253999Y-123194000D01*
X65253999Y-122839805D01*
X65253998Y-122839790D01*
X65251148Y-122809393D01*
X65251147Y-122809390D01*
X65206346Y-122681355D01*
X65206346Y-122681354D01*
X65125792Y-122572207D01*
X65016645Y-122491653D01*
X64888610Y-122446852D01*
X64888605Y-122446851D01*
X64858205Y-122444000D01*
X64004000Y-122444000D01*
X64004000Y-123194000D01*
X63504000Y-123194000D01*
X63504000Y-122444000D01*
X62649805Y-122444000D01*
X62649790Y-122444001D01*
X62619393Y-122446851D01*
X62619390Y-122446852D01*
X62491355Y-122491653D01*
X62491354Y-122491653D01*
X62382207Y-122572207D01*
X62301653Y-122681354D01*
X62301653Y-122681355D01*
X62256852Y-122809389D01*
X62256851Y-122809394D01*
X62254000Y-122839794D01*
X61976000Y-122839794D01*
X61976000Y-121030000D01*
X61996002Y-120961879D01*
X62049658Y-120915386D01*
X62102000Y-120904000D01*
X63974050Y-120904000D01*
X64042171Y-120924002D01*
X64063145Y-120940905D01*
X65577243Y-122455003D01*
X65611269Y-122517315D01*
X65607753Y-122583730D01*
X65556113Y-122739572D01*
X65556112Y-122739579D01*
X65545500Y-122843446D01*
X65545500Y-124044544D01*
X65556112Y-124148425D01*
X65611885Y-124316738D01*
X65704970Y-124467652D01*
X65704975Y-124467658D01*
X65830341Y-124593024D01*
X65830347Y-124593029D01*
X65830348Y-124593030D01*
X65981262Y-124686115D01*
X66149574Y-124741887D01*
X66253455Y-124752500D01*
X66271496Y-124752499D01*
X66339616Y-124772498D01*
X66386111Y-124826151D01*
X66397500Y-124878499D01*
X66397500Y-125865057D01*
X66379953Y-125929197D01*
X66330313Y-126013132D01*
X66278420Y-126061584D01*
X66208569Y-126074289D01*
X66148642Y-126051535D01*
X66141188Y-126046213D01*
X66036250Y-125994912D01*
X66035000Y-125994730D01*
X66035000Y-128425268D01*
X66036251Y-128425087D01*
X66141187Y-128373787D01*
X66148638Y-128368467D01*
X66215699Y-128345158D01*
X66284717Y-128361805D01*
X66330313Y-128406867D01*
X66380546Y-128491806D01*
X66380549Y-128491810D01*
X66498189Y-128609450D01*
X66498196Y-128609455D01*
X66641394Y-128694143D01*
X66641397Y-128694143D01*
X66641399Y-128694145D01*
X66801169Y-128740562D01*
X66838488Y-128743499D01*
X66838489Y-128743500D01*
X66838498Y-128743500D01*
X67271511Y-128743500D01*
X67271511Y-128743499D01*
X67308831Y-128740562D01*
X67468601Y-128694145D01*
X67468603Y-128694143D01*
X67468605Y-128694143D01*
X67525883Y-128660268D01*
X67611807Y-128609453D01*
X67611814Y-128609445D01*
X67612767Y-128608708D01*
X67613662Y-128608356D01*
X67618631Y-128605418D01*
X67619104Y-128606219D01*
X67678850Y-128582756D01*
X67748474Y-128596652D01*
X67767233Y-128608708D01*
X67768189Y-128609449D01*
X67768193Y-128609453D01*
X67768197Y-128609455D01*
X67768198Y-128609456D01*
X67911394Y-128694143D01*
X67911397Y-128694143D01*
X67911399Y-128694145D01*
X68071169Y-128740562D01*
X68108488Y-128743499D01*
X68108489Y-128743500D01*
X68108498Y-128743500D01*
X68541511Y-128743500D01*
X68541511Y-128743499D01*
X68578831Y-128740562D01*
X68738601Y-128694145D01*
X68738603Y-128694143D01*
X68738605Y-128694143D01*
X68810204Y-128651799D01*
X68881807Y-128609453D01*
X68999453Y-128491807D01*
X69049687Y-128406866D01*
X69101578Y-128358415D01*
X69171428Y-128345710D01*
X69231358Y-128368464D01*
X69238814Y-128373788D01*
X69343749Y-128425087D01*
X69343748Y-128425087D01*
X69345000Y-128425268D01*
X69845000Y-128425268D01*
X69846251Y-128425087D01*
X69951188Y-128373786D01*
X69951190Y-128373785D01*
X70033785Y-128291190D01*
X70033786Y-128291188D01*
X70085086Y-128186251D01*
X70085087Y-128186249D01*
X70094999Y-128118220D01*
X70095000Y-128118216D01*
X70365001Y-128118216D01*
X70374911Y-128186247D01*
X70374912Y-128186248D01*
X70426214Y-128291190D01*
X70508809Y-128373785D01*
X70508811Y-128373786D01*
X70613749Y-128425087D01*
X70613748Y-128425087D01*
X70615000Y-128425268D01*
X70615000Y-127460000D01*
X70365001Y-127460000D01*
X70365001Y-128118216D01*
X70095000Y-128118216D01*
X70095000Y-128118214D01*
X70095000Y-127460000D01*
X69845000Y-127460000D01*
X69845000Y-128425268D01*
X69345000Y-128425268D01*
X69345000Y-126960000D01*
X69845000Y-126960000D01*
X70094999Y-126960000D01*
X70094999Y-126301783D01*
X70094998Y-126301779D01*
X70365000Y-126301779D01*
X70365000Y-126960000D01*
X70615000Y-126960000D01*
X70615000Y-125994730D01*
X71115000Y-125994730D01*
X71115000Y-128425268D01*
X71116251Y-128425087D01*
X71221187Y-128373787D01*
X71228638Y-128368467D01*
X71295699Y-128345158D01*
X71364717Y-128361805D01*
X71410313Y-128406867D01*
X71460546Y-128491806D01*
X71460549Y-128491810D01*
X71578189Y-128609450D01*
X71578196Y-128609455D01*
X71721394Y-128694143D01*
X71721397Y-128694143D01*
X71721399Y-128694145D01*
X71881169Y-128740562D01*
X71918488Y-128743499D01*
X71918489Y-128743500D01*
X71918498Y-128743500D01*
X72351511Y-128743500D01*
X72351511Y-128743499D01*
X72388831Y-128740562D01*
X72548601Y-128694145D01*
X72548603Y-128694143D01*
X72548605Y-128694143D01*
X72620204Y-128651799D01*
X72691807Y-128609453D01*
X72809453Y-128491807D01*
X72859687Y-128406866D01*
X72911578Y-128358415D01*
X72981428Y-128345710D01*
X73041358Y-128368464D01*
X73048814Y-128373788D01*
X73153749Y-128425087D01*
X73153748Y-128425087D01*
X73155000Y-128425268D01*
X73655000Y-128425268D01*
X73656251Y-128425087D01*
X73761188Y-128373786D01*
X73761190Y-128373785D01*
X73843785Y-128291190D01*
X73843786Y-128291188D01*
X73895086Y-128186251D01*
X73895087Y-128186249D01*
X73904999Y-128118220D01*
X73905000Y-128118214D01*
X73905000Y-127460000D01*
X73655000Y-127460000D01*
X73655000Y-128425268D01*
X73155000Y-128425268D01*
X73155000Y-126960000D01*
X73655000Y-126960000D01*
X73904999Y-126960000D01*
X73904999Y-126301783D01*
X73895088Y-126233752D01*
X73895087Y-126233751D01*
X73843785Y-126128809D01*
X73761190Y-126046214D01*
X73761188Y-126046213D01*
X73656250Y-125994912D01*
X73655000Y-125994730D01*
X73655000Y-126960000D01*
X73155000Y-126960000D01*
X73155000Y-125994730D01*
X73153749Y-125994912D01*
X73048813Y-126046212D01*
X73041354Y-126051538D01*
X72974291Y-126074842D01*
X72905275Y-126058189D01*
X72859686Y-126013131D01*
X72809455Y-125928196D01*
X72809450Y-125928189D01*
X72691810Y-125810549D01*
X72691803Y-125810544D01*
X72548605Y-125725856D01*
X72388829Y-125679437D01*
X72351511Y-125676500D01*
X72351502Y-125676500D01*
X71918498Y-125676500D01*
X71918489Y-125676500D01*
X71881171Y-125679437D01*
X71881170Y-125679437D01*
X71721394Y-125725856D01*
X71578196Y-125810544D01*
X71578189Y-125810549D01*
X71460549Y-125928189D01*
X71460546Y-125928193D01*
X71410313Y-126013132D01*
X71358420Y-126061584D01*
X71288569Y-126074289D01*
X71228642Y-126051535D01*
X71221188Y-126046213D01*
X71116250Y-125994912D01*
X71115000Y-125994730D01*
X70615000Y-125994730D01*
X70613749Y-125994912D01*
X70508811Y-126046213D01*
X70508809Y-126046214D01*
X70426214Y-126128809D01*
X70426213Y-126128811D01*
X70374913Y-126233748D01*
X70374912Y-126233750D01*
X70365000Y-126301779D01*
X70094998Y-126301779D01*
X70085088Y-126233752D01*
X70085087Y-126233751D01*
X70033785Y-126128809D01*
X69951190Y-126046214D01*
X69951188Y-126046213D01*
X69846250Y-125994912D01*
X69845000Y-125994730D01*
X69845000Y-126960000D01*
X69345000Y-126960000D01*
X69345000Y-125994730D01*
X69343749Y-125994912D01*
X69238813Y-126046212D01*
X69231354Y-126051538D01*
X69164291Y-126074842D01*
X69095275Y-126058189D01*
X69049686Y-126013131D01*
X68999455Y-125928196D01*
X68999450Y-125928189D01*
X68881810Y-125810549D01*
X68881803Y-125810544D01*
X68738605Y-125725856D01*
X68578829Y-125679437D01*
X68541511Y-125676500D01*
X68541502Y-125676500D01*
X68108498Y-125676500D01*
X68108489Y-125676500D01*
X68071171Y-125679437D01*
X68071170Y-125679437D01*
X67935885Y-125718741D01*
X67915062Y-125724791D01*
X67911396Y-125725856D01*
X67904634Y-125729855D01*
X67835816Y-125747311D01*
X67768486Y-125724791D01*
X67724020Y-125669444D01*
X67714500Y-125621398D01*
X67714500Y-124878499D01*
X67734502Y-124810378D01*
X67788158Y-124763885D01*
X67840500Y-124752499D01*
X68454544Y-124752499D01*
X68558426Y-124741887D01*
X68726738Y-124686115D01*
X68877652Y-124593030D01*
X68877658Y-124593024D01*
X68983405Y-124487278D01*
X69045717Y-124453252D01*
X69116532Y-124458317D01*
X69161595Y-124487278D01*
X69192341Y-124518024D01*
X69192347Y-124518029D01*
X69192348Y-124518030D01*
X69343262Y-124611115D01*
X69511574Y-124666887D01*
X69615455Y-124677500D01*
X70216544Y-124677499D01*
X70320426Y-124666887D01*
X70488738Y-124611115D01*
X70639652Y-124518030D01*
X70765030Y-124392652D01*
X70858115Y-124241738D01*
X70909105Y-124087855D01*
X70949518Y-124029486D01*
X71015074Y-124002230D01*
X71084959Y-124014743D01*
X71136985Y-124063052D01*
X71147639Y-124085876D01*
X71163654Y-124131647D01*
X71244207Y-124240792D01*
X71353354Y-124321346D01*
X71481389Y-124366147D01*
X71481394Y-124366148D01*
X71511796Y-124368999D01*
X72066000Y-124368999D01*
X72120195Y-124368999D01*
X72120209Y-124368998D01*
X72150606Y-124366148D01*
X72150609Y-124366147D01*
X72278644Y-124321346D01*
X72278645Y-124321346D01*
X72387792Y-124240792D01*
X72468346Y-124131645D01*
X72468346Y-124131644D01*
X72513147Y-124003610D01*
X72513148Y-124003605D01*
X72515999Y-123973205D01*
X72516000Y-123973199D01*
X72516000Y-123694000D01*
X72066000Y-123694000D01*
X72066000Y-124368999D01*
X71511796Y-124368999D01*
X71566000Y-124368998D01*
X71566000Y-123194000D01*
X72066000Y-123194000D01*
X72515999Y-123194000D01*
X72515999Y-122914805D01*
X72515998Y-122914790D01*
X72513148Y-122884393D01*
X72513147Y-122884390D01*
X72468346Y-122756355D01*
X72468346Y-122756354D01*
X72387792Y-122647207D01*
X72278645Y-122566653D01*
X72150610Y-122521852D01*
X72150605Y-122521851D01*
X72120205Y-122519000D01*
X72066000Y-122519000D01*
X72066000Y-123194000D01*
X71566000Y-123194000D01*
X71566000Y-122519000D01*
X71565999Y-122518999D01*
X71511798Y-122519000D01*
X71481393Y-122521851D01*
X71481390Y-122521852D01*
X71353355Y-122566653D01*
X71353354Y-122566653D01*
X71244207Y-122647207D01*
X71163653Y-122756353D01*
X71147638Y-122802124D01*
X71106259Y-122859815D01*
X71040259Y-122885978D01*
X70970591Y-122872304D01*
X70919376Y-122823136D01*
X70909104Y-122800140D01*
X70858115Y-122646262D01*
X70765030Y-122495348D01*
X70765029Y-122495347D01*
X70765024Y-122495341D01*
X70639658Y-122369975D01*
X70639654Y-122369972D01*
X70639652Y-122369970D01*
X70633627Y-122366253D01*
X70613655Y-122353934D01*
X70566179Y-122301147D01*
X70556226Y-122271277D01*
X70549194Y-122235923D01*
X70499555Y-122116083D01*
X70489136Y-122100490D01*
X70427491Y-122008231D01*
X69830852Y-121411592D01*
X69796829Y-121349282D01*
X69801893Y-121278467D01*
X69844440Y-121221631D01*
X69910960Y-121196820D01*
X69919949Y-121196499D01*
X70166544Y-121196499D01*
X70270426Y-121185887D01*
X70438738Y-121130115D01*
X70589652Y-121037030D01*
X70715030Y-120911652D01*
X70808115Y-120760738D01*
X70863887Y-120592426D01*
X70874126Y-120492209D01*
X71166001Y-120492209D01*
X71168851Y-120522606D01*
X71168852Y-120522609D01*
X71213653Y-120650644D01*
X71213653Y-120650645D01*
X71294207Y-120759792D01*
X71403354Y-120840346D01*
X71531389Y-120885147D01*
X71531394Y-120885148D01*
X71561797Y-120887999D01*
X72416000Y-120887999D01*
X72916000Y-120887999D01*
X73770195Y-120887999D01*
X73770209Y-120887998D01*
X73800606Y-120885148D01*
X73800609Y-120885147D01*
X73928644Y-120840346D01*
X73928645Y-120840346D01*
X74037792Y-120759792D01*
X74118346Y-120650645D01*
X74118346Y-120650644D01*
X74163147Y-120522610D01*
X74163148Y-120522605D01*
X74165999Y-120492205D01*
X74166000Y-120492199D01*
X74166000Y-120138000D01*
X72916000Y-120138000D01*
X72916000Y-120887999D01*
X72416000Y-120887999D01*
X72416000Y-120138000D01*
X71166001Y-120138000D01*
X71166001Y-120492209D01*
X70874126Y-120492209D01*
X70874500Y-120488545D01*
X70874499Y-119287456D01*
X70874125Y-119283794D01*
X71166000Y-119283794D01*
X71166000Y-119638000D01*
X72416000Y-119638000D01*
X72916000Y-119638000D01*
X74165999Y-119638000D01*
X74165999Y-119283805D01*
X74165998Y-119283790D01*
X74163148Y-119253393D01*
X74163147Y-119253390D01*
X74118346Y-119125355D01*
X74118346Y-119125354D01*
X74037792Y-119016207D01*
X73928645Y-118935653D01*
X73800610Y-118890852D01*
X73800605Y-118890851D01*
X73770205Y-118888000D01*
X72916000Y-118888000D01*
X72916000Y-119638000D01*
X72416000Y-119638000D01*
X72416000Y-118888000D01*
X71561805Y-118888000D01*
X71561790Y-118888001D01*
X71531393Y-118890851D01*
X71531390Y-118890852D01*
X71403355Y-118935653D01*
X71403354Y-118935653D01*
X71294207Y-119016207D01*
X71213653Y-119125354D01*
X71213653Y-119125355D01*
X71168852Y-119253389D01*
X71168851Y-119253394D01*
X71166000Y-119283794D01*
X70874125Y-119283794D01*
X70863887Y-119183574D01*
X70808115Y-119015262D01*
X70715030Y-118864348D01*
X70715029Y-118864347D01*
X70715024Y-118864341D01*
X70589658Y-118738975D01*
X70589652Y-118738970D01*
X70575831Y-118730445D01*
X70438738Y-118645885D01*
X70354582Y-118617999D01*
X70270427Y-118590113D01*
X70270420Y-118590112D01*
X70166553Y-118579500D01*
X70166545Y-118579500D01*
X69850500Y-118579500D01*
X69782379Y-118559498D01*
X69735886Y-118505842D01*
X69724500Y-118453500D01*
X69724500Y-117891142D01*
X69724499Y-117891139D01*
X69699194Y-117763923D01*
X69649555Y-117644083D01*
X69577490Y-117536231D01*
X69485769Y-117444510D01*
X69342404Y-117301145D01*
X69308378Y-117238833D01*
X69305499Y-117212058D01*
X69305499Y-116661456D01*
X69294887Y-116557574D01*
X69239115Y-116389262D01*
X69146030Y-116238348D01*
X69146029Y-116238347D01*
X69146024Y-116238341D01*
X69020658Y-116112975D01*
X69020652Y-116112970D01*
X68869738Y-116019885D01*
X68869732Y-116019883D01*
X68715856Y-115968894D01*
X68657486Y-115928481D01*
X68630230Y-115862924D01*
X68642743Y-115793039D01*
X68691053Y-115741013D01*
X68713878Y-115730360D01*
X68759645Y-115714346D01*
X68868792Y-115633792D01*
X68949346Y-115524645D01*
X68949346Y-115524644D01*
X68994147Y-115396610D01*
X68994148Y-115396605D01*
X68996999Y-115366205D01*
X68997000Y-115366199D01*
X68997000Y-115312000D01*
X67147001Y-115312000D01*
X67147001Y-115366209D01*
X67149851Y-115396606D01*
X67149852Y-115396609D01*
X67194653Y-115524644D01*
X67194653Y-115524645D01*
X67275207Y-115633792D01*
X67384352Y-115714345D01*
X67430122Y-115730360D01*
X67487814Y-115771738D01*
X67513977Y-115837738D01*
X67500305Y-115907406D01*
X67451138Y-115958622D01*
X67428141Y-115968894D01*
X67274265Y-116019883D01*
X67123347Y-116112970D01*
X67123341Y-116112975D01*
X66997975Y-116238341D01*
X66997968Y-116238349D01*
X66904567Y-116389775D01*
X66867332Y-116428390D01*
X66834233Y-116450507D01*
X66834225Y-116450513D01*
X66756715Y-116528024D01*
X66694403Y-116562050D01*
X66623588Y-116556985D01*
X66590158Y-116535500D01*
X65662000Y-116535500D01*
X65593879Y-116515498D01*
X65547386Y-116461842D01*
X65536000Y-116409500D01*
X65536000Y-116035500D01*
X66036000Y-116035500D01*
X66585999Y-116035500D01*
X66585999Y-116033795D01*
X66570469Y-115935737D01*
X66510249Y-115817547D01*
X66416452Y-115723750D01*
X66298265Y-115663531D01*
X66200204Y-115648000D01*
X66036000Y-115648000D01*
X66036000Y-116035500D01*
X65536000Y-116035500D01*
X65536000Y-115648000D01*
X65371794Y-115648000D01*
X65273737Y-115663530D01*
X65155547Y-115723750D01*
X65061750Y-115817547D01*
X65008267Y-115922516D01*
X64959519Y-115974131D01*
X64890604Y-115991197D01*
X64823402Y-115968296D01*
X64779250Y-115912699D01*
X64770000Y-115865313D01*
X64770000Y-114757794D01*
X67147000Y-114757794D01*
X67147000Y-114812000D01*
X67822000Y-114812000D01*
X68322000Y-114812000D01*
X68996999Y-114812000D01*
X68996999Y-114757805D01*
X68996998Y-114757790D01*
X68994148Y-114727393D01*
X68994147Y-114727390D01*
X68949346Y-114599355D01*
X68949346Y-114599354D01*
X68868792Y-114490207D01*
X68759645Y-114409653D01*
X68631610Y-114364852D01*
X68631605Y-114364851D01*
X68601205Y-114362000D01*
X68322000Y-114362000D01*
X68322000Y-114812000D01*
X67822000Y-114812000D01*
X67822000Y-114362000D01*
X67542805Y-114362000D01*
X67542790Y-114362001D01*
X67512393Y-114364851D01*
X67512390Y-114364852D01*
X67384355Y-114409653D01*
X67384354Y-114409653D01*
X67275207Y-114490207D01*
X67194653Y-114599354D01*
X67194653Y-114599355D01*
X67149852Y-114727389D01*
X67149851Y-114727394D01*
X67147000Y-114757794D01*
X64770000Y-114757794D01*
X64770000Y-113410000D01*
X64790002Y-113341879D01*
X64843658Y-113295386D01*
X64896000Y-113284000D01*
X69470000Y-113284000D01*
X69538121Y-113304002D01*
G37*
G04 #@! TD.AperFunction*
G04 #@! TA.AperFunction,Conductor*
G36*
X66068837Y-143335685D02*
G01*
X66114592Y-143388489D01*
X66120872Y-143405398D01*
X66150247Y-143506509D01*
X66150855Y-143508601D01*
X66234232Y-143649583D01*
X66251500Y-143712704D01*
X66251500Y-143782385D01*
X66249118Y-143806569D01*
X66244419Y-143830192D01*
X66212036Y-143892101D01*
X66151321Y-143926676D01*
X66122803Y-143930000D01*
X65950661Y-143930000D01*
X65775889Y-143967148D01*
X65775884Y-143967150D01*
X65640833Y-144027279D01*
X65640832Y-144027280D01*
X66033212Y-144419659D01*
X66066697Y-144480982D01*
X66063462Y-144545657D01*
X66060106Y-144555986D01*
X66052304Y-144580000D01*
X66000218Y-144580000D01*
X65926709Y-144610448D01*
X65870448Y-144666709D01*
X65840000Y-144740218D01*
X65840000Y-144819782D01*
X65870448Y-144893291D01*
X65921238Y-144944081D01*
X65902095Y-144948919D01*
X65835854Y-144926696D01*
X65819137Y-144912690D01*
X65611289Y-144704842D01*
X65584409Y-144664613D01*
X65539415Y-144555986D01*
X65539408Y-144555973D01*
X65434516Y-144398992D01*
X65434513Y-144398988D01*
X65301011Y-144265486D01*
X65301007Y-144265483D01*
X65144026Y-144160591D01*
X65144013Y-144160584D01*
X65099293Y-144142061D01*
X65044889Y-144098220D01*
X65022824Y-144031926D01*
X65040103Y-143964227D01*
X65091240Y-143916616D01*
X65146745Y-143903500D01*
X65226496Y-143903500D01*
X65226502Y-143903500D01*
X65263831Y-143900562D01*
X65263833Y-143900561D01*
X65263835Y-143900561D01*
X65308120Y-143887695D01*
X65423601Y-143854145D01*
X65566807Y-143769453D01*
X65684453Y-143651807D01*
X65769145Y-143508601D01*
X65799126Y-143405404D01*
X65836732Y-143346520D01*
X65900204Y-143317313D01*
X65918202Y-143316000D01*
X66001798Y-143316000D01*
X66068837Y-143335685D01*
G37*
G04 #@! TD.AperFunction*
G04 #@! TA.AperFunction,Conductor*
G36*
X76143039Y-133369685D02*
G01*
X76188794Y-133422489D01*
X76200000Y-133474000D01*
X76200000Y-153520500D01*
X76180315Y-153587539D01*
X76127511Y-153633294D01*
X76076000Y-153644500D01*
X62354000Y-153644500D01*
X62286961Y-153624815D01*
X62241206Y-153572011D01*
X62230000Y-153520500D01*
X62230000Y-148645591D01*
X63731500Y-148645591D01*
X63731500Y-149634408D01*
X63768332Y-149819576D01*
X63768334Y-149819584D01*
X63840586Y-149994017D01*
X63840591Y-149994026D01*
X63945483Y-150151007D01*
X63945486Y-150151011D01*
X64078988Y-150284513D01*
X64078992Y-150284516D01*
X64235973Y-150389408D01*
X64235979Y-150389411D01*
X64235980Y-150389412D01*
X64410416Y-150461666D01*
X64595591Y-150498499D01*
X64595595Y-150498500D01*
X64595596Y-150498500D01*
X64784405Y-150498500D01*
X64784406Y-150498499D01*
X64969584Y-150461666D01*
X65144020Y-150389412D01*
X65301008Y-150284516D01*
X65434516Y-150151008D01*
X65539412Y-149994020D01*
X65611666Y-149819584D01*
X65648500Y-149634404D01*
X65648500Y-148645596D01*
X65648499Y-148645591D01*
X72381500Y-148645591D01*
X72381500Y-149634408D01*
X72418332Y-149819576D01*
X72418334Y-149819584D01*
X72490586Y-149994017D01*
X72490591Y-149994026D01*
X72595483Y-150151007D01*
X72595486Y-150151011D01*
X72728988Y-150284513D01*
X72728992Y-150284516D01*
X72885973Y-150389408D01*
X72885979Y-150389411D01*
X72885980Y-150389412D01*
X73060416Y-150461666D01*
X73245591Y-150498499D01*
X73245595Y-150498500D01*
X73245596Y-150498500D01*
X73434405Y-150498500D01*
X73434406Y-150498499D01*
X73619584Y-150461666D01*
X73794020Y-150389412D01*
X73951008Y-150284516D01*
X74084516Y-150151008D01*
X74189412Y-149994020D01*
X74261666Y-149819584D01*
X74298500Y-149634404D01*
X74298500Y-148645596D01*
X74261666Y-148460416D01*
X74189412Y-148285980D01*
X74189411Y-148285979D01*
X74189408Y-148285973D01*
X74084516Y-148128992D01*
X74084513Y-148128988D01*
X73951011Y-147995486D01*
X73951007Y-147995483D01*
X73794026Y-147890591D01*
X73794017Y-147890586D01*
X73619584Y-147818334D01*
X73619576Y-147818332D01*
X73434408Y-147781500D01*
X73434404Y-147781500D01*
X73245596Y-147781500D01*
X73245591Y-147781500D01*
X73060423Y-147818332D01*
X73060415Y-147818334D01*
X72885982Y-147890586D01*
X72885973Y-147890591D01*
X72728992Y-147995483D01*
X72728988Y-147995486D01*
X72595486Y-148128988D01*
X72595483Y-148128992D01*
X72490591Y-148285973D01*
X72490586Y-148285982D01*
X72418334Y-148460415D01*
X72418332Y-148460423D01*
X72381500Y-148645591D01*
X65648499Y-148645591D01*
X65611666Y-148460416D01*
X65539412Y-148285980D01*
X65539411Y-148285979D01*
X65539408Y-148285973D01*
X65434516Y-148128992D01*
X65434513Y-148128988D01*
X65301011Y-147995486D01*
X65301007Y-147995483D01*
X65144026Y-147890591D01*
X65144017Y-147890586D01*
X64969584Y-147818334D01*
X64969576Y-147818332D01*
X64784408Y-147781500D01*
X64784404Y-147781500D01*
X64595596Y-147781500D01*
X64595591Y-147781500D01*
X64410423Y-147818332D01*
X64410415Y-147818334D01*
X64235982Y-147890586D01*
X64235973Y-147890591D01*
X64078992Y-147995483D01*
X64078988Y-147995486D01*
X63945486Y-148128988D01*
X63945483Y-148128992D01*
X63840591Y-148285973D01*
X63840586Y-148285982D01*
X63768334Y-148460415D01*
X63768332Y-148460423D01*
X63731500Y-148645591D01*
X62230000Y-148645591D01*
X62230000Y-139304986D01*
X64010001Y-139304986D01*
X64020494Y-139407697D01*
X64075641Y-139574119D01*
X64075643Y-139574124D01*
X64167684Y-139723345D01*
X64291654Y-139847315D01*
X64440875Y-139939356D01*
X64440880Y-139939358D01*
X64607302Y-139994505D01*
X64607309Y-139994506D01*
X64710019Y-140004999D01*
X64759999Y-140004998D01*
X64760000Y-140004998D01*
X64760000Y-139030000D01*
X64010001Y-139030000D01*
X64010001Y-139304986D01*
X62230000Y-139304986D01*
X62230000Y-136760000D01*
X63715000Y-136760000D01*
X63715000Y-137450649D01*
X63717899Y-137487489D01*
X63717900Y-137487495D01*
X63763716Y-137645193D01*
X63763717Y-137645196D01*
X63847314Y-137786552D01*
X63847321Y-137786561D01*
X63963438Y-137902678D01*
X63963450Y-137902687D01*
X63994287Y-137920924D01*
X64041971Y-137971992D01*
X64054475Y-138040734D01*
X64048873Y-138066659D01*
X64020495Y-138152298D01*
X64020493Y-138152309D01*
X64010000Y-138255013D01*
X64010000Y-138530000D01*
X65136000Y-138530000D01*
X65203039Y-138549685D01*
X65248794Y-138602489D01*
X65260000Y-138654000D01*
X65260000Y-139797467D01*
X65242732Y-139860587D01*
X65200857Y-139931394D01*
X65200853Y-139931403D01*
X65154438Y-140091164D01*
X65154437Y-140091170D01*
X65151500Y-140128492D01*
X65151500Y-141287500D01*
X65131815Y-141354539D01*
X65079011Y-141400294D01*
X65027500Y-141411500D01*
X64793492Y-141411500D01*
X64756170Y-141414437D01*
X64756164Y-141414438D01*
X64596403Y-141460853D01*
X64596398Y-141460855D01*
X64453196Y-141545544D01*
X64453187Y-141545551D01*
X64335551Y-141663187D01*
X64335544Y-141663196D01*
X64250855Y-141806398D01*
X64250853Y-141806403D01*
X64204438Y-141966164D01*
X64204437Y-141966170D01*
X64201500Y-142003492D01*
X64201500Y-143311507D01*
X64204437Y-143348829D01*
X64204438Y-143348835D01*
X64250853Y-143508596D01*
X64250855Y-143508601D01*
X64335544Y-143651803D01*
X64335551Y-143651812D01*
X64453187Y-143769448D01*
X64453196Y-143769455D01*
X64566776Y-143836626D01*
X64614460Y-143887695D01*
X64626963Y-143956437D01*
X64600318Y-144021026D01*
X64542982Y-144060956D01*
X64527846Y-144064975D01*
X64410423Y-144088332D01*
X64410415Y-144088334D01*
X64235982Y-144160586D01*
X64235973Y-144160591D01*
X64078992Y-144265483D01*
X64078988Y-144265486D01*
X63945486Y-144398988D01*
X63945483Y-144398992D01*
X63840591Y-144555973D01*
X63840586Y-144555982D01*
X63768334Y-144730415D01*
X63768332Y-144730423D01*
X63731500Y-144915591D01*
X63731500Y-146604408D01*
X63768332Y-146789576D01*
X63768334Y-146789584D01*
X63840586Y-146964017D01*
X63840591Y-146964026D01*
X63945483Y-147121007D01*
X63945486Y-147121011D01*
X64078988Y-147254513D01*
X64078992Y-147254516D01*
X64235973Y-147359408D01*
X64235979Y-147359411D01*
X64235980Y-147359412D01*
X64410416Y-147431666D01*
X64595591Y-147468499D01*
X64595595Y-147468500D01*
X64595596Y-147468500D01*
X64784405Y-147468500D01*
X64784406Y-147468499D01*
X64969584Y-147431666D01*
X65144020Y-147359412D01*
X65301008Y-147254516D01*
X65434516Y-147121008D01*
X65539412Y-146964020D01*
X65539417Y-146964007D01*
X65539609Y-146963649D01*
X65539770Y-146963484D01*
X65542797Y-146958955D01*
X65543655Y-146959528D01*
X65588562Y-146913795D01*
X65656697Y-146898321D01*
X65699416Y-146908802D01*
X65775889Y-146942851D01*
X65950661Y-146980000D01*
X66129339Y-146980000D01*
X66304110Y-146942851D01*
X66404112Y-146898326D01*
X66473362Y-146889040D01*
X66504985Y-146898326D01*
X66623242Y-146950978D01*
X66623248Y-146950980D01*
X66799768Y-146988500D01*
X66799769Y-146988500D01*
X66980231Y-146988500D01*
X66980232Y-146988500D01*
X67156752Y-146950980D01*
X67156754Y-146950978D01*
X67156757Y-146950978D01*
X67264564Y-146902979D01*
X67333814Y-146893694D01*
X67365436Y-146902979D01*
X67473242Y-146950978D01*
X67473248Y-146950980D01*
X67649768Y-146988500D01*
X67649769Y-146988500D01*
X67830231Y-146988500D01*
X67830232Y-146988500D01*
X68006752Y-146950980D01*
X68006754Y-146950978D01*
X68006757Y-146950978D01*
X68114564Y-146902979D01*
X68183814Y-146893694D01*
X68215436Y-146902979D01*
X68323242Y-146950978D01*
X68323248Y-146950980D01*
X68499768Y-146988500D01*
X68499769Y-146988500D01*
X68680231Y-146988500D01*
X68680232Y-146988500D01*
X68856752Y-146950980D01*
X68856754Y-146950978D01*
X68856757Y-146950978D01*
X68964564Y-146902979D01*
X69033814Y-146893694D01*
X69065436Y-146902979D01*
X69173242Y-146950978D01*
X69173248Y-146950980D01*
X69349768Y-146988500D01*
X69349769Y-146988500D01*
X69530231Y-146988500D01*
X69530232Y-146988500D01*
X69706752Y-146950980D01*
X69706754Y-146950978D01*
X69706757Y-146950978D01*
X69814564Y-146902979D01*
X69883814Y-146893694D01*
X69915436Y-146902979D01*
X70023242Y-146950978D01*
X70023248Y-146950980D01*
X70199768Y-146988500D01*
X70199769Y-146988500D01*
X70380231Y-146988500D01*
X70380232Y-146988500D01*
X70556752Y-146950980D01*
X70556754Y-146950978D01*
X70556757Y-146950978D01*
X70664564Y-146902979D01*
X70733814Y-146893694D01*
X70765436Y-146902979D01*
X70873242Y-146950978D01*
X70873248Y-146950980D01*
X71049768Y-146988500D01*
X71049769Y-146988500D01*
X71230231Y-146988500D01*
X71230232Y-146988500D01*
X71406752Y-146950980D01*
X71406754Y-146950978D01*
X71406757Y-146950978D01*
X71473197Y-146921396D01*
X71525014Y-146898325D01*
X71594264Y-146889041D01*
X71625887Y-146898326D01*
X71725889Y-146942851D01*
X71900661Y-146980000D01*
X72079339Y-146980000D01*
X72254110Y-146942851D01*
X72254115Y-146942849D01*
X72330584Y-146908803D01*
X72399834Y-146899518D01*
X72463111Y-146929146D01*
X72486862Y-146959182D01*
X72487203Y-146958955D01*
X72490038Y-146963198D01*
X72490378Y-146963628D01*
X72490588Y-146964021D01*
X72595483Y-147121007D01*
X72595486Y-147121011D01*
X72728988Y-147254513D01*
X72728992Y-147254516D01*
X72885973Y-147359408D01*
X72885979Y-147359411D01*
X72885980Y-147359412D01*
X73060416Y-147431666D01*
X73245591Y-147468499D01*
X73245595Y-147468500D01*
X73245596Y-147468500D01*
X73434405Y-147468500D01*
X73434406Y-147468499D01*
X73619584Y-147431666D01*
X73794020Y-147359412D01*
X73951008Y-147254516D01*
X74084516Y-147121008D01*
X74189412Y-146964020D01*
X74261666Y-146789584D01*
X74298500Y-146604404D01*
X74298500Y-144915596D01*
X74261666Y-144730416D01*
X74205780Y-144595497D01*
X74189413Y-144555982D01*
X74189408Y-144555973D01*
X74084516Y-144398992D01*
X74084513Y-144398988D01*
X73951011Y-144265486D01*
X73951007Y-144265483D01*
X73794026Y-144160591D01*
X73794017Y-144160586D01*
X73619584Y-144088334D01*
X73619576Y-144088332D01*
X73434408Y-144051500D01*
X73434404Y-144051500D01*
X73245596Y-144051500D01*
X73245591Y-144051500D01*
X73060423Y-144088332D01*
X73060415Y-144088334D01*
X72885982Y-144160586D01*
X72885973Y-144160591D01*
X72728992Y-144265483D01*
X72728988Y-144265486D01*
X72595486Y-144398988D01*
X72595483Y-144398992D01*
X72490591Y-144555973D01*
X72490588Y-144555979D01*
X72445589Y-144664615D01*
X72418709Y-144704842D01*
X72210862Y-144912690D01*
X72149539Y-144946175D01*
X72109529Y-144943313D01*
X72159552Y-144893291D01*
X72190000Y-144819782D01*
X72190000Y-144740218D01*
X72159552Y-144666709D01*
X72103291Y-144610448D01*
X72029782Y-144580000D01*
X71977696Y-144580000D01*
X71966536Y-144545655D01*
X71964542Y-144475816D01*
X71996787Y-144419658D01*
X72389165Y-144027280D01*
X72389165Y-144027279D01*
X72254115Y-143967150D01*
X72254110Y-143967148D01*
X72079339Y-143930000D01*
X71900664Y-143930000D01*
X71802554Y-143950853D01*
X71732887Y-143945536D01*
X71677154Y-143903398D01*
X71673672Y-143898454D01*
X71666483Y-143887695D01*
X71651491Y-143865257D01*
X71651488Y-143865254D01*
X71651486Y-143865251D01*
X71292745Y-143506510D01*
X71184894Y-143434447D01*
X71184893Y-143434446D01*
X71184891Y-143434445D01*
X71184889Y-143434444D01*
X71184887Y-143434443D01*
X71065051Y-143384806D01*
X71065045Y-143384804D01*
X70937833Y-143359500D01*
X70937831Y-143359500D01*
X67842500Y-143359500D01*
X67775461Y-143339815D01*
X67729706Y-143287011D01*
X67718500Y-143235500D01*
X67718500Y-142003504D01*
X67718500Y-142003498D01*
X67715562Y-141966169D01*
X67669145Y-141806399D01*
X67584453Y-141663193D01*
X67584451Y-141663191D01*
X67584448Y-141663187D01*
X67573442Y-141652181D01*
X67539957Y-141590858D01*
X67544941Y-141521166D01*
X67586813Y-141465233D01*
X67652277Y-141440816D01*
X67661123Y-141440500D01*
X68381501Y-141440500D01*
X68448540Y-141460185D01*
X68494295Y-141512989D01*
X68505501Y-141564500D01*
X68505501Y-141570553D01*
X68516113Y-141674427D01*
X68571884Y-141842735D01*
X68571886Y-141842740D01*
X68585725Y-141865176D01*
X68664970Y-141993652D01*
X68790348Y-142119030D01*
X68941262Y-142212115D01*
X69109574Y-142267887D01*
X69213455Y-142278500D01*
X71414544Y-142278499D01*
X71518426Y-142267887D01*
X71686738Y-142212115D01*
X71837652Y-142119030D01*
X71963030Y-141993652D01*
X72013455Y-141911899D01*
X72065402Y-141865176D01*
X72134364Y-141853953D01*
X72198446Y-141881796D01*
X72224531Y-141911900D01*
X72271680Y-141988340D01*
X72271683Y-141988344D01*
X72395654Y-142112315D01*
X72544875Y-142204356D01*
X72544880Y-142204358D01*
X72711302Y-142259505D01*
X72711309Y-142259506D01*
X72814019Y-142269999D01*
X73663999Y-142269999D01*
X74164000Y-142269999D01*
X75013972Y-142269999D01*
X75013986Y-142269998D01*
X75116697Y-142259505D01*
X75283119Y-142204358D01*
X75283124Y-142204356D01*
X75432345Y-142112315D01*
X75556315Y-141988345D01*
X75648356Y-141839124D01*
X75648358Y-141839119D01*
X75703505Y-141672697D01*
X75703506Y-141672690D01*
X75713999Y-141569986D01*
X75714000Y-141569973D01*
X75714000Y-141220000D01*
X74164000Y-141220000D01*
X74164000Y-142269999D01*
X73663999Y-142269999D01*
X73664000Y-142269998D01*
X73664000Y-140720000D01*
X74164000Y-140720000D01*
X75713999Y-140720000D01*
X75713999Y-140370028D01*
X75713998Y-140370013D01*
X75703505Y-140267302D01*
X75648358Y-140100880D01*
X75648356Y-140100875D01*
X75556315Y-139951654D01*
X75432345Y-139827684D01*
X75283124Y-139735643D01*
X75283119Y-139735641D01*
X75116697Y-139680494D01*
X75116690Y-139680493D01*
X75013986Y-139670000D01*
X74164000Y-139670000D01*
X74164000Y-140720000D01*
X73664000Y-140720000D01*
X73664000Y-139670000D01*
X72814028Y-139670000D01*
X72814012Y-139670001D01*
X72711302Y-139680494D01*
X72544880Y-139735641D01*
X72544875Y-139735643D01*
X72395654Y-139827684D01*
X72271682Y-139951656D01*
X72224531Y-140028100D01*
X72172583Y-140074824D01*
X72103620Y-140086045D01*
X72039538Y-140058201D01*
X72013455Y-140028100D01*
X71963030Y-139946348D01*
X71837652Y-139820970D01*
X71699316Y-139735643D01*
X71686740Y-139727886D01*
X71686735Y-139727884D01*
X71518427Y-139672113D01*
X71414552Y-139661500D01*
X71414545Y-139661500D01*
X70854121Y-139661500D01*
X70787082Y-139641815D01*
X70766440Y-139625181D01*
X70733769Y-139592510D01*
X70179772Y-139038511D01*
X70179771Y-139038510D01*
X70071920Y-138966447D01*
X70071919Y-138966446D01*
X70071917Y-138966445D01*
X70071915Y-138966444D01*
X70071913Y-138966443D01*
X69952077Y-138916806D01*
X69952071Y-138916804D01*
X69824859Y-138891500D01*
X69824857Y-138891500D01*
X68042499Y-138891500D01*
X67975460Y-138871815D01*
X67929705Y-138819011D01*
X67918499Y-138767500D01*
X67918499Y-138254462D01*
X67918498Y-138254446D01*
X67910005Y-138171307D01*
X67922775Y-138102614D01*
X67970655Y-138051730D01*
X68038445Y-138034809D01*
X68067957Y-138039628D01*
X68071169Y-138040562D01*
X68108498Y-138043500D01*
X68108504Y-138043500D01*
X68541496Y-138043500D01*
X68541502Y-138043500D01*
X68578831Y-138040562D01*
X68578833Y-138040561D01*
X68578835Y-138040561D01*
X68620962Y-138028321D01*
X68738601Y-137994145D01*
X68881807Y-137909453D01*
X68881814Y-137909445D01*
X68887968Y-137904673D01*
X68889453Y-137906588D01*
X68940226Y-137878853D01*
X69009919Y-137883824D01*
X69036708Y-137898747D01*
X69036729Y-137898712D01*
X69038092Y-137899518D01*
X69042603Y-137902031D01*
X69043443Y-137902683D01*
X69184801Y-137986281D01*
X69342514Y-138032100D01*
X69342511Y-138032100D01*
X69344998Y-138032295D01*
X69345000Y-138032295D01*
X69845000Y-138032295D01*
X69845001Y-138032295D01*
X69847486Y-138032100D01*
X70005198Y-137986281D01*
X70146552Y-137902685D01*
X70152722Y-137897900D01*
X70154546Y-137900252D01*
X70203595Y-137873445D01*
X70273288Y-137878402D01*
X70306063Y-137899465D01*
X70307278Y-137897900D01*
X70313447Y-137902685D01*
X70454801Y-137986281D01*
X70612514Y-138032100D01*
X70612511Y-138032100D01*
X70614998Y-138032295D01*
X70615000Y-138032295D01*
X71115000Y-138032295D01*
X71115001Y-138032295D01*
X71117486Y-138032100D01*
X71275198Y-137986281D01*
X71416552Y-137902685D01*
X71422722Y-137897900D01*
X71424546Y-137900252D01*
X71473595Y-137873445D01*
X71543288Y-137878402D01*
X71576063Y-137899465D01*
X71577278Y-137897900D01*
X71583447Y-137902685D01*
X71724801Y-137986281D01*
X71882514Y-138032100D01*
X71882511Y-138032100D01*
X71884998Y-138032295D01*
X71885000Y-138032295D01*
X72385000Y-138032295D01*
X72385001Y-138032295D01*
X72387486Y-138032100D01*
X72545198Y-137986281D01*
X72686552Y-137902685D01*
X72692722Y-137897900D01*
X72694546Y-137900252D01*
X72743595Y-137873445D01*
X72813288Y-137878402D01*
X72846063Y-137899465D01*
X72847278Y-137897900D01*
X72853447Y-137902685D01*
X72994801Y-137986281D01*
X73152514Y-138032100D01*
X73152511Y-138032100D01*
X73154998Y-138032295D01*
X73155000Y-138032295D01*
X73655000Y-138032295D01*
X73655001Y-138032295D01*
X73657486Y-138032100D01*
X73815198Y-137986281D01*
X73956552Y-137902685D01*
X73956561Y-137902678D01*
X74072678Y-137786561D01*
X74072685Y-137786552D01*
X74156282Y-137645196D01*
X74156283Y-137645193D01*
X74202099Y-137487495D01*
X74202100Y-137487489D01*
X74204999Y-137450649D01*
X74205000Y-137450634D01*
X74205000Y-136760000D01*
X73655000Y-136760000D01*
X73655000Y-138032295D01*
X73155000Y-138032295D01*
X73155000Y-136760000D01*
X72385000Y-136760000D01*
X72385000Y-138032295D01*
X71885000Y-138032295D01*
X71885000Y-136760000D01*
X71115000Y-136760000D01*
X71115000Y-138032295D01*
X70615000Y-138032295D01*
X70615000Y-136760000D01*
X69845000Y-136760000D01*
X69845000Y-138032295D01*
X69345000Y-138032295D01*
X69345000Y-134987703D01*
X69845000Y-134987703D01*
X69845000Y-136260000D01*
X70615000Y-136260000D01*
X70615000Y-134987703D01*
X71115000Y-134987703D01*
X71115000Y-136260000D01*
X71885000Y-136260000D01*
X71885000Y-134987703D01*
X72385000Y-134987703D01*
X72385000Y-136260000D01*
X73155000Y-136260000D01*
X73655000Y-136260000D01*
X74205000Y-136260000D01*
X74205000Y-135569365D01*
X74204999Y-135569350D01*
X74202100Y-135532510D01*
X74202099Y-135532504D01*
X74156283Y-135374806D01*
X74156282Y-135374803D01*
X74072685Y-135233447D01*
X74072678Y-135233438D01*
X73956561Y-135117321D01*
X73956552Y-135117314D01*
X73815196Y-135033717D01*
X73815193Y-135033716D01*
X73657494Y-134987900D01*
X73657497Y-134987900D01*
X73655000Y-134987703D01*
X73655000Y-136260000D01*
X73155000Y-136260000D01*
X73155000Y-134987703D01*
X73152503Y-134987900D01*
X72994806Y-135033716D01*
X72994803Y-135033717D01*
X72853447Y-135117314D01*
X72847278Y-135122100D01*
X72845457Y-135119753D01*
X72796358Y-135146564D01*
X72726666Y-135141580D01*
X72693930Y-135120541D01*
X72692722Y-135122100D01*
X72686552Y-135117314D01*
X72545196Y-135033717D01*
X72545193Y-135033716D01*
X72387494Y-134987900D01*
X72387497Y-134987900D01*
X72385000Y-134987703D01*
X71885000Y-134987703D01*
X71882503Y-134987900D01*
X71724806Y-135033716D01*
X71724803Y-135033717D01*
X71583447Y-135117314D01*
X71577278Y-135122100D01*
X71575457Y-135119753D01*
X71526358Y-135146564D01*
X71456666Y-135141580D01*
X71423930Y-135120541D01*
X71422722Y-135122100D01*
X71416552Y-135117314D01*
X71275196Y-135033717D01*
X71275193Y-135033716D01*
X71117494Y-134987900D01*
X71117497Y-134987900D01*
X71115000Y-134987703D01*
X70615000Y-134987703D01*
X70612503Y-134987900D01*
X70454806Y-135033716D01*
X70454803Y-135033717D01*
X70313447Y-135117314D01*
X70307278Y-135122100D01*
X70305457Y-135119753D01*
X70256358Y-135146564D01*
X70186666Y-135141580D01*
X70153930Y-135120541D01*
X70152722Y-135122100D01*
X70146552Y-135117314D01*
X70005196Y-135033717D01*
X70005193Y-135033716D01*
X69847494Y-134987900D01*
X69847497Y-134987900D01*
X69845000Y-134987703D01*
X69345000Y-134987703D01*
X69342503Y-134987900D01*
X69184806Y-135033716D01*
X69184803Y-135033717D01*
X69043439Y-135117319D01*
X69042602Y-135117969D01*
X69041826Y-135118273D01*
X69036729Y-135121288D01*
X69036242Y-135120465D01*
X68977564Y-135143500D01*
X68909047Y-135129816D01*
X68888472Y-135114685D01*
X68887973Y-135115330D01*
X68881803Y-135110544D01*
X68738601Y-135025855D01*
X68738596Y-135025853D01*
X68578835Y-134979438D01*
X68578829Y-134979437D01*
X68541507Y-134976500D01*
X68541502Y-134976500D01*
X68108498Y-134976500D01*
X68108492Y-134976500D01*
X68071170Y-134979437D01*
X68071164Y-134979438D01*
X67911403Y-135025853D01*
X67911398Y-135025855D01*
X67768191Y-135110547D01*
X67765998Y-135112249D01*
X67763965Y-135113047D01*
X67761478Y-135114518D01*
X67761240Y-135114116D01*
X67700961Y-135137783D01*
X67632444Y-135124101D01*
X67614002Y-135112249D01*
X67611808Y-135110547D01*
X67468601Y-135025855D01*
X67468596Y-135025853D01*
X67308835Y-134979438D01*
X67308829Y-134979437D01*
X67271507Y-134976500D01*
X67271502Y-134976500D01*
X66838498Y-134976500D01*
X66838492Y-134976500D01*
X66801170Y-134979437D01*
X66801164Y-134979438D01*
X66641403Y-135025853D01*
X66641398Y-135025855D01*
X66498198Y-135110543D01*
X66492032Y-135115327D01*
X66490550Y-135113417D01*
X66439727Y-135141156D01*
X66370036Y-135136159D01*
X66343291Y-135121253D01*
X66343271Y-135121288D01*
X66341925Y-135120492D01*
X66337398Y-135117969D01*
X66336560Y-135117319D01*
X66195196Y-135033717D01*
X66195193Y-135033716D01*
X66037494Y-134987900D01*
X66037497Y-134987900D01*
X66035000Y-134987703D01*
X66035000Y-136636000D01*
X66015315Y-136703039D01*
X65962511Y-136748794D01*
X65911000Y-136760000D01*
X63715000Y-136760000D01*
X62230000Y-136760000D01*
X62230000Y-135569350D01*
X63715000Y-135569350D01*
X63715000Y-136260000D01*
X64265000Y-136260000D01*
X64265000Y-134987703D01*
X64765000Y-134987703D01*
X64765000Y-136260000D01*
X65535000Y-136260000D01*
X65535000Y-134987703D01*
X65532503Y-134987900D01*
X65374806Y-135033716D01*
X65374803Y-135033717D01*
X65233447Y-135117314D01*
X65227278Y-135122100D01*
X65225457Y-135119753D01*
X65176358Y-135146564D01*
X65106666Y-135141580D01*
X65073930Y-135120541D01*
X65072722Y-135122100D01*
X65066552Y-135117314D01*
X64925196Y-135033717D01*
X64925193Y-135033716D01*
X64767494Y-134987900D01*
X64767497Y-134987900D01*
X64765000Y-134987703D01*
X64265000Y-134987703D01*
X64262503Y-134987900D01*
X64104806Y-135033716D01*
X64104803Y-135033717D01*
X63963447Y-135117314D01*
X63963438Y-135117321D01*
X63847321Y-135233438D01*
X63847314Y-135233447D01*
X63763717Y-135374803D01*
X63763716Y-135374806D01*
X63717900Y-135532504D01*
X63717899Y-135532510D01*
X63715000Y-135569350D01*
X62230000Y-135569350D01*
X62230000Y-133474000D01*
X62249685Y-133406961D01*
X62302489Y-133361206D01*
X62354000Y-133350000D01*
X76076000Y-133350000D01*
X76143039Y-133369685D01*
G37*
G04 #@! TD.AperFunction*
M02*
