M48
; DRILL file {KiCad 8.0.6} date 2025-03-14T09:35:30+0100
; FORMAT={-:-/ absolute / metric / decimal}
; #@! TF.CreationDate,2025-03-14T09:35:30+01:00
; #@! TF.GenerationSoftware,Kicad,Pcbnew,8.0.6
; #@! TF.FileFunction,Plated,1,2,PTH
FMAT,2
METRIC
; #@! TA.AperFunction,Plated,PTH,ViaDrill
T1C0.400
; #@! TA.AperFunction,Plated,PTH,ComponentDrill
T2C0.400
; #@! TA.AperFunction,Plated,PTH,ComponentDrill
T3C0.600
; #@! TA.AperFunction,Plated,PTH,ComponentDrill
T4C0.890
; #@! TA.AperFunction,Plated,PTH,ComponentDrill
T5C1.000
; #@! TA.AperFunction,Plated,PTH,ComponentDrill
T6C1.700
; #@! TA.AperFunction,Plated,PTH,ComponentDrill
T7C1.900
%
G90
G05
T1
X52.576Y-109.723
X52.576Y-117.723
X52.576Y-121.723
X52.576Y-125.723
X52.576Y-129.723
X52.576Y-133.723
X52.576Y-137.723
X52.576Y-141.723
X56.576Y-105.723
X56.576Y-109.723
X56.576Y-129.723
X56.576Y-133.723
X56.576Y-137.723
X56.576Y-141.723
X60.576Y-101.723
X60.576Y-105.723
X60.576Y-109.723
X60.576Y-113.723
X60.576Y-125.723
X60.576Y-129.723
X60.576Y-133.723
X60.576Y-137.723
X60.576Y-141.723
X60.576Y-145.723
X60.576Y-149.723
X61.092Y-119.314
X64.54Y-140.77
X64.576Y-97.723
X64.576Y-101.723
X64.576Y-105.723
X64.576Y-109.723
X65.786Y-119.38
X68.576Y-93.723
X68.576Y-97.723
X68.576Y-101.723
X68.576Y-105.723
X68.576Y-109.723
X72.576Y-93.723
X72.576Y-97.723
X72.576Y-101.723
X72.576Y-105.723
X75.184Y-146.558
X75.184Y-148.082
X76.576Y-93.723
X76.576Y-117.723
X80.576Y-93.723
X80.576Y-97.723
X80.576Y-109.723
X80.576Y-137.723
X82.55Y-116.078
X84.576Y-93.723
X84.576Y-97.723
X84.576Y-137.723
X84.836Y-114.046
X85.725Y-103.697
X85.852Y-116.078
X86.614Y-122.682
X86.614Y-133.5
X86.995Y-108.647
X87.884Y-112.522
X88.576Y-97.723
X88.576Y-137.723
X88.9Y-117.856
X92.576Y-101.723
X92.576Y-105.723
X92.576Y-109.723
X96.576Y-105.723
X96.576Y-109.723
X96.576Y-129.723
X96.576Y-137.723
X100.576Y-109.723
X100.576Y-117.723
X100.576Y-121.723
T2
X66.04Y-144.78
X66.04Y-146.13
X66.89Y-144.78
X66.89Y-146.13
X67.74Y-144.78
X67.74Y-146.13
X68.59Y-144.78
X68.59Y-146.13
X69.44Y-144.78
X69.44Y-146.13
X70.29Y-144.78
X70.29Y-146.13
X71.14Y-144.78
X71.14Y-146.13
X71.99Y-144.78
X71.99Y-146.13
T4
X78.232Y-97.282
X78.232Y-99.822
X78.232Y-109.22
X78.232Y-111.76
T5
X93.766Y-124.841
X96.266Y-124.841
X98.766Y-124.841
T6
X78.82Y-142.9
X81.82Y-142.9
X83.82Y-147.9
X85.82Y-142.9
X88.82Y-142.9
T3
G00X64.69Y-145.01
M15
G01X64.69Y-146.51
M16
G05
G00X64.69Y-148.74
M15
G01X64.69Y-149.54
M16
G05
G00X73.34Y-145.01
M15
G01X73.34Y-146.51
M16
G05
G00X73.34Y-148.74
M15
G01X73.34Y-149.54
M16
G05
T7
G00X91.366Y-131.641
M15
G01X91.366Y-132.041
M16
G05
G00X101.166Y-131.641
M15
G01X101.166Y-132.041
M16
G05
M30
