G04 #@! TF.GenerationSoftware,KiCad,Pcbnew,8.0.6*
G04 #@! TF.CreationDate,2025-03-14T09:35:17+01:00*
G04 #@! TF.ProjectId,Project_Gmic,50726f6a-6563-4745-9f47-6d69632e6b69,V1.2*
G04 #@! TF.SameCoordinates,Original*
G04 #@! TF.FileFunction,Soldermask,Bot*
G04 #@! TF.FilePolarity,Negative*
%FSLAX46Y46*%
G04 Gerber Fmt 4.6, Leading zero omitted, Abs format (unit mm)*
G04 Created by KiCad (PCBNEW 8.0.6) date 2025-03-14 09:35:17*
%MOMM*%
%LPD*%
G01*
G04 APERTURE LIST*
G04 Aperture macros list*
%AMRoundRect*
0 Rectangle with rounded corners*
0 $1 Rounding radius*
0 $2 $3 $4 $5 $6 $7 $8 $9 X,Y pos of 4 corners*
0 Add a 4 corners polygon primitive as box body*
4,1,4,$2,$3,$4,$5,$6,$7,$8,$9,$2,$3,0*
0 Add four circle primitives for the rounded corners*
1,1,$1+$1,$2,$3*
1,1,$1+$1,$4,$5*
1,1,$1+$1,$6,$7*
1,1,$1+$1,$8,$9*
0 Add four rect primitives between the rounded corners*
20,1,$1+$1,$2,$3,$4,$5,0*
20,1,$1+$1,$4,$5,$6,$7,0*
20,1,$1+$1,$6,$7,$8,$9,0*
20,1,$1+$1,$8,$9,$2,$3,0*%
G04 Aperture macros list end*
%ADD10C,1.200000*%
%ADD11C,2.550000*%
%ADD12C,2.400000*%
%ADD13C,0.700000*%
%ADD14O,0.900000X2.400000*%
%ADD15O,0.900000X1.700000*%
%ADD16R,1.446000X1.446000*%
%ADD17C,1.446000*%
%ADD18C,0.900000*%
%ADD19O,3.100000X3.500000*%
%ADD20R,1.800000X1.800000*%
%ADD21O,1.800000X1.800000*%
%ADD22C,3.000000*%
%ADD23RoundRect,0.250000X0.475000X-0.250000X0.475000X0.250000X-0.475000X0.250000X-0.475000X-0.250000X0*%
%ADD24RoundRect,0.250000X-0.475000X0.250000X-0.475000X-0.250000X0.475000X-0.250000X0.475000X0.250000X0*%
%ADD25RoundRect,0.250000X0.250000X0.475000X-0.250000X0.475000X-0.250000X-0.475000X0.250000X-0.475000X0*%
%ADD26RoundRect,0.250000X0.450000X-0.262500X0.450000X0.262500X-0.450000X0.262500X-0.450000X-0.262500X0*%
%ADD27RoundRect,0.250000X-0.450000X0.262500X-0.450000X-0.262500X0.450000X-0.262500X0.450000X0.262500X0*%
%ADD28RoundRect,0.250000X0.262500X0.450000X-0.262500X0.450000X-0.262500X-0.450000X0.262500X-0.450000X0*%
%ADD29RoundRect,0.250000X-0.262500X-0.450000X0.262500X-0.450000X0.262500X0.450000X-0.262500X0.450000X0*%
%ADD30RoundRect,0.150000X-0.150000X0.825000X-0.150000X-0.825000X0.150000X-0.825000X0.150000X0.825000X0*%
%ADD31RoundRect,0.150000X-0.512500X-0.150000X0.512500X-0.150000X0.512500X0.150000X-0.512500X0.150000X0*%
G04 APERTURE END LIST*
D10*
X78820000Y-150400000D03*
X88820000Y-150400000D03*
X78820000Y-147900000D03*
X88820000Y-147900000D03*
X83820000Y-142900000D03*
D11*
X83820000Y-147900000D03*
X88820000Y-142900000D03*
X78820000Y-142900000D03*
D12*
X85820000Y-142900000D03*
X81820000Y-142900000D03*
D13*
X66040000Y-144780000D03*
X66890000Y-144780000D03*
X67740000Y-144780000D03*
X68590000Y-144780000D03*
X69440000Y-144780000D03*
X70290000Y-144780000D03*
X71140000Y-144780000D03*
X71990000Y-144780000D03*
X71990000Y-146130000D03*
X71140000Y-146130000D03*
X70290000Y-146130000D03*
X69440000Y-146130000D03*
X68590000Y-146130000D03*
X67740000Y-146130000D03*
X66890000Y-146130000D03*
X66040000Y-146130000D03*
D14*
X64690000Y-145760000D03*
D15*
X64690000Y-149140000D03*
D14*
X73340000Y-145760000D03*
D15*
X73340000Y-149140000D03*
D16*
X78232000Y-97282000D03*
D17*
X78232000Y-99822000D03*
D16*
X78232000Y-109220000D03*
D17*
X78232000Y-111760000D03*
D18*
X102311000Y-147677000D03*
X102311000Y-144677000D03*
D19*
X101166000Y-131841000D03*
X91366000Y-131841000D03*
D20*
X98766000Y-124841000D03*
D21*
X96266000Y-124841000D03*
X93766000Y-124841000D03*
D22*
X54356000Y-147574000D03*
X54356000Y-114808000D03*
X98044000Y-114808000D03*
D23*
X83124000Y-101788000D03*
X83124000Y-99888000D03*
D24*
X83058000Y-109794000D03*
X83058000Y-111694000D03*
D25*
X78862000Y-114300000D03*
X76962000Y-114300000D03*
X82418000Y-121920000D03*
X80518000Y-121920000D03*
D26*
X81026000Y-101623500D03*
X81026000Y-99798500D03*
D27*
X75184000Y-147400000D03*
X75184000Y-149225000D03*
D26*
X81026000Y-113561500D03*
X81026000Y-111736500D03*
D28*
X67611000Y-142748000D03*
X65786000Y-142748000D03*
D29*
X85447500Y-101346000D03*
X87272500Y-101346000D03*
X86971500Y-110998000D03*
X88796500Y-110998000D03*
D24*
X58928000Y-119380000D03*
X58928000Y-121280000D03*
D30*
X85725000Y-103697000D03*
X86995000Y-103697000D03*
X88265000Y-103697000D03*
X89535000Y-103697000D03*
X89535000Y-108647000D03*
X88265000Y-108647000D03*
X86995000Y-108647000D03*
X85725000Y-108647000D03*
D25*
X78862000Y-102362000D03*
X76962000Y-102362000D03*
D24*
X60960000Y-120462000D03*
X60960000Y-122362000D03*
D29*
X70057000Y-148082000D03*
X71882000Y-148082000D03*
D24*
X85090000Y-110876000D03*
X85090000Y-112776000D03*
D29*
X80725000Y-117856000D03*
X82550000Y-117856000D03*
D31*
X84582000Y-121158000D03*
X84582000Y-120208000D03*
X84582000Y-119258000D03*
X86857000Y-119258000D03*
X86857000Y-121158000D03*
D25*
X83688000Y-106426000D03*
X81788000Y-106426000D03*
D24*
X91186000Y-121478000D03*
X91186000Y-123378000D03*
X89154000Y-121544000D03*
X89154000Y-123444000D03*
D28*
X82343000Y-119888000D03*
X80518000Y-119888000D03*
M02*
