G04 #@! TF.GenerationSoftware,KiCad,Pcbnew,(5.1.10)-1*
G04 #@! TF.CreationDate,2022-06-20T16:08:07+02:00*
G04 #@! TF.ProjectId,Project_Gmic,50726f6a-6563-4745-9f47-6d69632e6b69,V1.0*
G04 #@! TF.SameCoordinates,PX2e063a0PY928d170*
G04 #@! TF.FileFunction,Legend,Top*
G04 #@! TF.FilePolarity,Positive*
%FSLAX46Y46*%
G04 Gerber Fmt 4.6, Leading zero omitted, Abs format (unit mm)*
G04 Created by KiCad (PCBNEW (5.1.10)-1) date 2022-06-20 16:08:07*
%MOMM*%
%LPD*%
G01*
G04 APERTURE LIST*
%ADD10C,0.150000*%
%ADD11C,0.120000*%
%ADD12C,0.200000*%
%ADD13C,0.100000*%
%ADD14C,0.254000*%
G04 APERTURE END LIST*
D10*
X2992380Y7740953D02*
X2992380Y7264762D01*
X1992380Y7264762D01*
X2992380Y8074286D02*
X2325714Y8074286D01*
X1992380Y8074286D02*
X2040000Y8026667D01*
X2087619Y8074286D01*
X2040000Y8121905D01*
X1992380Y8074286D01*
X2087619Y8074286D01*
X2944761Y8979048D02*
X2992380Y8883810D01*
X2992380Y8693334D01*
X2944761Y8598096D01*
X2897142Y8550477D01*
X2801904Y8502858D01*
X2516190Y8502858D01*
X2420952Y8550477D01*
X2373333Y8598096D01*
X2325714Y8693334D01*
X2325714Y8883810D01*
X2373333Y8979048D01*
X2944761Y9788572D02*
X2992380Y9693334D01*
X2992380Y9502858D01*
X2944761Y9407620D01*
X2849523Y9360000D01*
X2468571Y9360000D01*
X2373333Y9407620D01*
X2325714Y9502858D01*
X2325714Y9693334D01*
X2373333Y9788572D01*
X2468571Y9836191D01*
X2563809Y9836191D01*
X2659047Y9360000D01*
X2325714Y10264762D02*
X2992380Y10264762D01*
X2420952Y10264762D02*
X2373333Y10312381D01*
X2325714Y10407620D01*
X2325714Y10550477D01*
X2373333Y10645715D01*
X2468571Y10693334D01*
X2992380Y10693334D01*
X2944761Y11121905D02*
X2992380Y11217143D01*
X2992380Y11407620D01*
X2944761Y11502858D01*
X2849523Y11550477D01*
X2801904Y11550477D01*
X2706666Y11502858D01*
X2659047Y11407620D01*
X2659047Y11264762D01*
X2611428Y11169524D01*
X2516190Y11121905D01*
X2468571Y11121905D01*
X2373333Y11169524D01*
X2325714Y11264762D01*
X2325714Y11407620D01*
X2373333Y11502858D01*
X2944761Y12360000D02*
X2992380Y12264762D01*
X2992380Y12074286D01*
X2944761Y11979048D01*
X2849523Y11931429D01*
X2468571Y11931429D01*
X2373333Y11979048D01*
X2325714Y12074286D01*
X2325714Y12264762D01*
X2373333Y12360000D01*
X2468571Y12407620D01*
X2563809Y12407620D01*
X2659047Y11931429D01*
X2992380Y13264762D02*
X1992380Y13264762D01*
X2944761Y13264762D02*
X2992380Y13169524D01*
X2992380Y12979048D01*
X2944761Y12883810D01*
X2897142Y12836191D01*
X2801904Y12788572D01*
X2516190Y12788572D01*
X2420952Y12836191D01*
X2373333Y12883810D01*
X2325714Y12979048D01*
X2325714Y13169524D01*
X2373333Y13264762D01*
X2325714Y14931429D02*
X2992380Y14931429D01*
X2325714Y14502858D02*
X2849523Y14502858D01*
X2944761Y14550477D01*
X2992380Y14645715D01*
X2992380Y14788572D01*
X2944761Y14883810D01*
X2897142Y14931429D01*
X2325714Y15407620D02*
X2992380Y15407620D01*
X2420952Y15407620D02*
X2373333Y15455239D01*
X2325714Y15550477D01*
X2325714Y15693334D01*
X2373333Y15788572D01*
X2468571Y15836191D01*
X2992380Y15836191D01*
X2992380Y16740953D02*
X1992380Y16740953D01*
X2944761Y16740953D02*
X2992380Y16645715D01*
X2992380Y16455239D01*
X2944761Y16360000D01*
X2897142Y16312381D01*
X2801904Y16264762D01*
X2516190Y16264762D01*
X2420952Y16312381D01*
X2373333Y16360000D01*
X2325714Y16455239D01*
X2325714Y16645715D01*
X2373333Y16740953D01*
X2944761Y17598096D02*
X2992380Y17502858D01*
X2992380Y17312381D01*
X2944761Y17217143D01*
X2849523Y17169524D01*
X2468571Y17169524D01*
X2373333Y17217143D01*
X2325714Y17312381D01*
X2325714Y17502858D01*
X2373333Y17598096D01*
X2468571Y17645715D01*
X2563809Y17645715D01*
X2659047Y17169524D01*
X2992380Y18074286D02*
X2325714Y18074286D01*
X2516190Y18074286D02*
X2420952Y18121905D01*
X2373333Y18169524D01*
X2325714Y18264762D01*
X2325714Y18360000D01*
X2897142Y20026667D02*
X2944761Y19979048D01*
X2992380Y19836191D01*
X2992380Y19740953D01*
X2944761Y19598096D01*
X2849523Y19502858D01*
X2754285Y19455239D01*
X2563809Y19407620D01*
X2420952Y19407620D01*
X2230476Y19455239D01*
X2135238Y19502858D01*
X2040000Y19598096D01*
X1992380Y19740953D01*
X1992380Y19836191D01*
X2040000Y19979048D01*
X2087619Y20026667D01*
X2468571Y20455239D02*
X2468571Y20788572D01*
X2992380Y20931429D02*
X2992380Y20455239D01*
X1992380Y20455239D01*
X1992380Y20931429D01*
X2992380Y21931429D02*
X2516190Y21598096D01*
X2992380Y21360000D02*
X1992380Y21360000D01*
X1992380Y21740953D01*
X2040000Y21836191D01*
X2087619Y21883810D01*
X2182857Y21931429D01*
X2325714Y21931429D01*
X2420952Y21883810D01*
X2468571Y21836191D01*
X2516190Y21740953D01*
X2516190Y21360000D01*
X2992380Y22360000D02*
X1992380Y22360000D01*
X2992380Y22931429D01*
X1992380Y22931429D01*
X2611428Y23407620D02*
X2611428Y24169524D01*
X1992380Y24836191D02*
X1992380Y25026667D01*
X2040000Y25121905D01*
X2135238Y25217143D01*
X2325714Y25264762D01*
X2659047Y25264762D01*
X2849523Y25217143D01*
X2944761Y25121905D01*
X2992380Y25026667D01*
X2992380Y24836191D01*
X2944761Y24740953D01*
X2849523Y24645715D01*
X2659047Y24598096D01*
X2325714Y24598096D01*
X2135238Y24645715D01*
X2040000Y24740953D01*
X1992380Y24836191D01*
X2992380Y25693334D02*
X1992380Y25693334D01*
X2468571Y25693334D02*
X2468571Y26264762D01*
X2992380Y26264762D02*
X1992380Y26264762D01*
X2992380Y27217143D02*
X2992380Y26740953D01*
X1992380Y26740953D01*
X2611428Y27550477D02*
X2611428Y28312381D01*
X1992380Y28693334D02*
X2992380Y28931429D01*
X2278095Y29121905D01*
X2992380Y29312381D01*
X1992380Y29550477D01*
X2325714Y30598096D02*
X2992380Y30836191D01*
X2325714Y31074286D01*
X2087619Y31407620D02*
X2040000Y31455239D01*
X1992380Y31550477D01*
X1992380Y31788572D01*
X2040000Y31883810D01*
X2087619Y31931429D01*
X2182857Y31979048D01*
X2278095Y31979048D01*
X2420952Y31931429D01*
X2992380Y31360000D01*
X2992380Y31979048D01*
X2992380Y33312381D02*
X2944761Y33217143D01*
X2897142Y33169524D01*
X2801904Y33121905D01*
X2516190Y33121905D01*
X2420952Y33169524D01*
X2373333Y33217143D01*
X2325714Y33312381D01*
X2325714Y33455239D01*
X2373333Y33550477D01*
X2420952Y33598096D01*
X2516190Y33645715D01*
X2801904Y33645715D01*
X2897142Y33598096D01*
X2944761Y33550477D01*
X2992380Y33455239D01*
X2992380Y33312381D01*
X2992380Y34074286D02*
X2325714Y34074286D01*
X2516190Y34074286D02*
X2420952Y34121905D01*
X2373333Y34169524D01*
X2325714Y34264762D01*
X2325714Y34360000D01*
X2992380Y35598096D02*
X2944761Y35502858D01*
X2849523Y35455239D01*
X1992380Y35455239D01*
X2992380Y36407620D02*
X2468571Y36407620D01*
X2373333Y36360000D01*
X2325714Y36264762D01*
X2325714Y36074286D01*
X2373333Y35979048D01*
X2944761Y36407620D02*
X2992380Y36312381D01*
X2992380Y36074286D01*
X2944761Y35979048D01*
X2849523Y35931429D01*
X2754285Y35931429D01*
X2659047Y35979048D01*
X2611428Y36074286D01*
X2611428Y36312381D01*
X2563809Y36407620D01*
X2325714Y36740953D02*
X2325714Y37121905D01*
X1992380Y36883810D02*
X2849523Y36883810D01*
X2944761Y36931429D01*
X2992380Y37026667D01*
X2992380Y37121905D01*
X2944761Y37836191D02*
X2992380Y37740953D01*
X2992380Y37550477D01*
X2944761Y37455239D01*
X2849523Y37407620D01*
X2468571Y37407620D01*
X2373333Y37455239D01*
X2325714Y37550477D01*
X2325714Y37740953D01*
X2373333Y37836191D01*
X2468571Y37883810D01*
X2563809Y37883810D01*
X2659047Y37407620D01*
X2992380Y38312381D02*
X2325714Y38312381D01*
X2516190Y38312381D02*
X2420952Y38360000D01*
X2373333Y38407620D01*
X2325714Y38502858D01*
X2325714Y38598096D01*
X5850000Y21082381D02*
X5802380Y20987143D01*
X5802380Y20844286D01*
X5850000Y20701429D01*
X5945238Y20606191D01*
X6040476Y20558572D01*
X6230952Y20510953D01*
X6373809Y20510953D01*
X6564285Y20558572D01*
X6659523Y20606191D01*
X6754761Y20701429D01*
X6802380Y20844286D01*
X6802380Y20939524D01*
X6754761Y21082381D01*
X6707142Y21130000D01*
X6373809Y21130000D01*
X6373809Y20939524D01*
X6802380Y21558572D02*
X5802380Y21558572D01*
X6516666Y21891905D01*
X5802380Y22225239D01*
X6802380Y22225239D01*
X6802380Y22701429D02*
X5802380Y22701429D01*
X6707142Y23749048D02*
X6754761Y23701429D01*
X6802380Y23558572D01*
X6802380Y23463334D01*
X6754761Y23320477D01*
X6659523Y23225239D01*
X6564285Y23177620D01*
X6373809Y23130000D01*
X6230952Y23130000D01*
X6040476Y23177620D01*
X5945238Y23225239D01*
X5850000Y23320477D01*
X5802380Y23463334D01*
X5802380Y23558572D01*
X5850000Y23701429D01*
X5897619Y23749048D01*
X5802380Y24796667D02*
X6802380Y25130000D01*
X5802380Y25463334D01*
X6802380Y26320477D02*
X6802380Y25749048D01*
X6802380Y26034762D02*
X5802380Y26034762D01*
X5945238Y25939524D01*
X6040476Y25844286D01*
X6088095Y25749048D01*
X6707142Y26749048D02*
X6754761Y26796667D01*
X6802380Y26749048D01*
X6754761Y26701429D01*
X6707142Y26749048D01*
X6802380Y26749048D01*
X5802380Y27415715D02*
X5802380Y27510953D01*
X5850000Y27606191D01*
X5897619Y27653810D01*
X5992857Y27701429D01*
X6183333Y27749048D01*
X6421428Y27749048D01*
X6611904Y27701429D01*
X6707142Y27653810D01*
X6754761Y27606191D01*
X6802380Y27510953D01*
X6802380Y27415715D01*
X6754761Y27320477D01*
X6707142Y27272858D01*
X6611904Y27225239D01*
X6421428Y27177620D01*
X6183333Y27177620D01*
X5992857Y27225239D01*
X5897619Y27272858D01*
X5850000Y27320477D01*
X5802380Y27415715D01*
D11*
X39235748Y25808000D02*
X39758252Y25808000D01*
X39235748Y27278000D02*
X39758252Y27278000D01*
X31269000Y34043252D02*
X31269000Y33520748D01*
X32739000Y34043252D02*
X32739000Y33520748D01*
X25712748Y29691000D02*
X26235252Y29691000D01*
X25712748Y28221000D02*
X26235252Y28221000D01*
X39235748Y23141000D02*
X39758252Y23141000D01*
X39235748Y24611000D02*
X39758252Y24611000D01*
X21563000Y11803748D02*
X21563000Y12326252D01*
X20093000Y11803748D02*
X20093000Y12326252D01*
X28709252Y21563000D02*
X28186748Y21563000D01*
X28709252Y20093000D02*
X28186748Y20093000D01*
X33301000Y19804748D02*
X33301000Y20327252D01*
X34771000Y19804748D02*
X34771000Y20327252D01*
X30707000Y34536748D02*
X30707000Y35059252D01*
X29237000Y34536748D02*
X29237000Y35059252D01*
X49537252Y18061000D02*
X49014748Y18061000D01*
X49537252Y19531000D02*
X49014748Y19531000D01*
X31015000Y19804748D02*
X31015000Y20327252D01*
X32485000Y19804748D02*
X32485000Y20327252D01*
X46709000Y17533252D02*
X46709000Y17010748D01*
X45239000Y17533252D02*
X45239000Y17010748D01*
X16160000Y160000D02*
X25350000Y160000D01*
X16280000Y9570000D02*
X25230000Y9570000D01*
X25350000Y2890000D02*
X25350000Y160000D01*
X16160000Y2890000D02*
X16160000Y160000D01*
X25350000Y6490000D02*
X25350000Y5590000D01*
X16160000Y6490000D02*
X16160000Y5590000D01*
D12*
X35660000Y-1580000D02*
X35660000Y-1580000D01*
X35460000Y-1580000D02*
X35460000Y-1580000D01*
D13*
X41560000Y12970000D02*
X41560000Y12470000D01*
X29560000Y12970000D02*
X41560000Y12970000D01*
X29560000Y12470000D02*
X29560000Y12970000D01*
X29560000Y6470000D02*
X29560000Y9470000D01*
X41560000Y6470000D02*
X41560000Y9470000D01*
X31560000Y1270000D02*
X39560000Y1270000D01*
D12*
X35660000Y-1580000D02*
G75*
G02*
X35460000Y-1580000I-100000J0D01*
G01*
X35460000Y-1580000D02*
G75*
G02*
X35660000Y-1580000I100000J0D01*
G01*
D11*
X15800000Y11792378D02*
X15800000Y12591622D01*
X14680000Y11792378D02*
X14680000Y12591622D01*
X16458000Y11792378D02*
X16458000Y12591622D01*
X17578000Y11792378D02*
X17578000Y12591622D01*
D13*
X27972000Y50268000D02*
X27972000Y50268000D01*
X27972000Y59968000D02*
X27972000Y59968000D01*
X27972000Y50268000D02*
G75*
G02*
X27972000Y59968000I0J4850000D01*
G01*
X27972000Y59968000D02*
G75*
G02*
X27972000Y50268000I0J-4850000D01*
G01*
X27972000Y48030000D02*
X27972000Y48030000D01*
X27972000Y38330000D02*
X27972000Y38330000D01*
X27972000Y48030000D02*
G75*
G02*
X27972000Y38330000I0J-4850000D01*
G01*
X27972000Y38330000D02*
G75*
G02*
X27972000Y48030000I0J4850000D01*
G01*
D11*
X34771000Y33554936D02*
X34771000Y34009064D01*
X33301000Y33554936D02*
X33301000Y34009064D01*
X28675000Y34009064D02*
X28675000Y33554936D01*
X27205000Y34009064D02*
X27205000Y33554936D01*
X37311000Y34009064D02*
X37311000Y33554936D01*
X35841000Y34009064D02*
X35841000Y33554936D01*
X26135064Y27405000D02*
X25680936Y27405000D01*
X26135064Y25935000D02*
X25680936Y25935000D01*
X37491936Y21690000D02*
X37946064Y21690000D01*
X37491936Y20220000D02*
X37946064Y20220000D01*
X28220936Y18061000D02*
X28675064Y18061000D01*
X28220936Y19531000D02*
X28675064Y19531000D01*
X47217064Y12473000D02*
X46762936Y12473000D01*
X47217064Y13943000D02*
X46762936Y13943000D01*
X50773064Y13943000D02*
X50318936Y13943000D01*
X50773064Y12473000D02*
X50318936Y12473000D01*
X52601000Y8893000D02*
X52601000Y9093000D01*
X56741000Y6093000D02*
X56951000Y6293000D01*
X56741000Y7393000D02*
X56951000Y7193000D01*
X55451000Y6093000D02*
X56741000Y6093000D01*
X56951000Y6293000D02*
X56951000Y7193000D01*
X56741000Y7393000D02*
X55451000Y7393000D01*
X55451000Y4643000D02*
X55451000Y10343000D01*
X52601000Y5893000D02*
X52601000Y7593000D01*
X53651000Y4043000D02*
X54441000Y4043000D01*
X54441000Y10943000D02*
X53651000Y10943000D01*
X28331000Y26416000D02*
X28331000Y24466000D01*
X28331000Y26416000D02*
X28331000Y28366000D01*
X37201000Y26416000D02*
X37201000Y24466000D01*
X37201000Y26416000D02*
X37201000Y29866000D01*
X49276000Y17562000D02*
X47476000Y17562000D01*
X49276000Y17562000D02*
X50076000Y17562000D01*
X49276000Y14442000D02*
X48476000Y14442000D01*
X49276000Y14442000D02*
X50076000Y14442000D01*
X23595000Y11803748D02*
X23595000Y12326252D01*
X22125000Y11803748D02*
X22125000Y12326252D01*
X50642000Y25010000D02*
X49812000Y25010000D01*
X48192000Y25010000D02*
X47662000Y25010000D01*
X45292000Y25010000D02*
X44112000Y25010000D01*
X53852000Y25010000D02*
X53852000Y29730000D01*
X44112000Y33540000D02*
X44112000Y36600000D01*
X44102000Y25010000D02*
X44102000Y29730000D01*
X53852000Y33540000D02*
X53852000Y36600000D01*
X53852000Y25010000D02*
X52362000Y25010000D01*
X53852000Y36600000D02*
X44112000Y36600000D01*
X49595000Y4161252D02*
X49595000Y3638748D01*
X48125000Y4161252D02*
X48125000Y3638748D01*
D10*
X39330333Y27865858D02*
X39282714Y27818239D01*
X39139857Y27770620D01*
X39044619Y27770620D01*
X38901761Y27818239D01*
X38806523Y27913477D01*
X38758904Y28008715D01*
X38711285Y28199191D01*
X38711285Y28342048D01*
X38758904Y28532524D01*
X38806523Y28627762D01*
X38901761Y28723000D01*
X39044619Y28770620D01*
X39139857Y28770620D01*
X39282714Y28723000D01*
X39330333Y28675381D01*
X39663666Y28770620D02*
X40282714Y28770620D01*
X39949380Y28389667D01*
X40092238Y28389667D01*
X40187476Y28342048D01*
X40235095Y28294429D01*
X40282714Y28199191D01*
X40282714Y27961096D01*
X40235095Y27865858D01*
X40187476Y27818239D01*
X40092238Y27770620D01*
X39806523Y27770620D01*
X39711285Y27818239D01*
X39663666Y27865858D01*
X32361142Y30948334D02*
X32408761Y30900715D01*
X32456380Y30757858D01*
X32456380Y30662620D01*
X32408761Y30519762D01*
X32313523Y30424524D01*
X32218285Y30376905D01*
X32027809Y30329286D01*
X31884952Y30329286D01*
X31694476Y30376905D01*
X31599238Y30424524D01*
X31504000Y30519762D01*
X31456380Y30662620D01*
X31456380Y30757858D01*
X31504000Y30900715D01*
X31551619Y30948334D01*
X31789714Y31805477D02*
X32456380Y31805477D01*
X31408761Y31567381D02*
X32123047Y31329286D01*
X32123047Y31948334D01*
X25807333Y30278858D02*
X25759714Y30231239D01*
X25616857Y30183620D01*
X25521619Y30183620D01*
X25378761Y30231239D01*
X25283523Y30326477D01*
X25235904Y30421715D01*
X25188285Y30612191D01*
X25188285Y30755048D01*
X25235904Y30945524D01*
X25283523Y31040762D01*
X25378761Y31136000D01*
X25521619Y31183620D01*
X25616857Y31183620D01*
X25759714Y31136000D01*
X25807333Y31088381D01*
X26712095Y31183620D02*
X26235904Y31183620D01*
X26188285Y30707429D01*
X26235904Y30755048D01*
X26331142Y30802667D01*
X26569238Y30802667D01*
X26664476Y30755048D01*
X26712095Y30707429D01*
X26759714Y30612191D01*
X26759714Y30374096D01*
X26712095Y30278858D01*
X26664476Y30231239D01*
X26569238Y30183620D01*
X26331142Y30183620D01*
X26235904Y30231239D01*
X26188285Y30278858D01*
X41362333Y21867858D02*
X41314714Y21820239D01*
X41171857Y21772620D01*
X41076619Y21772620D01*
X40933761Y21820239D01*
X40838523Y21915477D01*
X40790904Y22010715D01*
X40743285Y22201191D01*
X40743285Y22344048D01*
X40790904Y22534524D01*
X40838523Y22629762D01*
X40933761Y22725000D01*
X41076619Y22772620D01*
X41171857Y22772620D01*
X41314714Y22725000D01*
X41362333Y22677381D01*
X42219476Y22772620D02*
X42029000Y22772620D01*
X41933761Y22725000D01*
X41886142Y22677381D01*
X41790904Y22534524D01*
X41743285Y22344048D01*
X41743285Y21963096D01*
X41790904Y21867858D01*
X41838523Y21820239D01*
X41933761Y21772620D01*
X42124238Y21772620D01*
X42219476Y21820239D01*
X42267095Y21867858D01*
X42314714Y21963096D01*
X42314714Y22201191D01*
X42267095Y22296429D01*
X42219476Y22344048D01*
X42124238Y22391667D01*
X41933761Y22391667D01*
X41838523Y22344048D01*
X41790904Y22296429D01*
X41743285Y22201191D01*
X19534142Y11136334D02*
X19581761Y11088715D01*
X19629380Y10945858D01*
X19629380Y10850620D01*
X19581761Y10707762D01*
X19486523Y10612524D01*
X19391285Y10564905D01*
X19200809Y10517286D01*
X19057952Y10517286D01*
X18867476Y10564905D01*
X18772238Y10612524D01*
X18677000Y10707762D01*
X18629380Y10850620D01*
X18629380Y10945858D01*
X18677000Y11088715D01*
X18724619Y11136334D01*
X18629380Y11469667D02*
X18629380Y12136334D01*
X19629380Y11707762D01*
X26757333Y22121858D02*
X26709714Y22074239D01*
X26566857Y22026620D01*
X26471619Y22026620D01*
X26328761Y22074239D01*
X26233523Y22169477D01*
X26185904Y22264715D01*
X26138285Y22455191D01*
X26138285Y22598048D01*
X26185904Y22788524D01*
X26233523Y22883762D01*
X26328761Y22979000D01*
X26471619Y23026620D01*
X26566857Y23026620D01*
X26709714Y22979000D01*
X26757333Y22931381D01*
X27328761Y22598048D02*
X27233523Y22645667D01*
X27185904Y22693286D01*
X27138285Y22788524D01*
X27138285Y22836143D01*
X27185904Y22931381D01*
X27233523Y22979000D01*
X27328761Y23026620D01*
X27519238Y23026620D01*
X27614476Y22979000D01*
X27662095Y22931381D01*
X27709714Y22836143D01*
X27709714Y22788524D01*
X27662095Y22693286D01*
X27614476Y22645667D01*
X27519238Y22598048D01*
X27328761Y22598048D01*
X27233523Y22550429D01*
X27185904Y22502810D01*
X27138285Y22407572D01*
X27138285Y22217096D01*
X27185904Y22121858D01*
X27233523Y22074239D01*
X27328761Y22026620D01*
X27519238Y22026620D01*
X27614476Y22074239D01*
X27662095Y22121858D01*
X27709714Y22217096D01*
X27709714Y22407572D01*
X27662095Y22502810D01*
X27614476Y22550429D01*
X27519238Y22598048D01*
X34901142Y17232334D02*
X34948761Y17184715D01*
X34996380Y17041858D01*
X34996380Y16946620D01*
X34948761Y16803762D01*
X34853523Y16708524D01*
X34758285Y16660905D01*
X34567809Y16613286D01*
X34424952Y16613286D01*
X34234476Y16660905D01*
X34139238Y16708524D01*
X34044000Y16803762D01*
X33996380Y16946620D01*
X33996380Y17041858D01*
X34044000Y17184715D01*
X34091619Y17232334D01*
X34996380Y17708524D02*
X34996380Y17899000D01*
X34948761Y17994239D01*
X34901142Y18041858D01*
X34758285Y18137096D01*
X34567809Y18184715D01*
X34186857Y18184715D01*
X34091619Y18137096D01*
X34044000Y18089477D01*
X33996380Y17994239D01*
X33996380Y17803762D01*
X34044000Y17708524D01*
X34091619Y17660905D01*
X34186857Y17613286D01*
X34424952Y17613286D01*
X34520190Y17660905D01*
X34567809Y17708524D01*
X34615428Y17803762D01*
X34615428Y17994239D01*
X34567809Y18089477D01*
X34520190Y18137096D01*
X34424952Y18184715D01*
X29329142Y36726858D02*
X29281523Y36679239D01*
X29138666Y36631620D01*
X29043428Y36631620D01*
X28900571Y36679239D01*
X28805333Y36774477D01*
X28757714Y36869715D01*
X28710095Y37060191D01*
X28710095Y37203048D01*
X28757714Y37393524D01*
X28805333Y37488762D01*
X28900571Y37584000D01*
X29043428Y37631620D01*
X29138666Y37631620D01*
X29281523Y37584000D01*
X29329142Y37536381D01*
X30281523Y36631620D02*
X29710095Y36631620D01*
X29995809Y36631620D02*
X29995809Y37631620D01*
X29900571Y37488762D01*
X29805333Y37393524D01*
X29710095Y37345905D01*
X31138666Y37298286D02*
X31138666Y36631620D01*
X30900571Y37679239D02*
X30662476Y36964953D01*
X31281523Y36964953D01*
X48633142Y20216858D02*
X48585523Y20169239D01*
X48442666Y20121620D01*
X48347428Y20121620D01*
X48204571Y20169239D01*
X48109333Y20264477D01*
X48061714Y20359715D01*
X48014095Y20550191D01*
X48014095Y20693048D01*
X48061714Y20883524D01*
X48109333Y20978762D01*
X48204571Y21074000D01*
X48347428Y21121620D01*
X48442666Y21121620D01*
X48585523Y21074000D01*
X48633142Y21026381D01*
X49585523Y20121620D02*
X49014095Y20121620D01*
X49299809Y20121620D02*
X49299809Y21121620D01*
X49204571Y20978762D01*
X49109333Y20883524D01*
X49014095Y20835905D01*
X49918857Y21121620D02*
X50585523Y21121620D01*
X50156952Y20121620D01*
X32742142Y16248143D02*
X32789761Y16200524D01*
X32837380Y16057667D01*
X32837380Y15962429D01*
X32789761Y15819572D01*
X32694523Y15724334D01*
X32599285Y15676715D01*
X32408809Y15629096D01*
X32265952Y15629096D01*
X32075476Y15676715D01*
X31980238Y15724334D01*
X31885000Y15819572D01*
X31837380Y15962429D01*
X31837380Y16057667D01*
X31885000Y16200524D01*
X31932619Y16248143D01*
X32837380Y17200524D02*
X32837380Y16629096D01*
X32837380Y16914810D02*
X31837380Y16914810D01*
X31980238Y16819572D01*
X32075476Y16724334D01*
X32123095Y16629096D01*
X32837380Y17676715D02*
X32837380Y17867191D01*
X32789761Y17962429D01*
X32742142Y18010048D01*
X32599285Y18105286D01*
X32408809Y18152905D01*
X32027857Y18152905D01*
X31932619Y18105286D01*
X31885000Y18057667D01*
X31837380Y17962429D01*
X31837380Y17771953D01*
X31885000Y17676715D01*
X31932619Y17629096D01*
X32027857Y17581477D01*
X32265952Y17581477D01*
X32361190Y17629096D01*
X32408809Y17676715D01*
X32456428Y17771953D01*
X32456428Y17962429D01*
X32408809Y18057667D01*
X32361190Y18105286D01*
X32265952Y18152905D01*
X44553142Y16629143D02*
X44600761Y16581524D01*
X44648380Y16438667D01*
X44648380Y16343429D01*
X44600761Y16200572D01*
X44505523Y16105334D01*
X44410285Y16057715D01*
X44219809Y16010096D01*
X44076952Y16010096D01*
X43886476Y16057715D01*
X43791238Y16105334D01*
X43696000Y16200572D01*
X43648380Y16343429D01*
X43648380Y16438667D01*
X43696000Y16581524D01*
X43743619Y16629143D01*
X43743619Y17010096D02*
X43696000Y17057715D01*
X43648380Y17152953D01*
X43648380Y17391048D01*
X43696000Y17486286D01*
X43743619Y17533905D01*
X43838857Y17581524D01*
X43934095Y17581524D01*
X44076952Y17533905D01*
X44648380Y16962477D01*
X44648380Y17581524D01*
X43648380Y18200572D02*
X43648380Y18295810D01*
X43696000Y18391048D01*
X43743619Y18438667D01*
X43838857Y18486286D01*
X44029333Y18533905D01*
X44267428Y18533905D01*
X44457904Y18486286D01*
X44553142Y18438667D01*
X44600761Y18391048D01*
X44648380Y18295810D01*
X44648380Y18200572D01*
X44600761Y18105334D01*
X44553142Y18057715D01*
X44457904Y18010096D01*
X44267428Y17962477D01*
X44029333Y17962477D01*
X43838857Y18010096D01*
X43743619Y18057715D01*
X43696000Y18105334D01*
X43648380Y18200572D01*
X14144666Y6770620D02*
X14144666Y6056334D01*
X14097047Y5913477D01*
X14001809Y5818239D01*
X13858952Y5770620D01*
X13763714Y5770620D01*
X15144666Y5770620D02*
X14573238Y5770620D01*
X14858952Y5770620D02*
X14858952Y6770620D01*
X14763714Y6627762D01*
X14668476Y6532524D01*
X14573238Y6484905D01*
D14*
X34864523Y5221667D02*
X35771666Y5221667D01*
X35953095Y5161191D01*
X36074047Y5040239D01*
X36134523Y4858810D01*
X36134523Y4737858D01*
X34985476Y5765953D02*
X34925000Y5826429D01*
X34864523Y5947381D01*
X34864523Y6249762D01*
X34925000Y6370715D01*
X34985476Y6431191D01*
X35106428Y6491667D01*
X35227380Y6491667D01*
X35408809Y6431191D01*
X36134523Y5705477D01*
X36134523Y6491667D01*
D10*
X13549333Y14152620D02*
X13073142Y14152620D01*
X13073142Y15152620D01*
X14406476Y14152620D02*
X13835047Y14152620D01*
X14120761Y14152620D02*
X14120761Y15152620D01*
X14025523Y15009762D01*
X13930285Y14914524D01*
X13835047Y14866905D01*
X17613333Y14152620D02*
X17137142Y14152620D01*
X17137142Y15152620D01*
X17899047Y15057381D02*
X17946666Y15105000D01*
X18041904Y15152620D01*
X18280000Y15152620D01*
X18375238Y15105000D01*
X18422857Y15057381D01*
X18470476Y14962143D01*
X18470476Y14866905D01*
X18422857Y14724048D01*
X17851428Y14152620D01*
X18470476Y14152620D01*
D14*
X20688904Y58861477D02*
X20688904Y60131477D01*
X21112238Y59224334D01*
X21535571Y60131477D01*
X21535571Y58861477D01*
X22140333Y58861477D02*
X22140333Y60131477D01*
X22866047Y58861477D02*
X22321761Y59587191D01*
X22866047Y60131477D02*
X22140333Y59405762D01*
X24075571Y58861477D02*
X23349857Y58861477D01*
X23712714Y58861477D02*
X23712714Y60131477D01*
X23591761Y59950048D01*
X23470809Y59829096D01*
X23349857Y59768620D01*
X20688904Y46923477D02*
X20688904Y48193477D01*
X21112238Y47286334D01*
X21535571Y48193477D01*
X21535571Y46923477D01*
X22140333Y46923477D02*
X22140333Y48193477D01*
X22866047Y46923477D02*
X22321761Y47649191D01*
X22866047Y48193477D02*
X22140333Y47467762D01*
X23349857Y48072524D02*
X23410333Y48133000D01*
X23531285Y48193477D01*
X23833666Y48193477D01*
X23954619Y48133000D01*
X24015095Y48072524D01*
X24075571Y47951572D01*
X24075571Y47830620D01*
X24015095Y47649191D01*
X23289380Y46923477D01*
X24075571Y46923477D01*
D10*
X34488380Y30948334D02*
X34012190Y30615000D01*
X34488380Y30376905D02*
X33488380Y30376905D01*
X33488380Y30757858D01*
X33536000Y30853096D01*
X33583619Y30900715D01*
X33678857Y30948334D01*
X33821714Y30948334D01*
X33916952Y30900715D01*
X33964571Y30853096D01*
X34012190Y30757858D01*
X34012190Y30376905D01*
X33488380Y31853096D02*
X33488380Y31376905D01*
X33964571Y31329286D01*
X33916952Y31376905D01*
X33869333Y31472143D01*
X33869333Y31710239D01*
X33916952Y31805477D01*
X33964571Y31853096D01*
X34059809Y31900715D01*
X34297904Y31900715D01*
X34393142Y31853096D01*
X34440761Y31805477D01*
X34488380Y31710239D01*
X34488380Y31472143D01*
X34440761Y31376905D01*
X34393142Y31329286D01*
X26757333Y35615620D02*
X26424000Y36091810D01*
X26185904Y35615620D02*
X26185904Y36615620D01*
X26566857Y36615620D01*
X26662095Y36568000D01*
X26709714Y36520381D01*
X26757333Y36425143D01*
X26757333Y36282286D01*
X26709714Y36187048D01*
X26662095Y36139429D01*
X26566857Y36091810D01*
X26185904Y36091810D01*
X27328761Y36187048D02*
X27233523Y36234667D01*
X27185904Y36282286D01*
X27138285Y36377524D01*
X27138285Y36425143D01*
X27185904Y36520381D01*
X27233523Y36568000D01*
X27328761Y36615620D01*
X27519238Y36615620D01*
X27614476Y36568000D01*
X27662095Y36520381D01*
X27709714Y36425143D01*
X27709714Y36377524D01*
X27662095Y36282286D01*
X27614476Y36234667D01*
X27519238Y36187048D01*
X27328761Y36187048D01*
X27233523Y36139429D01*
X27185904Y36091810D01*
X27138285Y35996572D01*
X27138285Y35806096D01*
X27185904Y35710858D01*
X27233523Y35663239D01*
X27328761Y35615620D01*
X27519238Y35615620D01*
X27614476Y35663239D01*
X27662095Y35710858D01*
X27709714Y35806096D01*
X27709714Y35996572D01*
X27662095Y36091810D01*
X27614476Y36139429D01*
X27519238Y36187048D01*
X38678380Y33139143D02*
X38202190Y32805810D01*
X38678380Y32567715D02*
X37678380Y32567715D01*
X37678380Y32948667D01*
X37726000Y33043905D01*
X37773619Y33091524D01*
X37868857Y33139143D01*
X38011714Y33139143D01*
X38106952Y33091524D01*
X38154571Y33043905D01*
X38202190Y32948667D01*
X38202190Y32567715D01*
X38678380Y34091524D02*
X38678380Y33520096D01*
X38678380Y33805810D02*
X37678380Y33805810D01*
X37821238Y33710572D01*
X37916476Y33615334D01*
X37964095Y33520096D01*
X37678380Y34710572D02*
X37678380Y34805810D01*
X37726000Y34901048D01*
X37773619Y34948667D01*
X37868857Y34996286D01*
X38059333Y35043905D01*
X38297428Y35043905D01*
X38487904Y34996286D01*
X38583142Y34948667D01*
X38630761Y34901048D01*
X38678380Y34805810D01*
X38678380Y34710572D01*
X38630761Y34615334D01*
X38583142Y34567715D01*
X38487904Y34520096D01*
X38297428Y34472477D01*
X38059333Y34472477D01*
X37868857Y34520096D01*
X37773619Y34567715D01*
X37726000Y34615334D01*
X37678380Y34710572D01*
X25265142Y24567620D02*
X24931809Y25043810D01*
X24693714Y24567620D02*
X24693714Y25567620D01*
X25074666Y25567620D01*
X25169904Y25520000D01*
X25217523Y25472381D01*
X25265142Y25377143D01*
X25265142Y25234286D01*
X25217523Y25139048D01*
X25169904Y25091429D01*
X25074666Y25043810D01*
X24693714Y25043810D01*
X26217523Y24567620D02*
X25646095Y24567620D01*
X25931809Y24567620D02*
X25931809Y25567620D01*
X25836571Y25424762D01*
X25741333Y25329524D01*
X25646095Y25281905D01*
X27169904Y24567620D02*
X26598476Y24567620D01*
X26884190Y24567620D02*
X26884190Y25567620D01*
X26788952Y25424762D01*
X26693714Y25329524D01*
X26598476Y25281905D01*
X37076142Y18724620D02*
X36742809Y19200810D01*
X36504714Y18724620D02*
X36504714Y19724620D01*
X36885666Y19724620D01*
X36980904Y19677000D01*
X37028523Y19629381D01*
X37076142Y19534143D01*
X37076142Y19391286D01*
X37028523Y19296048D01*
X36980904Y19248429D01*
X36885666Y19200810D01*
X36504714Y19200810D01*
X38028523Y18724620D02*
X37457095Y18724620D01*
X37742809Y18724620D02*
X37742809Y19724620D01*
X37647571Y19581762D01*
X37552333Y19486524D01*
X37457095Y19438905D01*
X38409476Y19629381D02*
X38457095Y19677000D01*
X38552333Y19724620D01*
X38790428Y19724620D01*
X38885666Y19677000D01*
X38933285Y19629381D01*
X38980904Y19534143D01*
X38980904Y19438905D01*
X38933285Y19296048D01*
X38361857Y18724620D01*
X38980904Y18724620D01*
X27805142Y16565620D02*
X27471809Y17041810D01*
X27233714Y16565620D02*
X27233714Y17565620D01*
X27614666Y17565620D01*
X27709904Y17518000D01*
X27757523Y17470381D01*
X27805142Y17375143D01*
X27805142Y17232286D01*
X27757523Y17137048D01*
X27709904Y17089429D01*
X27614666Y17041810D01*
X27233714Y17041810D01*
X28757523Y16565620D02*
X28186095Y16565620D01*
X28471809Y16565620D02*
X28471809Y17565620D01*
X28376571Y17422762D01*
X28281333Y17327524D01*
X28186095Y17279905D01*
X29090857Y17565620D02*
X29709904Y17565620D01*
X29376571Y17184667D01*
X29519428Y17184667D01*
X29614666Y17137048D01*
X29662285Y17089429D01*
X29709904Y16994191D01*
X29709904Y16756096D01*
X29662285Y16660858D01*
X29614666Y16613239D01*
X29519428Y16565620D01*
X29233714Y16565620D01*
X29138476Y16613239D01*
X29090857Y16660858D01*
X46347142Y11105620D02*
X46013809Y11581810D01*
X45775714Y11105620D02*
X45775714Y12105620D01*
X46156666Y12105620D01*
X46251904Y12058000D01*
X46299523Y12010381D01*
X46347142Y11915143D01*
X46347142Y11772286D01*
X46299523Y11677048D01*
X46251904Y11629429D01*
X46156666Y11581810D01*
X45775714Y11581810D01*
X47299523Y11105620D02*
X46728095Y11105620D01*
X47013809Y11105620D02*
X47013809Y12105620D01*
X46918571Y11962762D01*
X46823333Y11867524D01*
X46728095Y11819905D01*
X48156666Y11772286D02*
X48156666Y11105620D01*
X47918571Y12153239D02*
X47680476Y11438953D01*
X48299523Y11438953D01*
X49047142Y10937620D02*
X48713809Y11413810D01*
X48475714Y10937620D02*
X48475714Y11937620D01*
X48856666Y11937620D01*
X48951904Y11890000D01*
X48999523Y11842381D01*
X49047142Y11747143D01*
X49047142Y11604286D01*
X48999523Y11509048D01*
X48951904Y11461429D01*
X48856666Y11413810D01*
X48475714Y11413810D01*
X49999523Y10937620D02*
X49428095Y10937620D01*
X49713809Y10937620D02*
X49713809Y11937620D01*
X49618571Y11794762D01*
X49523333Y11699524D01*
X49428095Y11651905D01*
X50904285Y11937620D02*
X50428095Y11937620D01*
X50380476Y11461429D01*
X50428095Y11509048D01*
X50523333Y11556667D01*
X50761428Y11556667D01*
X50856666Y11509048D01*
X50904285Y11461429D01*
X50951904Y11366191D01*
X50951904Y11128096D01*
X50904285Y11032858D01*
X50856666Y10985239D01*
X50761428Y10937620D01*
X50523333Y10937620D01*
X50428095Y10985239D01*
X50380476Y11032858D01*
X50925761Y6159667D02*
X50973380Y6302524D01*
X50973380Y6540620D01*
X50925761Y6635858D01*
X50878142Y6683477D01*
X50782904Y6731096D01*
X50687666Y6731096D01*
X50592428Y6683477D01*
X50544809Y6635858D01*
X50497190Y6540620D01*
X50449571Y6350143D01*
X50401952Y6254905D01*
X50354333Y6207286D01*
X50259095Y6159667D01*
X50163857Y6159667D01*
X50068619Y6207286D01*
X50021000Y6254905D01*
X49973380Y6350143D01*
X49973380Y6588239D01*
X50021000Y6731096D01*
X49973380Y7064429D02*
X50973380Y7302524D01*
X50259095Y7493000D01*
X50973380Y7683477D01*
X49973380Y7921572D01*
X50973380Y8826334D02*
X50973380Y8254905D01*
X50973380Y8540620D02*
X49973380Y8540620D01*
X50116238Y8445381D01*
X50211476Y8350143D01*
X50259095Y8254905D01*
X37465095Y31154620D02*
X37465095Y30345096D01*
X37512714Y30249858D01*
X37560333Y30202239D01*
X37655571Y30154620D01*
X37846047Y30154620D01*
X37941285Y30202239D01*
X37988904Y30249858D01*
X38036523Y30345096D01*
X38036523Y31154620D01*
X39036523Y30154620D02*
X38465095Y30154620D01*
X38750809Y30154620D02*
X38750809Y31154620D01*
X38655571Y31011762D01*
X38560333Y30916524D01*
X38465095Y30868905D01*
X51522380Y15240096D02*
X52331904Y15240096D01*
X52427142Y15287715D01*
X52474761Y15335334D01*
X52522380Y15430572D01*
X52522380Y15621048D01*
X52474761Y15716286D01*
X52427142Y15763905D01*
X52331904Y15811524D01*
X51522380Y15811524D01*
X51522380Y16192477D02*
X51522380Y16811524D01*
X51903333Y16478191D01*
X51903333Y16621048D01*
X51950952Y16716286D01*
X51998571Y16763905D01*
X52093809Y16811524D01*
X52331904Y16811524D01*
X52427142Y16763905D01*
X52474761Y16716286D01*
X52522380Y16621048D01*
X52522380Y16335334D01*
X52474761Y16240096D01*
X52427142Y16192477D01*
X24995142Y11422143D02*
X25042761Y11374524D01*
X25090380Y11231667D01*
X25090380Y11136429D01*
X25042761Y10993572D01*
X24947523Y10898334D01*
X24852285Y10850715D01*
X24661809Y10803096D01*
X24518952Y10803096D01*
X24328476Y10850715D01*
X24233238Y10898334D01*
X24138000Y10993572D01*
X24090380Y11136429D01*
X24090380Y11231667D01*
X24138000Y11374524D01*
X24185619Y11422143D01*
X25090380Y12374524D02*
X25090380Y11803096D01*
X25090380Y12088810D02*
X24090380Y12088810D01*
X24233238Y11993572D01*
X24328476Y11898334D01*
X24376095Y11803096D01*
X24090380Y12993572D02*
X24090380Y13088810D01*
X24138000Y13184048D01*
X24185619Y13231667D01*
X24280857Y13279286D01*
X24471333Y13326905D01*
X24709428Y13326905D01*
X24899904Y13279286D01*
X24995142Y13231667D01*
X25042761Y13184048D01*
X25090380Y13088810D01*
X25090380Y12993572D01*
X25042761Y12898334D01*
X24995142Y12850715D01*
X24899904Y12803096D01*
X24709428Y12755477D01*
X24471333Y12755477D01*
X24280857Y12803096D01*
X24185619Y12850715D01*
X24138000Y12898334D01*
X24090380Y12993572D01*
X42965761Y37139620D02*
X42632428Y37615810D01*
X42394333Y37139620D02*
X42394333Y38139620D01*
X42775285Y38139620D01*
X42870523Y38092000D01*
X42918142Y38044381D01*
X42965761Y37949143D01*
X42965761Y37806286D01*
X42918142Y37711048D01*
X42870523Y37663429D01*
X42775285Y37615810D01*
X42394333Y37615810D01*
X43251476Y38139620D02*
X43584809Y37139620D01*
X43918142Y38139620D01*
X44775285Y37139620D02*
X44203857Y37139620D01*
X44489571Y37139620D02*
X44489571Y38139620D01*
X44394333Y37996762D01*
X44299095Y37901524D01*
X44203857Y37853905D01*
X5588095Y9897620D02*
X5588095Y10897620D01*
X5588095Y10421429D02*
X6159523Y10421429D01*
X6159523Y9897620D02*
X6159523Y10897620D01*
X7159523Y9897620D02*
X6588095Y9897620D01*
X6873809Y9897620D02*
X6873809Y10897620D01*
X6778571Y10754762D01*
X6683333Y10659524D01*
X6588095Y10611905D01*
X5588095Y42917620D02*
X5588095Y43917620D01*
X5588095Y43441429D02*
X6159523Y43441429D01*
X6159523Y42917620D02*
X6159523Y43917620D01*
X6588095Y43822381D02*
X6635714Y43870000D01*
X6730952Y43917620D01*
X6969047Y43917620D01*
X7064285Y43870000D01*
X7111904Y43822381D01*
X7159523Y43727143D01*
X7159523Y43631905D01*
X7111904Y43489048D01*
X6540476Y42917620D01*
X7159523Y42917620D01*
X47498095Y45457620D02*
X47498095Y46457620D01*
X47498095Y45981429D02*
X48069523Y45981429D01*
X48069523Y45457620D02*
X48069523Y46457620D01*
X48450476Y46457620D02*
X49069523Y46457620D01*
X48736190Y46076667D01*
X48879047Y46076667D01*
X48974285Y46029048D01*
X49021904Y45981429D01*
X49069523Y45886191D01*
X49069523Y45648096D01*
X49021904Y45552858D01*
X48974285Y45505239D01*
X48879047Y45457620D01*
X48593333Y45457620D01*
X48498095Y45505239D01*
X48450476Y45552858D01*
X50897142Y3257143D02*
X50944761Y3209524D01*
X50992380Y3066667D01*
X50992380Y2971429D01*
X50944761Y2828572D01*
X50849523Y2733334D01*
X50754285Y2685715D01*
X50563809Y2638096D01*
X50420952Y2638096D01*
X50230476Y2685715D01*
X50135238Y2733334D01*
X50040000Y2828572D01*
X49992380Y2971429D01*
X49992380Y3066667D01*
X50040000Y3209524D01*
X50087619Y3257143D01*
X50087619Y3638096D02*
X50040000Y3685715D01*
X49992380Y3780953D01*
X49992380Y4019048D01*
X50040000Y4114286D01*
X50087619Y4161905D01*
X50182857Y4209524D01*
X50278095Y4209524D01*
X50420952Y4161905D01*
X50992380Y3590477D01*
X50992380Y4209524D01*
X50992380Y5161905D02*
X50992380Y4590477D01*
X50992380Y4876191D02*
X49992380Y4876191D01*
X50135238Y4780953D01*
X50230476Y4685715D01*
X50278095Y4590477D01*
M02*
