G04 #@! TF.GenerationSoftware,KiCad,Pcbnew,(5.1.10)-1*
G04 #@! TF.CreationDate,2022-06-20T16:08:07+02:00*
G04 #@! TF.ProjectId,Project_Gmic,50726f6a-6563-4745-9f47-6d69632e6b69,V1.0*
G04 #@! TF.SameCoordinates,PX2e063a0PY928d170*
G04 #@! TF.FileFunction,Soldermask,Top*
G04 #@! TF.FilePolarity,Negative*
%FSLAX46Y46*%
G04 Gerber Fmt 4.6, Leading zero omitted, Abs format (unit mm)*
G04 Created by KiCad (PCBNEW (5.1.10)-1) date 2022-06-20 16:08:07*
%MOMM*%
%LPD*%
G01*
G04 APERTURE LIST*
%ADD10C,0.700000*%
%ADD11O,0.900000X2.400000*%
%ADD12O,0.900000X1.700000*%
%ADD13C,2.550000*%
%ADD14C,2.400000*%
%ADD15R,1.446000X1.446000*%
%ADD16C,1.446000*%
%ADD17C,0.900000*%
%ADD18R,1.500000X0.700000*%
%ADD19R,0.800000X1.000000*%
%ADD20R,1.800000X1.800000*%
%ADD21C,1.800000*%
%ADD22C,3.240000*%
%ADD23C,3.000000*%
G04 APERTURE END LIST*
G36*
G01*
X39947000Y26068000D02*
X39947000Y27018000D01*
G75*
G02*
X40197000Y27268000I250000J0D01*
G01*
X40697000Y27268000D01*
G75*
G02*
X40947000Y27018000I0J-250000D01*
G01*
X40947000Y26068000D01*
G75*
G02*
X40697000Y25818000I-250000J0D01*
G01*
X40197000Y25818000D01*
G75*
G02*
X39947000Y26068000I0J250000D01*
G01*
G37*
G36*
G01*
X38047000Y26068000D02*
X38047000Y27018000D01*
G75*
G02*
X38297000Y27268000I250000J0D01*
G01*
X38797000Y27268000D01*
G75*
G02*
X39047000Y27018000I0J-250000D01*
G01*
X39047000Y26068000D01*
G75*
G02*
X38797000Y25818000I-250000J0D01*
G01*
X38297000Y25818000D01*
G75*
G02*
X38047000Y26068000I0J250000D01*
G01*
G37*
G36*
G01*
X31529000Y33332000D02*
X32479000Y33332000D01*
G75*
G02*
X32729000Y33082000I0J-250000D01*
G01*
X32729000Y32582000D01*
G75*
G02*
X32479000Y32332000I-250000J0D01*
G01*
X31529000Y32332000D01*
G75*
G02*
X31279000Y32582000I0J250000D01*
G01*
X31279000Y33082000D01*
G75*
G02*
X31529000Y33332000I250000J0D01*
G01*
G37*
G36*
G01*
X31529000Y35232000D02*
X32479000Y35232000D01*
G75*
G02*
X32729000Y34982000I0J-250000D01*
G01*
X32729000Y34482000D01*
G75*
G02*
X32479000Y34232000I-250000J0D01*
G01*
X31529000Y34232000D01*
G75*
G02*
X31279000Y34482000I0J250000D01*
G01*
X31279000Y34982000D01*
G75*
G02*
X31529000Y35232000I250000J0D01*
G01*
G37*
G36*
G01*
X24524000Y28481000D02*
X24524000Y29431000D01*
G75*
G02*
X24774000Y29681000I250000J0D01*
G01*
X25274000Y29681000D01*
G75*
G02*
X25524000Y29431000I0J-250000D01*
G01*
X25524000Y28481000D01*
G75*
G02*
X25274000Y28231000I-250000J0D01*
G01*
X24774000Y28231000D01*
G75*
G02*
X24524000Y28481000I0J250000D01*
G01*
G37*
G36*
G01*
X26424000Y28481000D02*
X26424000Y29431000D01*
G75*
G02*
X26674000Y29681000I250000J0D01*
G01*
X27174000Y29681000D01*
G75*
G02*
X27424000Y29431000I0J-250000D01*
G01*
X27424000Y28481000D01*
G75*
G02*
X27174000Y28231000I-250000J0D01*
G01*
X26674000Y28231000D01*
G75*
G02*
X26424000Y28481000I0J250000D01*
G01*
G37*
G36*
G01*
X39947000Y23401000D02*
X39947000Y24351000D01*
G75*
G02*
X40197000Y24601000I250000J0D01*
G01*
X40697000Y24601000D01*
G75*
G02*
X40947000Y24351000I0J-250000D01*
G01*
X40947000Y23401000D01*
G75*
G02*
X40697000Y23151000I-250000J0D01*
G01*
X40197000Y23151000D01*
G75*
G02*
X39947000Y23401000I0J250000D01*
G01*
G37*
G36*
G01*
X38047000Y23401000D02*
X38047000Y24351000D01*
G75*
G02*
X38297000Y24601000I250000J0D01*
G01*
X38797000Y24601000D01*
G75*
G02*
X39047000Y24351000I0J-250000D01*
G01*
X39047000Y23401000D01*
G75*
G02*
X38797000Y23151000I-250000J0D01*
G01*
X38297000Y23151000D01*
G75*
G02*
X38047000Y23401000I0J250000D01*
G01*
G37*
G36*
G01*
X21303000Y12515000D02*
X20353000Y12515000D01*
G75*
G02*
X20103000Y12765000I0J250000D01*
G01*
X20103000Y13265000D01*
G75*
G02*
X20353000Y13515000I250000J0D01*
G01*
X21303000Y13515000D01*
G75*
G02*
X21553000Y13265000I0J-250000D01*
G01*
X21553000Y12765000D01*
G75*
G02*
X21303000Y12515000I-250000J0D01*
G01*
G37*
G36*
G01*
X21303000Y10615000D02*
X20353000Y10615000D01*
G75*
G02*
X20103000Y10865000I0J250000D01*
G01*
X20103000Y11365000D01*
G75*
G02*
X20353000Y11615000I250000J0D01*
G01*
X21303000Y11615000D01*
G75*
G02*
X21553000Y11365000I0J-250000D01*
G01*
X21553000Y10865000D01*
G75*
G02*
X21303000Y10615000I-250000J0D01*
G01*
G37*
G36*
G01*
X27998000Y21303000D02*
X27998000Y20353000D01*
G75*
G02*
X27748000Y20103000I-250000J0D01*
G01*
X27248000Y20103000D01*
G75*
G02*
X26998000Y20353000I0J250000D01*
G01*
X26998000Y21303000D01*
G75*
G02*
X27248000Y21553000I250000J0D01*
G01*
X27748000Y21553000D01*
G75*
G02*
X27998000Y21303000I0J-250000D01*
G01*
G37*
G36*
G01*
X29898000Y21303000D02*
X29898000Y20353000D01*
G75*
G02*
X29648000Y20103000I-250000J0D01*
G01*
X29148000Y20103000D01*
G75*
G02*
X28898000Y20353000I0J250000D01*
G01*
X28898000Y21303000D01*
G75*
G02*
X29148000Y21553000I250000J0D01*
G01*
X29648000Y21553000D01*
G75*
G02*
X29898000Y21303000I0J-250000D01*
G01*
G37*
G36*
G01*
X34511000Y18616000D02*
X33561000Y18616000D01*
G75*
G02*
X33311000Y18866000I0J250000D01*
G01*
X33311000Y19366000D01*
G75*
G02*
X33561000Y19616000I250000J0D01*
G01*
X34511000Y19616000D01*
G75*
G02*
X34761000Y19366000I0J-250000D01*
G01*
X34761000Y18866000D01*
G75*
G02*
X34511000Y18616000I-250000J0D01*
G01*
G37*
G36*
G01*
X34511000Y20516000D02*
X33561000Y20516000D01*
G75*
G02*
X33311000Y20766000I0J250000D01*
G01*
X33311000Y21266000D01*
G75*
G02*
X33561000Y21516000I250000J0D01*
G01*
X34511000Y21516000D01*
G75*
G02*
X34761000Y21266000I0J-250000D01*
G01*
X34761000Y20766000D01*
G75*
G02*
X34511000Y20516000I-250000J0D01*
G01*
G37*
G36*
G01*
X30447000Y35248000D02*
X29497000Y35248000D01*
G75*
G02*
X29247000Y35498000I0J250000D01*
G01*
X29247000Y35998000D01*
G75*
G02*
X29497000Y36248000I250000J0D01*
G01*
X30447000Y36248000D01*
G75*
G02*
X30697000Y35998000I0J-250000D01*
G01*
X30697000Y35498000D01*
G75*
G02*
X30447000Y35248000I-250000J0D01*
G01*
G37*
G36*
G01*
X30447000Y33348000D02*
X29497000Y33348000D01*
G75*
G02*
X29247000Y33598000I0J250000D01*
G01*
X29247000Y34098000D01*
G75*
G02*
X29497000Y34348000I250000J0D01*
G01*
X30447000Y34348000D01*
G75*
G02*
X30697000Y34098000I0J-250000D01*
G01*
X30697000Y33598000D01*
G75*
G02*
X30447000Y33348000I-250000J0D01*
G01*
G37*
G36*
G01*
X50726000Y19271000D02*
X50726000Y18321000D01*
G75*
G02*
X50476000Y18071000I-250000J0D01*
G01*
X49976000Y18071000D01*
G75*
G02*
X49726000Y18321000I0J250000D01*
G01*
X49726000Y19271000D01*
G75*
G02*
X49976000Y19521000I250000J0D01*
G01*
X50476000Y19521000D01*
G75*
G02*
X50726000Y19271000I0J-250000D01*
G01*
G37*
G36*
G01*
X48826000Y19271000D02*
X48826000Y18321000D01*
G75*
G02*
X48576000Y18071000I-250000J0D01*
G01*
X48076000Y18071000D01*
G75*
G02*
X47826000Y18321000I0J250000D01*
G01*
X47826000Y19271000D01*
G75*
G02*
X48076000Y19521000I250000J0D01*
G01*
X48576000Y19521000D01*
G75*
G02*
X48826000Y19271000I0J-250000D01*
G01*
G37*
G36*
G01*
X32225000Y18616000D02*
X31275000Y18616000D01*
G75*
G02*
X31025000Y18866000I0J250000D01*
G01*
X31025000Y19366000D01*
G75*
G02*
X31275000Y19616000I250000J0D01*
G01*
X32225000Y19616000D01*
G75*
G02*
X32475000Y19366000I0J-250000D01*
G01*
X32475000Y18866000D01*
G75*
G02*
X32225000Y18616000I-250000J0D01*
G01*
G37*
G36*
G01*
X32225000Y20516000D02*
X31275000Y20516000D01*
G75*
G02*
X31025000Y20766000I0J250000D01*
G01*
X31025000Y21266000D01*
G75*
G02*
X31275000Y21516000I250000J0D01*
G01*
X32225000Y21516000D01*
G75*
G02*
X32475000Y21266000I0J-250000D01*
G01*
X32475000Y20766000D01*
G75*
G02*
X32225000Y20516000I-250000J0D01*
G01*
G37*
G36*
G01*
X45499000Y18722000D02*
X46449000Y18722000D01*
G75*
G02*
X46699000Y18472000I0J-250000D01*
G01*
X46699000Y17972000D01*
G75*
G02*
X46449000Y17722000I-250000J0D01*
G01*
X45499000Y17722000D01*
G75*
G02*
X45249000Y17972000I0J250000D01*
G01*
X45249000Y18472000D01*
G75*
G02*
X45499000Y18722000I250000J0D01*
G01*
G37*
G36*
G01*
X45499000Y16822000D02*
X46449000Y16822000D01*
G75*
G02*
X46699000Y16572000I0J-250000D01*
G01*
X46699000Y16072000D01*
G75*
G02*
X46449000Y15822000I-250000J0D01*
G01*
X45499000Y15822000D01*
G75*
G02*
X45249000Y16072000I0J250000D01*
G01*
X45249000Y16572000D01*
G75*
G02*
X45499000Y16822000I250000J0D01*
G01*
G37*
D10*
X17780000Y8890000D03*
X18630000Y8890000D03*
X19480000Y8890000D03*
X20330000Y8890000D03*
X21180000Y8890000D03*
X22030000Y8890000D03*
X22880000Y8890000D03*
X23730000Y8890000D03*
X18630000Y7540000D03*
X20330000Y7540000D03*
X19480000Y7540000D03*
X17780000Y7540000D03*
X22030000Y7540000D03*
X22880000Y7540000D03*
X23730000Y7540000D03*
X21180000Y7540000D03*
D11*
X16430000Y7910000D03*
X25080000Y7910000D03*
D12*
X16430000Y4530000D03*
X25080000Y4530000D03*
D13*
X35560000Y5770000D03*
X40560000Y10770000D03*
X30560000Y10770000D03*
D14*
X37560000Y10770000D03*
X33560000Y10770000D03*
G36*
G01*
X15621250Y12817000D02*
X14858750Y12817000D01*
G75*
G02*
X14640000Y13035750I0J218750D01*
G01*
X14640000Y13473250D01*
G75*
G02*
X14858750Y13692000I218750J0D01*
G01*
X15621250Y13692000D01*
G75*
G02*
X15840000Y13473250I0J-218750D01*
G01*
X15840000Y13035750D01*
G75*
G02*
X15621250Y12817000I-218750J0D01*
G01*
G37*
G36*
G01*
X15621250Y10692000D02*
X14858750Y10692000D01*
G75*
G02*
X14640000Y10910750I0J218750D01*
G01*
X14640000Y11348250D01*
G75*
G02*
X14858750Y11567000I218750J0D01*
G01*
X15621250Y11567000D01*
G75*
G02*
X15840000Y11348250I0J-218750D01*
G01*
X15840000Y10910750D01*
G75*
G02*
X15621250Y10692000I-218750J0D01*
G01*
G37*
G36*
G01*
X17399250Y10692000D02*
X16636750Y10692000D01*
G75*
G02*
X16418000Y10910750I0J218750D01*
G01*
X16418000Y11348250D01*
G75*
G02*
X16636750Y11567000I218750J0D01*
G01*
X17399250Y11567000D01*
G75*
G02*
X17618000Y11348250I0J-218750D01*
G01*
X17618000Y10910750D01*
G75*
G02*
X17399250Y10692000I-218750J0D01*
G01*
G37*
G36*
G01*
X17399250Y12817000D02*
X16636750Y12817000D01*
G75*
G02*
X16418000Y13035750I0J218750D01*
G01*
X16418000Y13473250D01*
G75*
G02*
X16636750Y13692000I218750J0D01*
G01*
X17399250Y13692000D01*
G75*
G02*
X17618000Y13473250I0J-218750D01*
G01*
X17618000Y13035750D01*
G75*
G02*
X17399250Y12817000I-218750J0D01*
G01*
G37*
D15*
X29972000Y56388000D03*
D16*
X29972000Y53848000D03*
X29972000Y41910000D03*
D15*
X29972000Y44450000D03*
G36*
G01*
X34486001Y34182000D02*
X33585999Y34182000D01*
G75*
G02*
X33336000Y34431999I0J249999D01*
G01*
X33336000Y34957001D01*
G75*
G02*
X33585999Y35207000I249999J0D01*
G01*
X34486001Y35207000D01*
G75*
G02*
X34736000Y34957001I0J-249999D01*
G01*
X34736000Y34431999D01*
G75*
G02*
X34486001Y34182000I-249999J0D01*
G01*
G37*
G36*
G01*
X34486001Y32357000D02*
X33585999Y32357000D01*
G75*
G02*
X33336000Y32606999I0J249999D01*
G01*
X33336000Y33132001D01*
G75*
G02*
X33585999Y33382000I249999J0D01*
G01*
X34486001Y33382000D01*
G75*
G02*
X34736000Y33132001I0J-249999D01*
G01*
X34736000Y32606999D01*
G75*
G02*
X34486001Y32357000I-249999J0D01*
G01*
G37*
G36*
G01*
X27489999Y35207000D02*
X28390001Y35207000D01*
G75*
G02*
X28640000Y34957001I0J-249999D01*
G01*
X28640000Y34431999D01*
G75*
G02*
X28390001Y34182000I-249999J0D01*
G01*
X27489999Y34182000D01*
G75*
G02*
X27240000Y34431999I0J249999D01*
G01*
X27240000Y34957001D01*
G75*
G02*
X27489999Y35207000I249999J0D01*
G01*
G37*
G36*
G01*
X27489999Y33382000D02*
X28390001Y33382000D01*
G75*
G02*
X28640000Y33132001I0J-249999D01*
G01*
X28640000Y32606999D01*
G75*
G02*
X28390001Y32357000I-249999J0D01*
G01*
X27489999Y32357000D01*
G75*
G02*
X27240000Y32606999I0J249999D01*
G01*
X27240000Y33132001D01*
G75*
G02*
X27489999Y33382000I249999J0D01*
G01*
G37*
G36*
G01*
X36125999Y35207000D02*
X37026001Y35207000D01*
G75*
G02*
X37276000Y34957001I0J-249999D01*
G01*
X37276000Y34431999D01*
G75*
G02*
X37026001Y34182000I-249999J0D01*
G01*
X36125999Y34182000D01*
G75*
G02*
X35876000Y34431999I0J249999D01*
G01*
X35876000Y34957001D01*
G75*
G02*
X36125999Y35207000I249999J0D01*
G01*
G37*
G36*
G01*
X36125999Y33382000D02*
X37026001Y33382000D01*
G75*
G02*
X37276000Y33132001I0J-249999D01*
G01*
X37276000Y32606999D01*
G75*
G02*
X37026001Y32357000I-249999J0D01*
G01*
X36125999Y32357000D01*
G75*
G02*
X35876000Y32606999I0J249999D01*
G01*
X35876000Y33132001D01*
G75*
G02*
X36125999Y33382000I249999J0D01*
G01*
G37*
G36*
G01*
X25508000Y27120001D02*
X25508000Y26219999D01*
G75*
G02*
X25258001Y25970000I-249999J0D01*
G01*
X24732999Y25970000D01*
G75*
G02*
X24483000Y26219999I0J249999D01*
G01*
X24483000Y27120001D01*
G75*
G02*
X24732999Y27370000I249999J0D01*
G01*
X25258001Y27370000D01*
G75*
G02*
X25508000Y27120001I0J-249999D01*
G01*
G37*
G36*
G01*
X27333000Y27120001D02*
X27333000Y26219999D01*
G75*
G02*
X27083001Y25970000I-249999J0D01*
G01*
X26557999Y25970000D01*
G75*
G02*
X26308000Y26219999I0J249999D01*
G01*
X26308000Y27120001D01*
G75*
G02*
X26557999Y27370000I249999J0D01*
G01*
X27083001Y27370000D01*
G75*
G02*
X27333000Y27120001I0J-249999D01*
G01*
G37*
G36*
G01*
X36294000Y20504999D02*
X36294000Y21405001D01*
G75*
G02*
X36543999Y21655000I249999J0D01*
G01*
X37069001Y21655000D01*
G75*
G02*
X37319000Y21405001I0J-249999D01*
G01*
X37319000Y20504999D01*
G75*
G02*
X37069001Y20255000I-249999J0D01*
G01*
X36543999Y20255000D01*
G75*
G02*
X36294000Y20504999I0J249999D01*
G01*
G37*
G36*
G01*
X38119000Y20504999D02*
X38119000Y21405001D01*
G75*
G02*
X38368999Y21655000I249999J0D01*
G01*
X38894001Y21655000D01*
G75*
G02*
X39144000Y21405001I0J-249999D01*
G01*
X39144000Y20504999D01*
G75*
G02*
X38894001Y20255000I-249999J0D01*
G01*
X38368999Y20255000D01*
G75*
G02*
X38119000Y20504999I0J249999D01*
G01*
G37*
G36*
G01*
X28848000Y18345999D02*
X28848000Y19246001D01*
G75*
G02*
X29097999Y19496000I249999J0D01*
G01*
X29623001Y19496000D01*
G75*
G02*
X29873000Y19246001I0J-249999D01*
G01*
X29873000Y18345999D01*
G75*
G02*
X29623001Y18096000I-249999J0D01*
G01*
X29097999Y18096000D01*
G75*
G02*
X28848000Y18345999I0J249999D01*
G01*
G37*
G36*
G01*
X27023000Y18345999D02*
X27023000Y19246001D01*
G75*
G02*
X27272999Y19496000I249999J0D01*
G01*
X27798001Y19496000D01*
G75*
G02*
X28048000Y19246001I0J-249999D01*
G01*
X28048000Y18345999D01*
G75*
G02*
X27798001Y18096000I-249999J0D01*
G01*
X27272999Y18096000D01*
G75*
G02*
X27023000Y18345999I0J249999D01*
G01*
G37*
G36*
G01*
X48415000Y13658001D02*
X48415000Y12757999D01*
G75*
G02*
X48165001Y12508000I-249999J0D01*
G01*
X47639999Y12508000D01*
G75*
G02*
X47390000Y12757999I0J249999D01*
G01*
X47390000Y13658001D01*
G75*
G02*
X47639999Y13908000I249999J0D01*
G01*
X48165001Y13908000D01*
G75*
G02*
X48415000Y13658001I0J-249999D01*
G01*
G37*
G36*
G01*
X46590000Y13658001D02*
X46590000Y12757999D01*
G75*
G02*
X46340001Y12508000I-249999J0D01*
G01*
X45814999Y12508000D01*
G75*
G02*
X45565000Y12757999I0J249999D01*
G01*
X45565000Y13658001D01*
G75*
G02*
X45814999Y13908000I249999J0D01*
G01*
X46340001Y13908000D01*
G75*
G02*
X46590000Y13658001I0J-249999D01*
G01*
G37*
G36*
G01*
X50146000Y13658001D02*
X50146000Y12757999D01*
G75*
G02*
X49896001Y12508000I-249999J0D01*
G01*
X49370999Y12508000D01*
G75*
G02*
X49121000Y12757999I0J249999D01*
G01*
X49121000Y13658001D01*
G75*
G02*
X49370999Y13908000I249999J0D01*
G01*
X49896001Y13908000D01*
G75*
G02*
X50146000Y13658001I0J-249999D01*
G01*
G37*
G36*
G01*
X51971000Y13658001D02*
X51971000Y12757999D01*
G75*
G02*
X51721001Y12508000I-249999J0D01*
G01*
X51195999Y12508000D01*
G75*
G02*
X50946000Y12757999I0J249999D01*
G01*
X50946000Y13658001D01*
G75*
G02*
X51195999Y13908000I249999J0D01*
G01*
X51721001Y13908000D01*
G75*
G02*
X51971000Y13658001I0J-249999D01*
G01*
G37*
D17*
X54051000Y5993000D03*
X54051000Y8993000D03*
D18*
X52291000Y5243000D03*
X52291000Y8243000D03*
X52291000Y9743000D03*
D19*
X55151000Y3843000D03*
X55151000Y11143000D03*
X52941000Y11143000D03*
X52941000Y3843000D03*
G36*
G01*
X36426000Y29866000D02*
X36726000Y29866000D01*
G75*
G02*
X36876000Y29716000I0J-150000D01*
G01*
X36876000Y28066000D01*
G75*
G02*
X36726000Y27916000I-150000J0D01*
G01*
X36426000Y27916000D01*
G75*
G02*
X36276000Y28066000I0J150000D01*
G01*
X36276000Y29716000D01*
G75*
G02*
X36426000Y29866000I150000J0D01*
G01*
G37*
G36*
G01*
X35156000Y29866000D02*
X35456000Y29866000D01*
G75*
G02*
X35606000Y29716000I0J-150000D01*
G01*
X35606000Y28066000D01*
G75*
G02*
X35456000Y27916000I-150000J0D01*
G01*
X35156000Y27916000D01*
G75*
G02*
X35006000Y28066000I0J150000D01*
G01*
X35006000Y29716000D01*
G75*
G02*
X35156000Y29866000I150000J0D01*
G01*
G37*
G36*
G01*
X33886000Y29866000D02*
X34186000Y29866000D01*
G75*
G02*
X34336000Y29716000I0J-150000D01*
G01*
X34336000Y28066000D01*
G75*
G02*
X34186000Y27916000I-150000J0D01*
G01*
X33886000Y27916000D01*
G75*
G02*
X33736000Y28066000I0J150000D01*
G01*
X33736000Y29716000D01*
G75*
G02*
X33886000Y29866000I150000J0D01*
G01*
G37*
G36*
G01*
X32616000Y29866000D02*
X32916000Y29866000D01*
G75*
G02*
X33066000Y29716000I0J-150000D01*
G01*
X33066000Y28066000D01*
G75*
G02*
X32916000Y27916000I-150000J0D01*
G01*
X32616000Y27916000D01*
G75*
G02*
X32466000Y28066000I0J150000D01*
G01*
X32466000Y29716000D01*
G75*
G02*
X32616000Y29866000I150000J0D01*
G01*
G37*
G36*
G01*
X31346000Y29866000D02*
X31646000Y29866000D01*
G75*
G02*
X31796000Y29716000I0J-150000D01*
G01*
X31796000Y28066000D01*
G75*
G02*
X31646000Y27916000I-150000J0D01*
G01*
X31346000Y27916000D01*
G75*
G02*
X31196000Y28066000I0J150000D01*
G01*
X31196000Y29716000D01*
G75*
G02*
X31346000Y29866000I150000J0D01*
G01*
G37*
G36*
G01*
X30076000Y29866000D02*
X30376000Y29866000D01*
G75*
G02*
X30526000Y29716000I0J-150000D01*
G01*
X30526000Y28066000D01*
G75*
G02*
X30376000Y27916000I-150000J0D01*
G01*
X30076000Y27916000D01*
G75*
G02*
X29926000Y28066000I0J150000D01*
G01*
X29926000Y29716000D01*
G75*
G02*
X30076000Y29866000I150000J0D01*
G01*
G37*
G36*
G01*
X28806000Y29866000D02*
X29106000Y29866000D01*
G75*
G02*
X29256000Y29716000I0J-150000D01*
G01*
X29256000Y28066000D01*
G75*
G02*
X29106000Y27916000I-150000J0D01*
G01*
X28806000Y27916000D01*
G75*
G02*
X28656000Y28066000I0J150000D01*
G01*
X28656000Y29716000D01*
G75*
G02*
X28806000Y29866000I150000J0D01*
G01*
G37*
G36*
G01*
X28806000Y24916000D02*
X29106000Y24916000D01*
G75*
G02*
X29256000Y24766000I0J-150000D01*
G01*
X29256000Y23116000D01*
G75*
G02*
X29106000Y22966000I-150000J0D01*
G01*
X28806000Y22966000D01*
G75*
G02*
X28656000Y23116000I0J150000D01*
G01*
X28656000Y24766000D01*
G75*
G02*
X28806000Y24916000I150000J0D01*
G01*
G37*
G36*
G01*
X30076000Y24916000D02*
X30376000Y24916000D01*
G75*
G02*
X30526000Y24766000I0J-150000D01*
G01*
X30526000Y23116000D01*
G75*
G02*
X30376000Y22966000I-150000J0D01*
G01*
X30076000Y22966000D01*
G75*
G02*
X29926000Y23116000I0J150000D01*
G01*
X29926000Y24766000D01*
G75*
G02*
X30076000Y24916000I150000J0D01*
G01*
G37*
G36*
G01*
X31346000Y24916000D02*
X31646000Y24916000D01*
G75*
G02*
X31796000Y24766000I0J-150000D01*
G01*
X31796000Y23116000D01*
G75*
G02*
X31646000Y22966000I-150000J0D01*
G01*
X31346000Y22966000D01*
G75*
G02*
X31196000Y23116000I0J150000D01*
G01*
X31196000Y24766000D01*
G75*
G02*
X31346000Y24916000I150000J0D01*
G01*
G37*
G36*
G01*
X32616000Y24916000D02*
X32916000Y24916000D01*
G75*
G02*
X33066000Y24766000I0J-150000D01*
G01*
X33066000Y23116000D01*
G75*
G02*
X32916000Y22966000I-150000J0D01*
G01*
X32616000Y22966000D01*
G75*
G02*
X32466000Y23116000I0J150000D01*
G01*
X32466000Y24766000D01*
G75*
G02*
X32616000Y24916000I150000J0D01*
G01*
G37*
G36*
G01*
X33886000Y24916000D02*
X34186000Y24916000D01*
G75*
G02*
X34336000Y24766000I0J-150000D01*
G01*
X34336000Y23116000D01*
G75*
G02*
X34186000Y22966000I-150000J0D01*
G01*
X33886000Y22966000D01*
G75*
G02*
X33736000Y23116000I0J150000D01*
G01*
X33736000Y24766000D01*
G75*
G02*
X33886000Y24916000I150000J0D01*
G01*
G37*
G36*
G01*
X35156000Y24916000D02*
X35456000Y24916000D01*
G75*
G02*
X35606000Y24766000I0J-150000D01*
G01*
X35606000Y23116000D01*
G75*
G02*
X35456000Y22966000I-150000J0D01*
G01*
X35156000Y22966000D01*
G75*
G02*
X35006000Y23116000I0J150000D01*
G01*
X35006000Y24766000D01*
G75*
G02*
X35156000Y24916000I150000J0D01*
G01*
G37*
G36*
G01*
X36426000Y24916000D02*
X36726000Y24916000D01*
G75*
G02*
X36876000Y24766000I0J-150000D01*
G01*
X36876000Y23116000D01*
G75*
G02*
X36726000Y22966000I-150000J0D01*
G01*
X36426000Y22966000D01*
G75*
G02*
X36276000Y23116000I0J150000D01*
G01*
X36276000Y24766000D01*
G75*
G02*
X36426000Y24916000I150000J0D01*
G01*
G37*
G36*
G01*
X49751000Y16802000D02*
X49751000Y17102000D01*
G75*
G02*
X49901000Y17252000I150000J0D01*
G01*
X50926000Y17252000D01*
G75*
G02*
X51076000Y17102000I0J-150000D01*
G01*
X51076000Y16802000D01*
G75*
G02*
X50926000Y16652000I-150000J0D01*
G01*
X49901000Y16652000D01*
G75*
G02*
X49751000Y16802000I0J150000D01*
G01*
G37*
G36*
G01*
X49751000Y14902000D02*
X49751000Y15202000D01*
G75*
G02*
X49901000Y15352000I150000J0D01*
G01*
X50926000Y15352000D01*
G75*
G02*
X51076000Y15202000I0J-150000D01*
G01*
X51076000Y14902000D01*
G75*
G02*
X50926000Y14752000I-150000J0D01*
G01*
X49901000Y14752000D01*
G75*
G02*
X49751000Y14902000I0J150000D01*
G01*
G37*
G36*
G01*
X47476000Y14902000D02*
X47476000Y15202000D01*
G75*
G02*
X47626000Y15352000I150000J0D01*
G01*
X48651000Y15352000D01*
G75*
G02*
X48801000Y15202000I0J-150000D01*
G01*
X48801000Y14902000D01*
G75*
G02*
X48651000Y14752000I-150000J0D01*
G01*
X47626000Y14752000D01*
G75*
G02*
X47476000Y14902000I0J150000D01*
G01*
G37*
G36*
G01*
X47476000Y15852000D02*
X47476000Y16152000D01*
G75*
G02*
X47626000Y16302000I150000J0D01*
G01*
X48651000Y16302000D01*
G75*
G02*
X48801000Y16152000I0J-150000D01*
G01*
X48801000Y15852000D01*
G75*
G02*
X48651000Y15702000I-150000J0D01*
G01*
X47626000Y15702000D01*
G75*
G02*
X47476000Y15852000I0J150000D01*
G01*
G37*
G36*
G01*
X47476000Y16802000D02*
X47476000Y17102000D01*
G75*
G02*
X47626000Y17252000I150000J0D01*
G01*
X48651000Y17252000D01*
G75*
G02*
X48801000Y17102000I0J-150000D01*
G01*
X48801000Y16802000D01*
G75*
G02*
X48651000Y16652000I-150000J0D01*
G01*
X47626000Y16652000D01*
G75*
G02*
X47476000Y16802000I0J150000D01*
G01*
G37*
G36*
G01*
X23335000Y12515000D02*
X22385000Y12515000D01*
G75*
G02*
X22135000Y12765000I0J250000D01*
G01*
X22135000Y13265000D01*
G75*
G02*
X22385000Y13515000I250000J0D01*
G01*
X23335000Y13515000D01*
G75*
G02*
X23585000Y13265000I0J-250000D01*
G01*
X23585000Y12765000D01*
G75*
G02*
X23335000Y12515000I-250000J0D01*
G01*
G37*
G36*
G01*
X23335000Y10615000D02*
X22385000Y10615000D01*
G75*
G02*
X22135000Y10865000I0J250000D01*
G01*
X22135000Y11365000D01*
G75*
G02*
X22385000Y11615000I250000J0D01*
G01*
X23335000Y11615000D01*
G75*
G02*
X23585000Y11365000I0J-250000D01*
G01*
X23585000Y10865000D01*
G75*
G02*
X23335000Y10615000I-250000J0D01*
G01*
G37*
D20*
X46482000Y24130000D03*
D21*
X48982000Y24130000D03*
X51482000Y24130000D03*
D22*
X53782000Y31630000D03*
X44182000Y31630000D03*
D23*
X6350000Y6350000D03*
X6350000Y39370000D03*
X48260000Y41910000D03*
G36*
G01*
X48385000Y5350000D02*
X49335000Y5350000D01*
G75*
G02*
X49585000Y5100000I0J-250000D01*
G01*
X49585000Y4600000D01*
G75*
G02*
X49335000Y4350000I-250000J0D01*
G01*
X48385000Y4350000D01*
G75*
G02*
X48135000Y4600000I0J250000D01*
G01*
X48135000Y5100000D01*
G75*
G02*
X48385000Y5350000I250000J0D01*
G01*
G37*
G36*
G01*
X48385000Y3450000D02*
X49335000Y3450000D01*
G75*
G02*
X49585000Y3200000I0J-250000D01*
G01*
X49585000Y2700000D01*
G75*
G02*
X49335000Y2450000I-250000J0D01*
G01*
X48385000Y2450000D01*
G75*
G02*
X48135000Y2700000I0J250000D01*
G01*
X48135000Y3200000D01*
G75*
G02*
X48385000Y3450000I250000J0D01*
G01*
G37*
M02*
