G04 #@! TF.GenerationSoftware,KiCad,Pcbnew,(5.1.10)-1*
G04 #@! TF.CreationDate,2022-06-20T16:08:07+02:00*
G04 #@! TF.ProjectId,Project_Gmic,50726f6a-6563-4745-9f47-6d69632e6b69,V1.0*
G04 #@! TF.SameCoordinates,PX2e063a0PY928d170*
G04 #@! TF.FileFunction,Soldermask,Bot*
G04 #@! TF.FilePolarity,Negative*
%FSLAX46Y46*%
G04 Gerber Fmt 4.6, Leading zero omitted, Abs format (unit mm)*
G04 Created by KiCad (PCBNEW (5.1.10)-1) date 2022-06-20 16:08:07*
%MOMM*%
%LPD*%
G01*
G04 APERTURE LIST*
%ADD10C,0.700000*%
%ADD11O,0.900000X2.400000*%
%ADD12O,0.900000X1.700000*%
%ADD13C,2.550000*%
%ADD14C,2.400000*%
%ADD15R,1.446000X1.446000*%
%ADD16C,1.446000*%
%ADD17C,0.900000*%
%ADD18R,1.800000X1.800000*%
%ADD19C,1.800000*%
%ADD20C,3.240000*%
%ADD21C,3.000000*%
%ADD22R,0.400000X1.500000*%
G04 APERTURE END LIST*
G36*
G01*
X35618000Y54323000D02*
X35618000Y53373000D01*
G75*
G02*
X35368000Y53123000I-250000J0D01*
G01*
X34868000Y53123000D01*
G75*
G02*
X34618000Y53373000I0J250000D01*
G01*
X34618000Y54323000D01*
G75*
G02*
X34868000Y54573000I250000J0D01*
G01*
X35368000Y54573000D01*
G75*
G02*
X35618000Y54323000I0J-250000D01*
G01*
G37*
G36*
G01*
X37518000Y54323000D02*
X37518000Y53373000D01*
G75*
G02*
X37268000Y53123000I-250000J0D01*
G01*
X36768000Y53123000D01*
G75*
G02*
X36518000Y53373000I0J250000D01*
G01*
X36518000Y54323000D01*
G75*
G02*
X36768000Y54573000I250000J0D01*
G01*
X37268000Y54573000D01*
G75*
G02*
X37518000Y54323000I0J-250000D01*
G01*
G37*
G36*
G01*
X37518000Y42639000D02*
X37518000Y41689000D01*
G75*
G02*
X37268000Y41439000I-250000J0D01*
G01*
X36768000Y41439000D01*
G75*
G02*
X36518000Y41689000I0J250000D01*
G01*
X36518000Y42639000D01*
G75*
G02*
X36768000Y42889000I250000J0D01*
G01*
X37268000Y42889000D01*
G75*
G02*
X37518000Y42639000I0J-250000D01*
G01*
G37*
G36*
G01*
X35618000Y42639000D02*
X35618000Y41689000D01*
G75*
G02*
X35368000Y41439000I-250000J0D01*
G01*
X34868000Y41439000D01*
G75*
G02*
X34618000Y41689000I0J250000D01*
G01*
X34618000Y42639000D01*
G75*
G02*
X34868000Y42889000I250000J0D01*
G01*
X35368000Y42889000D01*
G75*
G02*
X35618000Y42639000I0J-250000D01*
G01*
G37*
G36*
G01*
X22072140Y19926320D02*
X22072140Y18976320D01*
G75*
G02*
X21822140Y18726320I-250000J0D01*
G01*
X21322140Y18726320D01*
G75*
G02*
X21072140Y18976320I0J250000D01*
G01*
X21072140Y19926320D01*
G75*
G02*
X21322140Y20176320I250000J0D01*
G01*
X21822140Y20176320D01*
G75*
G02*
X22072140Y19926320I0J-250000D01*
G01*
G37*
G36*
G01*
X23972140Y19926320D02*
X23972140Y18976320D01*
G75*
G02*
X23722140Y18726320I-250000J0D01*
G01*
X23222140Y18726320D01*
G75*
G02*
X22972140Y18976320I0J250000D01*
G01*
X22972140Y19926320D01*
G75*
G02*
X23222140Y20176320I250000J0D01*
G01*
X23722140Y20176320D01*
G75*
G02*
X23972140Y19926320I0J-250000D01*
G01*
G37*
G36*
G01*
X41222000Y48293000D02*
X41222000Y49243000D01*
G75*
G02*
X41472000Y49493000I250000J0D01*
G01*
X41972000Y49493000D01*
G75*
G02*
X42222000Y49243000I0J-250000D01*
G01*
X42222000Y48293000D01*
G75*
G02*
X41972000Y48043000I-250000J0D01*
G01*
X41472000Y48043000D01*
G75*
G02*
X41222000Y48293000I0J250000D01*
G01*
G37*
G36*
G01*
X43122000Y48293000D02*
X43122000Y49243000D01*
G75*
G02*
X43372000Y49493000I250000J0D01*
G01*
X43872000Y49493000D01*
G75*
G02*
X44122000Y49243000I0J-250000D01*
G01*
X44122000Y48293000D01*
G75*
G02*
X43872000Y48043000I-250000J0D01*
G01*
X43372000Y48043000D01*
G75*
G02*
X43122000Y48293000I0J250000D01*
G01*
G37*
G36*
G01*
X45179000Y44524000D02*
X44229000Y44524000D01*
G75*
G02*
X43979000Y44774000I0J250000D01*
G01*
X43979000Y45274000D01*
G75*
G02*
X44229000Y45524000I250000J0D01*
G01*
X45179000Y45524000D01*
G75*
G02*
X45429000Y45274000I0J-250000D01*
G01*
X45429000Y44774000D01*
G75*
G02*
X45179000Y44524000I-250000J0D01*
G01*
G37*
G36*
G01*
X45179000Y46424000D02*
X44229000Y46424000D01*
G75*
G02*
X43979000Y46674000I0J250000D01*
G01*
X43979000Y47174000D01*
G75*
G02*
X44229000Y47424000I250000J0D01*
G01*
X45179000Y47424000D01*
G75*
G02*
X45429000Y47174000I0J-250000D01*
G01*
X45429000Y46674000D01*
G75*
G02*
X45179000Y46424000I-250000J0D01*
G01*
G37*
D10*
X17780000Y8890000D03*
X18630000Y8890000D03*
X19480000Y8890000D03*
X20330000Y8890000D03*
X21180000Y8890000D03*
X22030000Y8890000D03*
X22880000Y8890000D03*
X23730000Y8890000D03*
X18630000Y7540000D03*
X20330000Y7540000D03*
X19480000Y7540000D03*
X17780000Y7540000D03*
X22030000Y7540000D03*
X22880000Y7540000D03*
X23730000Y7540000D03*
X21180000Y7540000D03*
D11*
X16430000Y7910000D03*
X25080000Y7910000D03*
D12*
X16430000Y4530000D03*
X25080000Y4530000D03*
D13*
X35560000Y5770000D03*
X40560000Y10770000D03*
X30560000Y10770000D03*
D14*
X37560000Y10770000D03*
X33560000Y10770000D03*
D15*
X29972000Y56388000D03*
D16*
X29972000Y53848000D03*
X29972000Y41910000D03*
D15*
X29972000Y44450000D03*
G36*
G01*
X33470001Y53382500D02*
X32569999Y53382500D01*
G75*
G02*
X32320000Y53632499I0J249999D01*
G01*
X32320000Y54157501D01*
G75*
G02*
X32569999Y54407500I249999J0D01*
G01*
X33470001Y54407500D01*
G75*
G02*
X33720000Y54157501I0J-249999D01*
G01*
X33720000Y53632499D01*
G75*
G02*
X33470001Y53382500I-249999J0D01*
G01*
G37*
G36*
G01*
X33470001Y51557500D02*
X32569999Y51557500D01*
G75*
G02*
X32320000Y51807499I0J249999D01*
G01*
X32320000Y52332501D01*
G75*
G02*
X32569999Y52582500I249999J0D01*
G01*
X33470001Y52582500D01*
G75*
G02*
X33720000Y52332501I0J-249999D01*
G01*
X33720000Y51807499D01*
G75*
G02*
X33470001Y51557500I-249999J0D01*
G01*
G37*
G36*
G01*
X33470001Y39723000D02*
X32569999Y39723000D01*
G75*
G02*
X32320000Y39972999I0J249999D01*
G01*
X32320000Y40498001D01*
G75*
G02*
X32569999Y40748000I249999J0D01*
G01*
X33470001Y40748000D01*
G75*
G02*
X33720000Y40498001I0J-249999D01*
G01*
X33720000Y39972999D01*
G75*
G02*
X33470001Y39723000I-249999J0D01*
G01*
G37*
G36*
G01*
X33470001Y41548000D02*
X32569999Y41548000D01*
G75*
G02*
X32320000Y41797999I0J249999D01*
G01*
X32320000Y42323001D01*
G75*
G02*
X32569999Y42573000I249999J0D01*
G01*
X33470001Y42573000D01*
G75*
G02*
X33720000Y42323001I0J-249999D01*
G01*
X33720000Y41797999D01*
G75*
G02*
X33470001Y41548000I-249999J0D01*
G01*
G37*
G36*
G01*
X22752000Y4121999D02*
X22752000Y5022001D01*
G75*
G02*
X23001999Y5272000I249999J0D01*
G01*
X23527001Y5272000D01*
G75*
G02*
X23777000Y5022001I0J-249999D01*
G01*
X23777000Y4121999D01*
G75*
G02*
X23527001Y3872000I-249999J0D01*
G01*
X23001999Y3872000D01*
G75*
G02*
X22752000Y4121999I0J249999D01*
G01*
G37*
G36*
G01*
X20927000Y4121999D02*
X20927000Y5022001D01*
G75*
G02*
X21176999Y5272000I249999J0D01*
G01*
X21702001Y5272000D01*
G75*
G02*
X21952000Y5022001I0J-249999D01*
G01*
X21952000Y4121999D01*
G75*
G02*
X21702001Y3872000I-249999J0D01*
G01*
X21176999Y3872000D01*
G75*
G02*
X20927000Y4121999I0J249999D01*
G01*
G37*
G36*
G01*
X19149000Y10471999D02*
X19149000Y11372001D01*
G75*
G02*
X19398999Y11622000I249999J0D01*
G01*
X19924001Y11622000D01*
G75*
G02*
X20174000Y11372001I0J-249999D01*
G01*
X20174000Y10471999D01*
G75*
G02*
X19924001Y10222000I-249999J0D01*
G01*
X19398999Y10222000D01*
G75*
G02*
X19149000Y10471999I0J249999D01*
G01*
G37*
G36*
G01*
X20974000Y10471999D02*
X20974000Y11372001D01*
G75*
G02*
X21223999Y11622000I249999J0D01*
G01*
X21749001Y11622000D01*
G75*
G02*
X21999000Y11372001I0J-249999D01*
G01*
X21999000Y10471999D01*
G75*
G02*
X21749001Y10222000I-249999J0D01*
G01*
X21223999Y10222000D01*
G75*
G02*
X20974000Y10471999I0J249999D01*
G01*
G37*
G36*
G01*
X39398000Y51250001D02*
X39398000Y50349999D01*
G75*
G02*
X39148001Y50100000I-249999J0D01*
G01*
X38622999Y50100000D01*
G75*
G02*
X38373000Y50349999I0J249999D01*
G01*
X38373000Y51250001D01*
G75*
G02*
X38622999Y51500000I249999J0D01*
G01*
X39148001Y51500000D01*
G75*
G02*
X39398000Y51250001I0J-249999D01*
G01*
G37*
G36*
G01*
X37573000Y51250001D02*
X37573000Y50349999D01*
G75*
G02*
X37323001Y50100000I-249999J0D01*
G01*
X36797999Y50100000D01*
G75*
G02*
X36548000Y50349999I0J249999D01*
G01*
X36548000Y51250001D01*
G75*
G02*
X36797999Y51500000I249999J0D01*
G01*
X37323001Y51500000D01*
G75*
G02*
X37573000Y51250001I0J-249999D01*
G01*
G37*
G36*
G01*
X37573000Y49218001D02*
X37573000Y48317999D01*
G75*
G02*
X37323001Y48068000I-249999J0D01*
G01*
X36797999Y48068000D01*
G75*
G02*
X36548000Y48317999I0J249999D01*
G01*
X36548000Y49218001D01*
G75*
G02*
X36797999Y49468000I249999J0D01*
G01*
X37323001Y49468000D01*
G75*
G02*
X37573000Y49218001I0J-249999D01*
G01*
G37*
G36*
G01*
X39398000Y49218001D02*
X39398000Y48317999D01*
G75*
G02*
X39148001Y48068000I-249999J0D01*
G01*
X38622999Y48068000D01*
G75*
G02*
X38373000Y48317999I0J249999D01*
G01*
X38373000Y49218001D01*
G75*
G02*
X38622999Y49468000I249999J0D01*
G01*
X39148001Y49468000D01*
G75*
G02*
X39398000Y49218001I0J-249999D01*
G01*
G37*
G36*
G01*
X43208000Y51250001D02*
X43208000Y50349999D01*
G75*
G02*
X42958001Y50100000I-249999J0D01*
G01*
X42432999Y50100000D01*
G75*
G02*
X42183000Y50349999I0J249999D01*
G01*
X42183000Y51250001D01*
G75*
G02*
X42432999Y51500000I249999J0D01*
G01*
X42958001Y51500000D01*
G75*
G02*
X43208000Y51250001I0J-249999D01*
G01*
G37*
G36*
G01*
X41383000Y51250001D02*
X41383000Y50349999D01*
G75*
G02*
X41133001Y50100000I-249999J0D01*
G01*
X40607999Y50100000D01*
G75*
G02*
X40358000Y50349999I0J249999D01*
G01*
X40358000Y51250001D01*
G75*
G02*
X40607999Y51500000I249999J0D01*
G01*
X41133001Y51500000D01*
G75*
G02*
X41383000Y51250001I0J-249999D01*
G01*
G37*
D17*
X54051000Y5993000D03*
X54051000Y8993000D03*
G36*
G01*
X43329000Y47074000D02*
X43329000Y46774000D01*
G75*
G02*
X43179000Y46624000I-150000J0D01*
G01*
X42154000Y46624000D01*
G75*
G02*
X42004000Y46774000I0J150000D01*
G01*
X42004000Y47074000D01*
G75*
G02*
X42154000Y47224000I150000J0D01*
G01*
X43179000Y47224000D01*
G75*
G02*
X43329000Y47074000I0J-150000D01*
G01*
G37*
G36*
G01*
X43329000Y46124000D02*
X43329000Y45824000D01*
G75*
G02*
X43179000Y45674000I-150000J0D01*
G01*
X42154000Y45674000D01*
G75*
G02*
X42004000Y45824000I0J150000D01*
G01*
X42004000Y46124000D01*
G75*
G02*
X42154000Y46274000I150000J0D01*
G01*
X43179000Y46274000D01*
G75*
G02*
X43329000Y46124000I0J-150000D01*
G01*
G37*
G36*
G01*
X43329000Y45174000D02*
X43329000Y44874000D01*
G75*
G02*
X43179000Y44724000I-150000J0D01*
G01*
X42154000Y44724000D01*
G75*
G02*
X42004000Y44874000I0J150000D01*
G01*
X42004000Y45174000D01*
G75*
G02*
X42154000Y45324000I150000J0D01*
G01*
X43179000Y45324000D01*
G75*
G02*
X43329000Y45174000I0J-150000D01*
G01*
G37*
G36*
G01*
X41054000Y45174000D02*
X41054000Y44874000D01*
G75*
G02*
X40904000Y44724000I-150000J0D01*
G01*
X39879000Y44724000D01*
G75*
G02*
X39729000Y44874000I0J150000D01*
G01*
X39729000Y45174000D01*
G75*
G02*
X39879000Y45324000I150000J0D01*
G01*
X40904000Y45324000D01*
G75*
G02*
X41054000Y45174000I0J-150000D01*
G01*
G37*
G36*
G01*
X41054000Y47074000D02*
X41054000Y46774000D01*
G75*
G02*
X40904000Y46624000I-150000J0D01*
G01*
X39879000Y46624000D01*
G75*
G02*
X39729000Y46774000I0J150000D01*
G01*
X39729000Y47074000D01*
G75*
G02*
X39879000Y47224000I150000J0D01*
G01*
X40904000Y47224000D01*
G75*
G02*
X41054000Y47074000I0J-150000D01*
G01*
G37*
G36*
G01*
X23906140Y21958320D02*
X23906140Y21008320D01*
G75*
G02*
X23656140Y20758320I-250000J0D01*
G01*
X23156140Y20758320D01*
G75*
G02*
X22906140Y21008320I0J250000D01*
G01*
X22906140Y21958320D01*
G75*
G02*
X23156140Y22208320I250000J0D01*
G01*
X23656140Y22208320D01*
G75*
G02*
X23906140Y21958320I0J-250000D01*
G01*
G37*
G36*
G01*
X22006140Y21958320D02*
X22006140Y21008320D01*
G75*
G02*
X21756140Y20758320I-250000J0D01*
G01*
X21256140Y20758320D01*
G75*
G02*
X21006140Y21008320I0J250000D01*
G01*
X21006140Y21958320D01*
G75*
G02*
X21256140Y22208320I250000J0D01*
G01*
X21756140Y22208320D01*
G75*
G02*
X22006140Y21958320I0J-250000D01*
G01*
G37*
G36*
G01*
X18854000Y27145000D02*
X18854000Y26195000D01*
G75*
G02*
X18604000Y25945000I-250000J0D01*
G01*
X18104000Y25945000D01*
G75*
G02*
X17854000Y26195000I0J250000D01*
G01*
X17854000Y27145000D01*
G75*
G02*
X18104000Y27395000I250000J0D01*
G01*
X18604000Y27395000D01*
G75*
G02*
X18854000Y27145000I0J-250000D01*
G01*
G37*
G36*
G01*
X20754000Y27145000D02*
X20754000Y26195000D01*
G75*
G02*
X20504000Y25945000I-250000J0D01*
G01*
X20004000Y25945000D01*
G75*
G02*
X19754000Y26195000I0J250000D01*
G01*
X19754000Y27145000D01*
G75*
G02*
X20004000Y27395000I250000J0D01*
G01*
X20504000Y27395000D01*
G75*
G02*
X20754000Y27145000I0J-250000D01*
G01*
G37*
G36*
G01*
X15781000Y25072000D02*
X16731000Y25072000D01*
G75*
G02*
X16981000Y24822000I0J-250000D01*
G01*
X16981000Y24322000D01*
G75*
G02*
X16731000Y24072000I-250000J0D01*
G01*
X15781000Y24072000D01*
G75*
G02*
X15531000Y24322000I0J250000D01*
G01*
X15531000Y24822000D01*
G75*
G02*
X15781000Y25072000I250000J0D01*
G01*
G37*
G36*
G01*
X15781000Y23172000D02*
X16731000Y23172000D01*
G75*
G02*
X16981000Y22922000I0J-250000D01*
G01*
X16981000Y22422000D01*
G75*
G02*
X16731000Y22172000I-250000J0D01*
G01*
X15781000Y22172000D01*
G75*
G02*
X15531000Y22422000I0J250000D01*
G01*
X15531000Y22922000D01*
G75*
G02*
X15781000Y23172000I250000J0D01*
G01*
G37*
D18*
X46482000Y24130000D03*
D19*
X48982000Y24130000D03*
X51482000Y24130000D03*
D20*
X53782000Y31630000D03*
X44182000Y31630000D03*
D21*
X6350000Y6350000D03*
X6350000Y39370000D03*
X48260000Y41910000D03*
D22*
X19710000Y21784000D03*
X19060000Y21784000D03*
X18410000Y21784000D03*
X18410000Y24444000D03*
X19060000Y24444000D03*
X19710000Y24444000D03*
M02*
