G04 #@! TF.GenerationSoftware,KiCad,Pcbnew,7.0.1*
G04 #@! TF.CreationDate,2023-03-23T18:13:04+01:00*
G04 #@! TF.ProjectId,Project_Gmic,50726f6a-6563-4745-9f47-6d69632e6b69,V1.1*
G04 #@! TF.SameCoordinates,Original*
G04 #@! TF.FileFunction,Legend,Top*
G04 #@! TF.FilePolarity,Positive*
%FSLAX46Y46*%
G04 Gerber Fmt 4.6, Leading zero omitted, Abs format (unit mm)*
G04 Created by KiCad (PCBNEW 7.0.1) date 2023-03-23 18:13:04*
%MOMM*%
%LPD*%
G01*
G04 APERTURE LIST*
%ADD10C,0.150000*%
%ADD11C,0.200000*%
%ADD12C,0.254000*%
%ADD13C,0.120000*%
%ADD14C,0.100000*%
G04 APERTURE END LIST*
D10*
X2621619Y-145929049D02*
X2621619Y-146405239D01*
X2621619Y-146405239D02*
X1621619Y-146405239D01*
X2621619Y-145595715D02*
X1954952Y-145595715D01*
X1621619Y-145595715D02*
X1669238Y-145643334D01*
X1669238Y-145643334D02*
X1716857Y-145595715D01*
X1716857Y-145595715D02*
X1669238Y-145548096D01*
X1669238Y-145548096D02*
X1621619Y-145595715D01*
X1621619Y-145595715D02*
X1716857Y-145595715D01*
X2574000Y-144690954D02*
X2621619Y-144786192D01*
X2621619Y-144786192D02*
X2621619Y-144976668D01*
X2621619Y-144976668D02*
X2574000Y-145071906D01*
X2574000Y-145071906D02*
X2526380Y-145119525D01*
X2526380Y-145119525D02*
X2431142Y-145167144D01*
X2431142Y-145167144D02*
X2145428Y-145167144D01*
X2145428Y-145167144D02*
X2050190Y-145119525D01*
X2050190Y-145119525D02*
X2002571Y-145071906D01*
X2002571Y-145071906D02*
X1954952Y-144976668D01*
X1954952Y-144976668D02*
X1954952Y-144786192D01*
X1954952Y-144786192D02*
X2002571Y-144690954D01*
X2574000Y-143881430D02*
X2621619Y-143976668D01*
X2621619Y-143976668D02*
X2621619Y-144167144D01*
X2621619Y-144167144D02*
X2574000Y-144262382D01*
X2574000Y-144262382D02*
X2478761Y-144310001D01*
X2478761Y-144310001D02*
X2097809Y-144310001D01*
X2097809Y-144310001D02*
X2002571Y-144262382D01*
X2002571Y-144262382D02*
X1954952Y-144167144D01*
X1954952Y-144167144D02*
X1954952Y-143976668D01*
X1954952Y-143976668D02*
X2002571Y-143881430D01*
X2002571Y-143881430D02*
X2097809Y-143833811D01*
X2097809Y-143833811D02*
X2193047Y-143833811D01*
X2193047Y-143833811D02*
X2288285Y-144310001D01*
X1954952Y-143405239D02*
X2621619Y-143405239D01*
X2050190Y-143405239D02*
X2002571Y-143357620D01*
X2002571Y-143357620D02*
X1954952Y-143262382D01*
X1954952Y-143262382D02*
X1954952Y-143119525D01*
X1954952Y-143119525D02*
X2002571Y-143024287D01*
X2002571Y-143024287D02*
X2097809Y-142976668D01*
X2097809Y-142976668D02*
X2621619Y-142976668D01*
X2574000Y-142548096D02*
X2621619Y-142452858D01*
X2621619Y-142452858D02*
X2621619Y-142262382D01*
X2621619Y-142262382D02*
X2574000Y-142167144D01*
X2574000Y-142167144D02*
X2478761Y-142119525D01*
X2478761Y-142119525D02*
X2431142Y-142119525D01*
X2431142Y-142119525D02*
X2335904Y-142167144D01*
X2335904Y-142167144D02*
X2288285Y-142262382D01*
X2288285Y-142262382D02*
X2288285Y-142405239D01*
X2288285Y-142405239D02*
X2240666Y-142500477D01*
X2240666Y-142500477D02*
X2145428Y-142548096D01*
X2145428Y-142548096D02*
X2097809Y-142548096D01*
X2097809Y-142548096D02*
X2002571Y-142500477D01*
X2002571Y-142500477D02*
X1954952Y-142405239D01*
X1954952Y-142405239D02*
X1954952Y-142262382D01*
X1954952Y-142262382D02*
X2002571Y-142167144D01*
X2574000Y-141310001D02*
X2621619Y-141405239D01*
X2621619Y-141405239D02*
X2621619Y-141595715D01*
X2621619Y-141595715D02*
X2574000Y-141690953D01*
X2574000Y-141690953D02*
X2478761Y-141738572D01*
X2478761Y-141738572D02*
X2097809Y-141738572D01*
X2097809Y-141738572D02*
X2002571Y-141690953D01*
X2002571Y-141690953D02*
X1954952Y-141595715D01*
X1954952Y-141595715D02*
X1954952Y-141405239D01*
X1954952Y-141405239D02*
X2002571Y-141310001D01*
X2002571Y-141310001D02*
X2097809Y-141262382D01*
X2097809Y-141262382D02*
X2193047Y-141262382D01*
X2193047Y-141262382D02*
X2288285Y-141738572D01*
X2621619Y-140405239D02*
X1621619Y-140405239D01*
X2574000Y-140405239D02*
X2621619Y-140500477D01*
X2621619Y-140500477D02*
X2621619Y-140690953D01*
X2621619Y-140690953D02*
X2574000Y-140786191D01*
X2574000Y-140786191D02*
X2526380Y-140833810D01*
X2526380Y-140833810D02*
X2431142Y-140881429D01*
X2431142Y-140881429D02*
X2145428Y-140881429D01*
X2145428Y-140881429D02*
X2050190Y-140833810D01*
X2050190Y-140833810D02*
X2002571Y-140786191D01*
X2002571Y-140786191D02*
X1954952Y-140690953D01*
X1954952Y-140690953D02*
X1954952Y-140500477D01*
X1954952Y-140500477D02*
X2002571Y-140405239D01*
X1954952Y-138738572D02*
X2621619Y-138738572D01*
X1954952Y-139167143D02*
X2478761Y-139167143D01*
X2478761Y-139167143D02*
X2574000Y-139119524D01*
X2574000Y-139119524D02*
X2621619Y-139024286D01*
X2621619Y-139024286D02*
X2621619Y-138881429D01*
X2621619Y-138881429D02*
X2574000Y-138786191D01*
X2574000Y-138786191D02*
X2526380Y-138738572D01*
X1954952Y-138262381D02*
X2621619Y-138262381D01*
X2050190Y-138262381D02*
X2002571Y-138214762D01*
X2002571Y-138214762D02*
X1954952Y-138119524D01*
X1954952Y-138119524D02*
X1954952Y-137976667D01*
X1954952Y-137976667D02*
X2002571Y-137881429D01*
X2002571Y-137881429D02*
X2097809Y-137833810D01*
X2097809Y-137833810D02*
X2621619Y-137833810D01*
X2621619Y-136929048D02*
X1621619Y-136929048D01*
X2574000Y-136929048D02*
X2621619Y-137024286D01*
X2621619Y-137024286D02*
X2621619Y-137214762D01*
X2621619Y-137214762D02*
X2574000Y-137310000D01*
X2574000Y-137310000D02*
X2526380Y-137357619D01*
X2526380Y-137357619D02*
X2431142Y-137405238D01*
X2431142Y-137405238D02*
X2145428Y-137405238D01*
X2145428Y-137405238D02*
X2050190Y-137357619D01*
X2050190Y-137357619D02*
X2002571Y-137310000D01*
X2002571Y-137310000D02*
X1954952Y-137214762D01*
X1954952Y-137214762D02*
X1954952Y-137024286D01*
X1954952Y-137024286D02*
X2002571Y-136929048D01*
X2574000Y-136071905D02*
X2621619Y-136167143D01*
X2621619Y-136167143D02*
X2621619Y-136357619D01*
X2621619Y-136357619D02*
X2574000Y-136452857D01*
X2574000Y-136452857D02*
X2478761Y-136500476D01*
X2478761Y-136500476D02*
X2097809Y-136500476D01*
X2097809Y-136500476D02*
X2002571Y-136452857D01*
X2002571Y-136452857D02*
X1954952Y-136357619D01*
X1954952Y-136357619D02*
X1954952Y-136167143D01*
X1954952Y-136167143D02*
X2002571Y-136071905D01*
X2002571Y-136071905D02*
X2097809Y-136024286D01*
X2097809Y-136024286D02*
X2193047Y-136024286D01*
X2193047Y-136024286D02*
X2288285Y-136500476D01*
X2621619Y-135595714D02*
X1954952Y-135595714D01*
X2145428Y-135595714D02*
X2050190Y-135548095D01*
X2050190Y-135548095D02*
X2002571Y-135500476D01*
X2002571Y-135500476D02*
X1954952Y-135405238D01*
X1954952Y-135405238D02*
X1954952Y-135310000D01*
X2526380Y-133643333D02*
X2574000Y-133690952D01*
X2574000Y-133690952D02*
X2621619Y-133833809D01*
X2621619Y-133833809D02*
X2621619Y-133929047D01*
X2621619Y-133929047D02*
X2574000Y-134071904D01*
X2574000Y-134071904D02*
X2478761Y-134167142D01*
X2478761Y-134167142D02*
X2383523Y-134214761D01*
X2383523Y-134214761D02*
X2193047Y-134262380D01*
X2193047Y-134262380D02*
X2050190Y-134262380D01*
X2050190Y-134262380D02*
X1859714Y-134214761D01*
X1859714Y-134214761D02*
X1764476Y-134167142D01*
X1764476Y-134167142D02*
X1669238Y-134071904D01*
X1669238Y-134071904D02*
X1621619Y-133929047D01*
X1621619Y-133929047D02*
X1621619Y-133833809D01*
X1621619Y-133833809D02*
X1669238Y-133690952D01*
X1669238Y-133690952D02*
X1716857Y-133643333D01*
X2097809Y-133214761D02*
X2097809Y-132881428D01*
X2621619Y-132738571D02*
X2621619Y-133214761D01*
X2621619Y-133214761D02*
X1621619Y-133214761D01*
X1621619Y-133214761D02*
X1621619Y-132738571D01*
X2621619Y-131738571D02*
X2145428Y-132071904D01*
X2621619Y-132309999D02*
X1621619Y-132309999D01*
X1621619Y-132309999D02*
X1621619Y-131929047D01*
X1621619Y-131929047D02*
X1669238Y-131833809D01*
X1669238Y-131833809D02*
X1716857Y-131786190D01*
X1716857Y-131786190D02*
X1812095Y-131738571D01*
X1812095Y-131738571D02*
X1954952Y-131738571D01*
X1954952Y-131738571D02*
X2050190Y-131786190D01*
X2050190Y-131786190D02*
X2097809Y-131833809D01*
X2097809Y-131833809D02*
X2145428Y-131929047D01*
X2145428Y-131929047D02*
X2145428Y-132309999D01*
X2621619Y-131309999D02*
X1621619Y-131309999D01*
X1621619Y-131309999D02*
X2621619Y-130738571D01*
X2621619Y-130738571D02*
X1621619Y-130738571D01*
X2240666Y-130262380D02*
X2240666Y-129500476D01*
X1621619Y-128833809D02*
X1621619Y-128643333D01*
X1621619Y-128643333D02*
X1669238Y-128548095D01*
X1669238Y-128548095D02*
X1764476Y-128452857D01*
X1764476Y-128452857D02*
X1954952Y-128405238D01*
X1954952Y-128405238D02*
X2288285Y-128405238D01*
X2288285Y-128405238D02*
X2478761Y-128452857D01*
X2478761Y-128452857D02*
X2574000Y-128548095D01*
X2574000Y-128548095D02*
X2621619Y-128643333D01*
X2621619Y-128643333D02*
X2621619Y-128833809D01*
X2621619Y-128833809D02*
X2574000Y-128929047D01*
X2574000Y-128929047D02*
X2478761Y-129024285D01*
X2478761Y-129024285D02*
X2288285Y-129071904D01*
X2288285Y-129071904D02*
X1954952Y-129071904D01*
X1954952Y-129071904D02*
X1764476Y-129024285D01*
X1764476Y-129024285D02*
X1669238Y-128929047D01*
X1669238Y-128929047D02*
X1621619Y-128833809D01*
X2621619Y-127976666D02*
X1621619Y-127976666D01*
X2097809Y-127976666D02*
X2097809Y-127405238D01*
X2621619Y-127405238D02*
X1621619Y-127405238D01*
X2621619Y-126452857D02*
X2621619Y-126929047D01*
X2621619Y-126929047D02*
X1621619Y-126929047D01*
X2240666Y-126119523D02*
X2240666Y-125357619D01*
X1621619Y-124976666D02*
X2621619Y-124738571D01*
X2621619Y-124738571D02*
X1907333Y-124548095D01*
X1907333Y-124548095D02*
X2621619Y-124357619D01*
X2621619Y-124357619D02*
X1621619Y-124119524D01*
X1954952Y-123071904D02*
X2621619Y-122833809D01*
X2621619Y-122833809D02*
X1954952Y-122595714D01*
X1716857Y-122262380D02*
X1669238Y-122214761D01*
X1669238Y-122214761D02*
X1621619Y-122119523D01*
X1621619Y-122119523D02*
X1621619Y-121881428D01*
X1621619Y-121881428D02*
X1669238Y-121786190D01*
X1669238Y-121786190D02*
X1716857Y-121738571D01*
X1716857Y-121738571D02*
X1812095Y-121690952D01*
X1812095Y-121690952D02*
X1907333Y-121690952D01*
X1907333Y-121690952D02*
X2050190Y-121738571D01*
X2050190Y-121738571D02*
X2621619Y-122309999D01*
X2621619Y-122309999D02*
X2621619Y-121690952D01*
X2621619Y-120357618D02*
X2574000Y-120452856D01*
X2574000Y-120452856D02*
X2526380Y-120500475D01*
X2526380Y-120500475D02*
X2431142Y-120548094D01*
X2431142Y-120548094D02*
X2145428Y-120548094D01*
X2145428Y-120548094D02*
X2050190Y-120500475D01*
X2050190Y-120500475D02*
X2002571Y-120452856D01*
X2002571Y-120452856D02*
X1954952Y-120357618D01*
X1954952Y-120357618D02*
X1954952Y-120214761D01*
X1954952Y-120214761D02*
X2002571Y-120119523D01*
X2002571Y-120119523D02*
X2050190Y-120071904D01*
X2050190Y-120071904D02*
X2145428Y-120024285D01*
X2145428Y-120024285D02*
X2431142Y-120024285D01*
X2431142Y-120024285D02*
X2526380Y-120071904D01*
X2526380Y-120071904D02*
X2574000Y-120119523D01*
X2574000Y-120119523D02*
X2621619Y-120214761D01*
X2621619Y-120214761D02*
X2621619Y-120357618D01*
X2621619Y-119595713D02*
X1954952Y-119595713D01*
X2145428Y-119595713D02*
X2050190Y-119548094D01*
X2050190Y-119548094D02*
X2002571Y-119500475D01*
X2002571Y-119500475D02*
X1954952Y-119405237D01*
X1954952Y-119405237D02*
X1954952Y-119309999D01*
X2621619Y-118071903D02*
X2574000Y-118167141D01*
X2574000Y-118167141D02*
X2478761Y-118214760D01*
X2478761Y-118214760D02*
X1621619Y-118214760D01*
X2621619Y-117262379D02*
X2097809Y-117262379D01*
X2097809Y-117262379D02*
X2002571Y-117309998D01*
X2002571Y-117309998D02*
X1954952Y-117405236D01*
X1954952Y-117405236D02*
X1954952Y-117595712D01*
X1954952Y-117595712D02*
X2002571Y-117690950D01*
X2574000Y-117262379D02*
X2621619Y-117357617D01*
X2621619Y-117357617D02*
X2621619Y-117595712D01*
X2621619Y-117595712D02*
X2574000Y-117690950D01*
X2574000Y-117690950D02*
X2478761Y-117738569D01*
X2478761Y-117738569D02*
X2383523Y-117738569D01*
X2383523Y-117738569D02*
X2288285Y-117690950D01*
X2288285Y-117690950D02*
X2240666Y-117595712D01*
X2240666Y-117595712D02*
X2240666Y-117357617D01*
X2240666Y-117357617D02*
X2193047Y-117262379D01*
X1954952Y-116929045D02*
X1954952Y-116548093D01*
X1621619Y-116786188D02*
X2478761Y-116786188D01*
X2478761Y-116786188D02*
X2574000Y-116738569D01*
X2574000Y-116738569D02*
X2621619Y-116643331D01*
X2621619Y-116643331D02*
X2621619Y-116548093D01*
X2574000Y-115833807D02*
X2621619Y-115929045D01*
X2621619Y-115929045D02*
X2621619Y-116119521D01*
X2621619Y-116119521D02*
X2574000Y-116214759D01*
X2574000Y-116214759D02*
X2478761Y-116262378D01*
X2478761Y-116262378D02*
X2097809Y-116262378D01*
X2097809Y-116262378D02*
X2002571Y-116214759D01*
X2002571Y-116214759D02*
X1954952Y-116119521D01*
X1954952Y-116119521D02*
X1954952Y-115929045D01*
X1954952Y-115929045D02*
X2002571Y-115833807D01*
X2002571Y-115833807D02*
X2097809Y-115786188D01*
X2097809Y-115786188D02*
X2193047Y-115786188D01*
X2193047Y-115786188D02*
X2288285Y-116262378D01*
X2621619Y-115357616D02*
X1954952Y-115357616D01*
X2145428Y-115357616D02*
X2050190Y-115309997D01*
X2050190Y-115309997D02*
X2002571Y-115262378D01*
X2002571Y-115262378D02*
X1954952Y-115167140D01*
X1954952Y-115167140D02*
X1954952Y-115071902D01*
D11*
X5370476Y-135635238D02*
X5275238Y-135825714D01*
X5275238Y-135825714D02*
X5275238Y-136111428D01*
X5275238Y-136111428D02*
X5370476Y-136397143D01*
X5370476Y-136397143D02*
X5560952Y-136587619D01*
X5560952Y-136587619D02*
X5751428Y-136682857D01*
X5751428Y-136682857D02*
X6132380Y-136778095D01*
X6132380Y-136778095D02*
X6418095Y-136778095D01*
X6418095Y-136778095D02*
X6799047Y-136682857D01*
X6799047Y-136682857D02*
X6989523Y-136587619D01*
X6989523Y-136587619D02*
X7180000Y-136397143D01*
X7180000Y-136397143D02*
X7275238Y-136111428D01*
X7275238Y-136111428D02*
X7275238Y-135920952D01*
X7275238Y-135920952D02*
X7180000Y-135635238D01*
X7180000Y-135635238D02*
X7084761Y-135540000D01*
X7084761Y-135540000D02*
X6418095Y-135540000D01*
X6418095Y-135540000D02*
X6418095Y-135920952D01*
X7275238Y-134682857D02*
X5275238Y-134682857D01*
X5275238Y-134682857D02*
X6703809Y-134016190D01*
X6703809Y-134016190D02*
X5275238Y-133349524D01*
X5275238Y-133349524D02*
X7275238Y-133349524D01*
X7275238Y-132397143D02*
X5275238Y-132397143D01*
X7084761Y-130301905D02*
X7180000Y-130397143D01*
X7180000Y-130397143D02*
X7275238Y-130682857D01*
X7275238Y-130682857D02*
X7275238Y-130873333D01*
X7275238Y-130873333D02*
X7180000Y-131159048D01*
X7180000Y-131159048D02*
X6989523Y-131349524D01*
X6989523Y-131349524D02*
X6799047Y-131444762D01*
X6799047Y-131444762D02*
X6418095Y-131540000D01*
X6418095Y-131540000D02*
X6132380Y-131540000D01*
X6132380Y-131540000D02*
X5751428Y-131444762D01*
X5751428Y-131444762D02*
X5560952Y-131349524D01*
X5560952Y-131349524D02*
X5370476Y-131159048D01*
X5370476Y-131159048D02*
X5275238Y-130873333D01*
X5275238Y-130873333D02*
X5275238Y-130682857D01*
X5275238Y-130682857D02*
X5370476Y-130397143D01*
X5370476Y-130397143D02*
X5465714Y-130301905D01*
X5275238Y-128206666D02*
X7275238Y-127540000D01*
X7275238Y-127540000D02*
X5275238Y-126873333D01*
X7275238Y-125159047D02*
X7275238Y-126301904D01*
X7275238Y-125730476D02*
X5275238Y-125730476D01*
X5275238Y-125730476D02*
X5560952Y-125920952D01*
X5560952Y-125920952D02*
X5751428Y-126111428D01*
X5751428Y-126111428D02*
X5846666Y-126301904D01*
X7084761Y-124301904D02*
X7180000Y-124206666D01*
X7180000Y-124206666D02*
X7275238Y-124301904D01*
X7275238Y-124301904D02*
X7180000Y-124397142D01*
X7180000Y-124397142D02*
X7084761Y-124301904D01*
X7084761Y-124301904D02*
X7275238Y-124301904D01*
X7275238Y-122301904D02*
X7275238Y-123444761D01*
X7275238Y-122873333D02*
X5275238Y-122873333D01*
X5275238Y-122873333D02*
X5560952Y-123063809D01*
X5560952Y-123063809D02*
X5751428Y-123254285D01*
X5751428Y-123254285D02*
X5846666Y-123444761D01*
D10*
X48769761Y-139012619D02*
X48436428Y-138536428D01*
X48198333Y-139012619D02*
X48198333Y-138012619D01*
X48198333Y-138012619D02*
X48579285Y-138012619D01*
X48579285Y-138012619D02*
X48674523Y-138060238D01*
X48674523Y-138060238D02*
X48722142Y-138107857D01*
X48722142Y-138107857D02*
X48769761Y-138203095D01*
X48769761Y-138203095D02*
X48769761Y-138345952D01*
X48769761Y-138345952D02*
X48722142Y-138441190D01*
X48722142Y-138441190D02*
X48674523Y-138488809D01*
X48674523Y-138488809D02*
X48579285Y-138536428D01*
X48579285Y-138536428D02*
X48198333Y-138536428D01*
X49055476Y-138012619D02*
X49388809Y-139012619D01*
X49388809Y-139012619D02*
X49722142Y-138012619D01*
X50579285Y-139012619D02*
X50007857Y-139012619D01*
X50293571Y-139012619D02*
X50293571Y-138012619D01*
X50293571Y-138012619D02*
X50198333Y-138155476D01*
X50198333Y-138155476D02*
X50103095Y-138250714D01*
X50103095Y-138250714D02*
X50007857Y-138298333D01*
D12*
X43010667Y-147907526D02*
X43010667Y-148814669D01*
X43010667Y-148814669D02*
X42950190Y-148996097D01*
X42950190Y-148996097D02*
X42829238Y-149117050D01*
X42829238Y-149117050D02*
X42647809Y-149177526D01*
X42647809Y-149177526D02*
X42526857Y-149177526D01*
X43554952Y-148028478D02*
X43615428Y-147968002D01*
X43615428Y-147968002D02*
X43736381Y-147907526D01*
X43736381Y-147907526D02*
X44038762Y-147907526D01*
X44038762Y-147907526D02*
X44159714Y-147968002D01*
X44159714Y-147968002D02*
X44220190Y-148028478D01*
X44220190Y-148028478D02*
X44280667Y-148149430D01*
X44280667Y-148149430D02*
X44280667Y-148270383D01*
X44280667Y-148270383D02*
X44220190Y-148451811D01*
X44220190Y-148451811D02*
X43494476Y-149177526D01*
X43494476Y-149177526D02*
X44280667Y-149177526D01*
D10*
X44315142Y-106637380D02*
X44267523Y-106685000D01*
X44267523Y-106685000D02*
X44124666Y-106732619D01*
X44124666Y-106732619D02*
X44029428Y-106732619D01*
X44029428Y-106732619D02*
X43886571Y-106685000D01*
X43886571Y-106685000D02*
X43791333Y-106589761D01*
X43791333Y-106589761D02*
X43743714Y-106494523D01*
X43743714Y-106494523D02*
X43696095Y-106304047D01*
X43696095Y-106304047D02*
X43696095Y-106161190D01*
X43696095Y-106161190D02*
X43743714Y-105970714D01*
X43743714Y-105970714D02*
X43791333Y-105875476D01*
X43791333Y-105875476D02*
X43886571Y-105780238D01*
X43886571Y-105780238D02*
X44029428Y-105732619D01*
X44029428Y-105732619D02*
X44124666Y-105732619D01*
X44124666Y-105732619D02*
X44267523Y-105780238D01*
X44267523Y-105780238D02*
X44315142Y-105827857D01*
X45267523Y-106732619D02*
X44696095Y-106732619D01*
X44981809Y-106732619D02*
X44981809Y-105732619D01*
X44981809Y-105732619D02*
X44886571Y-105875476D01*
X44886571Y-105875476D02*
X44791333Y-105970714D01*
X44791333Y-105970714D02*
X44696095Y-106018333D01*
X45600857Y-105732619D02*
X46219904Y-105732619D01*
X46219904Y-105732619D02*
X45886571Y-106113571D01*
X45886571Y-106113571D02*
X46029428Y-106113571D01*
X46029428Y-106113571D02*
X46124666Y-106161190D01*
X46124666Y-106161190D02*
X46172285Y-106208809D01*
X46172285Y-106208809D02*
X46219904Y-106304047D01*
X46219904Y-106304047D02*
X46219904Y-106542142D01*
X46219904Y-106542142D02*
X46172285Y-106637380D01*
X46172285Y-106637380D02*
X46124666Y-106685000D01*
X46124666Y-106685000D02*
X46029428Y-106732619D01*
X46029428Y-106732619D02*
X45743714Y-106732619D01*
X45743714Y-106732619D02*
X45648476Y-106685000D01*
X45648476Y-106685000D02*
X45600857Y-106637380D01*
X36695142Y-114921380D02*
X36647523Y-114969000D01*
X36647523Y-114969000D02*
X36504666Y-115016619D01*
X36504666Y-115016619D02*
X36409428Y-115016619D01*
X36409428Y-115016619D02*
X36266571Y-114969000D01*
X36266571Y-114969000D02*
X36171333Y-114873761D01*
X36171333Y-114873761D02*
X36123714Y-114778523D01*
X36123714Y-114778523D02*
X36076095Y-114588047D01*
X36076095Y-114588047D02*
X36076095Y-114445190D01*
X36076095Y-114445190D02*
X36123714Y-114254714D01*
X36123714Y-114254714D02*
X36171333Y-114159476D01*
X36171333Y-114159476D02*
X36266571Y-114064238D01*
X36266571Y-114064238D02*
X36409428Y-114016619D01*
X36409428Y-114016619D02*
X36504666Y-114016619D01*
X36504666Y-114016619D02*
X36647523Y-114064238D01*
X36647523Y-114064238D02*
X36695142Y-114111857D01*
X37647523Y-115016619D02*
X37076095Y-115016619D01*
X37361809Y-115016619D02*
X37361809Y-114016619D01*
X37361809Y-114016619D02*
X37266571Y-114159476D01*
X37266571Y-114159476D02*
X37171333Y-114254714D01*
X37171333Y-114254714D02*
X37076095Y-114302333D01*
X38504666Y-114349952D02*
X38504666Y-115016619D01*
X38266571Y-113969000D02*
X38028476Y-114683285D01*
X38028476Y-114683285D02*
X38647523Y-114683285D01*
X17483380Y-142562857D02*
X17531000Y-142610476D01*
X17531000Y-142610476D02*
X17578619Y-142753333D01*
X17578619Y-142753333D02*
X17578619Y-142848571D01*
X17578619Y-142848571D02*
X17531000Y-142991428D01*
X17531000Y-142991428D02*
X17435761Y-143086666D01*
X17435761Y-143086666D02*
X17340523Y-143134285D01*
X17340523Y-143134285D02*
X17150047Y-143181904D01*
X17150047Y-143181904D02*
X17007190Y-143181904D01*
X17007190Y-143181904D02*
X16816714Y-143134285D01*
X16816714Y-143134285D02*
X16721476Y-143086666D01*
X16721476Y-143086666D02*
X16626238Y-142991428D01*
X16626238Y-142991428D02*
X16578619Y-142848571D01*
X16578619Y-142848571D02*
X16578619Y-142753333D01*
X16578619Y-142753333D02*
X16626238Y-142610476D01*
X16626238Y-142610476D02*
X16673857Y-142562857D01*
X17578619Y-141610476D02*
X17578619Y-142181904D01*
X17578619Y-141896190D02*
X16578619Y-141896190D01*
X16578619Y-141896190D02*
X16721476Y-141991428D01*
X16721476Y-141991428D02*
X16816714Y-142086666D01*
X16816714Y-142086666D02*
X16864333Y-142181904D01*
X17007190Y-141039047D02*
X16959571Y-141134285D01*
X16959571Y-141134285D02*
X16911952Y-141181904D01*
X16911952Y-141181904D02*
X16816714Y-141229523D01*
X16816714Y-141229523D02*
X16769095Y-141229523D01*
X16769095Y-141229523D02*
X16673857Y-141181904D01*
X16673857Y-141181904D02*
X16626238Y-141134285D01*
X16626238Y-141134285D02*
X16578619Y-141039047D01*
X16578619Y-141039047D02*
X16578619Y-140848571D01*
X16578619Y-140848571D02*
X16626238Y-140753333D01*
X16626238Y-140753333D02*
X16673857Y-140705714D01*
X16673857Y-140705714D02*
X16769095Y-140658095D01*
X16769095Y-140658095D02*
X16816714Y-140658095D01*
X16816714Y-140658095D02*
X16911952Y-140705714D01*
X16911952Y-140705714D02*
X16959571Y-140753333D01*
X16959571Y-140753333D02*
X17007190Y-140848571D01*
X17007190Y-140848571D02*
X17007190Y-141039047D01*
X17007190Y-141039047D02*
X17054809Y-141134285D01*
X17054809Y-141134285D02*
X17102428Y-141181904D01*
X17102428Y-141181904D02*
X17197666Y-141229523D01*
X17197666Y-141229523D02*
X17388142Y-141229523D01*
X17388142Y-141229523D02*
X17483380Y-141181904D01*
X17483380Y-141181904D02*
X17531000Y-141134285D01*
X17531000Y-141134285D02*
X17578619Y-141039047D01*
X17578619Y-141039047D02*
X17578619Y-140848571D01*
X17578619Y-140848571D02*
X17531000Y-140753333D01*
X17531000Y-140753333D02*
X17483380Y-140705714D01*
X17483380Y-140705714D02*
X17388142Y-140658095D01*
X17388142Y-140658095D02*
X17197666Y-140658095D01*
X17197666Y-140658095D02*
X17102428Y-140705714D01*
X17102428Y-140705714D02*
X17054809Y-140753333D01*
X17054809Y-140753333D02*
X17007190Y-140848571D01*
X20185142Y-139813380D02*
X20137523Y-139861000D01*
X20137523Y-139861000D02*
X19994666Y-139908619D01*
X19994666Y-139908619D02*
X19899428Y-139908619D01*
X19899428Y-139908619D02*
X19756571Y-139861000D01*
X19756571Y-139861000D02*
X19661333Y-139765761D01*
X19661333Y-139765761D02*
X19613714Y-139670523D01*
X19613714Y-139670523D02*
X19566095Y-139480047D01*
X19566095Y-139480047D02*
X19566095Y-139337190D01*
X19566095Y-139337190D02*
X19613714Y-139146714D01*
X19613714Y-139146714D02*
X19661333Y-139051476D01*
X19661333Y-139051476D02*
X19756571Y-138956238D01*
X19756571Y-138956238D02*
X19899428Y-138908619D01*
X19899428Y-138908619D02*
X19994666Y-138908619D01*
X19994666Y-138908619D02*
X20137523Y-138956238D01*
X20137523Y-138956238D02*
X20185142Y-139003857D01*
X21137523Y-139908619D02*
X20566095Y-139908619D01*
X20851809Y-139908619D02*
X20851809Y-138908619D01*
X20851809Y-138908619D02*
X20756571Y-139051476D01*
X20756571Y-139051476D02*
X20661333Y-139146714D01*
X20661333Y-139146714D02*
X20566095Y-139194333D01*
X21613714Y-139908619D02*
X21804190Y-139908619D01*
X21804190Y-139908619D02*
X21899428Y-139861000D01*
X21899428Y-139861000D02*
X21947047Y-139813380D01*
X21947047Y-139813380D02*
X22042285Y-139670523D01*
X22042285Y-139670523D02*
X22089904Y-139480047D01*
X22089904Y-139480047D02*
X22089904Y-139099095D01*
X22089904Y-139099095D02*
X22042285Y-139003857D01*
X22042285Y-139003857D02*
X21994666Y-138956238D01*
X21994666Y-138956238D02*
X21899428Y-138908619D01*
X21899428Y-138908619D02*
X21708952Y-138908619D01*
X21708952Y-138908619D02*
X21613714Y-138956238D01*
X21613714Y-138956238D02*
X21566095Y-139003857D01*
X21566095Y-139003857D02*
X21518476Y-139099095D01*
X21518476Y-139099095D02*
X21518476Y-139337190D01*
X21518476Y-139337190D02*
X21566095Y-139432428D01*
X21566095Y-139432428D02*
X21613714Y-139480047D01*
X21613714Y-139480047D02*
X21708952Y-139527666D01*
X21708952Y-139527666D02*
X21899428Y-139527666D01*
X21899428Y-139527666D02*
X21994666Y-139480047D01*
X21994666Y-139480047D02*
X22042285Y-139432428D01*
X22042285Y-139432428D02*
X22089904Y-139337190D01*
X25005380Y-142562857D02*
X25053000Y-142610476D01*
X25053000Y-142610476D02*
X25100619Y-142753333D01*
X25100619Y-142753333D02*
X25100619Y-142848571D01*
X25100619Y-142848571D02*
X25053000Y-142991428D01*
X25053000Y-142991428D02*
X24957761Y-143086666D01*
X24957761Y-143086666D02*
X24862523Y-143134285D01*
X24862523Y-143134285D02*
X24672047Y-143181904D01*
X24672047Y-143181904D02*
X24529190Y-143181904D01*
X24529190Y-143181904D02*
X24338714Y-143134285D01*
X24338714Y-143134285D02*
X24243476Y-143086666D01*
X24243476Y-143086666D02*
X24148238Y-142991428D01*
X24148238Y-142991428D02*
X24100619Y-142848571D01*
X24100619Y-142848571D02*
X24100619Y-142753333D01*
X24100619Y-142753333D02*
X24148238Y-142610476D01*
X24148238Y-142610476D02*
X24195857Y-142562857D01*
X24195857Y-142181904D02*
X24148238Y-142134285D01*
X24148238Y-142134285D02*
X24100619Y-142039047D01*
X24100619Y-142039047D02*
X24100619Y-141800952D01*
X24100619Y-141800952D02*
X24148238Y-141705714D01*
X24148238Y-141705714D02*
X24195857Y-141658095D01*
X24195857Y-141658095D02*
X24291095Y-141610476D01*
X24291095Y-141610476D02*
X24386333Y-141610476D01*
X24386333Y-141610476D02*
X24529190Y-141658095D01*
X24529190Y-141658095D02*
X25100619Y-142229523D01*
X25100619Y-142229523D02*
X25100619Y-141610476D01*
X24100619Y-140991428D02*
X24100619Y-140896190D01*
X24100619Y-140896190D02*
X24148238Y-140800952D01*
X24148238Y-140800952D02*
X24195857Y-140753333D01*
X24195857Y-140753333D02*
X24291095Y-140705714D01*
X24291095Y-140705714D02*
X24481571Y-140658095D01*
X24481571Y-140658095D02*
X24719666Y-140658095D01*
X24719666Y-140658095D02*
X24910142Y-140705714D01*
X24910142Y-140705714D02*
X25005380Y-140753333D01*
X25005380Y-140753333D02*
X25053000Y-140800952D01*
X25053000Y-140800952D02*
X25100619Y-140896190D01*
X25100619Y-140896190D02*
X25100619Y-140991428D01*
X25100619Y-140991428D02*
X25053000Y-141086666D01*
X25053000Y-141086666D02*
X25005380Y-141134285D01*
X25005380Y-141134285D02*
X24910142Y-141181904D01*
X24910142Y-141181904D02*
X24719666Y-141229523D01*
X24719666Y-141229523D02*
X24481571Y-141229523D01*
X24481571Y-141229523D02*
X24291095Y-141181904D01*
X24291095Y-141181904D02*
X24195857Y-141134285D01*
X24195857Y-141134285D02*
X24148238Y-141086666D01*
X24148238Y-141086666D02*
X24100619Y-140991428D01*
X14144666Y-144242619D02*
X14144666Y-144956904D01*
X14144666Y-144956904D02*
X14097047Y-145099761D01*
X14097047Y-145099761D02*
X14001809Y-145195000D01*
X14001809Y-145195000D02*
X13858952Y-145242619D01*
X13858952Y-145242619D02*
X13763714Y-145242619D01*
X15144666Y-145242619D02*
X14573238Y-145242619D01*
X14858952Y-145242619D02*
X14858952Y-144242619D01*
X14858952Y-144242619D02*
X14763714Y-144385476D01*
X14763714Y-144385476D02*
X14668476Y-144480714D01*
X14668476Y-144480714D02*
X14573238Y-144528333D01*
D12*
X21669526Y-100215095D02*
X20399526Y-100215095D01*
X20399526Y-100215095D02*
X21306669Y-99791761D01*
X21306669Y-99791761D02*
X20399526Y-99368428D01*
X20399526Y-99368428D02*
X21669526Y-99368428D01*
X21669526Y-98763666D02*
X20399526Y-98763666D01*
X21669526Y-98037951D02*
X20943811Y-98582237D01*
X20399526Y-98037951D02*
X21125240Y-98763666D01*
X21669526Y-96828427D02*
X21669526Y-97554142D01*
X21669526Y-97191285D02*
X20399526Y-97191285D01*
X20399526Y-97191285D02*
X20580954Y-97312237D01*
X20580954Y-97312237D02*
X20701907Y-97433189D01*
X20701907Y-97433189D02*
X20762383Y-97554142D01*
X21669526Y-111899095D02*
X20399526Y-111899095D01*
X20399526Y-111899095D02*
X21306669Y-111475761D01*
X21306669Y-111475761D02*
X20399526Y-111052428D01*
X20399526Y-111052428D02*
X21669526Y-111052428D01*
X21669526Y-110447666D02*
X20399526Y-110447666D01*
X21669526Y-109721951D02*
X20943811Y-110266237D01*
X20399526Y-109721951D02*
X21125240Y-110447666D01*
X20520478Y-109238142D02*
X20460002Y-109177666D01*
X20460002Y-109177666D02*
X20399526Y-109056713D01*
X20399526Y-109056713D02*
X20399526Y-108754332D01*
X20399526Y-108754332D02*
X20460002Y-108633380D01*
X20460002Y-108633380D02*
X20520478Y-108572904D01*
X20520478Y-108572904D02*
X20641430Y-108512427D01*
X20641430Y-108512427D02*
X20762383Y-108512427D01*
X20762383Y-108512427D02*
X20943811Y-108572904D01*
X20943811Y-108572904D02*
X21669526Y-109298618D01*
X21669526Y-109298618D02*
X21669526Y-108512427D01*
D10*
X38623642Y-107651619D02*
X38290309Y-107175428D01*
X38052214Y-107651619D02*
X38052214Y-106651619D01*
X38052214Y-106651619D02*
X38433166Y-106651619D01*
X38433166Y-106651619D02*
X38528404Y-106699238D01*
X38528404Y-106699238D02*
X38576023Y-106746857D01*
X38576023Y-106746857D02*
X38623642Y-106842095D01*
X38623642Y-106842095D02*
X38623642Y-106984952D01*
X38623642Y-106984952D02*
X38576023Y-107080190D01*
X38576023Y-107080190D02*
X38528404Y-107127809D01*
X38528404Y-107127809D02*
X38433166Y-107175428D01*
X38433166Y-107175428D02*
X38052214Y-107175428D01*
X39576023Y-107651619D02*
X39004595Y-107651619D01*
X39290309Y-107651619D02*
X39290309Y-106651619D01*
X39290309Y-106651619D02*
X39195071Y-106794476D01*
X39195071Y-106794476D02*
X39099833Y-106889714D01*
X39099833Y-106889714D02*
X39004595Y-106937333D01*
X40480785Y-106651619D02*
X40004595Y-106651619D01*
X40004595Y-106651619D02*
X39956976Y-107127809D01*
X39956976Y-107127809D02*
X40004595Y-107080190D01*
X40004595Y-107080190D02*
X40099833Y-107032571D01*
X40099833Y-107032571D02*
X40337928Y-107032571D01*
X40337928Y-107032571D02*
X40433166Y-107080190D01*
X40433166Y-107080190D02*
X40480785Y-107127809D01*
X40480785Y-107127809D02*
X40528404Y-107223047D01*
X40528404Y-107223047D02*
X40528404Y-107461142D01*
X40528404Y-107461142D02*
X40480785Y-107556380D01*
X40480785Y-107556380D02*
X40433166Y-107604000D01*
X40433166Y-107604000D02*
X40337928Y-107651619D01*
X40337928Y-107651619D02*
X40099833Y-107651619D01*
X40099833Y-107651619D02*
X40004595Y-107604000D01*
X40004595Y-107604000D02*
X39956976Y-107556380D01*
X50936000Y-144589332D02*
X50983619Y-144446475D01*
X50983619Y-144446475D02*
X50983619Y-144208380D01*
X50983619Y-144208380D02*
X50936000Y-144113142D01*
X50936000Y-144113142D02*
X50888380Y-144065523D01*
X50888380Y-144065523D02*
X50793142Y-144017904D01*
X50793142Y-144017904D02*
X50697904Y-144017904D01*
X50697904Y-144017904D02*
X50602666Y-144065523D01*
X50602666Y-144065523D02*
X50555047Y-144113142D01*
X50555047Y-144113142D02*
X50507428Y-144208380D01*
X50507428Y-144208380D02*
X50459809Y-144398856D01*
X50459809Y-144398856D02*
X50412190Y-144494094D01*
X50412190Y-144494094D02*
X50364571Y-144541713D01*
X50364571Y-144541713D02*
X50269333Y-144589332D01*
X50269333Y-144589332D02*
X50174095Y-144589332D01*
X50174095Y-144589332D02*
X50078857Y-144541713D01*
X50078857Y-144541713D02*
X50031238Y-144494094D01*
X50031238Y-144494094D02*
X49983619Y-144398856D01*
X49983619Y-144398856D02*
X49983619Y-144160761D01*
X49983619Y-144160761D02*
X50031238Y-144017904D01*
X49983619Y-143684570D02*
X50983619Y-143446475D01*
X50983619Y-143446475D02*
X50269333Y-143255999D01*
X50269333Y-143255999D02*
X50983619Y-143065523D01*
X50983619Y-143065523D02*
X49983619Y-142827428D01*
X50983619Y-141922666D02*
X50983619Y-142494094D01*
X50983619Y-142208380D02*
X49983619Y-142208380D01*
X49983619Y-142208380D02*
X50126476Y-142303618D01*
X50126476Y-142303618D02*
X50221714Y-142398856D01*
X50221714Y-142398856D02*
X50269333Y-142494094D01*
X5334095Y-144036619D02*
X5334095Y-143036619D01*
X5334095Y-143512809D02*
X5905523Y-143512809D01*
X5905523Y-144036619D02*
X5905523Y-143036619D01*
X6905523Y-144036619D02*
X6334095Y-144036619D01*
X6619809Y-144036619D02*
X6619809Y-143036619D01*
X6619809Y-143036619D02*
X6524571Y-143179476D01*
X6524571Y-143179476D02*
X6429333Y-143274714D01*
X6429333Y-143274714D02*
X6334095Y-143322333D01*
X5334095Y-111270619D02*
X5334095Y-110270619D01*
X5334095Y-110746809D02*
X5905523Y-110746809D01*
X5905523Y-111270619D02*
X5905523Y-110270619D01*
X6334095Y-110365857D02*
X6381714Y-110318238D01*
X6381714Y-110318238D02*
X6476952Y-110270619D01*
X6476952Y-110270619D02*
X6715047Y-110270619D01*
X6715047Y-110270619D02*
X6810285Y-110318238D01*
X6810285Y-110318238D02*
X6857904Y-110365857D01*
X6857904Y-110365857D02*
X6905523Y-110461095D01*
X6905523Y-110461095D02*
X6905523Y-110556333D01*
X6905523Y-110556333D02*
X6857904Y-110699190D01*
X6857904Y-110699190D02*
X6286476Y-111270619D01*
X6286476Y-111270619D02*
X6905523Y-111270619D01*
X49022095Y-111270619D02*
X49022095Y-110270619D01*
X49022095Y-110746809D02*
X49593523Y-110746809D01*
X49593523Y-111270619D02*
X49593523Y-110270619D01*
X49974476Y-110270619D02*
X50593523Y-110270619D01*
X50593523Y-110270619D02*
X50260190Y-110651571D01*
X50260190Y-110651571D02*
X50403047Y-110651571D01*
X50403047Y-110651571D02*
X50498285Y-110699190D01*
X50498285Y-110699190D02*
X50545904Y-110746809D01*
X50545904Y-110746809D02*
X50593523Y-110842047D01*
X50593523Y-110842047D02*
X50593523Y-111080142D01*
X50593523Y-111080142D02*
X50545904Y-111175380D01*
X50545904Y-111175380D02*
X50498285Y-111223000D01*
X50498285Y-111223000D02*
X50403047Y-111270619D01*
X50403047Y-111270619D02*
X50117333Y-111270619D01*
X50117333Y-111270619D02*
X50022095Y-111223000D01*
X50022095Y-111223000D02*
X49974476Y-111175380D01*
X16782380Y-128851857D02*
X16830000Y-128899476D01*
X16830000Y-128899476D02*
X16877619Y-129042333D01*
X16877619Y-129042333D02*
X16877619Y-129137571D01*
X16877619Y-129137571D02*
X16830000Y-129280428D01*
X16830000Y-129280428D02*
X16734761Y-129375666D01*
X16734761Y-129375666D02*
X16639523Y-129423285D01*
X16639523Y-129423285D02*
X16449047Y-129470904D01*
X16449047Y-129470904D02*
X16306190Y-129470904D01*
X16306190Y-129470904D02*
X16115714Y-129423285D01*
X16115714Y-129423285D02*
X16020476Y-129375666D01*
X16020476Y-129375666D02*
X15925238Y-129280428D01*
X15925238Y-129280428D02*
X15877619Y-129137571D01*
X15877619Y-129137571D02*
X15877619Y-129042333D01*
X15877619Y-129042333D02*
X15925238Y-128899476D01*
X15925238Y-128899476D02*
X15972857Y-128851857D01*
X15972857Y-128470904D02*
X15925238Y-128423285D01*
X15925238Y-128423285D02*
X15877619Y-128328047D01*
X15877619Y-128328047D02*
X15877619Y-128089952D01*
X15877619Y-128089952D02*
X15925238Y-127994714D01*
X15925238Y-127994714D02*
X15972857Y-127947095D01*
X15972857Y-127947095D02*
X16068095Y-127899476D01*
X16068095Y-127899476D02*
X16163333Y-127899476D01*
X16163333Y-127899476D02*
X16306190Y-127947095D01*
X16306190Y-127947095D02*
X16877619Y-128518523D01*
X16877619Y-128518523D02*
X16877619Y-127899476D01*
X16877619Y-126947095D02*
X16877619Y-127518523D01*
X16877619Y-127232809D02*
X15877619Y-127232809D01*
X15877619Y-127232809D02*
X16020476Y-127328047D01*
X16020476Y-127328047D02*
X16115714Y-127423285D01*
X16115714Y-127423285D02*
X16163333Y-127518523D01*
X36038619Y-112267904D02*
X36848142Y-112267904D01*
X36848142Y-112267904D02*
X36943380Y-112220285D01*
X36943380Y-112220285D02*
X36991000Y-112172666D01*
X36991000Y-112172666D02*
X37038619Y-112077428D01*
X37038619Y-112077428D02*
X37038619Y-111886952D01*
X37038619Y-111886952D02*
X36991000Y-111791714D01*
X36991000Y-111791714D02*
X36943380Y-111744095D01*
X36943380Y-111744095D02*
X36848142Y-111696476D01*
X36848142Y-111696476D02*
X36038619Y-111696476D01*
X36371952Y-110791714D02*
X37038619Y-110791714D01*
X35991000Y-111029809D02*
X36705285Y-111267904D01*
X36705285Y-111267904D02*
X36705285Y-110648857D01*
X36695142Y-116953380D02*
X36647523Y-117001000D01*
X36647523Y-117001000D02*
X36504666Y-117048619D01*
X36504666Y-117048619D02*
X36409428Y-117048619D01*
X36409428Y-117048619D02*
X36266571Y-117001000D01*
X36266571Y-117001000D02*
X36171333Y-116905761D01*
X36171333Y-116905761D02*
X36123714Y-116810523D01*
X36123714Y-116810523D02*
X36076095Y-116620047D01*
X36076095Y-116620047D02*
X36076095Y-116477190D01*
X36076095Y-116477190D02*
X36123714Y-116286714D01*
X36123714Y-116286714D02*
X36171333Y-116191476D01*
X36171333Y-116191476D02*
X36266571Y-116096238D01*
X36266571Y-116096238D02*
X36409428Y-116048619D01*
X36409428Y-116048619D02*
X36504666Y-116048619D01*
X36504666Y-116048619D02*
X36647523Y-116096238D01*
X36647523Y-116096238D02*
X36695142Y-116143857D01*
X37647523Y-117048619D02*
X37076095Y-117048619D01*
X37361809Y-117048619D02*
X37361809Y-116048619D01*
X37361809Y-116048619D02*
X37266571Y-116191476D01*
X37266571Y-116191476D02*
X37171333Y-116286714D01*
X37171333Y-116286714D02*
X37076095Y-116334333D01*
X38552285Y-116048619D02*
X38076095Y-116048619D01*
X38076095Y-116048619D02*
X38028476Y-116524809D01*
X38028476Y-116524809D02*
X38076095Y-116477190D01*
X38076095Y-116477190D02*
X38171333Y-116429571D01*
X38171333Y-116429571D02*
X38409428Y-116429571D01*
X38409428Y-116429571D02*
X38504666Y-116477190D01*
X38504666Y-116477190D02*
X38552285Y-116524809D01*
X38552285Y-116524809D02*
X38599904Y-116620047D01*
X38599904Y-116620047D02*
X38599904Y-116858142D01*
X38599904Y-116858142D02*
X38552285Y-116953380D01*
X38552285Y-116953380D02*
X38504666Y-117001000D01*
X38504666Y-117001000D02*
X38409428Y-117048619D01*
X38409428Y-117048619D02*
X38171333Y-117048619D01*
X38171333Y-117048619D02*
X38076095Y-117001000D01*
X38076095Y-117001000D02*
X38028476Y-116953380D01*
X16883142Y-123049380D02*
X16835523Y-123097000D01*
X16835523Y-123097000D02*
X16692666Y-123144619D01*
X16692666Y-123144619D02*
X16597428Y-123144619D01*
X16597428Y-123144619D02*
X16454571Y-123097000D01*
X16454571Y-123097000D02*
X16359333Y-123001761D01*
X16359333Y-123001761D02*
X16311714Y-122906523D01*
X16311714Y-122906523D02*
X16264095Y-122716047D01*
X16264095Y-122716047D02*
X16264095Y-122573190D01*
X16264095Y-122573190D02*
X16311714Y-122382714D01*
X16311714Y-122382714D02*
X16359333Y-122287476D01*
X16359333Y-122287476D02*
X16454571Y-122192238D01*
X16454571Y-122192238D02*
X16597428Y-122144619D01*
X16597428Y-122144619D02*
X16692666Y-122144619D01*
X16692666Y-122144619D02*
X16835523Y-122192238D01*
X16835523Y-122192238D02*
X16883142Y-122239857D01*
X17264095Y-122239857D02*
X17311714Y-122192238D01*
X17311714Y-122192238D02*
X17406952Y-122144619D01*
X17406952Y-122144619D02*
X17645047Y-122144619D01*
X17645047Y-122144619D02*
X17740285Y-122192238D01*
X17740285Y-122192238D02*
X17787904Y-122239857D01*
X17787904Y-122239857D02*
X17835523Y-122335095D01*
X17835523Y-122335095D02*
X17835523Y-122430333D01*
X17835523Y-122430333D02*
X17787904Y-122573190D01*
X17787904Y-122573190D02*
X17216476Y-123144619D01*
X17216476Y-123144619D02*
X17835523Y-123144619D01*
X18692666Y-122477952D02*
X18692666Y-123144619D01*
X18454571Y-122097000D02*
X18216476Y-122811285D01*
X18216476Y-122811285D02*
X18835523Y-122811285D01*
X19078619Y-136960594D02*
X18078619Y-136960594D01*
X18078619Y-136960594D02*
X18078619Y-136722499D01*
X18078619Y-136722499D02*
X18126238Y-136579642D01*
X18126238Y-136579642D02*
X18221476Y-136484404D01*
X18221476Y-136484404D02*
X18316714Y-136436785D01*
X18316714Y-136436785D02*
X18507190Y-136389166D01*
X18507190Y-136389166D02*
X18650047Y-136389166D01*
X18650047Y-136389166D02*
X18840523Y-136436785D01*
X18840523Y-136436785D02*
X18935761Y-136484404D01*
X18935761Y-136484404D02*
X19031000Y-136579642D01*
X19031000Y-136579642D02*
X19078619Y-136722499D01*
X19078619Y-136722499D02*
X19078619Y-136960594D01*
X19078619Y-135436785D02*
X19078619Y-136008213D01*
X19078619Y-135722499D02*
X18078619Y-135722499D01*
X18078619Y-135722499D02*
X18221476Y-135817737D01*
X18221476Y-135817737D02*
X18316714Y-135912975D01*
X18316714Y-135912975D02*
X18364333Y-136008213D01*
X44403619Y-111386857D02*
X43927428Y-111720190D01*
X44403619Y-111958285D02*
X43403619Y-111958285D01*
X43403619Y-111958285D02*
X43403619Y-111577333D01*
X43403619Y-111577333D02*
X43451238Y-111482095D01*
X43451238Y-111482095D02*
X43498857Y-111434476D01*
X43498857Y-111434476D02*
X43594095Y-111386857D01*
X43594095Y-111386857D02*
X43736952Y-111386857D01*
X43736952Y-111386857D02*
X43832190Y-111434476D01*
X43832190Y-111434476D02*
X43879809Y-111482095D01*
X43879809Y-111482095D02*
X43927428Y-111577333D01*
X43927428Y-111577333D02*
X43927428Y-111958285D01*
X44403619Y-110434476D02*
X44403619Y-111005904D01*
X44403619Y-110720190D02*
X43403619Y-110720190D01*
X43403619Y-110720190D02*
X43546476Y-110815428D01*
X43546476Y-110815428D02*
X43641714Y-110910666D01*
X43641714Y-110910666D02*
X43689333Y-111005904D01*
X43403619Y-109577333D02*
X43403619Y-109767809D01*
X43403619Y-109767809D02*
X43451238Y-109863047D01*
X43451238Y-109863047D02*
X43498857Y-109910666D01*
X43498857Y-109910666D02*
X43641714Y-110005904D01*
X43641714Y-110005904D02*
X43832190Y-110053523D01*
X43832190Y-110053523D02*
X44213142Y-110053523D01*
X44213142Y-110053523D02*
X44308380Y-110005904D01*
X44308380Y-110005904D02*
X44356000Y-109958285D01*
X44356000Y-109958285D02*
X44403619Y-109863047D01*
X44403619Y-109863047D02*
X44403619Y-109672571D01*
X44403619Y-109672571D02*
X44356000Y-109577333D01*
X44356000Y-109577333D02*
X44308380Y-109529714D01*
X44308380Y-109529714D02*
X44213142Y-109482095D01*
X44213142Y-109482095D02*
X43975047Y-109482095D01*
X43975047Y-109482095D02*
X43879809Y-109529714D01*
X43879809Y-109529714D02*
X43832190Y-109577333D01*
X43832190Y-109577333D02*
X43784571Y-109672571D01*
X43784571Y-109672571D02*
X43784571Y-109863047D01*
X43784571Y-109863047D02*
X43832190Y-109958285D01*
X43832190Y-109958285D02*
X43879809Y-110005904D01*
X43879809Y-110005904D02*
X43975047Y-110053523D01*
X16883142Y-124573380D02*
X16835523Y-124621000D01*
X16835523Y-124621000D02*
X16692666Y-124668619D01*
X16692666Y-124668619D02*
X16597428Y-124668619D01*
X16597428Y-124668619D02*
X16454571Y-124621000D01*
X16454571Y-124621000D02*
X16359333Y-124525761D01*
X16359333Y-124525761D02*
X16311714Y-124430523D01*
X16311714Y-124430523D02*
X16264095Y-124240047D01*
X16264095Y-124240047D02*
X16264095Y-124097190D01*
X16264095Y-124097190D02*
X16311714Y-123906714D01*
X16311714Y-123906714D02*
X16359333Y-123811476D01*
X16359333Y-123811476D02*
X16454571Y-123716238D01*
X16454571Y-123716238D02*
X16597428Y-123668619D01*
X16597428Y-123668619D02*
X16692666Y-123668619D01*
X16692666Y-123668619D02*
X16835523Y-123716238D01*
X16835523Y-123716238D02*
X16883142Y-123763857D01*
X17264095Y-123763857D02*
X17311714Y-123716238D01*
X17311714Y-123716238D02*
X17406952Y-123668619D01*
X17406952Y-123668619D02*
X17645047Y-123668619D01*
X17645047Y-123668619D02*
X17740285Y-123716238D01*
X17740285Y-123716238D02*
X17787904Y-123763857D01*
X17787904Y-123763857D02*
X17835523Y-123859095D01*
X17835523Y-123859095D02*
X17835523Y-123954333D01*
X17835523Y-123954333D02*
X17787904Y-124097190D01*
X17787904Y-124097190D02*
X17216476Y-124668619D01*
X17216476Y-124668619D02*
X17835523Y-124668619D01*
X18168857Y-123668619D02*
X18787904Y-123668619D01*
X18787904Y-123668619D02*
X18454571Y-124049571D01*
X18454571Y-124049571D02*
X18597428Y-124049571D01*
X18597428Y-124049571D02*
X18692666Y-124097190D01*
X18692666Y-124097190D02*
X18740285Y-124144809D01*
X18740285Y-124144809D02*
X18787904Y-124240047D01*
X18787904Y-124240047D02*
X18787904Y-124478142D01*
X18787904Y-124478142D02*
X18740285Y-124573380D01*
X18740285Y-124573380D02*
X18692666Y-124621000D01*
X18692666Y-124621000D02*
X18597428Y-124668619D01*
X18597428Y-124668619D02*
X18311714Y-124668619D01*
X18311714Y-124668619D02*
X18216476Y-124621000D01*
X18216476Y-124621000D02*
X18168857Y-124573380D01*
X20433380Y-132214857D02*
X20481000Y-132262476D01*
X20481000Y-132262476D02*
X20528619Y-132405333D01*
X20528619Y-132405333D02*
X20528619Y-132500571D01*
X20528619Y-132500571D02*
X20481000Y-132643428D01*
X20481000Y-132643428D02*
X20385761Y-132738666D01*
X20385761Y-132738666D02*
X20290523Y-132786285D01*
X20290523Y-132786285D02*
X20100047Y-132833904D01*
X20100047Y-132833904D02*
X19957190Y-132833904D01*
X19957190Y-132833904D02*
X19766714Y-132786285D01*
X19766714Y-132786285D02*
X19671476Y-132738666D01*
X19671476Y-132738666D02*
X19576238Y-132643428D01*
X19576238Y-132643428D02*
X19528619Y-132500571D01*
X19528619Y-132500571D02*
X19528619Y-132405333D01*
X19528619Y-132405333D02*
X19576238Y-132262476D01*
X19576238Y-132262476D02*
X19623857Y-132214857D01*
X19623857Y-131833904D02*
X19576238Y-131786285D01*
X19576238Y-131786285D02*
X19528619Y-131691047D01*
X19528619Y-131691047D02*
X19528619Y-131452952D01*
X19528619Y-131452952D02*
X19576238Y-131357714D01*
X19576238Y-131357714D02*
X19623857Y-131310095D01*
X19623857Y-131310095D02*
X19719095Y-131262476D01*
X19719095Y-131262476D02*
X19814333Y-131262476D01*
X19814333Y-131262476D02*
X19957190Y-131310095D01*
X19957190Y-131310095D02*
X20528619Y-131881523D01*
X20528619Y-131881523D02*
X20528619Y-131262476D01*
X19623857Y-130881523D02*
X19576238Y-130833904D01*
X19576238Y-130833904D02*
X19528619Y-130738666D01*
X19528619Y-130738666D02*
X19528619Y-130500571D01*
X19528619Y-130500571D02*
X19576238Y-130405333D01*
X19576238Y-130405333D02*
X19623857Y-130357714D01*
X19623857Y-130357714D02*
X19719095Y-130310095D01*
X19719095Y-130310095D02*
X19814333Y-130310095D01*
X19814333Y-130310095D02*
X19957190Y-130357714D01*
X19957190Y-130357714D02*
X20528619Y-130929142D01*
X20528619Y-130929142D02*
X20528619Y-130310095D01*
X24862619Y-128645404D02*
X25672142Y-128645404D01*
X25672142Y-128645404D02*
X25767380Y-128597785D01*
X25767380Y-128597785D02*
X25815000Y-128550166D01*
X25815000Y-128550166D02*
X25862619Y-128454928D01*
X25862619Y-128454928D02*
X25862619Y-128264452D01*
X25862619Y-128264452D02*
X25815000Y-128169214D01*
X25815000Y-128169214D02*
X25767380Y-128121595D01*
X25767380Y-128121595D02*
X25672142Y-128073976D01*
X25672142Y-128073976D02*
X24862619Y-128073976D01*
X24862619Y-127121595D02*
X24862619Y-127597785D01*
X24862619Y-127597785D02*
X25338809Y-127645404D01*
X25338809Y-127645404D02*
X25291190Y-127597785D01*
X25291190Y-127597785D02*
X25243571Y-127502547D01*
X25243571Y-127502547D02*
X25243571Y-127264452D01*
X25243571Y-127264452D02*
X25291190Y-127169214D01*
X25291190Y-127169214D02*
X25338809Y-127121595D01*
X25338809Y-127121595D02*
X25434047Y-127073976D01*
X25434047Y-127073976D02*
X25672142Y-127073976D01*
X25672142Y-127073976D02*
X25767380Y-127121595D01*
X25767380Y-127121595D02*
X25815000Y-127169214D01*
X25815000Y-127169214D02*
X25862619Y-127264452D01*
X25862619Y-127264452D02*
X25862619Y-127502547D01*
X25862619Y-127502547D02*
X25815000Y-127597785D01*
X25815000Y-127597785D02*
X25767380Y-127645404D01*
D13*
X51539000Y-125641000D02*
X51549000Y-128041000D01*
X50359000Y-125641000D02*
X51539000Y-125641000D01*
X47439000Y-125641000D02*
X47969000Y-125641000D01*
X44989000Y-125641000D02*
X45819000Y-125641000D01*
X41779000Y-125641000D02*
X43269000Y-125641000D01*
X41779000Y-125641000D02*
X41779000Y-128041000D01*
X51519000Y-135641000D02*
X51519000Y-137311000D01*
X41779000Y-135641000D02*
X41779000Y-137311000D01*
X41779000Y-137311000D02*
X51519000Y-137311000D01*
D11*
X35460000Y-155250000D02*
X35460000Y-155250000D01*
X35660000Y-155250000D02*
X35660000Y-155250000D01*
D14*
X31560000Y-152400000D02*
X39560000Y-152400000D01*
X29560000Y-147200000D02*
X29560000Y-144200000D01*
X41560000Y-147200000D02*
X41560000Y-144200000D01*
X29560000Y-141200000D02*
X29560000Y-140700000D01*
X29560000Y-140700000D02*
X41560000Y-140700000D01*
X41560000Y-140700000D02*
X41560000Y-141200000D01*
D11*
X35660000Y-155250000D02*
G75*
G03*
X35460000Y-155250000I-100000J0D01*
G01*
X35460000Y-155250000D02*
G75*
G03*
X35660000Y-155250000I100000J0D01*
G01*
D13*
X42791748Y-107215000D02*
X43314252Y-107215000D01*
X42791748Y-108685000D02*
X43314252Y-108685000D01*
X40124748Y-113692000D02*
X40647252Y-113692000D01*
X40124748Y-115162000D02*
X40647252Y-115162000D01*
X18061000Y-142181252D02*
X18061000Y-141658748D01*
X19531000Y-142181252D02*
X19531000Y-141658748D01*
X20093000Y-142181252D02*
X20093000Y-141658748D01*
X21563000Y-142181252D02*
X21563000Y-141658748D01*
X22125000Y-142181252D02*
X22125000Y-141658748D01*
X23595000Y-142181252D02*
X23595000Y-141658748D01*
X16160000Y-147180000D02*
X16160000Y-148080000D01*
X16160000Y-150780000D02*
X16160000Y-153510000D01*
X16160000Y-153510000D02*
X25350000Y-153510000D01*
X16280000Y-144100000D02*
X25230000Y-144100000D01*
X25350000Y-147180000D02*
X25350000Y-148080000D01*
X25350000Y-150780000D02*
X25350000Y-153510000D01*
D14*
X27972000Y-93702000D02*
X27972000Y-93702000D01*
X27972000Y-103402000D02*
X27972000Y-103402000D01*
X27972000Y-103402000D02*
G75*
G03*
X27972000Y-93702000I0J4850000D01*
G01*
X27972000Y-93702000D02*
G75*
G03*
X27972000Y-103402000I0J-4850000D01*
G01*
X27972000Y-105640000D02*
X27972000Y-105640000D01*
X27972000Y-115340000D02*
X27972000Y-115340000D01*
X27972000Y-115340000D02*
G75*
G03*
X27972000Y-105640000I0J4850000D01*
G01*
X27972000Y-105640000D02*
G75*
G03*
X27972000Y-115340000I0J-4850000D01*
G01*
D13*
X39039436Y-108104000D02*
X39493564Y-108104000D01*
X39039436Y-109574000D02*
X39493564Y-109574000D01*
X53651000Y-149627000D02*
X54441000Y-149627000D01*
X55451000Y-149027000D02*
X55451000Y-143327000D01*
X52601000Y-147777000D02*
X52601000Y-146077000D01*
X55451000Y-147577000D02*
X56741000Y-147577000D01*
X56741000Y-147577000D02*
X56951000Y-147377000D01*
X56951000Y-147377000D02*
X56951000Y-146477000D01*
X56741000Y-146277000D02*
X56951000Y-146477000D01*
X56741000Y-146277000D02*
X55451000Y-146277000D01*
X52601000Y-144777000D02*
X52601000Y-144577000D01*
X54441000Y-142727000D02*
X53651000Y-142727000D01*
X17360000Y-128470252D02*
X17360000Y-127947748D01*
X18830000Y-128470252D02*
X18830000Y-127947748D01*
X39237500Y-113132000D02*
X41037500Y-113132000D01*
X39237500Y-113132000D02*
X38437500Y-113132000D01*
X39237500Y-110012000D02*
X40037500Y-110012000D01*
X39237500Y-110012000D02*
X38437500Y-110012000D01*
X40185748Y-115724000D02*
X40708252Y-115724000D01*
X40185748Y-117194000D02*
X40708252Y-117194000D01*
X21023252Y-123417000D02*
X20500748Y-123417000D01*
X21023252Y-121947000D02*
X20500748Y-121947000D01*
X19456000Y-136222500D02*
X19456000Y-137897500D01*
X19456000Y-136222500D02*
X19456000Y-135572500D01*
X22576000Y-136222500D02*
X22576000Y-136872500D01*
X22576000Y-136222500D02*
X22576000Y-135572500D01*
X43026000Y-110516936D02*
X43026000Y-110971064D01*
X41556000Y-110516936D02*
X41556000Y-110971064D01*
X21023252Y-125449000D02*
X20500748Y-125449000D01*
X21023252Y-123979000D02*
X20500748Y-123979000D01*
X19392000Y-128531252D02*
X19392000Y-128008748D01*
X20862000Y-128531252D02*
X20862000Y-128008748D01*
X21300000Y-127883500D02*
X21300000Y-129683500D01*
X21300000Y-127883500D02*
X21300000Y-127083500D01*
X24420000Y-127883500D02*
X24420000Y-128683500D01*
X24420000Y-127883500D02*
X24420000Y-127083500D01*
M02*
