M48
; DRILL file {KiCad (5.1.10)-1} date 06/20/22 16:08:21
; FORMAT={-:-/ absolute / metric / decimal}
; #@! TF.CreationDate,2022-06-20T16:08:21+02:00
; #@! TF.GenerationSoftware,Kicad,Pcbnew,(5.1.10)-1
; #@! TF.FileFunction,Plated,1,2,PTH
FMAT,2
METRIC
T1C0.400
T2C0.600
T3C0.890
T4C1.000
T5C1.700
T6C1.800
%
G90
G05
T1
X15.24Y15.24
X15.93Y21.29
X16.51Y15.24
X17.78Y8.89
X17.78Y7.54
X18.63Y8.89
X18.63Y7.54
X18.959Y12.748
X19.48Y8.89
X19.48Y7.54
X20.32Y15.24
X20.33Y8.89
X20.33Y7.54
X21.18Y8.89
X21.18Y7.54
X21.572Y17.516
X21.59Y15.24
X22.03Y8.89
X22.03Y7.54
X22.297Y34.305
X22.86Y15.24
X22.88Y8.89
X22.88Y7.54
X23.73Y8.89
X23.73Y7.54
X25.4Y21.59
X25.4Y20.32
X25.4Y19.05
X31.27Y16.322
X33.02Y38.1
X34.29Y38.1
X35.56Y38.1
X37.894Y37.221
X38.316Y17.821
X39.586Y17.821
X40.856Y17.821
X44.958Y14.732
X46.248Y48.016
X46.736Y19.812
X50.157Y20.526
T3
X29.972Y56.388
X29.972Y53.848
X29.972Y44.45
X29.972Y41.91
T4
X46.482Y24.13
X48.982Y24.13
X51.482Y24.13
T5
X30.56Y10.77
X33.56Y10.77
X35.56Y5.77
X37.56Y10.77
X40.56Y10.77
T6
X44.182Y31.63
X53.782Y31.63
T2
G00X16.43Y8.66
M15
G01X16.43Y7.16
M16
G05
G00X16.43Y4.93
M15
G01X16.43Y4.13
M16
G05
G00X25.08Y8.66
M15
G01X25.08Y7.16
M16
G05
G00X25.08Y4.93
M15
G01X25.08Y4.13
M16
G05
T0
M30
