G04 #@! TF.GenerationSoftware,KiCad,Pcbnew,7.0.1*
G04 #@! TF.CreationDate,2023-03-23T18:13:04+01:00*
G04 #@! TF.ProjectId,Project_Gmic,50726f6a-6563-4745-9f47-6d69632e6b69,V1.1*
G04 #@! TF.SameCoordinates,Original*
G04 #@! TF.FileFunction,Copper,L1,Top*
G04 #@! TF.FilePolarity,Positive*
%FSLAX46Y46*%
G04 Gerber Fmt 4.6, Leading zero omitted, Abs format (unit mm)*
G04 Created by KiCad (PCBNEW 7.0.1) date 2023-03-23 18:13:04*
%MOMM*%
%LPD*%
G01*
G04 APERTURE LIST*
G04 Aperture macros list*
%AMRoundRect*
0 Rectangle with rounded corners*
0 $1 Rounding radius*
0 $2 $3 $4 $5 $6 $7 $8 $9 X,Y pos of 4 corners*
0 Add a 4 corners polygon primitive as box body*
4,1,4,$2,$3,$4,$5,$6,$7,$8,$9,$2,$3,0*
0 Add four circle primitives for the rounded corners*
1,1,$1+$1,$2,$3*
1,1,$1+$1,$4,$5*
1,1,$1+$1,$6,$7*
1,1,$1+$1,$8,$9*
0 Add four rect primitives between the rounded corners*
20,1,$1+$1,$2,$3,$4,$5,0*
20,1,$1+$1,$4,$5,$6,$7,0*
20,1,$1+$1,$6,$7,$8,$9,0*
20,1,$1+$1,$8,$9,$2,$3,0*%
G04 Aperture macros list end*
%ADD10C,0.300000*%
G04 #@! TA.AperFunction,NonConductor*
%ADD11C,0.300000*%
G04 #@! TD*
G04 #@! TA.AperFunction,ComponentPad*
%ADD12O,3.100000X3.500000*%
G04 #@! TD*
G04 #@! TA.AperFunction,ComponentPad*
%ADD13R,1.800000X1.800000*%
G04 #@! TD*
G04 #@! TA.AperFunction,ComponentPad*
%ADD14O,1.800000X1.800000*%
G04 #@! TD*
G04 #@! TA.AperFunction,ComponentPad*
%ADD15C,2.550000*%
G04 #@! TD*
G04 #@! TA.AperFunction,ComponentPad*
%ADD16C,2.400000*%
G04 #@! TD*
G04 #@! TA.AperFunction,SMDPad,CuDef*
%ADD17RoundRect,0.250000X-0.250000X-0.475000X0.250000X-0.475000X0.250000X0.475000X-0.250000X0.475000X0*%
G04 #@! TD*
G04 #@! TA.AperFunction,SMDPad,CuDef*
%ADD18RoundRect,0.250000X0.475000X-0.250000X0.475000X0.250000X-0.475000X0.250000X-0.475000X-0.250000X0*%
G04 #@! TD*
G04 #@! TA.AperFunction,ComponentPad*
%ADD19C,0.700000*%
G04 #@! TD*
G04 #@! TA.AperFunction,ComponentPad*
%ADD20O,0.900000X2.400000*%
G04 #@! TD*
G04 #@! TA.AperFunction,ComponentPad*
%ADD21O,0.900000X1.700000*%
G04 #@! TD*
G04 #@! TA.AperFunction,ComponentPad*
%ADD22R,1.446000X1.446000*%
G04 #@! TD*
G04 #@! TA.AperFunction,ComponentPad*
%ADD23C,1.446000*%
G04 #@! TD*
G04 #@! TA.AperFunction,SMDPad,CuDef*
%ADD24RoundRect,0.250000X-0.262500X-0.450000X0.262500X-0.450000X0.262500X0.450000X-0.262500X0.450000X0*%
G04 #@! TD*
G04 #@! TA.AperFunction,SMDPad,CuDef*
%ADD25R,0.800000X1.000000*%
G04 #@! TD*
G04 #@! TA.AperFunction,SMDPad,CuDef*
%ADD26R,1.500000X0.700000*%
G04 #@! TD*
G04 #@! TA.AperFunction,SMDPad,CuDef*
%ADD27RoundRect,0.150000X0.512500X0.150000X-0.512500X0.150000X-0.512500X-0.150000X0.512500X-0.150000X0*%
G04 #@! TD*
G04 #@! TA.AperFunction,SMDPad,CuDef*
%ADD28RoundRect,0.250000X0.250000X0.475000X-0.250000X0.475000X-0.250000X-0.475000X0.250000X-0.475000X0*%
G04 #@! TD*
G04 #@! TA.AperFunction,SMDPad,CuDef*
%ADD29RoundRect,0.150000X0.150000X-0.587500X0.150000X0.587500X-0.150000X0.587500X-0.150000X-0.587500X0*%
G04 #@! TD*
G04 #@! TA.AperFunction,SMDPad,CuDef*
%ADD30RoundRect,0.250000X-0.450000X0.262500X-0.450000X-0.262500X0.450000X-0.262500X0.450000X0.262500X0*%
G04 #@! TD*
G04 #@! TA.AperFunction,SMDPad,CuDef*
%ADD31RoundRect,0.150000X0.150000X-0.512500X0.150000X0.512500X-0.150000X0.512500X-0.150000X-0.512500X0*%
G04 #@! TD*
G04 #@! TA.AperFunction,ViaPad*
%ADD32C,0.800000*%
G04 #@! TD*
G04 #@! TA.AperFunction,Conductor*
%ADD33C,0.250000*%
G04 #@! TD*
G04 APERTURE END LIST*
D10*
D11*
X13612857Y-108485357D02*
X13470000Y-108413928D01*
X13470000Y-108413928D02*
X13255714Y-108413928D01*
X13255714Y-108413928D02*
X13041428Y-108485357D01*
X13041428Y-108485357D02*
X12898571Y-108628214D01*
X12898571Y-108628214D02*
X12827142Y-108771071D01*
X12827142Y-108771071D02*
X12755714Y-109056785D01*
X12755714Y-109056785D02*
X12755714Y-109271071D01*
X12755714Y-109271071D02*
X12827142Y-109556785D01*
X12827142Y-109556785D02*
X12898571Y-109699642D01*
X12898571Y-109699642D02*
X13041428Y-109842500D01*
X13041428Y-109842500D02*
X13255714Y-109913928D01*
X13255714Y-109913928D02*
X13398571Y-109913928D01*
X13398571Y-109913928D02*
X13612857Y-109842500D01*
X13612857Y-109842500D02*
X13684285Y-109771071D01*
X13684285Y-109771071D02*
X13684285Y-109271071D01*
X13684285Y-109271071D02*
X13398571Y-109271071D01*
X15112857Y-108485357D02*
X14970000Y-108413928D01*
X14970000Y-108413928D02*
X14755714Y-108413928D01*
X14755714Y-108413928D02*
X14541428Y-108485357D01*
X14541428Y-108485357D02*
X14398571Y-108628214D01*
X14398571Y-108628214D02*
X14327142Y-108771071D01*
X14327142Y-108771071D02*
X14255714Y-109056785D01*
X14255714Y-109056785D02*
X14255714Y-109271071D01*
X14255714Y-109271071D02*
X14327142Y-109556785D01*
X14327142Y-109556785D02*
X14398571Y-109699642D01*
X14398571Y-109699642D02*
X14541428Y-109842500D01*
X14541428Y-109842500D02*
X14755714Y-109913928D01*
X14755714Y-109913928D02*
X14898571Y-109913928D01*
X14898571Y-109913928D02*
X15112857Y-109842500D01*
X15112857Y-109842500D02*
X15184285Y-109771071D01*
X15184285Y-109771071D02*
X15184285Y-109271071D01*
X15184285Y-109271071D02*
X14898571Y-109271071D01*
D12*
X51549000Y-131841000D03*
X41749000Y-131841000D03*
D13*
X49149000Y-124841000D03*
D14*
X46649000Y-124841000D03*
X44149000Y-124841000D03*
D15*
X35560000Y-147900000D03*
X40560000Y-142900000D03*
X30560000Y-142900000D03*
D16*
X37560000Y-142900000D03*
X33560000Y-142900000D03*
D17*
X42103000Y-107950000D03*
X44003000Y-107950000D03*
X39436000Y-114427000D03*
X41336000Y-114427000D03*
D18*
X18796000Y-142870000D03*
X18796000Y-140970000D03*
X20828000Y-142870000D03*
X20828000Y-140970000D03*
X22860000Y-142870000D03*
X22860000Y-140970000D03*
D19*
X17780000Y-144780000D03*
X18630000Y-144780000D03*
X19480000Y-144780000D03*
X20330000Y-144780000D03*
X21180000Y-144780000D03*
X22030000Y-144780000D03*
X22880000Y-144780000D03*
X23730000Y-144780000D03*
X23730000Y-146130000D03*
X22880000Y-146130000D03*
X22030000Y-146130000D03*
X21180000Y-146130000D03*
X20330000Y-146130000D03*
X19480000Y-146130000D03*
X18630000Y-146130000D03*
X17780000Y-146130000D03*
D20*
X16430000Y-145760000D03*
D21*
X16430000Y-149140000D03*
D20*
X25080000Y-145760000D03*
D21*
X25080000Y-149140000D03*
D22*
X29972000Y-97282000D03*
D23*
X29972000Y-99822000D03*
D22*
X29972000Y-109220000D03*
D23*
X29972000Y-111760000D03*
D24*
X38354000Y-108839000D03*
X40179000Y-108839000D03*
D25*
X52941000Y-149827000D03*
X55151000Y-149827000D03*
X52941000Y-142527000D03*
X55151000Y-142527000D03*
D26*
X52291000Y-148427000D03*
X52291000Y-145427000D03*
X52291000Y-143927000D03*
D18*
X18095000Y-129159000D03*
X18095000Y-127259000D03*
D27*
X40375000Y-112522000D03*
X40375000Y-111572000D03*
X40375000Y-110622000D03*
X38100000Y-110622000D03*
X38100000Y-112522000D03*
D17*
X39497000Y-116459000D03*
X41397000Y-116459000D03*
D28*
X21712000Y-122682000D03*
X19812000Y-122682000D03*
D29*
X20066000Y-137160000D03*
X21966000Y-137160000D03*
X21016000Y-135285000D03*
D30*
X42291000Y-109831500D03*
X42291000Y-111656500D03*
D28*
X21712000Y-124714000D03*
X19812000Y-124714000D03*
D18*
X20127000Y-129220000D03*
X20127000Y-127320000D03*
D31*
X21910000Y-129021000D03*
X22860000Y-129021000D03*
X23810000Y-129021000D03*
X23810000Y-126746000D03*
X21910000Y-126746000D03*
D32*
X22860000Y-139192000D03*
X18796000Y-139192000D03*
X17780000Y-125222000D03*
X44340000Y-119000000D03*
X21082000Y-138430000D03*
X35340000Y-102000000D03*
X26797000Y-101981000D03*
X26797000Y-115189000D03*
X26670000Y-133350000D03*
X49657000Y-147066000D03*
X35687000Y-108966000D03*
X43815000Y-116840000D03*
X30607000Y-138176000D03*
X43053000Y-106553000D03*
D33*
X24008000Y-142870000D02*
X22860000Y-142870000D01*
X20066000Y-137160000D02*
X18796000Y-137160000D01*
X22860000Y-142870000D02*
X20828000Y-142870000D01*
X22880000Y-144780000D02*
X22880000Y-142890000D01*
X18796000Y-137160000D02*
X16764000Y-139192000D01*
X18796000Y-142870000D02*
X20828000Y-142870000D01*
X22880000Y-146130000D02*
X22880000Y-144780000D01*
X23114000Y-137160000D02*
X24892000Y-138938000D01*
X24892000Y-138938000D02*
X24892000Y-141986000D01*
X16764000Y-141986000D02*
X17648000Y-142870000D01*
X16764000Y-139192000D02*
X16764000Y-141986000D01*
X24892000Y-141986000D02*
X24008000Y-142870000D01*
X22880000Y-142890000D02*
X22860000Y-142870000D01*
X21966000Y-137160000D02*
X23114000Y-137160000D01*
X17648000Y-142870000D02*
X18796000Y-142870000D01*
X18630000Y-143036000D02*
X18796000Y-142870000D01*
X18630000Y-144780000D02*
X18630000Y-143036000D01*
X18630000Y-144780000D02*
X18630000Y-146130000D01*
X17440000Y-149140000D02*
X17780000Y-148800000D01*
X17780000Y-148800000D02*
X17780000Y-146130000D01*
X16430000Y-149140000D02*
X17440000Y-149140000D01*
X23740000Y-148800000D02*
X23740000Y-147600000D01*
X24080000Y-149140000D02*
X23740000Y-148800000D01*
X23730000Y-147590000D02*
X23730000Y-146130000D01*
X40459500Y-111656500D02*
X40375000Y-111572000D01*
X42291000Y-111656500D02*
X40459500Y-111656500D01*
X25080000Y-149140000D02*
X24080000Y-149140000D01*
X23740000Y-147600000D02*
X23730000Y-147590000D01*
X26797000Y-108204000D02*
X26797000Y-101981000D01*
X26797000Y-124968000D02*
X26797000Y-122682000D01*
X37687000Y-108172000D02*
X26829000Y-108172000D01*
X39497000Y-116459000D02*
X26797000Y-116459000D01*
X38354000Y-108839000D02*
X37687000Y-108172000D01*
X21910000Y-126746000D02*
X21910000Y-124912000D01*
X39436000Y-113858000D02*
X38100000Y-112522000D01*
X39497000Y-116459000D02*
X39497000Y-114488000D01*
X39497000Y-114488000D02*
X39436000Y-114427000D01*
X26797000Y-115189000D02*
X26797000Y-108204000D01*
X39436000Y-114427000D02*
X39436000Y-113858000D01*
X26797000Y-122682000D02*
X26797000Y-116459000D01*
X21910000Y-124912000D02*
X21712000Y-124714000D01*
X21712000Y-122682000D02*
X21712000Y-124714000D01*
X26797000Y-124968000D02*
X26797000Y-133223000D01*
X26797000Y-116459000D02*
X26797000Y-115189000D01*
X21712000Y-122682000D02*
X26797000Y-122682000D01*
X26829000Y-108172000D02*
X26797000Y-108204000D01*
X26797000Y-133223000D02*
X26670000Y-133350000D01*
X41500500Y-110622000D02*
X42291000Y-109831500D01*
X42103000Y-107950000D02*
X42103000Y-109643500D01*
X40375000Y-110622000D02*
X41500500Y-110622000D01*
X40375000Y-110622000D02*
X40375000Y-109035000D01*
X40375000Y-109035000D02*
X40179000Y-108839000D01*
X42103000Y-109643500D02*
X42291000Y-109831500D01*
X52291000Y-148427000D02*
X51018000Y-148427000D01*
X51018000Y-148427000D02*
X49657000Y-147066000D01*
X43087000Y-145427000D02*
X33087000Y-145427000D01*
X43087000Y-145427000D02*
X40560000Y-142900000D01*
X52291000Y-145427000D02*
X43087000Y-145427000D01*
X33087000Y-145427000D02*
X30560000Y-142900000D01*
X30607000Y-138176000D02*
X35941000Y-138176000D01*
X40375000Y-124079000D02*
X40375000Y-117983000D01*
X38100000Y-110631251D02*
X39990749Y-112522000D01*
X40375000Y-112522000D02*
X40375000Y-117119173D01*
X38100000Y-110622000D02*
X38100000Y-110631251D01*
X39990749Y-112522000D02*
X40375000Y-112522000D01*
X43815000Y-117094000D02*
X43815000Y-116840000D01*
X41238827Y-117983000D02*
X42926000Y-117983000D01*
X38100000Y-110622000D02*
X36444000Y-108966000D01*
X42926000Y-117983000D02*
X43815000Y-117094000D01*
X41238827Y-117983000D02*
X40375000Y-117983000D01*
X37592000Y-136525000D02*
X37592000Y-126862000D01*
X38100000Y-110622000D02*
X39191500Y-109530500D01*
X35941000Y-138176000D02*
X37592000Y-136525000D01*
X40375000Y-117983000D02*
X40375000Y-117119173D01*
X39191500Y-108255500D02*
X40894000Y-106553000D01*
X39191500Y-109530500D02*
X39191500Y-108255500D01*
X36444000Y-108966000D02*
X35687000Y-108966000D01*
X40894000Y-106553000D02*
X43053000Y-106553000D01*
X37592000Y-126862000D02*
X40375000Y-124079000D01*
X23810000Y-129021000D02*
X23810000Y-129860000D01*
X22352000Y-130302000D02*
X21910000Y-129860000D01*
X20127000Y-129220000D02*
X18156000Y-129220000D01*
X21910000Y-129860000D02*
X21910000Y-129021000D01*
X18095000Y-131633000D02*
X18095000Y-129159000D01*
X23810000Y-129860000D02*
X23368000Y-130302000D01*
X21016000Y-135285000D02*
X21016000Y-134554000D01*
X21711000Y-129220000D02*
X21910000Y-129021000D01*
X18156000Y-129220000D02*
X18095000Y-129159000D01*
X21016000Y-134554000D02*
X18095000Y-131633000D01*
X20127000Y-129220000D02*
X21711000Y-129220000D01*
X23368000Y-130302000D02*
X22352000Y-130302000D01*
G04 #@! TA.AperFunction,Conductor*
G36*
X21094500Y-136547881D02*
G01*
X21140619Y-136594000D01*
X21157500Y-136657000D01*
X21157500Y-137813997D01*
X21160438Y-137851333D01*
X21206854Y-138011099D01*
X21291549Y-138154310D01*
X21409189Y-138271950D01*
X21409191Y-138271951D01*
X21409193Y-138271953D01*
X21552399Y-138356645D01*
X21712169Y-138403062D01*
X21749498Y-138406000D01*
X22182497Y-138406000D01*
X22182502Y-138406000D01*
X22219831Y-138403062D01*
X22379601Y-138356645D01*
X22522807Y-138271953D01*
X22640453Y-138154307D01*
X22725145Y-138011101D01*
X22743159Y-137949094D01*
X22776469Y-137893766D01*
X22832819Y-137862208D01*
X22897403Y-137862715D01*
X22953250Y-137895154D01*
X24221595Y-139163499D01*
X24248909Y-139204376D01*
X24258500Y-139252594D01*
X24258500Y-140329061D01*
X24241984Y-140391425D01*
X24196765Y-140437440D01*
X24134699Y-140455042D01*
X24072056Y-140439616D01*
X24025259Y-140395208D01*
X23933632Y-140246657D01*
X23808342Y-140121367D01*
X23657522Y-140028340D01*
X23489328Y-139972606D01*
X23385503Y-139962000D01*
X23114000Y-139962000D01*
X23114000Y-141098000D01*
X23097119Y-141161000D01*
X23051000Y-141207119D01*
X22988000Y-141224000D01*
X18668000Y-141224000D01*
X18605000Y-141207119D01*
X18558881Y-141161000D01*
X18542000Y-141098000D01*
X18542000Y-139962000D01*
X19050000Y-139962000D01*
X19050000Y-140716000D01*
X20574000Y-140716000D01*
X20574000Y-139962000D01*
X21082000Y-139962000D01*
X21082000Y-140716000D01*
X22606000Y-140716000D01*
X22606000Y-139962000D01*
X22334497Y-139962000D01*
X22230671Y-139972606D01*
X22062475Y-140028341D01*
X21910145Y-140122299D01*
X21843999Y-140141058D01*
X21777852Y-140122299D01*
X21625522Y-140028340D01*
X21457328Y-139972606D01*
X21353503Y-139962000D01*
X21082000Y-139962000D01*
X20574000Y-139962000D01*
X20302497Y-139962000D01*
X20198671Y-139972606D01*
X20030475Y-140028341D01*
X19878145Y-140122299D01*
X19811999Y-140141058D01*
X19745852Y-140122299D01*
X19593522Y-140028340D01*
X19425328Y-139972606D01*
X19321503Y-139962000D01*
X19050000Y-139962000D01*
X18542000Y-139962000D01*
X18270497Y-139962000D01*
X18166671Y-139972606D01*
X17998477Y-140028340D01*
X17847657Y-140121367D01*
X17722367Y-140246657D01*
X17630741Y-140395208D01*
X17583944Y-140439616D01*
X17521301Y-140455042D01*
X17459235Y-140437440D01*
X17414016Y-140391425D01*
X17397500Y-140329061D01*
X17397500Y-139506594D01*
X17407091Y-139458376D01*
X17434405Y-139417499D01*
X19021500Y-137830405D01*
X19062377Y-137803091D01*
X19110595Y-137793500D01*
X19149033Y-137793500D01*
X19201484Y-137804936D01*
X19244414Y-137837169D01*
X19270030Y-137884347D01*
X19306854Y-138011099D01*
X19391549Y-138154310D01*
X19509189Y-138271950D01*
X19509191Y-138271951D01*
X19509193Y-138271953D01*
X19652399Y-138356645D01*
X19812169Y-138403062D01*
X19849498Y-138406000D01*
X20282497Y-138406000D01*
X20282502Y-138406000D01*
X20319831Y-138403062D01*
X20479601Y-138356645D01*
X20622807Y-138271953D01*
X20740453Y-138154307D01*
X20825145Y-138011101D01*
X20871562Y-137851331D01*
X20874500Y-137814002D01*
X20874500Y-136657000D01*
X20891381Y-136594000D01*
X20937500Y-136547881D01*
X21000500Y-136531000D01*
X21031500Y-136531000D01*
X21094500Y-136547881D01*
G37*
G04 #@! TD.AperFunction*
G04 #@! TA.AperFunction,Conductor*
G36*
X28678000Y-108822381D02*
G01*
X28724119Y-108868500D01*
X28741000Y-108931500D01*
X28741000Y-108966000D01*
X31203000Y-108966000D01*
X31203000Y-108931500D01*
X31219881Y-108868500D01*
X31266000Y-108822381D01*
X31329000Y-108805500D01*
X34650428Y-108805500D01*
X34717198Y-108824646D01*
X34763676Y-108876265D01*
X34775738Y-108944670D01*
X34773496Y-108965999D01*
X34793458Y-109155929D01*
X34852472Y-109337556D01*
X34947958Y-109502942D01*
X34947960Y-109502944D01*
X35075747Y-109644866D01*
X35230248Y-109757118D01*
X35404712Y-109834794D01*
X35591513Y-109874500D01*
X35782485Y-109874500D01*
X35782487Y-109874500D01*
X35969288Y-109834794D01*
X36143752Y-109757118D01*
X36169900Y-109738119D01*
X36224247Y-109715607D01*
X36282896Y-109720221D01*
X36333056Y-109750960D01*
X36892201Y-110310105D01*
X36921318Y-110355589D01*
X36927537Y-110400547D01*
X36929000Y-110400547D01*
X36929000Y-110405498D01*
X36929000Y-110838502D01*
X36930102Y-110852499D01*
X36931938Y-110875833D01*
X36957955Y-110965383D01*
X36978355Y-111035601D01*
X37041218Y-111141897D01*
X37063049Y-111178810D01*
X37180689Y-111296450D01*
X37180691Y-111296451D01*
X37180693Y-111296453D01*
X37323899Y-111381145D01*
X37483669Y-111427562D01*
X37520998Y-111430500D01*
X37951155Y-111430500D01*
X37999373Y-111440091D01*
X38040250Y-111467405D01*
X38071250Y-111498405D01*
X38101988Y-111548564D01*
X38106604Y-111607211D01*
X38084091Y-111661561D01*
X38039358Y-111699767D01*
X37982155Y-111713500D01*
X37520998Y-111713500D01*
X37497667Y-111715336D01*
X37483666Y-111716438D01*
X37323900Y-111762854D01*
X37180689Y-111847549D01*
X37063049Y-111965189D01*
X36978354Y-112108400D01*
X36931938Y-112268166D01*
X36929000Y-112305503D01*
X36929000Y-112738497D01*
X36931938Y-112775833D01*
X36978354Y-112935599D01*
X37063049Y-113078810D01*
X37180689Y-113196450D01*
X37180691Y-113196451D01*
X37180693Y-113196453D01*
X37323899Y-113281145D01*
X37483669Y-113327562D01*
X37520998Y-113330500D01*
X37960406Y-113330500D01*
X38008624Y-113340091D01*
X38049501Y-113367405D01*
X38399627Y-113717531D01*
X38429243Y-113764393D01*
X38435880Y-113819432D01*
X38427500Y-113901458D01*
X38427500Y-114952540D01*
X38432254Y-114999070D01*
X38438113Y-115056426D01*
X38493885Y-115224738D01*
X38586970Y-115375652D01*
X38605637Y-115394319D01*
X38635355Y-115441468D01*
X38641826Y-115496826D01*
X38623783Y-115549560D01*
X38554884Y-115661262D01*
X38529081Y-115739133D01*
X38502785Y-115784173D01*
X38460502Y-115814706D01*
X38409477Y-115825500D01*
X27696800Y-115825500D01*
X27633800Y-115808619D01*
X27587681Y-115762500D01*
X27570800Y-115699500D01*
X27587681Y-115636500D01*
X27631527Y-115560556D01*
X27670221Y-115441468D01*
X27690542Y-115378928D01*
X27710504Y-115189000D01*
X27690542Y-114999072D01*
X27631527Y-114817444D01*
X27631527Y-114817443D01*
X27536041Y-114652057D01*
X27462864Y-114570786D01*
X27438869Y-114531629D01*
X27430500Y-114486475D01*
X27430500Y-111760000D01*
X28735796Y-111760000D01*
X28743456Y-111847549D01*
X28754577Y-111974665D01*
X28810347Y-112182806D01*
X28901416Y-112378102D01*
X29025015Y-112554620D01*
X29177379Y-112706984D01*
X29177382Y-112706986D01*
X29177383Y-112706987D01*
X29353898Y-112830584D01*
X29549193Y-112921652D01*
X29757335Y-112977423D01*
X29972000Y-112996204D01*
X30186665Y-112977423D01*
X30394807Y-112921652D01*
X30590102Y-112830584D01*
X30766617Y-112706987D01*
X30918987Y-112554617D01*
X31042584Y-112378102D01*
X31133652Y-112182807D01*
X31189423Y-111974665D01*
X31208204Y-111760000D01*
X31189423Y-111545335D01*
X31133652Y-111337193D01*
X31042584Y-111141898D01*
X30918987Y-110965383D01*
X30918986Y-110965382D01*
X30918984Y-110965379D01*
X30766620Y-110813015D01*
X30581072Y-110683093D01*
X30582329Y-110681297D01*
X30542708Y-110647457D01*
X30521340Y-110583593D01*
X30535916Y-110517846D01*
X30582272Y-110468997D01*
X30647167Y-110451000D01*
X30743589Y-110451000D01*
X30804093Y-110444494D01*
X30940962Y-110393445D01*
X31057904Y-110305904D01*
X31145445Y-110188962D01*
X31196494Y-110052093D01*
X31203000Y-109991589D01*
X31203000Y-109474000D01*
X28741000Y-109474000D01*
X28741000Y-109991589D01*
X28747505Y-110052093D01*
X28798554Y-110188962D01*
X28886095Y-110305904D01*
X29003037Y-110393445D01*
X29139906Y-110444494D01*
X29200411Y-110451000D01*
X29296833Y-110451000D01*
X29361728Y-110468997D01*
X29408084Y-110517846D01*
X29422660Y-110583593D01*
X29401292Y-110647457D01*
X29361670Y-110681297D01*
X29362928Y-110683093D01*
X29177379Y-110813015D01*
X29025015Y-110965379D01*
X28901416Y-111141897D01*
X28810347Y-111337193D01*
X28754577Y-111545334D01*
X28737503Y-111740483D01*
X28735796Y-111760000D01*
X27430500Y-111760000D01*
X27430500Y-108931500D01*
X27447381Y-108868500D01*
X27493500Y-108822381D01*
X27556500Y-108805500D01*
X28615000Y-108805500D01*
X28678000Y-108822381D01*
G37*
G04 #@! TD.AperFunction*
G04 #@! TA.AperFunction,Conductor*
G36*
X35545465Y-91475091D02*
G01*
X35586342Y-91502405D01*
X55817595Y-111733657D01*
X55844909Y-111774534D01*
X55854500Y-111822752D01*
X55854500Y-141416007D01*
X55840148Y-141474409D01*
X55800360Y-141519506D01*
X55744202Y-141541025D01*
X55684467Y-141534062D01*
X55660201Y-141525011D01*
X55599638Y-141518500D01*
X54702362Y-141518500D01*
X54641799Y-141525011D01*
X54504794Y-141576111D01*
X54387738Y-141663738D01*
X54300111Y-141780794D01*
X54249011Y-141917799D01*
X54242500Y-141978362D01*
X54242500Y-143075638D01*
X54249011Y-143136200D01*
X54300111Y-143273205D01*
X54387738Y-143390261D01*
X54504794Y-143477888D01*
X54504795Y-143477888D01*
X54504796Y-143477889D01*
X54641799Y-143528989D01*
X54702362Y-143535500D01*
X55599638Y-143535500D01*
X55660201Y-143528989D01*
X55684467Y-143519937D01*
X55744202Y-143512975D01*
X55800360Y-143534494D01*
X55840148Y-143579591D01*
X55854500Y-143637993D01*
X55854500Y-148716007D01*
X55840148Y-148774409D01*
X55800360Y-148819506D01*
X55744202Y-148841025D01*
X55684467Y-148834062D01*
X55660201Y-148825011D01*
X55599638Y-148818500D01*
X54702362Y-148818500D01*
X54641799Y-148825011D01*
X54504794Y-148876111D01*
X54387738Y-148963738D01*
X54300111Y-149080794D01*
X54255643Y-149200019D01*
X54249011Y-149217799D01*
X54242500Y-149278362D01*
X54242500Y-150375638D01*
X54249011Y-150436201D01*
X54260693Y-150467520D01*
X54300111Y-150573205D01*
X54387738Y-150690261D01*
X54504794Y-150777888D01*
X54504795Y-150777888D01*
X54504796Y-150777889D01*
X54641799Y-150828989D01*
X54702362Y-150835500D01*
X55599638Y-150835500D01*
X55660201Y-150828989D01*
X55684467Y-150819937D01*
X55744202Y-150812975D01*
X55800360Y-150834494D01*
X55840148Y-150879591D01*
X55854500Y-150937993D01*
X55854500Y-153518500D01*
X55837619Y-153581500D01*
X55791500Y-153627619D01*
X55728500Y-153644500D01*
X151500Y-153644500D01*
X88500Y-153627619D01*
X42381Y-153581500D01*
X25500Y-153518500D01*
X25500Y-149394000D01*
X15472000Y-149394000D01*
X15472000Y-149588586D01*
X15486771Y-149733843D01*
X15545096Y-149919737D01*
X15639654Y-150090100D01*
X15766564Y-150237931D01*
X15920639Y-150357194D01*
X16095563Y-150442998D01*
X16176000Y-150463825D01*
X16176000Y-149394000D01*
X16684000Y-149394000D01*
X16684000Y-150467520D01*
X16854073Y-150404533D01*
X17019421Y-150301469D01*
X17160640Y-150167231D01*
X17271943Y-150007319D01*
X17348780Y-149828267D01*
X17388000Y-149637419D01*
X17388000Y-149394000D01*
X24122000Y-149394000D01*
X24122000Y-149588586D01*
X24136771Y-149733843D01*
X24195096Y-149919737D01*
X24289654Y-150090100D01*
X24416564Y-150237931D01*
X24570639Y-150357194D01*
X24745563Y-150442998D01*
X24826000Y-150463825D01*
X24826000Y-149394000D01*
X25334000Y-149394000D01*
X25334000Y-150467520D01*
X25504073Y-150404533D01*
X25511345Y-150400000D01*
X29754435Y-150400000D01*
X29774632Y-150579257D01*
X29834210Y-150749521D01*
X29930184Y-150902263D01*
X30057736Y-151029815D01*
X30057738Y-151029816D01*
X30210478Y-151125789D01*
X30380745Y-151185368D01*
X30515046Y-151200500D01*
X30604951Y-151200500D01*
X30604954Y-151200500D01*
X30739255Y-151185368D01*
X30909522Y-151125789D01*
X31062262Y-151029816D01*
X31189816Y-150902262D01*
X31285789Y-150749522D01*
X31345368Y-150579255D01*
X31365565Y-150400000D01*
X39754435Y-150400000D01*
X39774632Y-150579257D01*
X39834210Y-150749521D01*
X39930184Y-150902263D01*
X40057736Y-151029815D01*
X40057738Y-151029816D01*
X40210478Y-151125789D01*
X40380745Y-151185368D01*
X40515046Y-151200500D01*
X40604951Y-151200500D01*
X40604954Y-151200500D01*
X40739255Y-151185368D01*
X40909522Y-151125789D01*
X41062262Y-151029816D01*
X41189816Y-150902262D01*
X41285789Y-150749522D01*
X41345368Y-150579255D01*
X41365565Y-150400000D01*
X41345368Y-150220745D01*
X41285789Y-150050478D01*
X41189816Y-149897738D01*
X41189815Y-149897736D01*
X41062263Y-149770184D01*
X40909521Y-149674210D01*
X40739257Y-149614632D01*
X40685534Y-149608579D01*
X40604954Y-149599500D01*
X40515046Y-149599500D01*
X40447895Y-149607065D01*
X40380742Y-149614632D01*
X40210478Y-149674210D01*
X40057736Y-149770184D01*
X39930184Y-149897736D01*
X39834210Y-150050478D01*
X39774632Y-150220742D01*
X39754435Y-150400000D01*
X31365565Y-150400000D01*
X31345368Y-150220745D01*
X31285789Y-150050478D01*
X31189816Y-149897738D01*
X31189815Y-149897736D01*
X31062263Y-149770184D01*
X30909521Y-149674210D01*
X30739257Y-149614632D01*
X30685534Y-149608579D01*
X30604954Y-149599500D01*
X30515046Y-149599500D01*
X30447895Y-149607065D01*
X30380742Y-149614632D01*
X30210478Y-149674210D01*
X30057736Y-149770184D01*
X29930184Y-149897736D01*
X29834210Y-150050478D01*
X29774632Y-150220742D01*
X29754435Y-150400000D01*
X25511345Y-150400000D01*
X25669421Y-150301469D01*
X25810640Y-150167231D01*
X25921943Y-150007319D01*
X25998780Y-149828267D01*
X26038000Y-149637419D01*
X26038000Y-149394000D01*
X25334000Y-149394000D01*
X24826000Y-149394000D01*
X24122000Y-149394000D01*
X17388000Y-149394000D01*
X16684000Y-149394000D01*
X16176000Y-149394000D01*
X15472000Y-149394000D01*
X25500Y-149394000D01*
X25500Y-149328763D01*
X34490446Y-149328763D01*
X34665999Y-149448452D01*
X34906769Y-149564402D01*
X35162130Y-149643169D01*
X35426385Y-149683000D01*
X35693615Y-149683000D01*
X35957869Y-149643169D01*
X36213230Y-149564402D01*
X36454000Y-149448452D01*
X36629552Y-149328763D01*
X36629552Y-149328761D01*
X35560001Y-148259210D01*
X35559999Y-148259210D01*
X34490446Y-149328761D01*
X34490446Y-149328763D01*
X25500Y-149328763D01*
X25500Y-147508674D01*
X4391748Y-147508674D01*
X4401749Y-147769598D01*
X4451460Y-148025923D01*
X4539722Y-148271671D01*
X4664458Y-148501056D01*
X4822749Y-148708716D01*
X5010886Y-148889778D01*
X5213278Y-149032137D01*
X5224456Y-149039999D01*
X5458452Y-149155858D01*
X5458453Y-149155859D01*
X5707397Y-149234642D01*
X5965443Y-149274500D01*
X5965445Y-149274500D01*
X6161177Y-149274500D01*
X6161181Y-149274500D01*
X6239243Y-149268506D01*
X6356344Y-149259516D01*
X6610586Y-149200021D01*
X6852766Y-149102414D01*
X7077208Y-148968982D01*
X7177829Y-148886000D01*
X15472000Y-148886000D01*
X16176000Y-148886000D01*
X16176000Y-147816174D01*
X16684000Y-147816174D01*
X16684000Y-148886000D01*
X17388000Y-148886000D01*
X24122000Y-148886000D01*
X24826000Y-148886000D01*
X24826000Y-147816174D01*
X25334000Y-147816174D01*
X25334000Y-148886000D01*
X26038000Y-148886000D01*
X26038000Y-148691414D01*
X26023228Y-148546156D01*
X25964903Y-148360262D01*
X25870345Y-148189899D01*
X25743435Y-148042068D01*
X25589360Y-147922805D01*
X25542869Y-147900000D01*
X29754435Y-147900000D01*
X29758355Y-147934793D01*
X29774632Y-148079257D01*
X29834210Y-148249521D01*
X29930184Y-148402263D01*
X30057736Y-148529815D01*
X30210478Y-148625789D01*
X30353355Y-148675784D01*
X30380745Y-148685368D01*
X30515046Y-148700500D01*
X30604951Y-148700500D01*
X30604954Y-148700500D01*
X30739255Y-148685368D01*
X30909522Y-148625789D01*
X31062262Y-148529816D01*
X31189816Y-148402262D01*
X31285789Y-148249522D01*
X31345368Y-148079255D01*
X31365565Y-147900000D01*
X31365565Y-147899999D01*
X33772000Y-147899999D01*
X33791970Y-148166489D01*
X33851436Y-148427022D01*
X33949068Y-148675784D01*
X34082685Y-148907217D01*
X34131881Y-148968906D01*
X34131883Y-148968906D01*
X35200790Y-147900001D01*
X35919210Y-147900001D01*
X36988116Y-148968907D01*
X36988117Y-148968907D01*
X37037316Y-148907214D01*
X37170931Y-148675785D01*
X37268563Y-148427022D01*
X37328029Y-148166489D01*
X37347999Y-147900000D01*
X39754435Y-147900000D01*
X39758355Y-147934793D01*
X39774632Y-148079257D01*
X39834210Y-148249521D01*
X39930184Y-148402263D01*
X40057736Y-148529815D01*
X40210478Y-148625789D01*
X40353355Y-148675784D01*
X40380745Y-148685368D01*
X40515046Y-148700500D01*
X40604951Y-148700500D01*
X40604954Y-148700500D01*
X40739255Y-148685368D01*
X40909522Y-148625789D01*
X41062262Y-148529816D01*
X41189816Y-148402262D01*
X41285789Y-148249522D01*
X41345368Y-148079255D01*
X41365565Y-147900000D01*
X41345368Y-147720745D01*
X41312254Y-147626112D01*
X41285789Y-147550478D01*
X41189815Y-147397736D01*
X41062263Y-147270184D01*
X40909521Y-147174210D01*
X40739257Y-147114632D01*
X40685534Y-147108579D01*
X40604954Y-147099500D01*
X40515046Y-147099500D01*
X40447895Y-147107066D01*
X40380742Y-147114632D01*
X40210478Y-147174210D01*
X40057736Y-147270184D01*
X39930184Y-147397736D01*
X39834210Y-147550478D01*
X39774632Y-147720742D01*
X39757199Y-147875466D01*
X39754435Y-147900000D01*
X37347999Y-147900000D01*
X37347999Y-147899999D01*
X37328029Y-147633510D01*
X37268563Y-147372977D01*
X37170931Y-147124215D01*
X37037316Y-146892787D01*
X36988116Y-146831091D01*
X35919210Y-147899999D01*
X35919210Y-147900001D01*
X35200790Y-147900001D01*
X35200790Y-147899999D01*
X34131883Y-146831092D01*
X34131881Y-146831092D01*
X34082685Y-146892783D01*
X33949068Y-147124215D01*
X33851436Y-147372977D01*
X33791970Y-147633510D01*
X33772000Y-147899999D01*
X31365565Y-147899999D01*
X31345368Y-147720745D01*
X31312254Y-147626112D01*
X31285789Y-147550478D01*
X31189815Y-147397736D01*
X31062263Y-147270184D01*
X30909521Y-147174210D01*
X30739257Y-147114632D01*
X30685534Y-147108579D01*
X30604954Y-147099500D01*
X30515046Y-147099500D01*
X30447895Y-147107066D01*
X30380742Y-147114632D01*
X30210478Y-147174210D01*
X30057736Y-147270184D01*
X29930184Y-147397736D01*
X29834210Y-147550478D01*
X29774632Y-147720742D01*
X29757199Y-147875466D01*
X29754435Y-147900000D01*
X25542869Y-147900000D01*
X25414436Y-147837001D01*
X25334000Y-147816174D01*
X24826000Y-147816174D01*
X24826000Y-147812479D01*
X24655926Y-147875466D01*
X24490578Y-147978530D01*
X24349359Y-148112768D01*
X24238056Y-148272680D01*
X24161219Y-148451732D01*
X24122000Y-148642581D01*
X24122000Y-148886000D01*
X17388000Y-148886000D01*
X17388000Y-148691414D01*
X17373228Y-148546156D01*
X17314903Y-148360262D01*
X17220345Y-148189899D01*
X17093435Y-148042068D01*
X16939360Y-147922805D01*
X16764436Y-147837001D01*
X16684000Y-147816174D01*
X16176000Y-147816174D01*
X16176000Y-147812479D01*
X16005926Y-147875466D01*
X15840578Y-147978530D01*
X15699359Y-148112768D01*
X15588056Y-148272680D01*
X15511219Y-148451732D01*
X15472000Y-148642581D01*
X15472000Y-148886000D01*
X7177829Y-148886000D01*
X7278652Y-148802852D01*
X7452375Y-148607920D01*
X7594306Y-148388753D01*
X7701118Y-148150489D01*
X7770307Y-147898713D01*
X7800252Y-147639325D01*
X7790251Y-147378407D01*
X7769512Y-147271469D01*
X7740539Y-147122076D01*
X7738793Y-147117215D01*
X7652279Y-146876332D01*
X7527541Y-146646943D01*
X7446085Y-146540082D01*
X7369250Y-146439283D01*
X7181113Y-146258221D01*
X6967546Y-146108002D01*
X6777695Y-146014000D01*
X15472000Y-146014000D01*
X15472000Y-146558586D01*
X15486771Y-146703843D01*
X15545096Y-146889737D01*
X15639654Y-147060100D01*
X15766564Y-147207931D01*
X15920639Y-147327194D01*
X16095563Y-147412998D01*
X16176000Y-147433825D01*
X16176000Y-146014000D01*
X15472000Y-146014000D01*
X6777695Y-146014000D01*
X6733546Y-145992140D01*
X6484602Y-145913357D01*
X6226557Y-145873500D01*
X6226555Y-145873500D01*
X6030823Y-145873500D01*
X6030819Y-145873500D01*
X5835661Y-145888483D01*
X5835657Y-145888483D01*
X5835656Y-145888484D01*
X5762484Y-145905607D01*
X5581409Y-145947980D01*
X5339235Y-146045585D01*
X5114794Y-146179016D01*
X4913346Y-146345149D01*
X4739622Y-146540082D01*
X4597694Y-146759246D01*
X4490881Y-146997510D01*
X4421693Y-147249283D01*
X4391748Y-147508674D01*
X25500Y-147508674D01*
X25500Y-145506000D01*
X15472000Y-145506000D01*
X16176000Y-145506000D01*
X16176000Y-144082479D01*
X16005926Y-144145466D01*
X15840578Y-144248530D01*
X15699359Y-144382768D01*
X15588056Y-144542680D01*
X15511219Y-144721732D01*
X15472000Y-144912581D01*
X15472000Y-145506000D01*
X25500Y-145506000D01*
X25500Y-139171942D01*
X16125779Y-139171942D01*
X16129941Y-139215961D01*
X16130500Y-139227819D01*
X16130500Y-141902147D01*
X16128204Y-141922935D01*
X16130438Y-141993986D01*
X16130500Y-141997945D01*
X16130500Y-142025857D01*
X16131007Y-142029873D01*
X16131937Y-142041696D01*
X16133326Y-142085892D01*
X16138977Y-142105341D01*
X16142986Y-142124696D01*
X16145525Y-142144794D01*
X16145525Y-142144796D01*
X16145526Y-142144797D01*
X16160545Y-142182732D01*
X16161801Y-142185903D01*
X16165644Y-142197130D01*
X16177980Y-142239590D01*
X16188294Y-142257030D01*
X16196987Y-142274774D01*
X16204448Y-142293617D01*
X16204449Y-142293619D01*
X16230431Y-142329380D01*
X16236948Y-142339301D01*
X16259458Y-142377363D01*
X16273778Y-142391683D01*
X16286618Y-142406716D01*
X16298526Y-142423105D01*
X16298527Y-142423106D01*
X16298528Y-142423107D01*
X16304884Y-142428365D01*
X16332598Y-142451292D01*
X16341378Y-142459282D01*
X17140752Y-143258656D01*
X17153831Y-143274981D01*
X17155999Y-143277017D01*
X17156000Y-143277018D01*
X17205650Y-143323642D01*
X17208461Y-143326366D01*
X17228230Y-143346135D01*
X17231443Y-143348627D01*
X17240433Y-143356306D01*
X17272679Y-143386586D01*
X17290426Y-143396342D01*
X17306950Y-143407196D01*
X17322959Y-143419614D01*
X17363542Y-143437175D01*
X17374193Y-143442393D01*
X17412940Y-143463695D01*
X17432560Y-143468732D01*
X17451267Y-143475137D01*
X17457624Y-143477888D01*
X17469854Y-143483181D01*
X17480505Y-143484867D01*
X17513530Y-143490098D01*
X17525125Y-143492498D01*
X17567970Y-143503500D01*
X17588224Y-143503500D01*
X17607933Y-143505050D01*
X17616598Y-143506423D01*
X17666735Y-143526005D01*
X17704126Y-143564723D01*
X17721972Y-143593655D01*
X17835222Y-143706905D01*
X17865960Y-143757064D01*
X17870576Y-143815711D01*
X17848063Y-143870061D01*
X17803330Y-143908267D01*
X17746127Y-143922000D01*
X17689823Y-143922000D01*
X17513400Y-143959500D01*
X17378687Y-144019477D01*
X17773732Y-144414521D01*
X17807155Y-144474202D01*
X17804471Y-144542551D01*
X17785635Y-144600523D01*
X17772895Y-144721732D01*
X17766771Y-144780000D01*
X17770213Y-144812750D01*
X17770214Y-144812753D01*
X17761564Y-144873532D01*
X17725220Y-144923008D01*
X17669809Y-144949438D01*
X17608486Y-144946546D01*
X17555809Y-144915019D01*
X17054507Y-144413717D01*
X17021895Y-144357232D01*
X17021896Y-144292008D01*
X17029442Y-144278937D01*
X17028348Y-144261687D01*
X16939360Y-144192805D01*
X16764436Y-144107001D01*
X16684000Y-144086174D01*
X16684000Y-147437520D01*
X16854073Y-147374533D01*
X17019421Y-147271469D01*
X17160640Y-147137231D01*
X17279264Y-146966800D01*
X17280983Y-146967996D01*
X17310779Y-146930336D01*
X17372023Y-146906347D01*
X17437011Y-146916489D01*
X17513402Y-146950500D01*
X17689823Y-146988000D01*
X17870177Y-146988000D01*
X18046599Y-146950499D01*
X18153134Y-146903067D01*
X18204384Y-146892173D01*
X18255630Y-146903065D01*
X18363248Y-146950980D01*
X18539768Y-146988500D01*
X18720230Y-146988500D01*
X18720232Y-146988500D01*
X18896752Y-146950980D01*
X19003753Y-146903339D01*
X19055000Y-146892447D01*
X19106246Y-146903339D01*
X19213248Y-146950980D01*
X19389768Y-146988500D01*
X19570230Y-146988500D01*
X19570232Y-146988500D01*
X19746752Y-146950980D01*
X19853753Y-146903339D01*
X19905000Y-146892447D01*
X19956246Y-146903339D01*
X20063248Y-146950980D01*
X20239768Y-146988500D01*
X20420230Y-146988500D01*
X20420232Y-146988500D01*
X20596752Y-146950980D01*
X20703753Y-146903339D01*
X20755000Y-146892447D01*
X20806246Y-146903339D01*
X20913248Y-146950980D01*
X21089768Y-146988500D01*
X21270230Y-146988500D01*
X21270232Y-146988500D01*
X21446752Y-146950980D01*
X21553753Y-146903339D01*
X21605000Y-146892447D01*
X21656246Y-146903339D01*
X21763248Y-146950980D01*
X21939768Y-146988500D01*
X22120230Y-146988500D01*
X22120232Y-146988500D01*
X22296752Y-146950980D01*
X22403753Y-146903339D01*
X22455000Y-146892447D01*
X22506246Y-146903339D01*
X22613248Y-146950980D01*
X22789768Y-146988500D01*
X22970230Y-146988500D01*
X22970232Y-146988500D01*
X23146752Y-146950980D01*
X23254368Y-146903065D01*
X23305612Y-146892173D01*
X23356861Y-146903066D01*
X23463400Y-146950499D01*
X23639823Y-146988000D01*
X23820177Y-146988000D01*
X23996597Y-146950500D01*
X24077389Y-146914530D01*
X24138135Y-146903995D01*
X24196607Y-146923542D01*
X24238806Y-146968489D01*
X24289654Y-147060100D01*
X24416564Y-147207931D01*
X24570639Y-147327194D01*
X24745563Y-147412998D01*
X24826000Y-147433825D01*
X24826000Y-146014000D01*
X25334000Y-146014000D01*
X25334000Y-147437520D01*
X25504073Y-147374533D01*
X25669421Y-147271469D01*
X25810640Y-147137231D01*
X25921943Y-146977319D01*
X25998780Y-146798267D01*
X26038000Y-146607419D01*
X26038000Y-146014000D01*
X25334000Y-146014000D01*
X24826000Y-146014000D01*
X24826000Y-144086174D01*
X25334000Y-144086174D01*
X25334000Y-145506000D01*
X26038000Y-145506000D01*
X26038000Y-144961414D01*
X26023228Y-144816156D01*
X25964903Y-144630262D01*
X25870345Y-144459899D01*
X25743435Y-144312068D01*
X25589360Y-144192805D01*
X25414436Y-144107001D01*
X25334000Y-144086174D01*
X24826000Y-144086174D01*
X24826000Y-144082479D01*
X24655926Y-144145466D01*
X24490576Y-144248531D01*
X24479256Y-144259291D01*
X24479040Y-144276316D01*
X24488103Y-144292012D01*
X24488103Y-144357234D01*
X24455491Y-144413718D01*
X23954190Y-144915019D01*
X23901512Y-144946546D01*
X23840189Y-144949438D01*
X23784778Y-144923007D01*
X23748434Y-144873530D01*
X23739786Y-144812753D01*
X23743229Y-144780000D01*
X23724365Y-144600525D01*
X23705527Y-144542549D01*
X23702842Y-144474203D01*
X23736266Y-144414521D01*
X24131311Y-144019476D01*
X23996595Y-143959498D01*
X23870273Y-143932647D01*
X23810942Y-143901925D01*
X23775660Y-143845186D01*
X23774348Y-143778385D01*
X23807376Y-143720305D01*
X23808649Y-143719031D01*
X23808652Y-143719030D01*
X23934030Y-143593652D01*
X23953069Y-143562783D01*
X23992112Y-143522981D01*
X24044509Y-143503923D01*
X24047855Y-143503500D01*
X24047856Y-143503500D01*
X24051858Y-143502993D01*
X24063699Y-143502061D01*
X24107889Y-143500673D01*
X24127338Y-143495021D01*
X24146698Y-143491012D01*
X24166797Y-143488474D01*
X24207915Y-143472193D01*
X24219117Y-143468357D01*
X24261593Y-143456018D01*
X24279039Y-143445699D01*
X24296780Y-143437009D01*
X24315617Y-143429552D01*
X24351392Y-143403558D01*
X24361303Y-143397048D01*
X24399362Y-143374542D01*
X24413691Y-143360212D01*
X24428719Y-143347377D01*
X24445107Y-143335472D01*
X24473303Y-143301386D01*
X24481272Y-143292630D01*
X24873902Y-142900000D01*
X28771499Y-142900000D01*
X28791475Y-143166563D01*
X28850957Y-143427171D01*
X28948616Y-143676002D01*
X29082271Y-143907498D01*
X29209766Y-144067373D01*
X29248936Y-144116490D01*
X29444888Y-144298306D01*
X29665750Y-144448887D01*
X29883415Y-144553710D01*
X29906589Y-144564870D01*
X29973715Y-144585575D01*
X30162021Y-144643660D01*
X30426345Y-144683500D01*
X30693653Y-144683500D01*
X30693655Y-144683500D01*
X30957979Y-144643660D01*
X31144817Y-144586028D01*
X31222437Y-144562086D01*
X31222764Y-144563148D01*
X31260803Y-144553710D01*
X31311554Y-144562329D01*
X31354622Y-144590526D01*
X32579751Y-145815655D01*
X32592835Y-145831985D01*
X32644666Y-145880657D01*
X32647509Y-145883413D01*
X32667230Y-145903134D01*
X32670418Y-145905607D01*
X32679444Y-145913316D01*
X32679491Y-145913359D01*
X32711679Y-145943586D01*
X32729432Y-145953346D01*
X32745955Y-145964200D01*
X32761957Y-145976612D01*
X32761960Y-145976614D01*
X32802539Y-145994174D01*
X32813188Y-145999391D01*
X32851935Y-146020693D01*
X32851937Y-146020693D01*
X32851940Y-146020695D01*
X32871574Y-146025736D01*
X32890259Y-146032134D01*
X32908855Y-146040181D01*
X32952530Y-146047098D01*
X32964125Y-146049498D01*
X33006970Y-146060500D01*
X33027224Y-146060500D01*
X33046934Y-146062051D01*
X33066942Y-146065220D01*
X33066942Y-146065219D01*
X33066943Y-146065220D01*
X33110961Y-146061058D01*
X33122819Y-146060500D01*
X34718324Y-146060500D01*
X34782949Y-146078335D01*
X34829279Y-146126793D01*
X34844197Y-146192153D01*
X34823480Y-146255913D01*
X34772993Y-146300022D01*
X34666004Y-146351544D01*
X34490446Y-146471236D01*
X34490446Y-146471237D01*
X35559999Y-147540790D01*
X35560001Y-147540790D01*
X36629552Y-146471237D01*
X36629552Y-146471235D01*
X36453999Y-146351547D01*
X36347007Y-146300022D01*
X36296520Y-146255913D01*
X36275803Y-146192153D01*
X36290721Y-146126793D01*
X36337051Y-146078335D01*
X36401676Y-146060500D01*
X43006970Y-146060500D01*
X43027224Y-146060500D01*
X43046934Y-146062051D01*
X43066942Y-146065220D01*
X43066942Y-146065219D01*
X43066943Y-146065220D01*
X43110961Y-146061058D01*
X43122819Y-146060500D01*
X43126856Y-146060500D01*
X49107532Y-146060500D01*
X49168233Y-146076085D01*
X49213917Y-146118986D01*
X49233283Y-146178588D01*
X49221540Y-146240148D01*
X49181593Y-146288436D01*
X49045747Y-146387133D01*
X48917958Y-146529057D01*
X48822472Y-146694443D01*
X48763458Y-146876070D01*
X48743496Y-147066000D01*
X48763458Y-147255929D01*
X48822472Y-147437556D01*
X48917958Y-147602942D01*
X48967219Y-147657652D01*
X49045747Y-147744866D01*
X49200248Y-147857118D01*
X49374712Y-147934794D01*
X49561513Y-147974500D01*
X49617406Y-147974500D01*
X49665624Y-147984091D01*
X49706501Y-148011405D01*
X50510751Y-148815655D01*
X50523835Y-148831985D01*
X50575666Y-148880657D01*
X50578509Y-148883413D01*
X50598230Y-148903134D01*
X50601418Y-148905607D01*
X50610446Y-148913317D01*
X50642679Y-148943586D01*
X50660432Y-148953346D01*
X50676955Y-148964200D01*
X50692957Y-148976612D01*
X50692960Y-148976614D01*
X50733539Y-148994174D01*
X50744188Y-148999391D01*
X50782935Y-149020693D01*
X50782937Y-149020693D01*
X50782940Y-149020695D01*
X50802574Y-149025736D01*
X50821259Y-149032134D01*
X50839855Y-149040181D01*
X50883530Y-149047098D01*
X50895125Y-149049498D01*
X50937970Y-149060500D01*
X50958224Y-149060500D01*
X50977934Y-149062051D01*
X50997942Y-149065220D01*
X50997942Y-149065219D01*
X50997943Y-149065220D01*
X51041961Y-149061058D01*
X51053819Y-149060500D01*
X51054960Y-149060500D01*
X51111360Y-149073828D01*
X51155825Y-149110988D01*
X51177739Y-149140261D01*
X51294796Y-149227889D01*
X51431799Y-149278989D01*
X51492362Y-149285500D01*
X51906500Y-149285500D01*
X51969500Y-149302381D01*
X52015619Y-149348500D01*
X52032500Y-149411500D01*
X52032500Y-150375638D01*
X52039011Y-150436201D01*
X52050693Y-150467520D01*
X52090111Y-150573205D01*
X52177738Y-150690261D01*
X52294794Y-150777888D01*
X52294795Y-150777888D01*
X52294796Y-150777889D01*
X52431799Y-150828989D01*
X52492362Y-150835500D01*
X53389638Y-150835500D01*
X53450201Y-150828989D01*
X53587204Y-150777889D01*
X53704261Y-150690261D01*
X53791889Y-150573204D01*
X53842989Y-150436201D01*
X53849500Y-150375638D01*
X53849500Y-149278362D01*
X53842989Y-149217799D01*
X53791889Y-149080796D01*
X53777857Y-149062051D01*
X53704261Y-148963738D01*
X53599991Y-148885682D01*
X53562828Y-148841214D01*
X53549500Y-148784814D01*
X53549500Y-148356672D01*
X53566052Y-148294244D01*
X53611361Y-148248218D01*
X53673521Y-148230688D01*
X53736201Y-148246258D01*
X53809628Y-148286625D01*
X53809632Y-148286627D01*
X53968823Y-148327500D01*
X54091925Y-148327500D01*
X54091928Y-148327500D01*
X54152991Y-148319785D01*
X54214058Y-148312071D01*
X54366871Y-148251568D01*
X54499837Y-148154963D01*
X54604600Y-148028326D01*
X54674579Y-147879613D01*
X54705376Y-147718170D01*
X54701568Y-147657652D01*
X54695056Y-147554140D01*
X54657164Y-147437520D01*
X54644268Y-147397829D01*
X54644210Y-147397738D01*
X54556202Y-147259060D01*
X54436391Y-147146550D01*
X54292371Y-147067374D01*
X54292368Y-147067373D01*
X54133177Y-147026500D01*
X54010075Y-147026500D01*
X54010072Y-147026500D01*
X53887944Y-147041928D01*
X53848782Y-147057433D01*
X53735129Y-147102432D01*
X53735127Y-147102433D01*
X53735128Y-147102433D01*
X53602162Y-147199037D01*
X53497399Y-147325674D01*
X53427420Y-147474385D01*
X53419051Y-147518257D01*
X53397587Y-147568197D01*
X53357084Y-147604448D01*
X53305079Y-147620264D01*
X53251251Y-147612701D01*
X53229124Y-147604448D01*
X53150201Y-147575011D01*
X53089638Y-147568500D01*
X51492362Y-147568500D01*
X51431799Y-147575011D01*
X51372717Y-147597047D01*
X51294792Y-147626112D01*
X51278237Y-147638505D01*
X51223623Y-147661891D01*
X51164364Y-147657652D01*
X51113636Y-147626730D01*
X50604121Y-147117215D01*
X50579490Y-147082364D01*
X50567907Y-147041295D01*
X50550542Y-146876072D01*
X50491527Y-146694444D01*
X50491527Y-146694443D01*
X50396041Y-146529057D01*
X50268252Y-146387133D01*
X50132407Y-146288436D01*
X50092460Y-146240148D01*
X50080717Y-146178588D01*
X50100083Y-146118986D01*
X50145767Y-146076085D01*
X50206468Y-146060500D01*
X51054960Y-146060500D01*
X51111360Y-146073828D01*
X51155825Y-146110988D01*
X51177739Y-146140261D01*
X51294796Y-146227889D01*
X51431799Y-146278989D01*
X51492362Y-146285500D01*
X53089638Y-146285500D01*
X53150201Y-146278989D01*
X53287204Y-146227889D01*
X53404261Y-146140261D01*
X53491889Y-146023204D01*
X53542989Y-145886201D01*
X53549500Y-145825638D01*
X53549500Y-145356672D01*
X53566052Y-145294244D01*
X53611361Y-145248218D01*
X53673521Y-145230688D01*
X53736201Y-145246258D01*
X53745860Y-145251568D01*
X53809632Y-145286627D01*
X53968823Y-145327500D01*
X54091925Y-145327500D01*
X54091928Y-145327500D01*
X54152991Y-145319785D01*
X54214058Y-145312071D01*
X54366871Y-145251568D01*
X54499837Y-145154963D01*
X54604600Y-145028326D01*
X54674579Y-144879613D01*
X54705376Y-144718170D01*
X54701481Y-144656269D01*
X54695056Y-144554140D01*
X54691332Y-144542680D01*
X54644268Y-144397829D01*
X54635336Y-144383755D01*
X54556202Y-144259060D01*
X54436391Y-144146550D01*
X54292371Y-144067374D01*
X54292368Y-144067373D01*
X54133177Y-144026500D01*
X54010075Y-144026500D01*
X54010072Y-144026500D01*
X53887944Y-144041928D01*
X53735128Y-144102432D01*
X53690276Y-144135018D01*
X53660108Y-144156937D01*
X53624986Y-144174833D01*
X53586050Y-144181000D01*
X51033000Y-144181000D01*
X51033000Y-144325589D01*
X51039505Y-144386093D01*
X51090553Y-144522960D01*
X51142229Y-144591990D01*
X51166859Y-144656269D01*
X51154034Y-144723899D01*
X51107579Y-144774697D01*
X51041361Y-144793500D01*
X43401594Y-144793500D01*
X43353376Y-144783909D01*
X43312499Y-144756595D01*
X42246776Y-143690871D01*
X42234754Y-143673000D01*
X51033000Y-143673000D01*
X53549000Y-143673000D01*
X53549000Y-143569560D01*
X53562328Y-143513160D01*
X53599491Y-143468692D01*
X53704261Y-143390261D01*
X53791888Y-143273205D01*
X53791887Y-143273205D01*
X53791889Y-143273204D01*
X53842989Y-143136201D01*
X53849500Y-143075638D01*
X53849500Y-141978362D01*
X53842989Y-141917799D01*
X53791889Y-141780796D01*
X53791888Y-141780794D01*
X53704261Y-141663738D01*
X53587205Y-141576111D01*
X53503235Y-141544792D01*
X53450201Y-141525011D01*
X53389638Y-141518500D01*
X52492362Y-141518500D01*
X52431799Y-141525011D01*
X52294794Y-141576111D01*
X52177738Y-141663738D01*
X52090111Y-141780794D01*
X52039011Y-141917799D01*
X52032500Y-141978362D01*
X52032500Y-142943000D01*
X52015619Y-143006000D01*
X51969500Y-143052119D01*
X51906500Y-143069000D01*
X51492411Y-143069000D01*
X51431906Y-143075505D01*
X51295037Y-143126554D01*
X51178095Y-143214095D01*
X51090554Y-143331037D01*
X51039505Y-143467906D01*
X51033000Y-143528411D01*
X51033000Y-143673000D01*
X42234754Y-143673000D01*
X42219765Y-143650719D01*
X42209881Y-143603346D01*
X42218580Y-143555746D01*
X42269043Y-143427170D01*
X42328525Y-143166562D01*
X42348501Y-142900000D01*
X42328525Y-142633438D01*
X42269043Y-142372830D01*
X42171384Y-142123998D01*
X42037729Y-141892502D01*
X41871064Y-141683510D01*
X41675112Y-141501694D01*
X41527871Y-141401306D01*
X41454250Y-141351112D01*
X41213410Y-141235129D01*
X41025107Y-141177046D01*
X40957979Y-141156340D01*
X40693655Y-141116500D01*
X40426345Y-141116500D01*
X40162021Y-141156340D01*
X40162017Y-141156341D01*
X40162018Y-141156341D01*
X39906589Y-141235129D01*
X39665747Y-141351114D01*
X39444888Y-141501693D01*
X39248937Y-141683507D01*
X39110546Y-141857045D01*
X39066704Y-141892007D01*
X39012035Y-141904485D01*
X38957365Y-141892007D01*
X38913524Y-141857044D01*
X38815934Y-141734669D01*
X38803999Y-141723595D01*
X38628219Y-141560495D01*
X38416646Y-141416246D01*
X38416645Y-141416245D01*
X38416643Y-141416244D01*
X38185935Y-141305141D01*
X37958963Y-141235131D01*
X37941243Y-141229665D01*
X37688034Y-141191500D01*
X37431966Y-141191500D01*
X37178757Y-141229665D01*
X37178753Y-141229666D01*
X37178754Y-141229666D01*
X36934064Y-141305141D01*
X36703354Y-141416246D01*
X36491784Y-141560491D01*
X36304065Y-141734669D01*
X36144413Y-141934868D01*
X36042172Y-142111954D01*
X36002728Y-142153937D01*
X35948720Y-142173976D01*
X35891438Y-142167883D01*
X35739257Y-142114632D01*
X35685534Y-142108579D01*
X35604954Y-142099500D01*
X35515046Y-142099500D01*
X35447895Y-142107065D01*
X35380742Y-142114632D01*
X35228561Y-142167883D01*
X35171279Y-142173976D01*
X35117271Y-142153937D01*
X35077828Y-142111955D01*
X34975587Y-141934869D01*
X34914148Y-141857827D01*
X34815934Y-141734669D01*
X34803999Y-141723595D01*
X34628219Y-141560495D01*
X34416646Y-141416246D01*
X34416645Y-141416245D01*
X34416643Y-141416244D01*
X34185935Y-141305141D01*
X33958963Y-141235131D01*
X33941243Y-141229665D01*
X33688034Y-141191500D01*
X33431966Y-141191500D01*
X33178757Y-141229665D01*
X33178753Y-141229666D01*
X33178754Y-141229666D01*
X32934064Y-141305141D01*
X32703354Y-141416246D01*
X32491784Y-141560491D01*
X32304064Y-141734670D01*
X32206473Y-141857045D01*
X32162632Y-141892007D01*
X32107962Y-141904485D01*
X32053293Y-141892007D01*
X32009452Y-141857044D01*
X31871064Y-141683510D01*
X31717501Y-141541025D01*
X31675112Y-141501694D01*
X31527871Y-141401306D01*
X31454250Y-141351112D01*
X31213410Y-141235129D01*
X31025107Y-141177046D01*
X30957979Y-141156340D01*
X30693655Y-141116500D01*
X30426345Y-141116500D01*
X30162021Y-141156340D01*
X30162017Y-141156341D01*
X30162018Y-141156341D01*
X29906589Y-141235129D01*
X29665747Y-141351114D01*
X29444888Y-141501693D01*
X29248935Y-141683510D01*
X29082271Y-141892501D01*
X28948616Y-142123997D01*
X28850957Y-142372828D01*
X28791475Y-142633436D01*
X28771499Y-142900000D01*
X24873902Y-142900000D01*
X25280657Y-142493245D01*
X25296978Y-142480171D01*
X25299014Y-142478002D01*
X25299018Y-142478000D01*
X25345661Y-142428328D01*
X25348352Y-142425551D01*
X25368135Y-142405770D01*
X25370621Y-142402564D01*
X25378310Y-142393561D01*
X25408586Y-142361321D01*
X25418342Y-142343571D01*
X25429195Y-142327050D01*
X25441614Y-142311041D01*
X25459175Y-142270454D01*
X25464388Y-142259813D01*
X25485695Y-142221060D01*
X25490733Y-142201434D01*
X25497137Y-142182732D01*
X25505181Y-142164145D01*
X25512096Y-142120481D01*
X25514504Y-142108853D01*
X25525500Y-142066029D01*
X25525500Y-142045776D01*
X25527051Y-142026066D01*
X25530220Y-142006057D01*
X25526059Y-141962039D01*
X25525500Y-141950181D01*
X25525500Y-139021854D01*
X25527795Y-139001064D01*
X25526728Y-138967118D01*
X25525561Y-138930001D01*
X25525500Y-138926044D01*
X25525500Y-138898149D01*
X25525500Y-138898144D01*
X25524993Y-138894138D01*
X25524062Y-138882305D01*
X25523200Y-138854866D01*
X25522674Y-138838111D01*
X25517020Y-138818652D01*
X25513013Y-138799306D01*
X25510474Y-138779203D01*
X25494194Y-138738086D01*
X25490353Y-138726866D01*
X25478018Y-138684407D01*
X25467706Y-138666970D01*
X25459008Y-138649215D01*
X25455942Y-138641472D01*
X25451552Y-138630383D01*
X25425565Y-138594616D01*
X25419047Y-138584693D01*
X25396542Y-138546638D01*
X25382212Y-138532308D01*
X25369378Y-138517281D01*
X25357472Y-138500893D01*
X25357471Y-138500892D01*
X25323394Y-138472700D01*
X25314616Y-138464712D01*
X23621244Y-136771339D01*
X23608171Y-136755021D01*
X23589386Y-136737381D01*
X23556347Y-136706355D01*
X23553536Y-136703631D01*
X23533770Y-136683865D01*
X23530575Y-136681386D01*
X23521553Y-136673681D01*
X23489320Y-136643413D01*
X23471567Y-136633653D01*
X23455041Y-136622797D01*
X23439041Y-136610386D01*
X23398466Y-136592828D01*
X23387804Y-136587604D01*
X23349063Y-136566305D01*
X23330914Y-136561646D01*
X23329437Y-136561266D01*
X23310731Y-136554862D01*
X23292145Y-136546819D01*
X23248475Y-136539902D01*
X23236853Y-136537495D01*
X23227050Y-136534978D01*
X23194030Y-136526500D01*
X23194029Y-136526500D01*
X23173776Y-136526500D01*
X23154066Y-136524949D01*
X23134057Y-136521779D01*
X23090039Y-136525941D01*
X23078181Y-136526500D01*
X22882967Y-136526500D01*
X22830516Y-136515064D01*
X22787586Y-136482831D01*
X22761970Y-136435653D01*
X22725145Y-136308900D01*
X22725145Y-136308899D01*
X22640453Y-136165693D01*
X22640451Y-136165691D01*
X22640450Y-136165689D01*
X22522810Y-136048049D01*
X22379599Y-135963354D01*
X22219833Y-135916938D01*
X22209165Y-135916098D01*
X22182502Y-135914000D01*
X22182497Y-135914000D01*
X21950500Y-135914000D01*
X21887500Y-135897119D01*
X21841381Y-135851000D01*
X21824500Y-135788000D01*
X21824500Y-134631003D01*
X21822414Y-134604500D01*
X21821562Y-134593669D01*
X21775145Y-134433899D01*
X21690453Y-134290693D01*
X21690451Y-134290691D01*
X21690450Y-134290689D01*
X21572808Y-134173047D01*
X21499071Y-134129439D01*
X21482894Y-134118070D01*
X21481473Y-134116894D01*
X21481472Y-134116893D01*
X21447394Y-134088701D01*
X21438616Y-134080712D01*
X18765405Y-131407500D01*
X18738091Y-131366623D01*
X18728500Y-131318405D01*
X18728500Y-130246523D01*
X18739294Y-130195498D01*
X18769827Y-130153215D01*
X18814867Y-130126919D01*
X18892738Y-130101115D01*
X18934362Y-130075441D01*
X19004439Y-130032216D01*
X19057172Y-130014173D01*
X19112531Y-130020644D01*
X19159679Y-130050361D01*
X19178348Y-130069030D01*
X19329262Y-130162115D01*
X19497574Y-130217887D01*
X19601455Y-130228500D01*
X20652544Y-130228499D01*
X20756426Y-130217887D01*
X20924738Y-130162115D01*
X21075652Y-130069030D01*
X21107393Y-130037288D01*
X21163239Y-130004850D01*
X21227821Y-130004342D01*
X21284172Y-130035899D01*
X21317485Y-130091230D01*
X21323982Y-130113593D01*
X21334294Y-130131030D01*
X21342987Y-130148774D01*
X21350448Y-130167617D01*
X21350449Y-130167619D01*
X21376431Y-130203380D01*
X21382948Y-130213301D01*
X21405458Y-130251363D01*
X21419778Y-130265683D01*
X21432618Y-130280716D01*
X21444526Y-130297105D01*
X21444527Y-130297106D01*
X21444528Y-130297107D01*
X21465663Y-130314591D01*
X21478598Y-130325292D01*
X21487378Y-130333282D01*
X21844751Y-130690655D01*
X21857834Y-130706985D01*
X21909665Y-130755656D01*
X21912477Y-130758381D01*
X21932230Y-130778134D01*
X21933826Y-130779372D01*
X21935424Y-130780612D01*
X21944444Y-130788316D01*
X21976679Y-130818586D01*
X21994435Y-130828347D01*
X22010951Y-130839196D01*
X22026959Y-130851613D01*
X22067153Y-130869006D01*
X22067525Y-130869167D01*
X22078188Y-130874391D01*
X22116938Y-130895694D01*
X22116940Y-130895695D01*
X22136562Y-130900733D01*
X22155267Y-130907137D01*
X22173855Y-130915181D01*
X22217522Y-130922096D01*
X22229129Y-130924500D01*
X22271970Y-130935500D01*
X22292231Y-130935500D01*
X22311939Y-130937050D01*
X22331943Y-130940219D01*
X22331943Y-130940218D01*
X22331944Y-130940219D01*
X22375954Y-130936059D01*
X22387811Y-130935500D01*
X23284147Y-130935500D01*
X23304935Y-130937795D01*
X23307907Y-130937701D01*
X23307909Y-130937702D01*
X23375985Y-130935562D01*
X23379945Y-130935500D01*
X23407852Y-130935500D01*
X23407856Y-130935500D01*
X23411865Y-130934993D01*
X23423699Y-130934061D01*
X23467889Y-130932673D01*
X23487338Y-130927021D01*
X23506698Y-130923012D01*
X23526797Y-130920474D01*
X23567915Y-130904193D01*
X23579117Y-130900357D01*
X23621593Y-130888018D01*
X23639039Y-130877699D01*
X23656780Y-130869009D01*
X23675617Y-130861552D01*
X23711392Y-130835558D01*
X23721303Y-130829048D01*
X23759362Y-130806542D01*
X23773691Y-130792212D01*
X23788719Y-130779377D01*
X23805107Y-130767472D01*
X23833303Y-130733386D01*
X23841272Y-130724630D01*
X24198658Y-130367244D01*
X24214979Y-130354170D01*
X24217014Y-130352002D01*
X24217018Y-130352000D01*
X24263677Y-130302311D01*
X24266368Y-130299534D01*
X24286134Y-130279770D01*
X24288605Y-130276583D01*
X24296312Y-130267559D01*
X24326586Y-130235321D01*
X24336343Y-130217570D01*
X24347199Y-130201043D01*
X24359613Y-130185041D01*
X24377172Y-130144461D01*
X24382392Y-130133809D01*
X24396857Y-130107497D01*
X24403695Y-130095060D01*
X24408732Y-130075439D01*
X24415138Y-130056730D01*
X24423181Y-130038145D01*
X24423657Y-130035134D01*
X24435838Y-129997642D01*
X24459008Y-129965750D01*
X24484453Y-129940307D01*
X24569145Y-129797101D01*
X24615562Y-129637331D01*
X24618500Y-129600002D01*
X24618500Y-128441998D01*
X24615562Y-128404669D01*
X24569145Y-128244899D01*
X24484453Y-128101693D01*
X24484451Y-128101691D01*
X24484450Y-128101689D01*
X24355552Y-127972791D01*
X24358459Y-127969883D01*
X24334891Y-127945970D01*
X24318315Y-127883500D01*
X24334891Y-127821030D01*
X24358459Y-127797116D01*
X24355552Y-127794209D01*
X24484450Y-127665310D01*
X24484450Y-127665309D01*
X24484453Y-127665307D01*
X24569145Y-127522101D01*
X24615562Y-127362331D01*
X24618500Y-127325002D01*
X24618500Y-126166998D01*
X24615562Y-126129669D01*
X24569145Y-125969899D01*
X24484453Y-125826693D01*
X24484451Y-125826691D01*
X24484450Y-125826689D01*
X24366810Y-125709049D01*
X24288357Y-125662652D01*
X24223601Y-125624355D01*
X24223600Y-125624354D01*
X24223599Y-125624354D01*
X24063833Y-125577938D01*
X24053165Y-125577098D01*
X24026502Y-125575000D01*
X23593498Y-125575000D01*
X23570167Y-125576836D01*
X23556166Y-125577938D01*
X23396400Y-125624354D01*
X23253189Y-125709049D01*
X23135549Y-125826689D01*
X23050854Y-125969900D01*
X23004438Y-126129666D01*
X23001500Y-126167003D01*
X23001500Y-127324997D01*
X23004438Y-127362333D01*
X23048211Y-127513000D01*
X23050855Y-127522101D01*
X23059722Y-127537095D01*
X23143650Y-127679008D01*
X23141667Y-127680180D01*
X23165138Y-127723139D01*
X23160128Y-127793901D01*
X23117683Y-127850741D01*
X23114000Y-127853506D01*
X23114000Y-128103658D01*
X23096453Y-128167797D01*
X23050855Y-128244897D01*
X23004438Y-128404666D01*
X23004438Y-128404669D01*
X23002024Y-128435348D01*
X23001500Y-128442003D01*
X23001500Y-129149000D01*
X22984619Y-129212000D01*
X22938500Y-129258119D01*
X22875500Y-129275000D01*
X22844500Y-129275000D01*
X22781500Y-129258119D01*
X22735381Y-129212000D01*
X22718500Y-129149000D01*
X22718500Y-128442003D01*
X22718500Y-128441998D01*
X22715562Y-128404669D01*
X22669145Y-128244899D01*
X22655669Y-128222113D01*
X22623547Y-128167797D01*
X22606000Y-128103658D01*
X22606000Y-127853507D01*
X22602317Y-127850742D01*
X22559871Y-127793899D01*
X22554863Y-127723133D01*
X22578333Y-127680180D01*
X22576350Y-127679008D01*
X22585623Y-127663328D01*
X22669145Y-127522101D01*
X22715562Y-127362331D01*
X22718500Y-127325002D01*
X22718500Y-126166998D01*
X22715562Y-126129669D01*
X22669145Y-125969899D01*
X22584453Y-125826693D01*
X22584451Y-125826691D01*
X22584450Y-125826689D01*
X22580405Y-125822644D01*
X22553091Y-125781767D01*
X22543500Y-125733549D01*
X22543500Y-125726806D01*
X22562259Y-125660659D01*
X22654115Y-125511738D01*
X22709887Y-125343426D01*
X22720500Y-125239545D01*
X22720499Y-124188456D01*
X22709887Y-124084574D01*
X22654115Y-123916262D01*
X22561030Y-123765348D01*
X22561026Y-123765344D01*
X22560288Y-123764147D01*
X22541529Y-123698000D01*
X22560288Y-123631853D01*
X22561026Y-123630655D01*
X22561030Y-123630652D01*
X22654115Y-123479738D01*
X22669768Y-123432500D01*
X22679919Y-123401867D01*
X22706215Y-123356827D01*
X22748498Y-123326294D01*
X22799523Y-123315500D01*
X26037500Y-123315500D01*
X26100500Y-123332381D01*
X26146619Y-123378500D01*
X26163500Y-123441500D01*
X26163500Y-132530826D01*
X26149767Y-132588029D01*
X26111561Y-132632762D01*
X26058747Y-132671133D01*
X25930958Y-132813057D01*
X25835472Y-132978443D01*
X25776458Y-133160070D01*
X25756496Y-133350000D01*
X25776458Y-133539929D01*
X25835472Y-133721556D01*
X25930958Y-133886942D01*
X25930960Y-133886944D01*
X26058747Y-134028866D01*
X26213248Y-134141118D01*
X26387712Y-134218794D01*
X26574513Y-134258500D01*
X26765485Y-134258500D01*
X26765487Y-134258500D01*
X26952288Y-134218794D01*
X27126752Y-134141118D01*
X27281253Y-134028866D01*
X27409040Y-133886944D01*
X27504527Y-133721556D01*
X27563542Y-133539928D01*
X27583504Y-133350000D01*
X27563542Y-133160072D01*
X27504527Y-132978444D01*
X27447380Y-132879463D01*
X27430500Y-132816465D01*
X27430500Y-122753793D01*
X27432732Y-122730181D01*
X27434275Y-122722094D01*
X27430748Y-122666048D01*
X27430500Y-122658137D01*
X27430500Y-117218500D01*
X27447381Y-117155500D01*
X27493500Y-117109381D01*
X27556500Y-117092500D01*
X38409477Y-117092500D01*
X38460502Y-117103294D01*
X38502785Y-117133827D01*
X38529081Y-117178867D01*
X38554883Y-117256735D01*
X38647972Y-117407655D01*
X38773344Y-117533027D01*
X38773346Y-117533028D01*
X38773348Y-117533030D01*
X38924262Y-117626115D01*
X39092574Y-117681887D01*
X39196455Y-117692500D01*
X39615500Y-117692499D01*
X39678500Y-117709380D01*
X39724619Y-117755499D01*
X39741500Y-117818499D01*
X39741500Y-117911207D01*
X39739268Y-117934819D01*
X39737724Y-117942908D01*
X39741251Y-117998951D01*
X39741500Y-118006863D01*
X39741500Y-123764405D01*
X39731909Y-123812623D01*
X39704595Y-123853500D01*
X37203336Y-126354757D01*
X37187016Y-126367833D01*
X37138370Y-126419635D01*
X37135620Y-126422473D01*
X37115868Y-126442226D01*
X37115864Y-126442230D01*
X37115865Y-126442230D01*
X37113379Y-126445433D01*
X37105687Y-126454439D01*
X37075413Y-126486678D01*
X37065652Y-126504434D01*
X37054801Y-126520952D01*
X37042385Y-126536959D01*
X37024824Y-126577539D01*
X37019604Y-126588195D01*
X36998304Y-126626940D01*
X36993267Y-126646559D01*
X36986864Y-126665261D01*
X36978818Y-126683855D01*
X36971901Y-126727524D01*
X36969495Y-126739144D01*
X36958500Y-126781970D01*
X36958500Y-126802224D01*
X36956949Y-126821934D01*
X36953779Y-126841942D01*
X36957941Y-126885961D01*
X36958500Y-126897819D01*
X36958500Y-136210406D01*
X36948909Y-136258624D01*
X36921595Y-136299501D01*
X35715500Y-137505595D01*
X35674623Y-137532909D01*
X35626405Y-137542500D01*
X31315200Y-137542500D01*
X31263952Y-137531607D01*
X31221565Y-137500812D01*
X31218253Y-137497133D01*
X31063753Y-137384883D01*
X31063752Y-137384882D01*
X30889288Y-137307206D01*
X30702487Y-137267500D01*
X30511513Y-137267500D01*
X30386979Y-137293970D01*
X30324711Y-137307206D01*
X30150246Y-137384883D01*
X29995747Y-137497133D01*
X29867958Y-137639057D01*
X29772472Y-137804443D01*
X29713458Y-137986070D01*
X29693496Y-138176000D01*
X29713458Y-138365929D01*
X29772472Y-138547556D01*
X29867958Y-138712942D01*
X29932334Y-138784439D01*
X29995747Y-138854866D01*
X30150248Y-138967118D01*
X30324712Y-139044794D01*
X30511513Y-139084500D01*
X30702485Y-139084500D01*
X30702487Y-139084500D01*
X30889288Y-139044794D01*
X31063752Y-138967118D01*
X31218253Y-138854866D01*
X31221564Y-138851188D01*
X31263952Y-138820393D01*
X31315200Y-138809500D01*
X35857147Y-138809500D01*
X35877935Y-138811795D01*
X35880907Y-138811701D01*
X35880909Y-138811702D01*
X35948985Y-138809562D01*
X35952945Y-138809500D01*
X35980852Y-138809500D01*
X35980856Y-138809500D01*
X35984865Y-138808993D01*
X35996699Y-138808061D01*
X36040889Y-138806673D01*
X36060338Y-138801021D01*
X36079698Y-138797012D01*
X36099797Y-138794474D01*
X36140915Y-138778193D01*
X36152117Y-138774357D01*
X36194593Y-138762018D01*
X36212039Y-138751699D01*
X36229780Y-138743009D01*
X36248617Y-138735552D01*
X36284392Y-138709558D01*
X36294303Y-138703048D01*
X36332362Y-138680542D01*
X36346691Y-138666212D01*
X36361719Y-138653377D01*
X36378107Y-138641472D01*
X36406303Y-138607386D01*
X36414272Y-138598630D01*
X37980658Y-137032244D01*
X37996979Y-137019170D01*
X37999014Y-137017002D01*
X37999018Y-137017000D01*
X38045676Y-136967312D01*
X38048367Y-136964535D01*
X38068135Y-136944769D01*
X38070611Y-136941576D01*
X38078316Y-136932553D01*
X38108586Y-136900321D01*
X38118345Y-136882567D01*
X38129198Y-136866045D01*
X38141614Y-136850040D01*
X38159174Y-136809459D01*
X38164388Y-136798815D01*
X38185695Y-136760060D01*
X38190732Y-136740439D01*
X38197138Y-136721730D01*
X38203791Y-136706356D01*
X38205181Y-136703145D01*
X38212096Y-136659477D01*
X38214504Y-136647853D01*
X38218150Y-136633653D01*
X38225500Y-136605030D01*
X38225500Y-136584776D01*
X38227051Y-136565066D01*
X38230220Y-136545057D01*
X38226059Y-136501039D01*
X38225500Y-136489181D01*
X38225500Y-132112890D01*
X39690500Y-132112890D01*
X39705555Y-132328187D01*
X39735705Y-132470030D01*
X39765412Y-132609790D01*
X39863872Y-132880309D01*
X39999029Y-133134503D01*
X40085784Y-133253910D01*
X40168247Y-133367410D01*
X40271611Y-133474446D01*
X40368234Y-133574502D01*
X40595088Y-133751740D01*
X40844409Y-133895687D01*
X41111334Y-134003531D01*
X41270560Y-134043230D01*
X41390672Y-134073177D01*
X41676984Y-134103270D01*
X41676987Y-134103269D01*
X41676988Y-134103270D01*
X41820840Y-134098246D01*
X41964697Y-134093223D01*
X42248212Y-134043231D01*
X42522011Y-133954269D01*
X42780763Y-133828067D01*
X43019434Y-133667081D01*
X43019433Y-133667081D01*
X43019437Y-133667079D01*
X43160652Y-133539928D01*
X43233377Y-133474446D01*
X43418428Y-133253911D01*
X43570986Y-133009767D01*
X43688081Y-132746768D01*
X43767434Y-132470031D01*
X43807500Y-132184944D01*
X43807500Y-132112890D01*
X49490500Y-132112890D01*
X49505555Y-132328187D01*
X49535705Y-132470030D01*
X49565412Y-132609790D01*
X49663872Y-132880309D01*
X49799029Y-133134503D01*
X49885784Y-133253910D01*
X49968247Y-133367410D01*
X50071611Y-133474446D01*
X50168234Y-133574502D01*
X50395088Y-133751740D01*
X50644409Y-133895687D01*
X50911334Y-134003531D01*
X51070560Y-134043230D01*
X51190672Y-134073177D01*
X51476984Y-134103270D01*
X51476987Y-134103269D01*
X51476988Y-134103270D01*
X51620840Y-134098246D01*
X51764697Y-134093223D01*
X52048212Y-134043231D01*
X52322011Y-133954269D01*
X52580763Y-133828067D01*
X52819434Y-133667081D01*
X52819433Y-133667081D01*
X52819437Y-133667079D01*
X52960652Y-133539928D01*
X53033377Y-133474446D01*
X53218428Y-133253911D01*
X53370986Y-133009767D01*
X53488081Y-132746768D01*
X53567434Y-132470031D01*
X53607500Y-132184944D01*
X53607500Y-131569110D01*
X53592445Y-131353813D01*
X53532589Y-131072215D01*
X53482374Y-130934248D01*
X53434127Y-130801690D01*
X53424853Y-130784249D01*
X53393148Y-130724619D01*
X53298970Y-130547496D01*
X53160862Y-130357408D01*
X53129753Y-130314590D01*
X52929769Y-130107501D01*
X52929768Y-130107500D01*
X52929765Y-130107497D01*
X52702911Y-129930259D01*
X52453590Y-129786312D01*
X52186665Y-129678468D01*
X51907331Y-129608823D01*
X51621011Y-129578729D01*
X51333306Y-129588776D01*
X51049784Y-129638769D01*
X50775990Y-129727730D01*
X50517236Y-129853932D01*
X50278562Y-130014920D01*
X50064626Y-130207550D01*
X49879571Y-130428089D01*
X49727015Y-130672231D01*
X49727014Y-130672233D01*
X49627522Y-130895695D01*
X49609919Y-130935232D01*
X49530565Y-131211969D01*
X49503086Y-131407500D01*
X49490500Y-131497056D01*
X49490500Y-132112890D01*
X43807500Y-132112890D01*
X43807500Y-131569110D01*
X43792445Y-131353813D01*
X43732589Y-131072215D01*
X43682374Y-130934248D01*
X43634127Y-130801690D01*
X43624853Y-130784249D01*
X43593148Y-130724619D01*
X43498970Y-130547496D01*
X43360862Y-130357408D01*
X43329753Y-130314590D01*
X43129769Y-130107501D01*
X43129768Y-130107500D01*
X43129765Y-130107497D01*
X42902911Y-129930259D01*
X42653590Y-129786312D01*
X42386665Y-129678468D01*
X42107331Y-129608823D01*
X41821011Y-129578729D01*
X41533306Y-129588776D01*
X41249784Y-129638769D01*
X40975990Y-129727730D01*
X40717236Y-129853932D01*
X40478562Y-130014920D01*
X40264626Y-130207550D01*
X40079571Y-130428089D01*
X39927015Y-130672231D01*
X39927014Y-130672233D01*
X39827522Y-130895695D01*
X39809919Y-130935232D01*
X39730565Y-131211969D01*
X39703086Y-131407500D01*
X39690500Y-131497056D01*
X39690500Y-132112890D01*
X38225500Y-132112890D01*
X38225500Y-127176594D01*
X38235091Y-127128376D01*
X38262405Y-127087499D01*
X38884445Y-126465459D01*
X40508902Y-124841000D01*
X42735673Y-124841000D01*
X42754949Y-125073626D01*
X42754949Y-125073629D01*
X42754950Y-125073630D01*
X42812250Y-125299905D01*
X42906016Y-125513669D01*
X42970577Y-125612488D01*
X43033686Y-125709083D01*
X43191780Y-125880818D01*
X43375983Y-126024190D01*
X43581273Y-126135287D01*
X43802049Y-126211080D01*
X44032288Y-126249500D01*
X44265709Y-126249500D01*
X44265712Y-126249500D01*
X44495951Y-126211080D01*
X44716727Y-126135287D01*
X44922017Y-126024190D01*
X45106220Y-125880818D01*
X45264314Y-125709083D01*
X45293517Y-125664383D01*
X45339031Y-125622485D01*
X45399000Y-125607299D01*
X45458969Y-125622485D01*
X45504482Y-125664383D01*
X45533686Y-125709083D01*
X45691780Y-125880818D01*
X45875983Y-126024190D01*
X46081273Y-126135287D01*
X46302049Y-126211080D01*
X46532288Y-126249500D01*
X46765709Y-126249500D01*
X46765712Y-126249500D01*
X46995951Y-126211080D01*
X47216727Y-126135287D01*
X47422017Y-126024190D01*
X47588725Y-125894434D01*
X47641999Y-125870196D01*
X47700476Y-125872642D01*
X47751540Y-125901245D01*
X47784171Y-125949833D01*
X47798109Y-125987203D01*
X47885738Y-126104261D01*
X48002794Y-126191888D01*
X48002795Y-126191888D01*
X48002796Y-126191889D01*
X48139799Y-126242989D01*
X48200362Y-126249500D01*
X50097638Y-126249500D01*
X50158201Y-126242989D01*
X50295204Y-126191889D01*
X50412261Y-126104261D01*
X50499889Y-125987204D01*
X50550989Y-125850201D01*
X50557500Y-125789638D01*
X50557500Y-123892362D01*
X50550989Y-123831799D01*
X50499889Y-123694796D01*
X50472201Y-123657809D01*
X50412261Y-123577738D01*
X50295205Y-123490111D01*
X50226702Y-123464560D01*
X50158201Y-123439011D01*
X50097638Y-123432500D01*
X48200362Y-123432500D01*
X48139799Y-123439011D01*
X48002794Y-123490111D01*
X47885738Y-123577738D01*
X47798110Y-123694795D01*
X47784171Y-123732167D01*
X47751540Y-123780755D01*
X47700476Y-123809357D01*
X47641999Y-123811803D01*
X47588725Y-123787565D01*
X47517550Y-123732167D01*
X47422017Y-123657810D01*
X47390779Y-123640905D01*
X47216726Y-123546712D01*
X47051852Y-123490111D01*
X46995951Y-123470920D01*
X46765712Y-123432500D01*
X46532288Y-123432500D01*
X46302049Y-123470920D01*
X46302046Y-123470920D01*
X46302046Y-123470921D01*
X46081273Y-123546712D01*
X45875984Y-123657809D01*
X45691779Y-123801182D01*
X45533683Y-123972920D01*
X45504482Y-124017616D01*
X45458969Y-124059514D01*
X45399000Y-124074700D01*
X45339031Y-124059514D01*
X45293518Y-124017616D01*
X45264316Y-123972920D01*
X45264315Y-123972919D01*
X45264314Y-123972917D01*
X45106220Y-123801182D01*
X44922017Y-123657810D01*
X44890779Y-123640905D01*
X44716726Y-123546712D01*
X44551852Y-123490111D01*
X44495951Y-123470920D01*
X44265712Y-123432500D01*
X44032288Y-123432500D01*
X43802049Y-123470920D01*
X43802046Y-123470920D01*
X43802046Y-123470921D01*
X43581273Y-123546712D01*
X43375984Y-123657809D01*
X43191779Y-123801182D01*
X43033684Y-123972919D01*
X42906016Y-124168330D01*
X42812250Y-124382094D01*
X42754950Y-124608369D01*
X42754949Y-124608374D01*
X42735673Y-124841000D01*
X40508902Y-124841000D01*
X40763658Y-124586244D01*
X40779979Y-124573170D01*
X40782014Y-124571002D01*
X40782018Y-124571000D01*
X40828677Y-124521311D01*
X40831368Y-124518534D01*
X40851134Y-124498770D01*
X40853605Y-124495583D01*
X40861312Y-124486559D01*
X40891586Y-124454321D01*
X40901343Y-124436570D01*
X40912199Y-124420043D01*
X40924613Y-124404041D01*
X40942172Y-124363461D01*
X40947392Y-124352809D01*
X40968694Y-124314061D01*
X40968695Y-124314060D01*
X40973732Y-124294439D01*
X40980138Y-124275730D01*
X40988181Y-124257145D01*
X40995096Y-124213476D01*
X40997496Y-124201881D01*
X41008500Y-124159030D01*
X41008500Y-124138769D01*
X41010051Y-124119058D01*
X41013219Y-124099055D01*
X41009059Y-124055046D01*
X41008500Y-124043189D01*
X41008500Y-118742500D01*
X41025381Y-118679500D01*
X41071500Y-118633381D01*
X41134500Y-118616500D01*
X41158797Y-118616500D01*
X41278683Y-118616500D01*
X42842147Y-118616500D01*
X42862935Y-118618795D01*
X42865907Y-118618701D01*
X42865909Y-118618702D01*
X42933985Y-118616562D01*
X42937945Y-118616500D01*
X42965852Y-118616500D01*
X42965856Y-118616500D01*
X42969865Y-118615993D01*
X42981699Y-118615061D01*
X43025889Y-118613673D01*
X43045338Y-118608021D01*
X43064698Y-118604012D01*
X43084797Y-118601474D01*
X43125915Y-118585193D01*
X43137117Y-118581357D01*
X43179593Y-118569018D01*
X43197039Y-118558699D01*
X43214780Y-118550009D01*
X43233617Y-118542552D01*
X43269392Y-118516558D01*
X43279303Y-118510048D01*
X43317362Y-118487542D01*
X43331691Y-118473212D01*
X43346719Y-118460377D01*
X43363107Y-118448472D01*
X43391298Y-118414393D01*
X43399268Y-118405634D01*
X44078655Y-117726248D01*
X44116495Y-117700242D01*
X44271752Y-117631118D01*
X44426253Y-117518866D01*
X44554040Y-117376944D01*
X44649527Y-117211556D01*
X44708542Y-117029928D01*
X44728504Y-116840000D01*
X44708542Y-116650072D01*
X44662542Y-116508500D01*
X44649527Y-116468443D01*
X44554041Y-116303057D01*
X44426252Y-116161133D01*
X44271753Y-116048883D01*
X44271752Y-116048882D01*
X44097288Y-115971206D01*
X43910487Y-115931500D01*
X43719513Y-115931500D01*
X43594979Y-115957970D01*
X43532711Y-115971206D01*
X43358246Y-116048883D01*
X43203747Y-116161133D01*
X43075958Y-116303057D01*
X42980472Y-116468443D01*
X42921458Y-116650070D01*
X42901496Y-116840000D01*
X42921044Y-117025998D01*
X42914507Y-117081228D01*
X42884830Y-117128263D01*
X42700500Y-117312595D01*
X42659622Y-117339909D01*
X42611404Y-117349500D01*
X42482339Y-117349500D01*
X42424973Y-117335684D01*
X42380188Y-117297264D01*
X42357805Y-117242668D01*
X42362734Y-117183867D01*
X42394393Y-117088323D01*
X42405000Y-116984503D01*
X42405000Y-116713000D01*
X41269000Y-116713000D01*
X41206000Y-116696119D01*
X41159881Y-116650000D01*
X41143000Y-116587000D01*
X41143000Y-115699999D01*
X41118905Y-115675904D01*
X41091591Y-115635027D01*
X41082000Y-115586809D01*
X41082000Y-114681000D01*
X41590000Y-114681000D01*
X41590000Y-115186001D01*
X41614095Y-115210096D01*
X41641409Y-115250973D01*
X41651000Y-115299191D01*
X41651000Y-116205000D01*
X42405000Y-116205000D01*
X42405000Y-115933497D01*
X42394393Y-115829671D01*
X42338659Y-115661477D01*
X42245632Y-115510657D01*
X42226729Y-115491754D01*
X42197010Y-115444604D01*
X42190540Y-115389246D01*
X42208583Y-115336512D01*
X42277659Y-115224522D01*
X42333393Y-115056328D01*
X42344000Y-114952503D01*
X42344000Y-114742674D01*
X48079748Y-114742674D01*
X48089749Y-115003598D01*
X48139460Y-115259923D01*
X48227722Y-115505671D01*
X48352458Y-115735056D01*
X48510749Y-115942716D01*
X48698886Y-116123778D01*
X48912456Y-116273999D01*
X49038513Y-116336414D01*
X49146453Y-116389859D01*
X49395397Y-116468642D01*
X49653443Y-116508500D01*
X49653445Y-116508500D01*
X49849177Y-116508500D01*
X49849181Y-116508500D01*
X49927243Y-116502506D01*
X50044344Y-116493516D01*
X50298586Y-116434021D01*
X50540766Y-116336414D01*
X50765208Y-116202982D01*
X50966652Y-116036852D01*
X51140375Y-115841920D01*
X51282306Y-115622753D01*
X51389118Y-115384489D01*
X51458307Y-115132713D01*
X51488252Y-114873325D01*
X51478251Y-114612407D01*
X51428538Y-114356073D01*
X51340279Y-114110332D01*
X51215541Y-113880943D01*
X51057250Y-113673283D01*
X50869113Y-113492221D01*
X50655546Y-113342002D01*
X50421546Y-113226140D01*
X50172602Y-113147357D01*
X49914557Y-113107500D01*
X49914555Y-113107500D01*
X49718823Y-113107500D01*
X49718819Y-113107500D01*
X49523661Y-113122483D01*
X49523657Y-113122483D01*
X49523656Y-113122484D01*
X49489709Y-113130428D01*
X49269409Y-113181980D01*
X49027235Y-113279585D01*
X48802794Y-113413016D01*
X48601346Y-113579149D01*
X48427622Y-113774082D01*
X48285694Y-113993246D01*
X48178881Y-114231510D01*
X48109693Y-114483283D01*
X48079748Y-114742674D01*
X42344000Y-114742674D01*
X42344000Y-114681000D01*
X41590000Y-114681000D01*
X41082000Y-114681000D01*
X41082000Y-114299000D01*
X41098881Y-114236000D01*
X41145000Y-114189881D01*
X41208000Y-114173000D01*
X42344000Y-114173000D01*
X42344000Y-113901497D01*
X42333393Y-113797671D01*
X42277659Y-113629477D01*
X42184632Y-113478657D01*
X42059342Y-113353367D01*
X41908522Y-113260340D01*
X41740328Y-113204606D01*
X41636503Y-113194000D01*
X41564730Y-113194000D01*
X41501445Y-113176954D01*
X41455283Y-113130428D01*
X41438734Y-113067011D01*
X41456276Y-113003861D01*
X41471912Y-112977422D01*
X41496645Y-112935601D01*
X41527155Y-112830583D01*
X41546664Y-112763434D01*
X41548809Y-112764057D01*
X41564954Y-112719005D01*
X41615765Y-112676615D01*
X41681050Y-112665819D01*
X41790488Y-112677000D01*
X42037000Y-112677000D01*
X42037000Y-111910500D01*
X42545000Y-111910500D01*
X42545000Y-112677000D01*
X42791503Y-112677000D01*
X42895328Y-112666393D01*
X43063522Y-112610659D01*
X43214342Y-112517632D01*
X43339632Y-112392342D01*
X43432659Y-112241522D01*
X43488393Y-112073328D01*
X43499000Y-111969503D01*
X43499000Y-111910500D01*
X42545000Y-111910500D01*
X42037000Y-111910500D01*
X41409450Y-111910500D01*
X41361231Y-111900908D01*
X41320356Y-111873596D01*
X41294307Y-111847547D01*
X41151101Y-111762855D01*
X41151100Y-111762854D01*
X41151099Y-111762854D01*
X40991333Y-111716438D01*
X40980665Y-111715598D01*
X40954002Y-111713500D01*
X40953997Y-111713500D01*
X40247000Y-111713500D01*
X40184000Y-111696619D01*
X40137881Y-111650500D01*
X40121000Y-111587500D01*
X40121000Y-111556500D01*
X40137881Y-111493500D01*
X40184000Y-111447381D01*
X40247000Y-111430500D01*
X40953997Y-111430500D01*
X40954002Y-111430500D01*
X40991331Y-111427562D01*
X41151101Y-111381145D01*
X41228202Y-111335547D01*
X41292342Y-111318000D01*
X41459500Y-111318000D01*
X41522500Y-111334881D01*
X41568619Y-111381000D01*
X41570310Y-111387311D01*
X41585499Y-111402500D01*
X43499000Y-111402500D01*
X43499000Y-111343497D01*
X43488393Y-111239671D01*
X43432659Y-111071477D01*
X43339632Y-110920657D01*
X43252424Y-110833449D01*
X43219812Y-110776965D01*
X43219812Y-110711743D01*
X43252424Y-110655259D01*
X43340027Y-110567655D01*
X43340027Y-110567654D01*
X43340030Y-110567652D01*
X43433115Y-110416738D01*
X43488887Y-110248426D01*
X43499500Y-110144545D01*
X43499499Y-109518456D01*
X43488887Y-109414574D01*
X43463200Y-109337056D01*
X43458801Y-109275097D01*
X43484541Y-109218562D01*
X43534165Y-109181195D01*
X43595612Y-109172080D01*
X43702497Y-109183000D01*
X43749000Y-109183000D01*
X43749000Y-108204000D01*
X44257000Y-108204000D01*
X44257000Y-109183000D01*
X44303503Y-109183000D01*
X44407328Y-109172393D01*
X44575522Y-109116659D01*
X44726342Y-109023632D01*
X44851632Y-108898342D01*
X44944659Y-108747522D01*
X45000393Y-108579328D01*
X45011000Y-108475503D01*
X45011000Y-108204000D01*
X44257000Y-108204000D01*
X43749000Y-108204000D01*
X43749000Y-107186112D01*
X43757369Y-107140957D01*
X43781364Y-107101801D01*
X43782320Y-107100738D01*
X43792040Y-107089944D01*
X43887527Y-106924556D01*
X43946542Y-106742928D01*
X43949267Y-106717000D01*
X44257000Y-106717000D01*
X44257000Y-107696000D01*
X45011000Y-107696000D01*
X45011000Y-107424497D01*
X45000393Y-107320671D01*
X44944659Y-107152477D01*
X44851632Y-107001657D01*
X44726342Y-106876367D01*
X44575522Y-106783340D01*
X44407328Y-106727606D01*
X44303503Y-106717000D01*
X44257000Y-106717000D01*
X43949267Y-106717000D01*
X43966504Y-106553000D01*
X43946542Y-106363072D01*
X43887527Y-106181444D01*
X43887527Y-106181443D01*
X43792041Y-106016057D01*
X43664252Y-105874133D01*
X43509753Y-105761883D01*
X43509752Y-105761882D01*
X43335288Y-105684206D01*
X43148487Y-105644500D01*
X42957513Y-105644500D01*
X42832978Y-105670970D01*
X42770711Y-105684206D01*
X42596246Y-105761883D01*
X42441746Y-105874133D01*
X42438435Y-105877812D01*
X42396048Y-105908607D01*
X42344800Y-105919500D01*
X40977854Y-105919500D01*
X40957064Y-105917204D01*
X40886002Y-105919438D01*
X40882044Y-105919500D01*
X40854142Y-105919500D01*
X40850134Y-105920006D01*
X40838313Y-105920936D01*
X40794109Y-105922325D01*
X40774653Y-105927978D01*
X40755301Y-105931986D01*
X40735200Y-105934526D01*
X40694094Y-105950800D01*
X40682870Y-105954643D01*
X40640405Y-105966981D01*
X40622960Y-105977297D01*
X40605217Y-105985989D01*
X40586384Y-105993446D01*
X40550616Y-106019433D01*
X40540697Y-106025949D01*
X40502636Y-106048458D01*
X40488311Y-106062783D01*
X40473284Y-106075617D01*
X40456894Y-106087525D01*
X40428701Y-106121604D01*
X40420713Y-106130381D01*
X38930326Y-107620767D01*
X38870289Y-107654276D01*
X38801599Y-107651277D01*
X38788077Y-107646796D01*
X38770927Y-107641113D01*
X38750149Y-107638990D01*
X38667045Y-107630500D01*
X38667041Y-107630500D01*
X38056885Y-107630500D01*
X38006847Y-107620138D01*
X37971468Y-107604829D01*
X37960804Y-107599605D01*
X37922061Y-107578305D01*
X37913460Y-107576096D01*
X37902437Y-107573266D01*
X37883731Y-107566862D01*
X37865145Y-107558819D01*
X37821475Y-107551902D01*
X37809853Y-107549495D01*
X37767030Y-107538500D01*
X37767029Y-107538500D01*
X37746776Y-107538500D01*
X37727066Y-107536949D01*
X37707057Y-107533779D01*
X37663039Y-107537941D01*
X37651181Y-107538500D01*
X27556500Y-107538500D01*
X27493500Y-107521619D01*
X27447381Y-107475500D01*
X27430500Y-107412500D01*
X27430500Y-102683525D01*
X27438869Y-102638371D01*
X27462864Y-102599214D01*
X27536040Y-102517944D01*
X27631527Y-102352556D01*
X27690542Y-102170928D01*
X27710504Y-101981000D01*
X27690542Y-101791072D01*
X27631527Y-101609444D01*
X27631527Y-101609443D01*
X27536041Y-101444057D01*
X27408252Y-101302133D01*
X27253753Y-101189883D01*
X27253752Y-101189882D01*
X27079288Y-101112206D01*
X26892487Y-101072500D01*
X26701513Y-101072500D01*
X26576978Y-101098970D01*
X26514711Y-101112206D01*
X26340246Y-101189883D01*
X26185747Y-101302133D01*
X26057958Y-101444057D01*
X25962472Y-101609443D01*
X25903458Y-101791070D01*
X25883496Y-101981000D01*
X25903458Y-102170929D01*
X25962472Y-102352556D01*
X26057958Y-102517942D01*
X26131136Y-102599214D01*
X26155131Y-102638371D01*
X26163500Y-102683525D01*
X26163500Y-108144224D01*
X26161949Y-108163934D01*
X26158779Y-108183942D01*
X26162941Y-108227961D01*
X26163500Y-108239819D01*
X26163500Y-114486475D01*
X26155131Y-114531629D01*
X26131136Y-114570786D01*
X26057958Y-114652057D01*
X25962472Y-114817443D01*
X25903458Y-114999070D01*
X25883811Y-115186001D01*
X25883496Y-115189000D01*
X25887252Y-115224737D01*
X25903458Y-115378929D01*
X25962472Y-115560556D01*
X26057958Y-115725942D01*
X26131136Y-115807214D01*
X26155131Y-115846371D01*
X26163500Y-115891525D01*
X26163500Y-116387207D01*
X26161268Y-116410819D01*
X26159724Y-116418908D01*
X26163251Y-116474951D01*
X26163500Y-116482863D01*
X26163500Y-121922500D01*
X26146619Y-121985500D01*
X26100500Y-122031619D01*
X26037500Y-122048500D01*
X22799523Y-122048500D01*
X22748498Y-122037706D01*
X22706215Y-122007173D01*
X22679919Y-121962133D01*
X22654116Y-121884264D01*
X22582127Y-121767552D01*
X22561030Y-121733348D01*
X22561028Y-121733346D01*
X22561027Y-121733344D01*
X22435655Y-121607972D01*
X22435652Y-121607970D01*
X22284738Y-121514885D01*
X22116426Y-121459113D01*
X22012545Y-121448500D01*
X22012540Y-121448500D01*
X21411459Y-121448500D01*
X21307573Y-121459113D01*
X21139262Y-121514885D01*
X20988344Y-121607972D01*
X20852556Y-121743761D01*
X20850302Y-121741507D01*
X20823081Y-121767552D01*
X20761672Y-121783511D01*
X20700272Y-121767520D01*
X20673368Y-121741754D01*
X20671049Y-121744074D01*
X20535342Y-121608367D01*
X20384522Y-121515340D01*
X20216328Y-121459606D01*
X20112503Y-121449000D01*
X20066000Y-121449000D01*
X20066000Y-125947000D01*
X20112503Y-125947000D01*
X20216328Y-125936393D01*
X20384522Y-125880659D01*
X20535342Y-125787632D01*
X20671049Y-125651926D01*
X20673369Y-125654246D01*
X20700262Y-125628484D01*
X20761671Y-125612488D01*
X20823089Y-125628451D01*
X20850301Y-125654493D01*
X20852556Y-125652239D01*
X20988344Y-125788027D01*
X20988346Y-125788028D01*
X20988348Y-125788030D01*
X21089141Y-125850200D01*
X21089370Y-125850341D01*
X21128306Y-125888058D01*
X21147792Y-125938644D01*
X21144220Y-125992734D01*
X21104438Y-126129665D01*
X21101500Y-126167003D01*
X21101500Y-126262496D01*
X21087683Y-126319862D01*
X21049264Y-126364647D01*
X20994667Y-126387030D01*
X20935867Y-126382101D01*
X20756323Y-126322606D01*
X20652503Y-126312000D01*
X20381000Y-126312000D01*
X20381000Y-127448000D01*
X20364119Y-127511000D01*
X20318000Y-127557119D01*
X20255000Y-127574000D01*
X18967191Y-127574000D01*
X18918973Y-127564409D01*
X18878096Y-127537095D01*
X18854001Y-127513000D01*
X16862000Y-127513000D01*
X16862000Y-127559503D01*
X16872606Y-127663328D01*
X16928340Y-127831522D01*
X17021367Y-127982342D01*
X17157074Y-128118049D01*
X17154754Y-128120368D01*
X17180520Y-128147272D01*
X17196511Y-128208672D01*
X17180552Y-128270081D01*
X17154507Y-128297302D01*
X17156761Y-128299556D01*
X17020972Y-128435344D01*
X17020970Y-128435348D01*
X16927885Y-128586262D01*
X16872113Y-128754573D01*
X16872113Y-128754574D01*
X16861500Y-128858459D01*
X16861500Y-129459540D01*
X16872112Y-129563425D01*
X16872113Y-129563426D01*
X16927885Y-129731738D01*
X17003256Y-129853933D01*
X17020972Y-129882655D01*
X17146344Y-130008027D01*
X17146346Y-130008028D01*
X17146348Y-130008030D01*
X17287447Y-130095061D01*
X17297264Y-130101116D01*
X17375133Y-130126919D01*
X17420173Y-130153215D01*
X17450706Y-130195498D01*
X17461500Y-130246523D01*
X17461500Y-131549147D01*
X17459204Y-131569935D01*
X17461438Y-131640986D01*
X17461500Y-131644945D01*
X17461500Y-131672857D01*
X17462007Y-131676873D01*
X17462937Y-131688696D01*
X17464326Y-131732892D01*
X17469977Y-131752341D01*
X17473986Y-131771696D01*
X17476525Y-131791794D01*
X17492801Y-131832903D01*
X17496644Y-131844130D01*
X17508980Y-131886590D01*
X17519294Y-131904030D01*
X17527987Y-131921774D01*
X17535448Y-131940617D01*
X17535449Y-131940619D01*
X17561431Y-131976380D01*
X17567948Y-131986301D01*
X17590458Y-132024363D01*
X17604778Y-132038683D01*
X17617618Y-132053716D01*
X17629526Y-132070105D01*
X17663598Y-132098292D01*
X17672378Y-132106282D01*
X20170595Y-134604500D01*
X20197909Y-134645377D01*
X20207500Y-134693595D01*
X20207500Y-135788000D01*
X20190619Y-135851000D01*
X20144500Y-135897119D01*
X20081500Y-135914000D01*
X19849498Y-135914000D01*
X19826167Y-135915836D01*
X19812166Y-135916938D01*
X19652400Y-135963354D01*
X19509189Y-136048049D01*
X19391549Y-136165689D01*
X19306854Y-136308900D01*
X19270030Y-136435653D01*
X19244414Y-136482831D01*
X19201484Y-136515064D01*
X19149033Y-136526500D01*
X18879853Y-136526500D01*
X18859063Y-136524204D01*
X18788001Y-136526438D01*
X18784043Y-136526500D01*
X18756142Y-136526500D01*
X18752134Y-136527006D01*
X18740313Y-136527936D01*
X18696108Y-136529325D01*
X18676651Y-136534978D01*
X18657301Y-136538986D01*
X18637202Y-136541525D01*
X18596093Y-136557802D01*
X18584865Y-136561646D01*
X18542408Y-136573981D01*
X18524964Y-136584297D01*
X18507217Y-136592990D01*
X18488384Y-136600446D01*
X18452611Y-136626437D01*
X18442693Y-136632951D01*
X18404639Y-136655457D01*
X18390312Y-136669783D01*
X18375283Y-136682618D01*
X18358894Y-136694525D01*
X18330701Y-136728604D01*
X18322713Y-136737381D01*
X16375336Y-138684757D01*
X16359016Y-138697833D01*
X16310370Y-138749635D01*
X16307620Y-138752473D01*
X16287868Y-138772226D01*
X16287864Y-138772230D01*
X16287865Y-138772230D01*
X16285379Y-138775433D01*
X16277687Y-138784439D01*
X16247413Y-138816678D01*
X16237652Y-138834434D01*
X16226801Y-138850952D01*
X16214385Y-138866959D01*
X16196824Y-138907539D01*
X16191604Y-138918195D01*
X16170304Y-138956940D01*
X16165267Y-138976559D01*
X16158864Y-138995261D01*
X16150818Y-139013855D01*
X16143901Y-139057524D01*
X16141495Y-139069144D01*
X16130500Y-139111970D01*
X16130500Y-139132224D01*
X16128949Y-139151934D01*
X16125779Y-139171942D01*
X25500Y-139171942D01*
X25500Y-127005000D01*
X16862000Y-127005000D01*
X17841000Y-127005000D01*
X17841000Y-126251000D01*
X18349000Y-126251000D01*
X18349000Y-127005000D01*
X19254809Y-127005000D01*
X19303027Y-127014591D01*
X19343904Y-127041905D01*
X19367999Y-127066000D01*
X19873000Y-127066000D01*
X19873000Y-126312000D01*
X19601497Y-126312000D01*
X19497671Y-126322606D01*
X19329475Y-126378341D01*
X19217486Y-126447416D01*
X19164753Y-126465459D01*
X19109395Y-126458988D01*
X19062245Y-126429270D01*
X19043342Y-126410367D01*
X18892522Y-126317340D01*
X18724328Y-126261606D01*
X18620503Y-126251000D01*
X18349000Y-126251000D01*
X17841000Y-126251000D01*
X17569497Y-126251000D01*
X17465671Y-126261606D01*
X17297477Y-126317340D01*
X17146657Y-126410367D01*
X17021367Y-126535657D01*
X16928340Y-126686477D01*
X16872606Y-126854671D01*
X16862000Y-126958497D01*
X16862000Y-127005000D01*
X25500Y-127005000D01*
X25500Y-124968000D01*
X18804000Y-124968000D01*
X18804000Y-125239503D01*
X18814606Y-125343328D01*
X18870340Y-125511522D01*
X18963367Y-125662342D01*
X19088657Y-125787632D01*
X19239477Y-125880659D01*
X19407671Y-125936393D01*
X19511497Y-125947000D01*
X19558000Y-125947000D01*
X19558000Y-124968000D01*
X18804000Y-124968000D01*
X25500Y-124968000D01*
X25500Y-122936000D01*
X18804000Y-122936000D01*
X18804000Y-123207503D01*
X18814606Y-123311328D01*
X18870340Y-123479522D01*
X18964299Y-123631853D01*
X18983058Y-123698000D01*
X18964299Y-123764147D01*
X18870340Y-123916477D01*
X18814606Y-124084671D01*
X18804000Y-124188497D01*
X18804000Y-124460000D01*
X19558000Y-124460000D01*
X19558000Y-122936000D01*
X18804000Y-122936000D01*
X25500Y-122936000D01*
X25500Y-122428000D01*
X18804000Y-122428000D01*
X19558000Y-122428000D01*
X19558000Y-121449000D01*
X19511497Y-121449000D01*
X19407671Y-121459606D01*
X19239477Y-121515340D01*
X19088657Y-121608367D01*
X18963367Y-121733657D01*
X18870340Y-121884477D01*
X18814606Y-122052671D01*
X18804000Y-122156497D01*
X18804000Y-122428000D01*
X25500Y-122428000D01*
X25500Y-114742674D01*
X4391748Y-114742674D01*
X4401749Y-115003598D01*
X4451460Y-115259923D01*
X4539722Y-115505671D01*
X4664458Y-115735056D01*
X4822749Y-115942716D01*
X5010886Y-116123778D01*
X5224456Y-116273999D01*
X5350513Y-116336414D01*
X5458453Y-116389859D01*
X5707397Y-116468642D01*
X5965443Y-116508500D01*
X5965445Y-116508500D01*
X6161177Y-116508500D01*
X6161181Y-116508500D01*
X6239243Y-116502506D01*
X6356344Y-116493516D01*
X6610586Y-116434021D01*
X6852766Y-116336414D01*
X7077208Y-116202982D01*
X7278652Y-116036852D01*
X7452375Y-115841920D01*
X7594306Y-115622753D01*
X7701118Y-115384489D01*
X7770307Y-115132713D01*
X7800252Y-114873325D01*
X7790251Y-114612407D01*
X7740538Y-114356073D01*
X7652279Y-114110332D01*
X7527541Y-113880943D01*
X7369250Y-113673283D01*
X7181113Y-113492221D01*
X6967546Y-113342002D01*
X6733546Y-113226140D01*
X6484602Y-113147357D01*
X6226557Y-113107500D01*
X6226555Y-113107500D01*
X6030823Y-113107500D01*
X6030819Y-113107500D01*
X5835661Y-113122483D01*
X5835657Y-113122483D01*
X5835656Y-113122484D01*
X5801709Y-113130428D01*
X5581409Y-113181980D01*
X5339235Y-113279585D01*
X5114794Y-113413016D01*
X4913346Y-113579149D01*
X4739622Y-113774082D01*
X4597694Y-113993246D01*
X4490881Y-114231510D01*
X4421693Y-114483283D01*
X4391748Y-114742674D01*
X25500Y-114742674D01*
X25500Y-111822753D01*
X35091Y-111774535D01*
X62405Y-111733658D01*
X4423849Y-107372214D01*
X11522214Y-107372214D01*
X11522214Y-111067786D01*
X16417786Y-111067786D01*
X16417786Y-107372214D01*
X11522214Y-107372214D01*
X4423849Y-107372214D01*
X11974064Y-99821999D01*
X28735796Y-99821999D01*
X28754577Y-100036665D01*
X28810347Y-100244806D01*
X28901416Y-100440102D01*
X29025015Y-100616620D01*
X29177379Y-100768984D01*
X29177382Y-100768986D01*
X29177383Y-100768987D01*
X29353898Y-100892584D01*
X29549193Y-100983652D01*
X29757335Y-101039423D01*
X29972000Y-101058204D01*
X30186665Y-101039423D01*
X30394807Y-100983652D01*
X30590102Y-100892584D01*
X30766617Y-100768987D01*
X30918987Y-100616617D01*
X31042584Y-100440102D01*
X31133652Y-100244807D01*
X31189423Y-100036665D01*
X31208204Y-99822000D01*
X31189423Y-99607335D01*
X31133652Y-99399193D01*
X31042584Y-99203898D01*
X30918987Y-99027383D01*
X30918986Y-99027382D01*
X30918984Y-99027379D01*
X30766620Y-98875015D01*
X30581072Y-98745093D01*
X30582329Y-98743297D01*
X30542708Y-98709457D01*
X30521340Y-98645593D01*
X30535916Y-98579846D01*
X30582272Y-98530997D01*
X30647167Y-98513000D01*
X30743589Y-98513000D01*
X30804093Y-98506494D01*
X30940962Y-98455445D01*
X31057904Y-98367904D01*
X31145445Y-98250962D01*
X31196494Y-98114093D01*
X31203000Y-98053589D01*
X31203000Y-97536000D01*
X28741000Y-97536000D01*
X28741000Y-98053589D01*
X28747505Y-98114093D01*
X28798554Y-98250962D01*
X28886095Y-98367904D01*
X29003037Y-98455445D01*
X29139906Y-98506494D01*
X29200411Y-98513000D01*
X29296833Y-98513000D01*
X29361728Y-98530997D01*
X29408084Y-98579846D01*
X29422660Y-98645593D01*
X29401292Y-98709457D01*
X29361670Y-98743297D01*
X29362928Y-98745093D01*
X29177379Y-98875015D01*
X29025015Y-99027379D01*
X28901416Y-99203897D01*
X28810347Y-99399193D01*
X28754577Y-99607334D01*
X28735796Y-99821999D01*
X11974064Y-99821999D01*
X14768063Y-97028000D01*
X28741000Y-97028000D01*
X29718000Y-97028000D01*
X29718000Y-96051000D01*
X30226000Y-96051000D01*
X30226000Y-97028000D01*
X31203000Y-97028000D01*
X31203000Y-96510411D01*
X31196494Y-96449906D01*
X31145445Y-96313037D01*
X31057904Y-96196095D01*
X30940962Y-96108554D01*
X30804093Y-96057505D01*
X30743589Y-96051000D01*
X30226000Y-96051000D01*
X29718000Y-96051000D01*
X29200411Y-96051000D01*
X29139906Y-96057505D01*
X29003037Y-96108554D01*
X28886095Y-96196095D01*
X28798554Y-96313037D01*
X28747505Y-96449906D01*
X28741000Y-96510411D01*
X28741000Y-97028000D01*
X14768063Y-97028000D01*
X20293657Y-91502405D01*
X20334534Y-91475091D01*
X20382752Y-91465500D01*
X35497247Y-91465500D01*
X35545465Y-91475091D01*
G37*
G04 #@! TD.AperFunction*
M02*
