G04 #@! TF.GenerationSoftware,KiCad,Pcbnew,(5.1.10)-1*
G04 #@! TF.CreationDate,2022-06-20T16:08:07+02:00*
G04 #@! TF.ProjectId,Project_Gmic,50726f6a-6563-4745-9f47-6d69632e6b69,V1.0*
G04 #@! TF.SameCoordinates,PX2e063a0PY928d170*
G04 #@! TF.FileFunction,Copper,L2,Bot*
G04 #@! TF.FilePolarity,Positive*
%FSLAX46Y46*%
G04 Gerber Fmt 4.6, Leading zero omitted, Abs format (unit mm)*
G04 Created by KiCad (PCBNEW (5.1.10)-1) date 2022-06-20 16:08:07*
%MOMM*%
%LPD*%
G01*
G04 APERTURE LIST*
G04 #@! TA.AperFunction,ComponentPad*
%ADD10C,0.700000*%
G04 #@! TD*
G04 #@! TA.AperFunction,ComponentPad*
%ADD11O,0.900000X2.400000*%
G04 #@! TD*
G04 #@! TA.AperFunction,ComponentPad*
%ADD12O,0.900000X1.700000*%
G04 #@! TD*
G04 #@! TA.AperFunction,ComponentPad*
%ADD13C,2.550000*%
G04 #@! TD*
G04 #@! TA.AperFunction,ComponentPad*
%ADD14C,2.400000*%
G04 #@! TD*
G04 #@! TA.AperFunction,ComponentPad*
%ADD15R,1.446000X1.446000*%
G04 #@! TD*
G04 #@! TA.AperFunction,ComponentPad*
%ADD16C,1.446000*%
G04 #@! TD*
G04 #@! TA.AperFunction,ComponentPad*
%ADD17R,1.800000X1.800000*%
G04 #@! TD*
G04 #@! TA.AperFunction,ComponentPad*
%ADD18C,1.800000*%
G04 #@! TD*
G04 #@! TA.AperFunction,ComponentPad*
%ADD19C,3.240000*%
G04 #@! TD*
G04 #@! TA.AperFunction,SMDPad,CuDef*
%ADD20R,0.400000X1.500000*%
G04 #@! TD*
G04 #@! TA.AperFunction,ViaPad*
%ADD21C,0.800000*%
G04 #@! TD*
G04 #@! TA.AperFunction,Conductor*
%ADD22C,0.250000*%
G04 #@! TD*
G04 #@! TA.AperFunction,Conductor*
%ADD23C,0.254000*%
G04 #@! TD*
G04 #@! TA.AperFunction,Conductor*
%ADD24C,0.100000*%
G04 #@! TD*
G04 APERTURE END LIST*
G04 #@! TA.AperFunction,SMDPad,CuDef*
G36*
G01*
X35618000Y54323000D02*
X35618000Y53373000D01*
G75*
G02*
X35368000Y53123000I-250000J0D01*
G01*
X34868000Y53123000D01*
G75*
G02*
X34618000Y53373000I0J250000D01*
G01*
X34618000Y54323000D01*
G75*
G02*
X34868000Y54573000I250000J0D01*
G01*
X35368000Y54573000D01*
G75*
G02*
X35618000Y54323000I0J-250000D01*
G01*
G37*
G04 #@! TD.AperFunction*
G04 #@! TA.AperFunction,SMDPad,CuDef*
G36*
G01*
X37518000Y54323000D02*
X37518000Y53373000D01*
G75*
G02*
X37268000Y53123000I-250000J0D01*
G01*
X36768000Y53123000D01*
G75*
G02*
X36518000Y53373000I0J250000D01*
G01*
X36518000Y54323000D01*
G75*
G02*
X36768000Y54573000I250000J0D01*
G01*
X37268000Y54573000D01*
G75*
G02*
X37518000Y54323000I0J-250000D01*
G01*
G37*
G04 #@! TD.AperFunction*
G04 #@! TA.AperFunction,SMDPad,CuDef*
G36*
G01*
X37518000Y42639000D02*
X37518000Y41689000D01*
G75*
G02*
X37268000Y41439000I-250000J0D01*
G01*
X36768000Y41439000D01*
G75*
G02*
X36518000Y41689000I0J250000D01*
G01*
X36518000Y42639000D01*
G75*
G02*
X36768000Y42889000I250000J0D01*
G01*
X37268000Y42889000D01*
G75*
G02*
X37518000Y42639000I0J-250000D01*
G01*
G37*
G04 #@! TD.AperFunction*
G04 #@! TA.AperFunction,SMDPad,CuDef*
G36*
G01*
X35618000Y42639000D02*
X35618000Y41689000D01*
G75*
G02*
X35368000Y41439000I-250000J0D01*
G01*
X34868000Y41439000D01*
G75*
G02*
X34618000Y41689000I0J250000D01*
G01*
X34618000Y42639000D01*
G75*
G02*
X34868000Y42889000I250000J0D01*
G01*
X35368000Y42889000D01*
G75*
G02*
X35618000Y42639000I0J-250000D01*
G01*
G37*
G04 #@! TD.AperFunction*
G04 #@! TA.AperFunction,SMDPad,CuDef*
G36*
G01*
X22072140Y19926320D02*
X22072140Y18976320D01*
G75*
G02*
X21822140Y18726320I-250000J0D01*
G01*
X21322140Y18726320D01*
G75*
G02*
X21072140Y18976320I0J250000D01*
G01*
X21072140Y19926320D01*
G75*
G02*
X21322140Y20176320I250000J0D01*
G01*
X21822140Y20176320D01*
G75*
G02*
X22072140Y19926320I0J-250000D01*
G01*
G37*
G04 #@! TD.AperFunction*
G04 #@! TA.AperFunction,SMDPad,CuDef*
G36*
G01*
X23972140Y19926320D02*
X23972140Y18976320D01*
G75*
G02*
X23722140Y18726320I-250000J0D01*
G01*
X23222140Y18726320D01*
G75*
G02*
X22972140Y18976320I0J250000D01*
G01*
X22972140Y19926320D01*
G75*
G02*
X23222140Y20176320I250000J0D01*
G01*
X23722140Y20176320D01*
G75*
G02*
X23972140Y19926320I0J-250000D01*
G01*
G37*
G04 #@! TD.AperFunction*
G04 #@! TA.AperFunction,SMDPad,CuDef*
G36*
G01*
X41222000Y48293000D02*
X41222000Y49243000D01*
G75*
G02*
X41472000Y49493000I250000J0D01*
G01*
X41972000Y49493000D01*
G75*
G02*
X42222000Y49243000I0J-250000D01*
G01*
X42222000Y48293000D01*
G75*
G02*
X41972000Y48043000I-250000J0D01*
G01*
X41472000Y48043000D01*
G75*
G02*
X41222000Y48293000I0J250000D01*
G01*
G37*
G04 #@! TD.AperFunction*
G04 #@! TA.AperFunction,SMDPad,CuDef*
G36*
G01*
X43122000Y48293000D02*
X43122000Y49243000D01*
G75*
G02*
X43372000Y49493000I250000J0D01*
G01*
X43872000Y49493000D01*
G75*
G02*
X44122000Y49243000I0J-250000D01*
G01*
X44122000Y48293000D01*
G75*
G02*
X43872000Y48043000I-250000J0D01*
G01*
X43372000Y48043000D01*
G75*
G02*
X43122000Y48293000I0J250000D01*
G01*
G37*
G04 #@! TD.AperFunction*
G04 #@! TA.AperFunction,SMDPad,CuDef*
G36*
G01*
X45179000Y44524000D02*
X44229000Y44524000D01*
G75*
G02*
X43979000Y44774000I0J250000D01*
G01*
X43979000Y45274000D01*
G75*
G02*
X44229000Y45524000I250000J0D01*
G01*
X45179000Y45524000D01*
G75*
G02*
X45429000Y45274000I0J-250000D01*
G01*
X45429000Y44774000D01*
G75*
G02*
X45179000Y44524000I-250000J0D01*
G01*
G37*
G04 #@! TD.AperFunction*
G04 #@! TA.AperFunction,SMDPad,CuDef*
G36*
G01*
X45179000Y46424000D02*
X44229000Y46424000D01*
G75*
G02*
X43979000Y46674000I0J250000D01*
G01*
X43979000Y47174000D01*
G75*
G02*
X44229000Y47424000I250000J0D01*
G01*
X45179000Y47424000D01*
G75*
G02*
X45429000Y47174000I0J-250000D01*
G01*
X45429000Y46674000D01*
G75*
G02*
X45179000Y46424000I-250000J0D01*
G01*
G37*
G04 #@! TD.AperFunction*
D10*
X17780000Y8890000D03*
X18630000Y8890000D03*
X19480000Y8890000D03*
X20330000Y8890000D03*
X21180000Y8890000D03*
X22030000Y8890000D03*
X22880000Y8890000D03*
X23730000Y8890000D03*
X18630000Y7540000D03*
X20330000Y7540000D03*
X19480000Y7540000D03*
X17780000Y7540000D03*
X22030000Y7540000D03*
X22880000Y7540000D03*
X23730000Y7540000D03*
X21180000Y7540000D03*
D11*
X16430000Y7910000D03*
X25080000Y7910000D03*
D12*
X16430000Y4530000D03*
X25080000Y4530000D03*
D13*
X35560000Y5770000D03*
X40560000Y10770000D03*
X30560000Y10770000D03*
D14*
X37560000Y10770000D03*
X33560000Y10770000D03*
D15*
X29972000Y56388000D03*
D16*
X29972000Y53848000D03*
X29972000Y41910000D03*
D15*
X29972000Y44450000D03*
G04 #@! TA.AperFunction,SMDPad,CuDef*
G36*
G01*
X33470001Y53382500D02*
X32569999Y53382500D01*
G75*
G02*
X32320000Y53632499I0J249999D01*
G01*
X32320000Y54157501D01*
G75*
G02*
X32569999Y54407500I249999J0D01*
G01*
X33470001Y54407500D01*
G75*
G02*
X33720000Y54157501I0J-249999D01*
G01*
X33720000Y53632499D01*
G75*
G02*
X33470001Y53382500I-249999J0D01*
G01*
G37*
G04 #@! TD.AperFunction*
G04 #@! TA.AperFunction,SMDPad,CuDef*
G36*
G01*
X33470001Y51557500D02*
X32569999Y51557500D01*
G75*
G02*
X32320000Y51807499I0J249999D01*
G01*
X32320000Y52332501D01*
G75*
G02*
X32569999Y52582500I249999J0D01*
G01*
X33470001Y52582500D01*
G75*
G02*
X33720000Y52332501I0J-249999D01*
G01*
X33720000Y51807499D01*
G75*
G02*
X33470001Y51557500I-249999J0D01*
G01*
G37*
G04 #@! TD.AperFunction*
G04 #@! TA.AperFunction,SMDPad,CuDef*
G36*
G01*
X33470001Y39723000D02*
X32569999Y39723000D01*
G75*
G02*
X32320000Y39972999I0J249999D01*
G01*
X32320000Y40498001D01*
G75*
G02*
X32569999Y40748000I249999J0D01*
G01*
X33470001Y40748000D01*
G75*
G02*
X33720000Y40498001I0J-249999D01*
G01*
X33720000Y39972999D01*
G75*
G02*
X33470001Y39723000I-249999J0D01*
G01*
G37*
G04 #@! TD.AperFunction*
G04 #@! TA.AperFunction,SMDPad,CuDef*
G36*
G01*
X33470001Y41548000D02*
X32569999Y41548000D01*
G75*
G02*
X32320000Y41797999I0J249999D01*
G01*
X32320000Y42323001D01*
G75*
G02*
X32569999Y42573000I249999J0D01*
G01*
X33470001Y42573000D01*
G75*
G02*
X33720000Y42323001I0J-249999D01*
G01*
X33720000Y41797999D01*
G75*
G02*
X33470001Y41548000I-249999J0D01*
G01*
G37*
G04 #@! TD.AperFunction*
G04 #@! TA.AperFunction,SMDPad,CuDef*
G36*
G01*
X22752000Y4121999D02*
X22752000Y5022001D01*
G75*
G02*
X23001999Y5272000I249999J0D01*
G01*
X23527001Y5272000D01*
G75*
G02*
X23777000Y5022001I0J-249999D01*
G01*
X23777000Y4121999D01*
G75*
G02*
X23527001Y3872000I-249999J0D01*
G01*
X23001999Y3872000D01*
G75*
G02*
X22752000Y4121999I0J249999D01*
G01*
G37*
G04 #@! TD.AperFunction*
G04 #@! TA.AperFunction,SMDPad,CuDef*
G36*
G01*
X20927000Y4121999D02*
X20927000Y5022001D01*
G75*
G02*
X21176999Y5272000I249999J0D01*
G01*
X21702001Y5272000D01*
G75*
G02*
X21952000Y5022001I0J-249999D01*
G01*
X21952000Y4121999D01*
G75*
G02*
X21702001Y3872000I-249999J0D01*
G01*
X21176999Y3872000D01*
G75*
G02*
X20927000Y4121999I0J249999D01*
G01*
G37*
G04 #@! TD.AperFunction*
G04 #@! TA.AperFunction,SMDPad,CuDef*
G36*
G01*
X19149000Y10471999D02*
X19149000Y11372001D01*
G75*
G02*
X19398999Y11622000I249999J0D01*
G01*
X19924001Y11622000D01*
G75*
G02*
X20174000Y11372001I0J-249999D01*
G01*
X20174000Y10471999D01*
G75*
G02*
X19924001Y10222000I-249999J0D01*
G01*
X19398999Y10222000D01*
G75*
G02*
X19149000Y10471999I0J249999D01*
G01*
G37*
G04 #@! TD.AperFunction*
G04 #@! TA.AperFunction,SMDPad,CuDef*
G36*
G01*
X20974000Y10471999D02*
X20974000Y11372001D01*
G75*
G02*
X21223999Y11622000I249999J0D01*
G01*
X21749001Y11622000D01*
G75*
G02*
X21999000Y11372001I0J-249999D01*
G01*
X21999000Y10471999D01*
G75*
G02*
X21749001Y10222000I-249999J0D01*
G01*
X21223999Y10222000D01*
G75*
G02*
X20974000Y10471999I0J249999D01*
G01*
G37*
G04 #@! TD.AperFunction*
G04 #@! TA.AperFunction,SMDPad,CuDef*
G36*
G01*
X39398000Y51250001D02*
X39398000Y50349999D01*
G75*
G02*
X39148001Y50100000I-249999J0D01*
G01*
X38622999Y50100000D01*
G75*
G02*
X38373000Y50349999I0J249999D01*
G01*
X38373000Y51250001D01*
G75*
G02*
X38622999Y51500000I249999J0D01*
G01*
X39148001Y51500000D01*
G75*
G02*
X39398000Y51250001I0J-249999D01*
G01*
G37*
G04 #@! TD.AperFunction*
G04 #@! TA.AperFunction,SMDPad,CuDef*
G36*
G01*
X37573000Y51250001D02*
X37573000Y50349999D01*
G75*
G02*
X37323001Y50100000I-249999J0D01*
G01*
X36797999Y50100000D01*
G75*
G02*
X36548000Y50349999I0J249999D01*
G01*
X36548000Y51250001D01*
G75*
G02*
X36797999Y51500000I249999J0D01*
G01*
X37323001Y51500000D01*
G75*
G02*
X37573000Y51250001I0J-249999D01*
G01*
G37*
G04 #@! TD.AperFunction*
G04 #@! TA.AperFunction,SMDPad,CuDef*
G36*
G01*
X37573000Y49218001D02*
X37573000Y48317999D01*
G75*
G02*
X37323001Y48068000I-249999J0D01*
G01*
X36797999Y48068000D01*
G75*
G02*
X36548000Y48317999I0J249999D01*
G01*
X36548000Y49218001D01*
G75*
G02*
X36797999Y49468000I249999J0D01*
G01*
X37323001Y49468000D01*
G75*
G02*
X37573000Y49218001I0J-249999D01*
G01*
G37*
G04 #@! TD.AperFunction*
G04 #@! TA.AperFunction,SMDPad,CuDef*
G36*
G01*
X39398000Y49218001D02*
X39398000Y48317999D01*
G75*
G02*
X39148001Y48068000I-249999J0D01*
G01*
X38622999Y48068000D01*
G75*
G02*
X38373000Y48317999I0J249999D01*
G01*
X38373000Y49218001D01*
G75*
G02*
X38622999Y49468000I249999J0D01*
G01*
X39148001Y49468000D01*
G75*
G02*
X39398000Y49218001I0J-249999D01*
G01*
G37*
G04 #@! TD.AperFunction*
G04 #@! TA.AperFunction,SMDPad,CuDef*
G36*
G01*
X43208000Y51250001D02*
X43208000Y50349999D01*
G75*
G02*
X42958001Y50100000I-249999J0D01*
G01*
X42432999Y50100000D01*
G75*
G02*
X42183000Y50349999I0J249999D01*
G01*
X42183000Y51250001D01*
G75*
G02*
X42432999Y51500000I249999J0D01*
G01*
X42958001Y51500000D01*
G75*
G02*
X43208000Y51250001I0J-249999D01*
G01*
G37*
G04 #@! TD.AperFunction*
G04 #@! TA.AperFunction,SMDPad,CuDef*
G36*
G01*
X41383000Y51250001D02*
X41383000Y50349999D01*
G75*
G02*
X41133001Y50100000I-249999J0D01*
G01*
X40607999Y50100000D01*
G75*
G02*
X40358000Y50349999I0J249999D01*
G01*
X40358000Y51250001D01*
G75*
G02*
X40607999Y51500000I249999J0D01*
G01*
X41133001Y51500000D01*
G75*
G02*
X41383000Y51250001I0J-249999D01*
G01*
G37*
G04 #@! TD.AperFunction*
G04 #@! TA.AperFunction,SMDPad,CuDef*
G36*
G01*
X43329000Y47074000D02*
X43329000Y46774000D01*
G75*
G02*
X43179000Y46624000I-150000J0D01*
G01*
X42154000Y46624000D01*
G75*
G02*
X42004000Y46774000I0J150000D01*
G01*
X42004000Y47074000D01*
G75*
G02*
X42154000Y47224000I150000J0D01*
G01*
X43179000Y47224000D01*
G75*
G02*
X43329000Y47074000I0J-150000D01*
G01*
G37*
G04 #@! TD.AperFunction*
G04 #@! TA.AperFunction,SMDPad,CuDef*
G36*
G01*
X43329000Y46124000D02*
X43329000Y45824000D01*
G75*
G02*
X43179000Y45674000I-150000J0D01*
G01*
X42154000Y45674000D01*
G75*
G02*
X42004000Y45824000I0J150000D01*
G01*
X42004000Y46124000D01*
G75*
G02*
X42154000Y46274000I150000J0D01*
G01*
X43179000Y46274000D01*
G75*
G02*
X43329000Y46124000I0J-150000D01*
G01*
G37*
G04 #@! TD.AperFunction*
G04 #@! TA.AperFunction,SMDPad,CuDef*
G36*
G01*
X43329000Y45174000D02*
X43329000Y44874000D01*
G75*
G02*
X43179000Y44724000I-150000J0D01*
G01*
X42154000Y44724000D01*
G75*
G02*
X42004000Y44874000I0J150000D01*
G01*
X42004000Y45174000D01*
G75*
G02*
X42154000Y45324000I150000J0D01*
G01*
X43179000Y45324000D01*
G75*
G02*
X43329000Y45174000I0J-150000D01*
G01*
G37*
G04 #@! TD.AperFunction*
G04 #@! TA.AperFunction,SMDPad,CuDef*
G36*
G01*
X41054000Y45174000D02*
X41054000Y44874000D01*
G75*
G02*
X40904000Y44724000I-150000J0D01*
G01*
X39879000Y44724000D01*
G75*
G02*
X39729000Y44874000I0J150000D01*
G01*
X39729000Y45174000D01*
G75*
G02*
X39879000Y45324000I150000J0D01*
G01*
X40904000Y45324000D01*
G75*
G02*
X41054000Y45174000I0J-150000D01*
G01*
G37*
G04 #@! TD.AperFunction*
G04 #@! TA.AperFunction,SMDPad,CuDef*
G36*
G01*
X41054000Y47074000D02*
X41054000Y46774000D01*
G75*
G02*
X40904000Y46624000I-150000J0D01*
G01*
X39879000Y46624000D01*
G75*
G02*
X39729000Y46774000I0J150000D01*
G01*
X39729000Y47074000D01*
G75*
G02*
X39879000Y47224000I150000J0D01*
G01*
X40904000Y47224000D01*
G75*
G02*
X41054000Y47074000I0J-150000D01*
G01*
G37*
G04 #@! TD.AperFunction*
G04 #@! TA.AperFunction,SMDPad,CuDef*
G36*
G01*
X23906140Y21958320D02*
X23906140Y21008320D01*
G75*
G02*
X23656140Y20758320I-250000J0D01*
G01*
X23156140Y20758320D01*
G75*
G02*
X22906140Y21008320I0J250000D01*
G01*
X22906140Y21958320D01*
G75*
G02*
X23156140Y22208320I250000J0D01*
G01*
X23656140Y22208320D01*
G75*
G02*
X23906140Y21958320I0J-250000D01*
G01*
G37*
G04 #@! TD.AperFunction*
G04 #@! TA.AperFunction,SMDPad,CuDef*
G36*
G01*
X22006140Y21958320D02*
X22006140Y21008320D01*
G75*
G02*
X21756140Y20758320I-250000J0D01*
G01*
X21256140Y20758320D01*
G75*
G02*
X21006140Y21008320I0J250000D01*
G01*
X21006140Y21958320D01*
G75*
G02*
X21256140Y22208320I250000J0D01*
G01*
X21756140Y22208320D01*
G75*
G02*
X22006140Y21958320I0J-250000D01*
G01*
G37*
G04 #@! TD.AperFunction*
G04 #@! TA.AperFunction,SMDPad,CuDef*
G36*
G01*
X18854000Y27145000D02*
X18854000Y26195000D01*
G75*
G02*
X18604000Y25945000I-250000J0D01*
G01*
X18104000Y25945000D01*
G75*
G02*
X17854000Y26195000I0J250000D01*
G01*
X17854000Y27145000D01*
G75*
G02*
X18104000Y27395000I250000J0D01*
G01*
X18604000Y27395000D01*
G75*
G02*
X18854000Y27145000I0J-250000D01*
G01*
G37*
G04 #@! TD.AperFunction*
G04 #@! TA.AperFunction,SMDPad,CuDef*
G36*
G01*
X20754000Y27145000D02*
X20754000Y26195000D01*
G75*
G02*
X20504000Y25945000I-250000J0D01*
G01*
X20004000Y25945000D01*
G75*
G02*
X19754000Y26195000I0J250000D01*
G01*
X19754000Y27145000D01*
G75*
G02*
X20004000Y27395000I250000J0D01*
G01*
X20504000Y27395000D01*
G75*
G02*
X20754000Y27145000I0J-250000D01*
G01*
G37*
G04 #@! TD.AperFunction*
G04 #@! TA.AperFunction,SMDPad,CuDef*
G36*
G01*
X15781000Y25072000D02*
X16731000Y25072000D01*
G75*
G02*
X16981000Y24822000I0J-250000D01*
G01*
X16981000Y24322000D01*
G75*
G02*
X16731000Y24072000I-250000J0D01*
G01*
X15781000Y24072000D01*
G75*
G02*
X15531000Y24322000I0J250000D01*
G01*
X15531000Y24822000D01*
G75*
G02*
X15781000Y25072000I250000J0D01*
G01*
G37*
G04 #@! TD.AperFunction*
G04 #@! TA.AperFunction,SMDPad,CuDef*
G36*
G01*
X15781000Y23172000D02*
X16731000Y23172000D01*
G75*
G02*
X16981000Y22922000I0J-250000D01*
G01*
X16981000Y22422000D01*
G75*
G02*
X16731000Y22172000I-250000J0D01*
G01*
X15781000Y22172000D01*
G75*
G02*
X15531000Y22422000I0J250000D01*
G01*
X15531000Y22922000D01*
G75*
G02*
X15781000Y23172000I250000J0D01*
G01*
G37*
G04 #@! TD.AperFunction*
D17*
X46482000Y24130000D03*
D18*
X48982000Y24130000D03*
X51482000Y24130000D03*
D19*
X53782000Y31630000D03*
X44182000Y31630000D03*
D20*
X19710000Y21784000D03*
X19060000Y21784000D03*
X18410000Y21784000D03*
X18410000Y24444000D03*
X19060000Y24444000D03*
X19710000Y24444000D03*
D21*
X15930000Y21290000D03*
X18958560Y12748260D03*
X22297150Y34305240D03*
X50157380Y20525740D03*
X21572140Y17515920D03*
X31269900Y16322000D03*
X46248320Y48016160D03*
X33020000Y38100000D03*
X34290000Y38100000D03*
X35560000Y38100000D03*
X22860000Y15240000D03*
X21590000Y15240000D03*
X20320000Y15240000D03*
X16510000Y15240000D03*
X15240000Y15240000D03*
X25400000Y21590000D03*
X25400000Y20320000D03*
X25400000Y19050000D03*
X40855900Y17820640D03*
X39585900Y17820640D03*
X38315900Y17820640D03*
X44958000Y14732000D03*
X46736000Y19812000D03*
X37894260Y37221160D03*
D22*
X21486500Y10922000D02*
X22928580Y10922000D01*
X23730000Y10120580D02*
X23730000Y8890000D01*
X22928580Y10922000D02*
X23730000Y10120580D01*
X25038000Y4572000D02*
X25080000Y4530000D01*
X23264500Y4572000D02*
X25038000Y4572000D01*
X23730000Y7540000D02*
X23730000Y8890000D01*
X17780000Y8890000D02*
X17780000Y7540000D01*
X18410000Y21784000D02*
X19060000Y21784000D01*
X17926000Y21784000D02*
X18410000Y21784000D01*
X17038000Y22672000D02*
X17926000Y21784000D01*
X16256000Y22672000D02*
X17038000Y22672000D01*
X16256000Y21616000D02*
X15930000Y21290000D01*
X16256000Y22672000D02*
X16256000Y21616000D01*
X30630500Y42060500D02*
X30480000Y41910000D01*
X35014500Y42060500D02*
X35118000Y42164000D01*
X33020000Y42060500D02*
X35014500Y42060500D01*
X30122500Y42060500D02*
X29972000Y41910000D01*
X33020000Y42060500D02*
X30122500Y42060500D01*
X33020000Y40235500D02*
X29766900Y40235500D01*
X28186380Y41816020D02*
X28186380Y49212500D01*
X28943300Y41059100D02*
X28186380Y41816020D01*
X29766900Y40235500D02*
X28943300Y41059100D01*
X18773140Y12933680D02*
X18958560Y12748260D01*
X28943300Y41059100D02*
X22297150Y34412950D01*
X22297150Y34412950D02*
X22297150Y34305240D01*
X14220000Y26228090D02*
X22297150Y34305240D01*
X31043880Y52070000D02*
X28186380Y49212500D01*
X33020000Y52070000D02*
X31043880Y52070000D01*
X36550000Y55300000D02*
X40234480Y55300000D01*
X36078160Y54828160D02*
X36550000Y55300000D01*
X36078160Y52842160D02*
X36078160Y54828160D01*
X35306000Y52070000D02*
X36078160Y52842160D01*
X33020000Y52070000D02*
X35306000Y52070000D01*
X18958560Y12748260D02*
X18958560Y16111440D01*
X18958560Y16111440D02*
X14220000Y20850000D01*
X14220000Y20850000D02*
X14220000Y24550000D01*
X18282000Y24572000D02*
X18410000Y24444000D01*
X16256000Y24572000D02*
X18282000Y24572000D01*
X14242000Y24572000D02*
X14220000Y24550000D01*
X16256000Y24572000D02*
X14242000Y24572000D01*
X14220000Y24550000D02*
X14220000Y26228090D01*
X35627070Y20975320D02*
X22297150Y34305240D01*
X49707800Y20975320D02*
X35627070Y20975320D01*
X40391500Y47437500D02*
X41722000Y48768000D01*
X40391500Y46924000D02*
X40391500Y47437500D01*
X41722000Y53812480D02*
X40234480Y55300000D01*
X41722000Y48768000D02*
X41722000Y53812480D01*
X49707800Y20975320D02*
X50157380Y20525740D01*
X21459140Y21530320D02*
X21506140Y21483320D01*
X21506140Y19517320D02*
X21572140Y19451320D01*
X21506140Y21483320D02*
X21506140Y19517320D01*
X21572140Y17515920D02*
X22766060Y16322000D01*
X21572140Y19451320D02*
X21572140Y17515920D01*
X22766060Y16322000D02*
X31269900Y16322000D01*
X21298820Y21276000D02*
X21506140Y21483320D01*
X21205460Y21784000D02*
X21506140Y21483320D01*
X19710000Y21784000D02*
X21205460Y21784000D01*
X43754000Y45974000D02*
X44704000Y46924000D01*
X42666500Y45974000D02*
X43754000Y45974000D01*
X45156160Y46924000D02*
X46248320Y48016160D01*
X44704000Y46924000D02*
X45156160Y46924000D01*
X37018000Y50842500D02*
X37060500Y50800000D01*
X37018000Y53848000D02*
X37018000Y50842500D01*
X33067000Y53848000D02*
X33020000Y53895000D01*
X35118000Y53848000D02*
X33067000Y53848000D01*
X30019000Y53895000D02*
X29972000Y53848000D01*
X33020000Y53895000D02*
X30019000Y53895000D01*
X37060500Y42206500D02*
X37018000Y42164000D01*
X37060500Y48768000D02*
X37060500Y42206500D01*
X19710000Y24444000D02*
X19710000Y25510000D01*
X20254000Y26054000D02*
X20254000Y26670000D01*
X19710000Y25510000D02*
X20254000Y26054000D01*
X18354000Y26670000D02*
X18354000Y26216000D01*
X18354000Y26216000D02*
X19060000Y25510000D01*
X19060000Y25510000D02*
X19060000Y24444000D01*
X19661500Y10922000D02*
X19661500Y9874880D01*
X19480000Y9693380D02*
X19480000Y8890000D01*
X19661500Y9874880D02*
X19480000Y9693380D01*
X22030000Y7540000D02*
X22030000Y6556320D01*
X21439500Y5965820D02*
X21439500Y4572000D01*
X22030000Y6556320D02*
X21439500Y5965820D01*
X42695500Y50800000D02*
X42695500Y50188500D01*
X42695500Y46953000D02*
X42666500Y46924000D01*
X42695500Y50800000D02*
X42695500Y46953000D01*
X42004000Y46924000D02*
X41529000Y46449000D01*
X42666500Y46924000D02*
X42004000Y46924000D01*
X41529000Y40855900D02*
X37894260Y37221160D01*
X41529000Y46449000D02*
X41529000Y40855900D01*
X38885500Y48768000D02*
X38885500Y50800000D01*
X38885500Y50800000D02*
X40870500Y50800000D01*
X38951500Y48702000D02*
X38885500Y48768000D01*
X38885500Y46530000D02*
X38885500Y48768000D01*
X40391500Y45024000D02*
X38885500Y46530000D01*
D23*
X55220000Y41636619D02*
X55220000Y33381052D01*
X55219479Y33381573D01*
X54850143Y33628355D01*
X54439759Y33798342D01*
X54004098Y33885000D01*
X53559902Y33885000D01*
X53124241Y33798342D01*
X52713857Y33628355D01*
X52344521Y33381573D01*
X52030427Y33067479D01*
X51783645Y32698143D01*
X51613658Y32287759D01*
X51527000Y31852098D01*
X51527000Y31407902D01*
X51613658Y30972241D01*
X51783645Y30561857D01*
X52030427Y30192521D01*
X52344521Y29878427D01*
X52713857Y29631645D01*
X53124241Y29461658D01*
X53559902Y29375000D01*
X54004098Y29375000D01*
X54439759Y29461658D01*
X54850143Y29631645D01*
X55219479Y29878427D01*
X55220000Y29878948D01*
X55220001Y660000D01*
X660000Y660000D01*
X660000Y6560279D01*
X4215000Y6560279D01*
X4215000Y6139721D01*
X4297047Y5727244D01*
X4457988Y5338698D01*
X4691637Y4989017D01*
X4989017Y4691637D01*
X5338698Y4457988D01*
X5727244Y4297047D01*
X6139721Y4215000D01*
X6560279Y4215000D01*
X6972756Y4297047D01*
X7361302Y4457988D01*
X7710983Y4691637D01*
X8002639Y4983293D01*
X15345000Y4983293D01*
X15345000Y4076706D01*
X15360700Y3917303D01*
X15422742Y3712780D01*
X15523492Y3524290D01*
X15659079Y3359078D01*
X15824291Y3223491D01*
X16012781Y3122741D01*
X16217304Y3060700D01*
X16430000Y3039751D01*
X16642697Y3060700D01*
X16847220Y3122741D01*
X17035710Y3223491D01*
X17200922Y3359078D01*
X17336509Y3524290D01*
X17437259Y3712780D01*
X17499300Y3917304D01*
X17515000Y4076707D01*
X17515000Y4983294D01*
X17499300Y5142697D01*
X17437259Y5347220D01*
X17336509Y5535710D01*
X17200922Y5700922D01*
X17035710Y5836509D01*
X16847219Y5937259D01*
X16642696Y5999300D01*
X16430000Y6020249D01*
X16217303Y5999300D01*
X16012780Y5937259D01*
X15824290Y5836509D01*
X15659078Y5700922D01*
X15523491Y5535710D01*
X15422741Y5347219D01*
X15360700Y5142696D01*
X15345000Y4983293D01*
X8002639Y4983293D01*
X8008363Y4989017D01*
X8242012Y5338698D01*
X8402953Y5727244D01*
X8485000Y6139721D01*
X8485000Y6560279D01*
X8402953Y6972756D01*
X8242012Y7361302D01*
X8008363Y7710983D01*
X7710983Y8008363D01*
X7361302Y8242012D01*
X6972756Y8402953D01*
X6560279Y8485000D01*
X6139721Y8485000D01*
X5727244Y8402953D01*
X5338698Y8242012D01*
X4989017Y8008363D01*
X4691637Y7710983D01*
X4457988Y7361302D01*
X4297047Y6972756D01*
X4215000Y6560279D01*
X660000Y6560279D01*
X660000Y26228090D01*
X13456324Y26228090D01*
X13460001Y26190758D01*
X13460000Y24587323D01*
X13456324Y24550000D01*
X13460000Y24512678D01*
X13460000Y24512668D01*
X13460001Y24512658D01*
X13460000Y20887323D01*
X13456324Y20850000D01*
X13460000Y20812678D01*
X13460000Y20812668D01*
X13470997Y20701015D01*
X13493243Y20627679D01*
X13514454Y20557754D01*
X13585026Y20425724D01*
X13622257Y20380358D01*
X13679999Y20309999D01*
X13709003Y20286196D01*
X18198561Y15796637D01*
X18198560Y13451971D01*
X18154623Y13408034D01*
X18041355Y13238516D01*
X17963334Y13050158D01*
X17923560Y12850199D01*
X17923560Y12646321D01*
X17963334Y12446362D01*
X18041355Y12258004D01*
X18154623Y12088486D01*
X18298786Y11944323D01*
X18468304Y11831055D01*
X18610714Y11772066D01*
X18578528Y11711851D01*
X18527992Y11545255D01*
X18510928Y11372001D01*
X18510928Y10471999D01*
X18527992Y10298745D01*
X18578528Y10132149D01*
X18660595Y9978613D01*
X18742173Y9879209D01*
X18740107Y9872396D01*
X18727014Y9875000D01*
X18532986Y9875000D01*
X18342686Y9837147D01*
X18205000Y9780116D01*
X18067314Y9837147D01*
X17877014Y9875000D01*
X17682986Y9875000D01*
X17492686Y9837147D01*
X17313428Y9762896D01*
X17152099Y9655099D01*
X17050978Y9553978D01*
X17035710Y9566509D01*
X16847219Y9667259D01*
X16642696Y9729300D01*
X16430000Y9750249D01*
X16217303Y9729300D01*
X16012780Y9667259D01*
X15824290Y9566509D01*
X15659078Y9430922D01*
X15523491Y9265710D01*
X15422741Y9077219D01*
X15360700Y8872696D01*
X15345000Y8713293D01*
X15345000Y7106706D01*
X15360700Y6947303D01*
X15422742Y6742780D01*
X15523492Y6554290D01*
X15659079Y6389078D01*
X15824291Y6253491D01*
X16012781Y6152741D01*
X16217304Y6090700D01*
X16430000Y6069751D01*
X16642697Y6090700D01*
X16847220Y6152741D01*
X17035710Y6253491D01*
X17200922Y6389078D01*
X17336509Y6554290D01*
X17381695Y6638827D01*
X17492686Y6592853D01*
X17682986Y6555000D01*
X17877014Y6555000D01*
X18067314Y6592853D01*
X18205000Y6649884D01*
X18342686Y6592853D01*
X18532986Y6555000D01*
X18727014Y6555000D01*
X18917314Y6592853D01*
X19055000Y6649884D01*
X19192686Y6592853D01*
X19382986Y6555000D01*
X19577014Y6555000D01*
X19767314Y6592853D01*
X19905000Y6649884D01*
X20042686Y6592853D01*
X20232986Y6555000D01*
X20427014Y6555000D01*
X20617314Y6592853D01*
X20755000Y6649884D01*
X20892686Y6592853D01*
X20975299Y6576420D01*
X20928502Y6529623D01*
X20899499Y6505821D01*
X20858952Y6456414D01*
X20804526Y6390096D01*
X20761437Y6309483D01*
X20733954Y6258066D01*
X20690497Y6114805D01*
X20679500Y6003152D01*
X20679500Y6003142D01*
X20675824Y5965820D01*
X20679500Y5928497D01*
X20679500Y5757030D01*
X20549038Y5649962D01*
X20438595Y5515387D01*
X20356528Y5361851D01*
X20305992Y5195255D01*
X20288928Y5022001D01*
X20288928Y4121999D01*
X20305992Y3948745D01*
X20356528Y3782149D01*
X20438595Y3628613D01*
X20549038Y3494038D01*
X20683613Y3383595D01*
X20837149Y3301528D01*
X21003745Y3250992D01*
X21176999Y3233928D01*
X21702001Y3233928D01*
X21875255Y3250992D01*
X22041851Y3301528D01*
X22195387Y3383595D01*
X22329962Y3494038D01*
X22352000Y3520891D01*
X22374038Y3494038D01*
X22508613Y3383595D01*
X22662149Y3301528D01*
X22828745Y3250992D01*
X23001999Y3233928D01*
X23527001Y3233928D01*
X23700255Y3250992D01*
X23866851Y3301528D01*
X24020387Y3383595D01*
X24154962Y3494038D01*
X24176641Y3520453D01*
X24309079Y3359078D01*
X24474291Y3223491D01*
X24662781Y3122741D01*
X24867304Y3060700D01*
X25080000Y3039751D01*
X25292697Y3060700D01*
X25497220Y3122741D01*
X25685710Y3223491D01*
X25850922Y3359078D01*
X25877642Y3391637D01*
X29325000Y3391637D01*
X29325000Y3148363D01*
X29372460Y2909764D01*
X29465557Y2685008D01*
X29600713Y2482733D01*
X29772733Y2310713D01*
X29975008Y2175557D01*
X30199764Y2082460D01*
X30438363Y2035000D01*
X30681637Y2035000D01*
X30920236Y2082460D01*
X31144992Y2175557D01*
X31347267Y2310713D01*
X31519287Y2482733D01*
X31654443Y2685008D01*
X31747540Y2909764D01*
X31795000Y3148363D01*
X31795000Y3391637D01*
X39325000Y3391637D01*
X39325000Y3148363D01*
X39372460Y2909764D01*
X39465557Y2685008D01*
X39600713Y2482733D01*
X39772733Y2310713D01*
X39975008Y2175557D01*
X40199764Y2082460D01*
X40438363Y2035000D01*
X40681637Y2035000D01*
X40920236Y2082460D01*
X41144992Y2175557D01*
X41347267Y2310713D01*
X41519287Y2482733D01*
X41654443Y2685008D01*
X41747540Y2909764D01*
X41795000Y3148363D01*
X41795000Y3391637D01*
X41747540Y3630236D01*
X41654443Y3854992D01*
X41519287Y4057267D01*
X41347267Y4229287D01*
X41144992Y4364443D01*
X40920236Y4457540D01*
X40681637Y4505000D01*
X40438363Y4505000D01*
X40199764Y4457540D01*
X39975008Y4364443D01*
X39772733Y4229287D01*
X39600713Y4057267D01*
X39465557Y3854992D01*
X39372460Y3630236D01*
X39325000Y3391637D01*
X31795000Y3391637D01*
X31747540Y3630236D01*
X31654443Y3854992D01*
X31519287Y4057267D01*
X31347267Y4229287D01*
X31144992Y4364443D01*
X30965998Y4438585D01*
X34408190Y4438585D01*
X34537116Y4146055D01*
X34873586Y3977704D01*
X35236435Y3878229D01*
X35611718Y3851455D01*
X35985015Y3898409D01*
X36341978Y4017287D01*
X36582884Y4146055D01*
X36711810Y4438585D01*
X35560000Y5590395D01*
X34408190Y4438585D01*
X30965998Y4438585D01*
X30920236Y4457540D01*
X30681637Y4505000D01*
X30438363Y4505000D01*
X30199764Y4457540D01*
X29975008Y4364443D01*
X29772733Y4229287D01*
X29600713Y4057267D01*
X29465557Y3854992D01*
X29372460Y3630236D01*
X29325000Y3391637D01*
X25877642Y3391637D01*
X25986509Y3524290D01*
X26087259Y3712780D01*
X26149300Y3917304D01*
X26165000Y4076707D01*
X26165000Y4983294D01*
X26149300Y5142697D01*
X26087259Y5347220D01*
X25986509Y5535710D01*
X25850922Y5700922D01*
X25685710Y5836509D01*
X25582573Y5891637D01*
X29325000Y5891637D01*
X29325000Y5648363D01*
X29372460Y5409764D01*
X29465557Y5185008D01*
X29600713Y4982733D01*
X29772733Y4810713D01*
X29975008Y4675557D01*
X30199764Y4582460D01*
X30438363Y4535000D01*
X30681637Y4535000D01*
X30920236Y4582460D01*
X31144992Y4675557D01*
X31347267Y4810713D01*
X31519287Y4982733D01*
X31654443Y5185008D01*
X31747540Y5409764D01*
X31795000Y5648363D01*
X31795000Y5718282D01*
X33641455Y5718282D01*
X33688409Y5344985D01*
X33807287Y4988022D01*
X33936055Y4747116D01*
X34228585Y4618190D01*
X35380395Y5770000D01*
X35739605Y5770000D01*
X36891415Y4618190D01*
X37183945Y4747116D01*
X37352296Y5083586D01*
X37451771Y5446435D01*
X37478545Y5821718D01*
X37469751Y5891637D01*
X39325000Y5891637D01*
X39325000Y5648363D01*
X39372460Y5409764D01*
X39465557Y5185008D01*
X39600713Y4982733D01*
X39772733Y4810713D01*
X39975008Y4675557D01*
X40199764Y4582460D01*
X40438363Y4535000D01*
X40681637Y4535000D01*
X40920236Y4582460D01*
X41144992Y4675557D01*
X41347267Y4810713D01*
X41519287Y4982733D01*
X41654443Y5185008D01*
X41747540Y5409764D01*
X41795000Y5648363D01*
X41795000Y5891637D01*
X41753582Y6099863D01*
X52966000Y6099863D01*
X52966000Y5886137D01*
X53007696Y5676517D01*
X53089485Y5479060D01*
X53208225Y5301353D01*
X53359353Y5150225D01*
X53537060Y5031485D01*
X53734517Y4949696D01*
X53944137Y4908000D01*
X54157863Y4908000D01*
X54367483Y4949696D01*
X54564940Y5031485D01*
X54742647Y5150225D01*
X54893775Y5301353D01*
X55012515Y5479060D01*
X55094304Y5676517D01*
X55136000Y5886137D01*
X55136000Y6099863D01*
X55094304Y6309483D01*
X55012515Y6506940D01*
X54893775Y6684647D01*
X54742647Y6835775D01*
X54564940Y6954515D01*
X54367483Y7036304D01*
X54157863Y7078000D01*
X53944137Y7078000D01*
X53734517Y7036304D01*
X53537060Y6954515D01*
X53359353Y6835775D01*
X53208225Y6684647D01*
X53089485Y6506940D01*
X53007696Y6309483D01*
X52966000Y6099863D01*
X41753582Y6099863D01*
X41747540Y6130236D01*
X41654443Y6354992D01*
X41519287Y6557267D01*
X41347267Y6729287D01*
X41144992Y6864443D01*
X40920236Y6957540D01*
X40681637Y7005000D01*
X40438363Y7005000D01*
X40199764Y6957540D01*
X39975008Y6864443D01*
X39772733Y6729287D01*
X39600713Y6557267D01*
X39465557Y6354992D01*
X39372460Y6130236D01*
X39325000Y5891637D01*
X37469751Y5891637D01*
X37431591Y6195015D01*
X37312713Y6551978D01*
X37183945Y6792884D01*
X36891415Y6921810D01*
X35739605Y5770000D01*
X35380395Y5770000D01*
X34228585Y6921810D01*
X33936055Y6792884D01*
X33767704Y6456414D01*
X33668229Y6093565D01*
X33641455Y5718282D01*
X31795000Y5718282D01*
X31795000Y5891637D01*
X31747540Y6130236D01*
X31654443Y6354992D01*
X31519287Y6557267D01*
X31347267Y6729287D01*
X31144992Y6864443D01*
X30920236Y6957540D01*
X30681637Y7005000D01*
X30438363Y7005000D01*
X30199764Y6957540D01*
X29975008Y6864443D01*
X29772733Y6729287D01*
X29600713Y6557267D01*
X29465557Y6354992D01*
X29372460Y6130236D01*
X29325000Y5891637D01*
X25582573Y5891637D01*
X25497219Y5937259D01*
X25292696Y5999300D01*
X25080000Y6020249D01*
X24867303Y5999300D01*
X24662780Y5937259D01*
X24474290Y5836509D01*
X24309078Y5700922D01*
X24211109Y5581547D01*
X24154962Y5649962D01*
X24020387Y5760405D01*
X23866851Y5842472D01*
X23700255Y5893008D01*
X23527001Y5910072D01*
X23001999Y5910072D01*
X22828745Y5893008D01*
X22662149Y5842472D01*
X22508613Y5760405D01*
X22374038Y5649962D01*
X22352000Y5623109D01*
X22329962Y5649962D01*
X22257726Y5709245D01*
X22541002Y5992520D01*
X22570001Y6016319D01*
X22596332Y6048403D01*
X22664974Y6132043D01*
X22735546Y6264073D01*
X22749321Y6309483D01*
X22779003Y6407334D01*
X22790000Y6518987D01*
X22790000Y6518996D01*
X22793546Y6555000D01*
X22977014Y6555000D01*
X23167314Y6592853D01*
X23305000Y6649884D01*
X23442686Y6592853D01*
X23632986Y6555000D01*
X23827014Y6555000D01*
X24017314Y6592853D01*
X24128306Y6638827D01*
X24173492Y6554290D01*
X24309079Y6389078D01*
X24474291Y6253491D01*
X24662781Y6152741D01*
X24867304Y6090700D01*
X25080000Y6069751D01*
X25292697Y6090700D01*
X25497220Y6152741D01*
X25685710Y6253491D01*
X25850922Y6389078D01*
X25986509Y6554290D01*
X26087259Y6742780D01*
X26149300Y6947303D01*
X26164478Y7101415D01*
X34408190Y7101415D01*
X35560000Y5949605D01*
X36711810Y7101415D01*
X36582884Y7393945D01*
X36246414Y7562296D01*
X35883565Y7661771D01*
X35508282Y7688545D01*
X35134985Y7641591D01*
X34778022Y7522713D01*
X34537116Y7393945D01*
X34408190Y7101415D01*
X26164478Y7101415D01*
X26165000Y7106706D01*
X26165000Y8713294D01*
X26149300Y8872697D01*
X26087259Y9077220D01*
X25986509Y9265710D01*
X25850922Y9430922D01*
X25685710Y9566509D01*
X25497219Y9667259D01*
X25292696Y9729300D01*
X25080000Y9750249D01*
X24867303Y9729300D01*
X24662780Y9667259D01*
X24490000Y9574906D01*
X24490000Y10083258D01*
X24493676Y10120581D01*
X24490000Y10157904D01*
X24490000Y10157913D01*
X24479003Y10269566D01*
X24435546Y10412827D01*
X24411904Y10457057D01*
X24364974Y10544857D01*
X24293799Y10631583D01*
X24270001Y10660581D01*
X24241004Y10684378D01*
X23967263Y10958119D01*
X28650000Y10958119D01*
X28650000Y10581881D01*
X28723400Y10212873D01*
X28867380Y9865276D01*
X29076406Y9552446D01*
X29342446Y9286406D01*
X29655276Y9077380D01*
X30002873Y8933400D01*
X30371881Y8860000D01*
X30748119Y8860000D01*
X31117127Y8933400D01*
X31464724Y9077380D01*
X31777554Y9286406D01*
X32043594Y9552446D01*
X32105101Y9644497D01*
X32134662Y9600256D01*
X32390256Y9344662D01*
X32690801Y9143844D01*
X33024750Y9005518D01*
X33379268Y8935000D01*
X33740732Y8935000D01*
X34095250Y9005518D01*
X34429199Y9143844D01*
X34729744Y9344662D01*
X34985338Y9600256D01*
X35022506Y9655882D01*
X35199764Y9582460D01*
X35438363Y9535000D01*
X35681637Y9535000D01*
X35920236Y9582460D01*
X36097494Y9655882D01*
X36134662Y9600256D01*
X36390256Y9344662D01*
X36690801Y9143844D01*
X37024750Y9005518D01*
X37379268Y8935000D01*
X37740732Y8935000D01*
X38095250Y9005518D01*
X38429199Y9143844D01*
X38729744Y9344662D01*
X38985338Y9600256D01*
X39014899Y9644497D01*
X39076406Y9552446D01*
X39342446Y9286406D01*
X39655276Y9077380D01*
X40002873Y8933400D01*
X40371881Y8860000D01*
X40748119Y8860000D01*
X41117127Y8933400D01*
X41464724Y9077380D01*
X41498372Y9099863D01*
X52966000Y9099863D01*
X52966000Y8886137D01*
X53007696Y8676517D01*
X53089485Y8479060D01*
X53208225Y8301353D01*
X53359353Y8150225D01*
X53537060Y8031485D01*
X53734517Y7949696D01*
X53944137Y7908000D01*
X54157863Y7908000D01*
X54367483Y7949696D01*
X54564940Y8031485D01*
X54742647Y8150225D01*
X54893775Y8301353D01*
X55012515Y8479060D01*
X55094304Y8676517D01*
X55136000Y8886137D01*
X55136000Y9099863D01*
X55094304Y9309483D01*
X55012515Y9506940D01*
X54893775Y9684647D01*
X54742647Y9835775D01*
X54564940Y9954515D01*
X54367483Y10036304D01*
X54157863Y10078000D01*
X53944137Y10078000D01*
X53734517Y10036304D01*
X53537060Y9954515D01*
X53359353Y9835775D01*
X53208225Y9684647D01*
X53089485Y9506940D01*
X53007696Y9309483D01*
X52966000Y9099863D01*
X41498372Y9099863D01*
X41777554Y9286406D01*
X42043594Y9552446D01*
X42252620Y9865276D01*
X42396600Y10212873D01*
X42470000Y10581881D01*
X42470000Y10958119D01*
X42396600Y11327127D01*
X42252620Y11674724D01*
X42043594Y11987554D01*
X41777554Y12253594D01*
X41464724Y12462620D01*
X41117127Y12606600D01*
X40748119Y12680000D01*
X40371881Y12680000D01*
X40002873Y12606600D01*
X39655276Y12462620D01*
X39342446Y12253594D01*
X39076406Y11987554D01*
X39014899Y11895503D01*
X38985338Y11939744D01*
X38729744Y12195338D01*
X38429199Y12396156D01*
X38095250Y12534482D01*
X37740732Y12605000D01*
X37379268Y12605000D01*
X37024750Y12534482D01*
X36690801Y12396156D01*
X36390256Y12195338D01*
X36134662Y11939744D01*
X36097494Y11884118D01*
X35920236Y11957540D01*
X35681637Y12005000D01*
X35438363Y12005000D01*
X35199764Y11957540D01*
X35022506Y11884118D01*
X34985338Y11939744D01*
X34729744Y12195338D01*
X34429199Y12396156D01*
X34095250Y12534482D01*
X33740732Y12605000D01*
X33379268Y12605000D01*
X33024750Y12534482D01*
X32690801Y12396156D01*
X32390256Y12195338D01*
X32134662Y11939744D01*
X32105101Y11895503D01*
X32043594Y11987554D01*
X31777554Y12253594D01*
X31464724Y12462620D01*
X31117127Y12606600D01*
X30748119Y12680000D01*
X30371881Y12680000D01*
X30002873Y12606600D01*
X29655276Y12462620D01*
X29342446Y12253594D01*
X29076406Y11987554D01*
X28867380Y11674724D01*
X28723400Y11327127D01*
X28650000Y10958119D01*
X23967263Y10958119D01*
X23492383Y11432998D01*
X23468581Y11462001D01*
X23352856Y11556974D01*
X23220827Y11627546D01*
X23077566Y11671003D01*
X22965913Y11682000D01*
X22965902Y11682000D01*
X22928580Y11685676D01*
X22891258Y11682000D01*
X22578527Y11682000D01*
X22569472Y11711851D01*
X22487405Y11865387D01*
X22376962Y11999962D01*
X22242387Y12110405D01*
X22088851Y12192472D01*
X21922255Y12243008D01*
X21749001Y12260072D01*
X21223999Y12260072D01*
X21050745Y12243008D01*
X20884149Y12192472D01*
X20730613Y12110405D01*
X20596038Y11999962D01*
X20574000Y11973109D01*
X20551962Y11999962D01*
X20417387Y12110405D01*
X20263851Y12192472D01*
X20097255Y12243008D01*
X19924001Y12260072D01*
X19876622Y12260072D01*
X19953786Y12446362D01*
X19993560Y12646321D01*
X19993560Y12850199D01*
X19953786Y13050158D01*
X19875765Y13238516D01*
X19762497Y13408034D01*
X19718560Y13451971D01*
X19718560Y16074117D01*
X19722236Y16111440D01*
X19718560Y16148763D01*
X19718560Y16148773D01*
X19707563Y16260426D01*
X19664106Y16403687D01*
X19593534Y16535716D01*
X19498561Y16651441D01*
X19469563Y16675239D01*
X15889801Y20255000D01*
X16031939Y20255000D01*
X16231898Y20294774D01*
X16420256Y20372795D01*
X16589774Y20486063D01*
X16733937Y20630226D01*
X16847205Y20799744D01*
X16925226Y20988102D01*
X16965000Y21188061D01*
X16965000Y21335140D01*
X17005003Y21467014D01*
X17016000Y21578667D01*
X17016632Y21585081D01*
X17042324Y21592875D01*
X17362200Y21272998D01*
X17385999Y21243999D01*
X17501724Y21149026D01*
X17571928Y21111501D01*
X17571928Y21034000D01*
X17584188Y20909518D01*
X17620498Y20789820D01*
X17679463Y20679506D01*
X17758815Y20582815D01*
X17855506Y20503463D01*
X17965820Y20444498D01*
X18085518Y20408188D01*
X18210000Y20395928D01*
X18610000Y20395928D01*
X18734482Y20408188D01*
X18735000Y20408345D01*
X18735518Y20408188D01*
X18860000Y20395928D01*
X19260000Y20395928D01*
X19384482Y20408188D01*
X19385000Y20408345D01*
X19385518Y20408188D01*
X19510000Y20395928D01*
X19910000Y20395928D01*
X20034482Y20408188D01*
X20154180Y20444498D01*
X20264494Y20503463D01*
X20361185Y20582815D01*
X20434538Y20672196D01*
X20435668Y20668470D01*
X20517735Y20514934D01*
X20589811Y20427109D01*
X20583735Y20419706D01*
X20501668Y20266170D01*
X20451132Y20099574D01*
X20434068Y19926320D01*
X20434068Y18976320D01*
X20451132Y18803066D01*
X20501668Y18636470D01*
X20583735Y18482934D01*
X20694178Y18348358D01*
X20812141Y18251549D01*
X20812141Y18219632D01*
X20768203Y18175694D01*
X20654935Y18006176D01*
X20576914Y17817818D01*
X20537140Y17617859D01*
X20537140Y17413981D01*
X20576914Y17214022D01*
X20654935Y17025664D01*
X20768203Y16856146D01*
X20912366Y16711983D01*
X21081884Y16598715D01*
X21270242Y16520694D01*
X21470201Y16480920D01*
X21532339Y16480920D01*
X22202261Y15810997D01*
X22226059Y15781999D01*
X22341784Y15687026D01*
X22473813Y15616454D01*
X22617074Y15572997D01*
X22728727Y15562000D01*
X22728737Y15562000D01*
X22766060Y15558324D01*
X22803383Y15562000D01*
X30566189Y15562000D01*
X30610126Y15518063D01*
X30779644Y15404795D01*
X30968002Y15326774D01*
X31167961Y15287000D01*
X31371839Y15287000D01*
X31571798Y15326774D01*
X31760156Y15404795D01*
X31929674Y15518063D01*
X32073837Y15662226D01*
X32187105Y15831744D01*
X32265126Y16020102D01*
X32304900Y16220061D01*
X32304900Y16423939D01*
X32265126Y16623898D01*
X32187105Y16812256D01*
X32073837Y16981774D01*
X31929674Y17125937D01*
X31760156Y17239205D01*
X31571798Y17317226D01*
X31371839Y17357000D01*
X31167961Y17357000D01*
X30968002Y17317226D01*
X30779644Y17239205D01*
X30610126Y17125937D01*
X30566189Y17082000D01*
X23080862Y17082000D01*
X22607140Y17555721D01*
X22607140Y17617859D01*
X22567366Y17817818D01*
X22489345Y18006176D01*
X22376077Y18175694D01*
X22332140Y18219631D01*
X22332140Y18251550D01*
X22450102Y18348358D01*
X22455482Y18354914D01*
X22520955Y18275135D01*
X22617646Y18195783D01*
X22727960Y18136818D01*
X22847658Y18100508D01*
X22972140Y18088248D01*
X23186390Y18091320D01*
X23345140Y18250070D01*
X23345140Y19324320D01*
X23599140Y19324320D01*
X23599140Y18250070D01*
X23757890Y18091320D01*
X23972140Y18088248D01*
X24096622Y18100508D01*
X24216320Y18136818D01*
X24326634Y18195783D01*
X24423325Y18275135D01*
X24502677Y18371826D01*
X24561642Y18482140D01*
X24597952Y18601838D01*
X24610212Y18726320D01*
X24607140Y19165570D01*
X24448390Y19324320D01*
X23599140Y19324320D01*
X23345140Y19324320D01*
X23325140Y19324320D01*
X23325140Y19578320D01*
X23345140Y19578320D01*
X23345140Y20652570D01*
X23279140Y20718570D01*
X23279140Y21356320D01*
X23533140Y21356320D01*
X23533140Y20282070D01*
X23599140Y20216070D01*
X23599140Y19578320D01*
X24448390Y19578320D01*
X24607140Y19737070D01*
X24610212Y20176320D01*
X24597952Y20300802D01*
X24561642Y20420500D01*
X24502677Y20530814D01*
X24501234Y20532573D01*
X24531952Y20633838D01*
X24544212Y20758320D01*
X24541140Y21197570D01*
X24382390Y21356320D01*
X23533140Y21356320D01*
X23279140Y21356320D01*
X23259140Y21356320D01*
X23259140Y21610320D01*
X23279140Y21610320D01*
X23279140Y22684570D01*
X23533140Y22684570D01*
X23533140Y21610320D01*
X24382390Y21610320D01*
X24541140Y21769070D01*
X24544212Y22208320D01*
X24531952Y22332802D01*
X24495642Y22452500D01*
X24436677Y22562814D01*
X24357325Y22659505D01*
X24260634Y22738857D01*
X24150320Y22797822D01*
X24030622Y22834132D01*
X23906140Y22846392D01*
X23691890Y22843320D01*
X23533140Y22684570D01*
X23279140Y22684570D01*
X23120390Y22843320D01*
X22906140Y22846392D01*
X22781658Y22834132D01*
X22661960Y22797822D01*
X22551646Y22738857D01*
X22454955Y22659505D01*
X22389482Y22579726D01*
X22384102Y22586282D01*
X22249526Y22696725D01*
X22095990Y22778792D01*
X21929394Y22829328D01*
X21756140Y22846392D01*
X21256140Y22846392D01*
X21082886Y22829328D01*
X20916290Y22778792D01*
X20762754Y22696725D01*
X20628178Y22586282D01*
X20593478Y22544000D01*
X20547087Y22544000D01*
X20535812Y22658482D01*
X20499502Y22778180D01*
X20440537Y22888494D01*
X20361185Y22985185D01*
X20264494Y23064537D01*
X20171957Y23114000D01*
X20264494Y23163463D01*
X20361185Y23242815D01*
X20440537Y23339506D01*
X20499502Y23449820D01*
X20535812Y23569518D01*
X20548072Y23694000D01*
X20548072Y25194000D01*
X20540965Y25266163D01*
X20590222Y25315420D01*
X20677254Y25323992D01*
X20843850Y25374528D01*
X20997386Y25456595D01*
X21131962Y25567038D01*
X21242405Y25701614D01*
X21324472Y25855150D01*
X21375008Y26021746D01*
X21392072Y26195000D01*
X21392072Y27145000D01*
X21375008Y27318254D01*
X21324472Y27484850D01*
X21242405Y27638386D01*
X21131962Y27772962D01*
X20997386Y27883405D01*
X20843850Y27965472D01*
X20677254Y28016008D01*
X20504000Y28033072D01*
X20004000Y28033072D01*
X19830746Y28016008D01*
X19664150Y27965472D01*
X19510614Y27883405D01*
X19376038Y27772962D01*
X19304000Y27685183D01*
X19231962Y27772962D01*
X19097386Y27883405D01*
X18943850Y27965472D01*
X18777254Y28016008D01*
X18604000Y28033072D01*
X18104000Y28033072D01*
X17930746Y28016008D01*
X17764150Y27965472D01*
X17610614Y27883405D01*
X17476038Y27772962D01*
X17365595Y27638386D01*
X17283528Y27484850D01*
X17232992Y27318254D01*
X17215928Y27145000D01*
X17215928Y26195000D01*
X17232992Y26021746D01*
X17283528Y25855150D01*
X17365595Y25701614D01*
X17476038Y25567038D01*
X17610614Y25456595D01*
X17625957Y25448394D01*
X17620498Y25438180D01*
X17588289Y25332000D01*
X17455770Y25332000D01*
X17358962Y25449962D01*
X17224386Y25560405D01*
X17070850Y25642472D01*
X16904254Y25693008D01*
X16731000Y25710072D01*
X15781000Y25710072D01*
X15607746Y25693008D01*
X15441150Y25642472D01*
X15287614Y25560405D01*
X15153038Y25449962D01*
X15056230Y25332000D01*
X14980000Y25332000D01*
X14980000Y25913289D01*
X22297150Y33230439D01*
X35063270Y20464318D01*
X35087069Y20435319D01*
X35202794Y20340346D01*
X35334823Y20269774D01*
X35478084Y20226317D01*
X35589737Y20215320D01*
X35589745Y20215320D01*
X35627070Y20211644D01*
X35664395Y20215320D01*
X49165684Y20215320D01*
X49240175Y20035484D01*
X49353443Y19865966D01*
X49497606Y19721803D01*
X49667124Y19608535D01*
X49855482Y19530514D01*
X50055441Y19490740D01*
X50259319Y19490740D01*
X50459278Y19530514D01*
X50647636Y19608535D01*
X50817154Y19721803D01*
X50961317Y19865966D01*
X51074585Y20035484D01*
X51152606Y20223842D01*
X51192380Y20423801D01*
X51192380Y20627679D01*
X51152606Y20827638D01*
X51074585Y21015996D01*
X50961317Y21185514D01*
X50817154Y21329677D01*
X50647636Y21442945D01*
X50459278Y21520966D01*
X50259319Y21560740D01*
X50192458Y21560740D01*
X50132076Y21610294D01*
X50000047Y21680866D01*
X49856786Y21724323D01*
X49745133Y21735320D01*
X49745122Y21735320D01*
X49707800Y21738996D01*
X49670478Y21735320D01*
X35941872Y21735320D01*
X32647192Y25030000D01*
X44943928Y25030000D01*
X44943928Y23230000D01*
X44956188Y23105518D01*
X44992498Y22985820D01*
X45051463Y22875506D01*
X45130815Y22778815D01*
X45227506Y22699463D01*
X45337820Y22640498D01*
X45457518Y22604188D01*
X45582000Y22591928D01*
X47382000Y22591928D01*
X47506482Y22604188D01*
X47626180Y22640498D01*
X47736494Y22699463D01*
X47833185Y22778815D01*
X47912537Y22875506D01*
X47965880Y22975303D01*
X48003495Y22937688D01*
X48254905Y22769701D01*
X48534257Y22653989D01*
X48830816Y22595000D01*
X49133184Y22595000D01*
X49429743Y22653989D01*
X49709095Y22769701D01*
X49960505Y22937688D01*
X50174312Y23151495D01*
X50232000Y23237831D01*
X50289688Y23151495D01*
X50503495Y22937688D01*
X50754905Y22769701D01*
X51034257Y22653989D01*
X51330816Y22595000D01*
X51633184Y22595000D01*
X51929743Y22653989D01*
X52209095Y22769701D01*
X52460505Y22937688D01*
X52674312Y23151495D01*
X52842299Y23402905D01*
X52958011Y23682257D01*
X53017000Y23978816D01*
X53017000Y24281184D01*
X52958011Y24577743D01*
X52842299Y24857095D01*
X52674312Y25108505D01*
X52460505Y25322312D01*
X52209095Y25490299D01*
X51929743Y25606011D01*
X51633184Y25665000D01*
X51330816Y25665000D01*
X51034257Y25606011D01*
X50754905Y25490299D01*
X50503495Y25322312D01*
X50289688Y25108505D01*
X50232000Y25022169D01*
X50174312Y25108505D01*
X49960505Y25322312D01*
X49709095Y25490299D01*
X49429743Y25606011D01*
X49133184Y25665000D01*
X48830816Y25665000D01*
X48534257Y25606011D01*
X48254905Y25490299D01*
X48003495Y25322312D01*
X47965880Y25284697D01*
X47912537Y25384494D01*
X47833185Y25481185D01*
X47736494Y25560537D01*
X47626180Y25619502D01*
X47506482Y25655812D01*
X47382000Y25668072D01*
X45582000Y25668072D01*
X45457518Y25655812D01*
X45337820Y25619502D01*
X45227506Y25560537D01*
X45130815Y25481185D01*
X45051463Y25384494D01*
X44992498Y25274180D01*
X44956188Y25154482D01*
X44943928Y25030000D01*
X32647192Y25030000D01*
X25825094Y31852098D01*
X41927000Y31852098D01*
X41927000Y31407902D01*
X42013658Y30972241D01*
X42183645Y30561857D01*
X42430427Y30192521D01*
X42744521Y29878427D01*
X43113857Y29631645D01*
X43524241Y29461658D01*
X43959902Y29375000D01*
X44404098Y29375000D01*
X44839759Y29461658D01*
X45250143Y29631645D01*
X45619479Y29878427D01*
X45933573Y30192521D01*
X46180355Y30561857D01*
X46350342Y30972241D01*
X46437000Y31407902D01*
X46437000Y31852098D01*
X46350342Y32287759D01*
X46180355Y32698143D01*
X45933573Y33067479D01*
X45619479Y33381573D01*
X45250143Y33628355D01*
X44839759Y33798342D01*
X44404098Y33885000D01*
X43959902Y33885000D01*
X43524241Y33798342D01*
X43113857Y33628355D01*
X42744521Y33381573D01*
X42430427Y33067479D01*
X42183645Y32698143D01*
X42013658Y32287759D01*
X41927000Y31852098D01*
X25825094Y31852098D01*
X23332150Y34345041D01*
X23332150Y34373149D01*
X28943301Y39984298D01*
X29203101Y39724498D01*
X29226899Y39695499D01*
X29342624Y39600526D01*
X29474653Y39529954D01*
X29617914Y39486497D01*
X29729567Y39475500D01*
X29729576Y39475500D01*
X29766899Y39471824D01*
X29804222Y39475500D01*
X31834970Y39475500D01*
X31942038Y39345038D01*
X32076613Y39234595D01*
X32230149Y39152528D01*
X32396745Y39101992D01*
X32569999Y39084928D01*
X33470001Y39084928D01*
X33643255Y39101992D01*
X33809851Y39152528D01*
X33963387Y39234595D01*
X34097962Y39345038D01*
X34208405Y39479613D01*
X34290472Y39633149D01*
X34341008Y39799745D01*
X34358072Y39972999D01*
X34358072Y40498001D01*
X34341008Y40671255D01*
X34290472Y40837851D01*
X34208405Y40991387D01*
X34097962Y41125962D01*
X34071109Y41148000D01*
X34097962Y41170038D01*
X34125397Y41203468D01*
X34129595Y41195614D01*
X34240038Y41061038D01*
X34374614Y40950595D01*
X34528150Y40868528D01*
X34694746Y40817992D01*
X34868000Y40800928D01*
X35368000Y40800928D01*
X35541254Y40817992D01*
X35707850Y40868528D01*
X35861386Y40950595D01*
X35995962Y41061038D01*
X36068000Y41148817D01*
X36140038Y41061038D01*
X36274614Y40950595D01*
X36428150Y40868528D01*
X36594746Y40817992D01*
X36768000Y40800928D01*
X37268000Y40800928D01*
X37441254Y40817992D01*
X37607850Y40868528D01*
X37761386Y40950595D01*
X37895962Y41061038D01*
X38006405Y41195614D01*
X38088472Y41349150D01*
X38139008Y41515746D01*
X38156072Y41689000D01*
X38156072Y42639000D01*
X38139008Y42812254D01*
X38088472Y42978850D01*
X38006405Y43132386D01*
X37895962Y43266962D01*
X37820500Y43328892D01*
X37820500Y47582970D01*
X37950962Y47690038D01*
X37973000Y47716891D01*
X37995038Y47690038D01*
X38125500Y47582970D01*
X38125500Y46567323D01*
X38121824Y46530000D01*
X38125500Y46492678D01*
X38125500Y46492668D01*
X38136497Y46381015D01*
X38161068Y46300015D01*
X38179954Y46237754D01*
X38250526Y46105724D01*
X38290371Y46057174D01*
X38345499Y45989999D01*
X38374503Y45966196D01*
X39097722Y45242977D01*
X39090928Y45174000D01*
X39090928Y44874000D01*
X39106071Y44720255D01*
X39150916Y44572418D01*
X39223742Y44436171D01*
X39321749Y44316749D01*
X39441171Y44218742D01*
X39577418Y44145916D01*
X39725255Y44101071D01*
X39879000Y44085928D01*
X40769000Y44085928D01*
X40769001Y41170703D01*
X37854459Y38256160D01*
X37792321Y38256160D01*
X37592362Y38216386D01*
X37404004Y38138365D01*
X37234486Y38025097D01*
X37090323Y37880934D01*
X36977055Y37711416D01*
X36899034Y37523058D01*
X36859260Y37323099D01*
X36859260Y37119221D01*
X36899034Y36919262D01*
X36977055Y36730904D01*
X37090323Y36561386D01*
X37234486Y36417223D01*
X37404004Y36303955D01*
X37592362Y36225934D01*
X37792321Y36186160D01*
X37996199Y36186160D01*
X38196158Y36225934D01*
X38384516Y36303955D01*
X38554034Y36417223D01*
X38698197Y36561386D01*
X38811465Y36730904D01*
X38889486Y36919262D01*
X38929260Y37119221D01*
X38929260Y37181359D01*
X42040003Y40292101D01*
X42069001Y40315899D01*
X42163974Y40431624D01*
X42234546Y40563653D01*
X42278003Y40706914D01*
X42289000Y40818567D01*
X42292677Y40855900D01*
X42289000Y40893233D01*
X42289000Y42120279D01*
X46125000Y42120279D01*
X46125000Y41699721D01*
X46207047Y41287244D01*
X46367988Y40898698D01*
X46601637Y40549017D01*
X46899017Y40251637D01*
X47248698Y40017988D01*
X47637244Y39857047D01*
X48049721Y39775000D01*
X48470279Y39775000D01*
X48882756Y39857047D01*
X49271302Y40017988D01*
X49620983Y40251637D01*
X49918363Y40549017D01*
X50152012Y40898698D01*
X50312953Y41287244D01*
X50395000Y41699721D01*
X50395000Y42120279D01*
X50312953Y42532756D01*
X50152012Y42921302D01*
X49918363Y43270983D01*
X49620983Y43568363D01*
X49271302Y43802012D01*
X48882756Y43962953D01*
X48470279Y44045000D01*
X48049721Y44045000D01*
X47637244Y43962953D01*
X47248698Y43802012D01*
X46899017Y43568363D01*
X46601637Y43270983D01*
X46367988Y42921302D01*
X46207047Y42532756D01*
X46125000Y42120279D01*
X42289000Y42120279D01*
X42289000Y44088252D01*
X42380750Y44089000D01*
X42539500Y44247750D01*
X42539500Y44897000D01*
X42793500Y44897000D01*
X42793500Y44247750D01*
X42952250Y44089000D01*
X43329000Y44085928D01*
X43453482Y44098188D01*
X43496326Y44111185D01*
X43527815Y44072815D01*
X43624506Y43993463D01*
X43734820Y43934498D01*
X43854518Y43898188D01*
X43979000Y43885928D01*
X44418250Y43889000D01*
X44577000Y44047750D01*
X44577000Y44897000D01*
X44831000Y44897000D01*
X44831000Y44047750D01*
X44989750Y43889000D01*
X45429000Y43885928D01*
X45553482Y43898188D01*
X45673180Y43934498D01*
X45783494Y43993463D01*
X45880185Y44072815D01*
X45959537Y44169506D01*
X46018502Y44279820D01*
X46054812Y44399518D01*
X46067072Y44524000D01*
X46064000Y44738250D01*
X45905250Y44897000D01*
X44831000Y44897000D01*
X44577000Y44897000D01*
X42793500Y44897000D01*
X42539500Y44897000D01*
X42519500Y44897000D01*
X42519500Y45035928D01*
X43179000Y45035928D01*
X43332745Y45051071D01*
X43480582Y45095916D01*
X43583636Y45151000D01*
X44577000Y45151000D01*
X44577000Y45171000D01*
X44831000Y45171000D01*
X44831000Y45151000D01*
X45905250Y45151000D01*
X46064000Y45309750D01*
X46067072Y45524000D01*
X46054812Y45648482D01*
X46018502Y45768180D01*
X45959537Y45878494D01*
X45880185Y45975185D01*
X45800406Y46040658D01*
X45806962Y46046038D01*
X45917405Y46180614D01*
X45999472Y46334150D01*
X46050008Y46500746D01*
X46067072Y46674000D01*
X46067072Y46760110D01*
X46288122Y46981160D01*
X46350259Y46981160D01*
X46550218Y47020934D01*
X46738576Y47098955D01*
X46908094Y47212223D01*
X47052257Y47356386D01*
X47165525Y47525904D01*
X47243546Y47714262D01*
X47283320Y47914221D01*
X47283320Y48118099D01*
X47243546Y48318058D01*
X47165525Y48506416D01*
X47052257Y48675934D01*
X46908094Y48820097D01*
X46738576Y48933365D01*
X46550218Y49011386D01*
X46350259Y49051160D01*
X46146381Y49051160D01*
X45946422Y49011386D01*
X45758064Y48933365D01*
X45588546Y48820097D01*
X45444383Y48675934D01*
X45331115Y48506416D01*
X45253094Y48318058D01*
X45213320Y48118099D01*
X45213320Y48058692D01*
X45179000Y48062072D01*
X44759939Y48062072D01*
X44757000Y48482250D01*
X44598250Y48641000D01*
X43749000Y48641000D01*
X43749000Y48621000D01*
X43495000Y48621000D01*
X43495000Y48641000D01*
X43475000Y48641000D01*
X43475000Y48895000D01*
X43495000Y48895000D01*
X43495000Y48915000D01*
X43749000Y48915000D01*
X43749000Y48895000D01*
X44598250Y48895000D01*
X44757000Y49053750D01*
X44760072Y49493000D01*
X44747812Y49617482D01*
X44711502Y49737180D01*
X44652537Y49847494D01*
X44573185Y49944185D01*
X44476494Y50023537D01*
X44366180Y50082502D01*
X44246482Y50118812D01*
X44122000Y50131072D01*
X43907750Y50128000D01*
X43765351Y49985601D01*
X43778472Y50010149D01*
X43829008Y50176745D01*
X43846072Y50349999D01*
X43846072Y51250001D01*
X43829008Y51423255D01*
X43778472Y51589851D01*
X43696405Y51743387D01*
X43585962Y51877962D01*
X43451387Y51988405D01*
X43297851Y52070472D01*
X43131255Y52121008D01*
X42958001Y52138072D01*
X42482000Y52138072D01*
X42482000Y53775157D01*
X42485676Y53812480D01*
X42482000Y53849803D01*
X42482000Y53849813D01*
X42471003Y53961466D01*
X42427546Y54104727D01*
X42417985Y54122614D01*
X42356974Y54236757D01*
X42285799Y54323483D01*
X42262001Y54352481D01*
X42233003Y54376279D01*
X40798284Y55810997D01*
X40774481Y55840001D01*
X40658756Y55934974D01*
X40526727Y56005546D01*
X40383466Y56049003D01*
X40271813Y56060000D01*
X40271802Y56060000D01*
X40234480Y56063676D01*
X40197158Y56060000D01*
X36587333Y56060000D01*
X36550000Y56063677D01*
X36512667Y56060000D01*
X36401014Y56049003D01*
X36257753Y56005546D01*
X36125724Y55934974D01*
X36009999Y55840001D01*
X35986196Y55810997D01*
X35567158Y55391959D01*
X35538160Y55368161D01*
X35514362Y55339163D01*
X35514361Y55339162D01*
X35443186Y55252436D01*
X35418422Y55206106D01*
X35368000Y55211072D01*
X34868000Y55211072D01*
X34694746Y55194008D01*
X34528150Y55143472D01*
X34374614Y55061405D01*
X34240038Y54950962D01*
X34129595Y54816386D01*
X34107109Y54774317D01*
X34097962Y54785462D01*
X33963387Y54895905D01*
X33809851Y54977972D01*
X33643255Y55028508D01*
X33470001Y55045572D01*
X32569999Y55045572D01*
X32396745Y55028508D01*
X32230149Y54977972D01*
X32076613Y54895905D01*
X31942038Y54785462D01*
X31834970Y54655000D01*
X31066033Y54655000D01*
X31026828Y54713675D01*
X30837675Y54902828D01*
X30651487Y55027234D01*
X30695000Y55026928D01*
X30819482Y55039188D01*
X30939180Y55075498D01*
X31049494Y55134463D01*
X31146185Y55213815D01*
X31225537Y55310506D01*
X31284502Y55420820D01*
X31320812Y55540518D01*
X31333072Y55665000D01*
X31330000Y56102250D01*
X31171250Y56261000D01*
X30099000Y56261000D01*
X30099000Y56241000D01*
X29845000Y56241000D01*
X29845000Y56261000D01*
X28772750Y56261000D01*
X28614000Y56102250D01*
X28610928Y55665000D01*
X28623188Y55540518D01*
X28659498Y55420820D01*
X28718463Y55310506D01*
X28797815Y55213815D01*
X28894506Y55134463D01*
X29004820Y55075498D01*
X29124518Y55039188D01*
X29249000Y55026928D01*
X29292513Y55027234D01*
X29106325Y54902828D01*
X28917172Y54713675D01*
X28768556Y54491254D01*
X28666187Y54244114D01*
X28614000Y53981751D01*
X28614000Y53714249D01*
X28666187Y53451886D01*
X28768556Y53204746D01*
X28917172Y52982325D01*
X29106325Y52793172D01*
X29328746Y52644556D01*
X29575886Y52542187D01*
X29838249Y52490000D01*
X30105751Y52490000D01*
X30368114Y52542187D01*
X30489483Y52592460D01*
X30480081Y52581003D01*
X27675378Y49776299D01*
X27646380Y49752501D01*
X27622582Y49723503D01*
X27622581Y49723502D01*
X27551406Y49636776D01*
X27480834Y49504746D01*
X27437378Y49361485D01*
X27422704Y49212500D01*
X27426381Y49175168D01*
X27426380Y41853342D01*
X27422704Y41816020D01*
X27426380Y41778698D01*
X27426380Y41778688D01*
X27437377Y41667035D01*
X27469407Y41561446D01*
X27480834Y41523774D01*
X27551406Y41391744D01*
X27581599Y41354954D01*
X27646379Y41276019D01*
X27675382Y41252217D01*
X27868498Y41059101D01*
X22138323Y35328924D01*
X21995252Y35300466D01*
X21806894Y35222445D01*
X21637376Y35109177D01*
X21493213Y34965014D01*
X21379945Y34795496D01*
X21301924Y34607138D01*
X21262150Y34407179D01*
X21262150Y34345042D01*
X13708998Y26791889D01*
X13680000Y26768091D01*
X13656202Y26739093D01*
X13656201Y26739092D01*
X13585026Y26652366D01*
X13514454Y26520336D01*
X13484180Y26420532D01*
X13470998Y26377076D01*
X13460814Y26273677D01*
X13456324Y26228090D01*
X660000Y26228090D01*
X660000Y39580279D01*
X4215000Y39580279D01*
X4215000Y39159721D01*
X4297047Y38747244D01*
X4457988Y38358698D01*
X4691637Y38009017D01*
X4989017Y37711637D01*
X5338698Y37477988D01*
X5727244Y37317047D01*
X6139721Y37235000D01*
X6560279Y37235000D01*
X6972756Y37317047D01*
X7361302Y37477988D01*
X7710983Y37711637D01*
X8008363Y38009017D01*
X8242012Y38358698D01*
X8402953Y38747244D01*
X8485000Y39159721D01*
X8485000Y39580279D01*
X8402953Y39992756D01*
X8242012Y40381302D01*
X8008363Y40730983D01*
X7710983Y41028363D01*
X7361302Y41262012D01*
X6972756Y41422953D01*
X6560279Y41505000D01*
X6139721Y41505000D01*
X5727244Y41422953D01*
X5338698Y41262012D01*
X4989017Y41028363D01*
X4691637Y40730983D01*
X4457988Y40381302D01*
X4297047Y39992756D01*
X4215000Y39580279D01*
X660000Y39580279D01*
X660000Y41636620D01*
X16134380Y57111000D01*
X28610928Y57111000D01*
X28614000Y56673750D01*
X28772750Y56515000D01*
X29845000Y56515000D01*
X29845000Y57587250D01*
X30099000Y57587250D01*
X30099000Y56515000D01*
X31171250Y56515000D01*
X31330000Y56673750D01*
X31333072Y57111000D01*
X31320812Y57235482D01*
X31284502Y57355180D01*
X31225537Y57465494D01*
X31146185Y57562185D01*
X31049494Y57641537D01*
X30939180Y57700502D01*
X30819482Y57736812D01*
X30695000Y57749072D01*
X30257750Y57746000D01*
X30099000Y57587250D01*
X29845000Y57587250D01*
X29686250Y57746000D01*
X29249000Y57749072D01*
X29124518Y57736812D01*
X29004820Y57700502D01*
X28894506Y57641537D01*
X28797815Y57562185D01*
X28718463Y57465494D01*
X28659498Y57355180D01*
X28623188Y57235482D01*
X28610928Y57111000D01*
X16134380Y57111000D01*
X20593381Y61570000D01*
X35286620Y61570000D01*
X55220000Y41636619D01*
G04 #@! TA.AperFunction,Conductor*
D24*
G36*
X55220000Y41636619D02*
G01*
X55220000Y33381052D01*
X55219479Y33381573D01*
X54850143Y33628355D01*
X54439759Y33798342D01*
X54004098Y33885000D01*
X53559902Y33885000D01*
X53124241Y33798342D01*
X52713857Y33628355D01*
X52344521Y33381573D01*
X52030427Y33067479D01*
X51783645Y32698143D01*
X51613658Y32287759D01*
X51527000Y31852098D01*
X51527000Y31407902D01*
X51613658Y30972241D01*
X51783645Y30561857D01*
X52030427Y30192521D01*
X52344521Y29878427D01*
X52713857Y29631645D01*
X53124241Y29461658D01*
X53559902Y29375000D01*
X54004098Y29375000D01*
X54439759Y29461658D01*
X54850143Y29631645D01*
X55219479Y29878427D01*
X55220000Y29878948D01*
X55220001Y660000D01*
X660000Y660000D01*
X660000Y6560279D01*
X4215000Y6560279D01*
X4215000Y6139721D01*
X4297047Y5727244D01*
X4457988Y5338698D01*
X4691637Y4989017D01*
X4989017Y4691637D01*
X5338698Y4457988D01*
X5727244Y4297047D01*
X6139721Y4215000D01*
X6560279Y4215000D01*
X6972756Y4297047D01*
X7361302Y4457988D01*
X7710983Y4691637D01*
X8002639Y4983293D01*
X15345000Y4983293D01*
X15345000Y4076706D01*
X15360700Y3917303D01*
X15422742Y3712780D01*
X15523492Y3524290D01*
X15659079Y3359078D01*
X15824291Y3223491D01*
X16012781Y3122741D01*
X16217304Y3060700D01*
X16430000Y3039751D01*
X16642697Y3060700D01*
X16847220Y3122741D01*
X17035710Y3223491D01*
X17200922Y3359078D01*
X17336509Y3524290D01*
X17437259Y3712780D01*
X17499300Y3917304D01*
X17515000Y4076707D01*
X17515000Y4983294D01*
X17499300Y5142697D01*
X17437259Y5347220D01*
X17336509Y5535710D01*
X17200922Y5700922D01*
X17035710Y5836509D01*
X16847219Y5937259D01*
X16642696Y5999300D01*
X16430000Y6020249D01*
X16217303Y5999300D01*
X16012780Y5937259D01*
X15824290Y5836509D01*
X15659078Y5700922D01*
X15523491Y5535710D01*
X15422741Y5347219D01*
X15360700Y5142696D01*
X15345000Y4983293D01*
X8002639Y4983293D01*
X8008363Y4989017D01*
X8242012Y5338698D01*
X8402953Y5727244D01*
X8485000Y6139721D01*
X8485000Y6560279D01*
X8402953Y6972756D01*
X8242012Y7361302D01*
X8008363Y7710983D01*
X7710983Y8008363D01*
X7361302Y8242012D01*
X6972756Y8402953D01*
X6560279Y8485000D01*
X6139721Y8485000D01*
X5727244Y8402953D01*
X5338698Y8242012D01*
X4989017Y8008363D01*
X4691637Y7710983D01*
X4457988Y7361302D01*
X4297047Y6972756D01*
X4215000Y6560279D01*
X660000Y6560279D01*
X660000Y26228090D01*
X13456324Y26228090D01*
X13460001Y26190758D01*
X13460000Y24587323D01*
X13456324Y24550000D01*
X13460000Y24512678D01*
X13460000Y24512668D01*
X13460001Y24512658D01*
X13460000Y20887323D01*
X13456324Y20850000D01*
X13460000Y20812678D01*
X13460000Y20812668D01*
X13470997Y20701015D01*
X13493243Y20627679D01*
X13514454Y20557754D01*
X13585026Y20425724D01*
X13622257Y20380358D01*
X13679999Y20309999D01*
X13709003Y20286196D01*
X18198561Y15796637D01*
X18198560Y13451971D01*
X18154623Y13408034D01*
X18041355Y13238516D01*
X17963334Y13050158D01*
X17923560Y12850199D01*
X17923560Y12646321D01*
X17963334Y12446362D01*
X18041355Y12258004D01*
X18154623Y12088486D01*
X18298786Y11944323D01*
X18468304Y11831055D01*
X18610714Y11772066D01*
X18578528Y11711851D01*
X18527992Y11545255D01*
X18510928Y11372001D01*
X18510928Y10471999D01*
X18527992Y10298745D01*
X18578528Y10132149D01*
X18660595Y9978613D01*
X18742173Y9879209D01*
X18740107Y9872396D01*
X18727014Y9875000D01*
X18532986Y9875000D01*
X18342686Y9837147D01*
X18205000Y9780116D01*
X18067314Y9837147D01*
X17877014Y9875000D01*
X17682986Y9875000D01*
X17492686Y9837147D01*
X17313428Y9762896D01*
X17152099Y9655099D01*
X17050978Y9553978D01*
X17035710Y9566509D01*
X16847219Y9667259D01*
X16642696Y9729300D01*
X16430000Y9750249D01*
X16217303Y9729300D01*
X16012780Y9667259D01*
X15824290Y9566509D01*
X15659078Y9430922D01*
X15523491Y9265710D01*
X15422741Y9077219D01*
X15360700Y8872696D01*
X15345000Y8713293D01*
X15345000Y7106706D01*
X15360700Y6947303D01*
X15422742Y6742780D01*
X15523492Y6554290D01*
X15659079Y6389078D01*
X15824291Y6253491D01*
X16012781Y6152741D01*
X16217304Y6090700D01*
X16430000Y6069751D01*
X16642697Y6090700D01*
X16847220Y6152741D01*
X17035710Y6253491D01*
X17200922Y6389078D01*
X17336509Y6554290D01*
X17381695Y6638827D01*
X17492686Y6592853D01*
X17682986Y6555000D01*
X17877014Y6555000D01*
X18067314Y6592853D01*
X18205000Y6649884D01*
X18342686Y6592853D01*
X18532986Y6555000D01*
X18727014Y6555000D01*
X18917314Y6592853D01*
X19055000Y6649884D01*
X19192686Y6592853D01*
X19382986Y6555000D01*
X19577014Y6555000D01*
X19767314Y6592853D01*
X19905000Y6649884D01*
X20042686Y6592853D01*
X20232986Y6555000D01*
X20427014Y6555000D01*
X20617314Y6592853D01*
X20755000Y6649884D01*
X20892686Y6592853D01*
X20975299Y6576420D01*
X20928502Y6529623D01*
X20899499Y6505821D01*
X20858952Y6456414D01*
X20804526Y6390096D01*
X20761437Y6309483D01*
X20733954Y6258066D01*
X20690497Y6114805D01*
X20679500Y6003152D01*
X20679500Y6003142D01*
X20675824Y5965820D01*
X20679500Y5928497D01*
X20679500Y5757030D01*
X20549038Y5649962D01*
X20438595Y5515387D01*
X20356528Y5361851D01*
X20305992Y5195255D01*
X20288928Y5022001D01*
X20288928Y4121999D01*
X20305992Y3948745D01*
X20356528Y3782149D01*
X20438595Y3628613D01*
X20549038Y3494038D01*
X20683613Y3383595D01*
X20837149Y3301528D01*
X21003745Y3250992D01*
X21176999Y3233928D01*
X21702001Y3233928D01*
X21875255Y3250992D01*
X22041851Y3301528D01*
X22195387Y3383595D01*
X22329962Y3494038D01*
X22352000Y3520891D01*
X22374038Y3494038D01*
X22508613Y3383595D01*
X22662149Y3301528D01*
X22828745Y3250992D01*
X23001999Y3233928D01*
X23527001Y3233928D01*
X23700255Y3250992D01*
X23866851Y3301528D01*
X24020387Y3383595D01*
X24154962Y3494038D01*
X24176641Y3520453D01*
X24309079Y3359078D01*
X24474291Y3223491D01*
X24662781Y3122741D01*
X24867304Y3060700D01*
X25080000Y3039751D01*
X25292697Y3060700D01*
X25497220Y3122741D01*
X25685710Y3223491D01*
X25850922Y3359078D01*
X25877642Y3391637D01*
X29325000Y3391637D01*
X29325000Y3148363D01*
X29372460Y2909764D01*
X29465557Y2685008D01*
X29600713Y2482733D01*
X29772733Y2310713D01*
X29975008Y2175557D01*
X30199764Y2082460D01*
X30438363Y2035000D01*
X30681637Y2035000D01*
X30920236Y2082460D01*
X31144992Y2175557D01*
X31347267Y2310713D01*
X31519287Y2482733D01*
X31654443Y2685008D01*
X31747540Y2909764D01*
X31795000Y3148363D01*
X31795000Y3391637D01*
X39325000Y3391637D01*
X39325000Y3148363D01*
X39372460Y2909764D01*
X39465557Y2685008D01*
X39600713Y2482733D01*
X39772733Y2310713D01*
X39975008Y2175557D01*
X40199764Y2082460D01*
X40438363Y2035000D01*
X40681637Y2035000D01*
X40920236Y2082460D01*
X41144992Y2175557D01*
X41347267Y2310713D01*
X41519287Y2482733D01*
X41654443Y2685008D01*
X41747540Y2909764D01*
X41795000Y3148363D01*
X41795000Y3391637D01*
X41747540Y3630236D01*
X41654443Y3854992D01*
X41519287Y4057267D01*
X41347267Y4229287D01*
X41144992Y4364443D01*
X40920236Y4457540D01*
X40681637Y4505000D01*
X40438363Y4505000D01*
X40199764Y4457540D01*
X39975008Y4364443D01*
X39772733Y4229287D01*
X39600713Y4057267D01*
X39465557Y3854992D01*
X39372460Y3630236D01*
X39325000Y3391637D01*
X31795000Y3391637D01*
X31747540Y3630236D01*
X31654443Y3854992D01*
X31519287Y4057267D01*
X31347267Y4229287D01*
X31144992Y4364443D01*
X30965998Y4438585D01*
X34408190Y4438585D01*
X34537116Y4146055D01*
X34873586Y3977704D01*
X35236435Y3878229D01*
X35611718Y3851455D01*
X35985015Y3898409D01*
X36341978Y4017287D01*
X36582884Y4146055D01*
X36711810Y4438585D01*
X35560000Y5590395D01*
X34408190Y4438585D01*
X30965998Y4438585D01*
X30920236Y4457540D01*
X30681637Y4505000D01*
X30438363Y4505000D01*
X30199764Y4457540D01*
X29975008Y4364443D01*
X29772733Y4229287D01*
X29600713Y4057267D01*
X29465557Y3854992D01*
X29372460Y3630236D01*
X29325000Y3391637D01*
X25877642Y3391637D01*
X25986509Y3524290D01*
X26087259Y3712780D01*
X26149300Y3917304D01*
X26165000Y4076707D01*
X26165000Y4983294D01*
X26149300Y5142697D01*
X26087259Y5347220D01*
X25986509Y5535710D01*
X25850922Y5700922D01*
X25685710Y5836509D01*
X25582573Y5891637D01*
X29325000Y5891637D01*
X29325000Y5648363D01*
X29372460Y5409764D01*
X29465557Y5185008D01*
X29600713Y4982733D01*
X29772733Y4810713D01*
X29975008Y4675557D01*
X30199764Y4582460D01*
X30438363Y4535000D01*
X30681637Y4535000D01*
X30920236Y4582460D01*
X31144992Y4675557D01*
X31347267Y4810713D01*
X31519287Y4982733D01*
X31654443Y5185008D01*
X31747540Y5409764D01*
X31795000Y5648363D01*
X31795000Y5718282D01*
X33641455Y5718282D01*
X33688409Y5344985D01*
X33807287Y4988022D01*
X33936055Y4747116D01*
X34228585Y4618190D01*
X35380395Y5770000D01*
X35739605Y5770000D01*
X36891415Y4618190D01*
X37183945Y4747116D01*
X37352296Y5083586D01*
X37451771Y5446435D01*
X37478545Y5821718D01*
X37469751Y5891637D01*
X39325000Y5891637D01*
X39325000Y5648363D01*
X39372460Y5409764D01*
X39465557Y5185008D01*
X39600713Y4982733D01*
X39772733Y4810713D01*
X39975008Y4675557D01*
X40199764Y4582460D01*
X40438363Y4535000D01*
X40681637Y4535000D01*
X40920236Y4582460D01*
X41144992Y4675557D01*
X41347267Y4810713D01*
X41519287Y4982733D01*
X41654443Y5185008D01*
X41747540Y5409764D01*
X41795000Y5648363D01*
X41795000Y5891637D01*
X41753582Y6099863D01*
X52966000Y6099863D01*
X52966000Y5886137D01*
X53007696Y5676517D01*
X53089485Y5479060D01*
X53208225Y5301353D01*
X53359353Y5150225D01*
X53537060Y5031485D01*
X53734517Y4949696D01*
X53944137Y4908000D01*
X54157863Y4908000D01*
X54367483Y4949696D01*
X54564940Y5031485D01*
X54742647Y5150225D01*
X54893775Y5301353D01*
X55012515Y5479060D01*
X55094304Y5676517D01*
X55136000Y5886137D01*
X55136000Y6099863D01*
X55094304Y6309483D01*
X55012515Y6506940D01*
X54893775Y6684647D01*
X54742647Y6835775D01*
X54564940Y6954515D01*
X54367483Y7036304D01*
X54157863Y7078000D01*
X53944137Y7078000D01*
X53734517Y7036304D01*
X53537060Y6954515D01*
X53359353Y6835775D01*
X53208225Y6684647D01*
X53089485Y6506940D01*
X53007696Y6309483D01*
X52966000Y6099863D01*
X41753582Y6099863D01*
X41747540Y6130236D01*
X41654443Y6354992D01*
X41519287Y6557267D01*
X41347267Y6729287D01*
X41144992Y6864443D01*
X40920236Y6957540D01*
X40681637Y7005000D01*
X40438363Y7005000D01*
X40199764Y6957540D01*
X39975008Y6864443D01*
X39772733Y6729287D01*
X39600713Y6557267D01*
X39465557Y6354992D01*
X39372460Y6130236D01*
X39325000Y5891637D01*
X37469751Y5891637D01*
X37431591Y6195015D01*
X37312713Y6551978D01*
X37183945Y6792884D01*
X36891415Y6921810D01*
X35739605Y5770000D01*
X35380395Y5770000D01*
X34228585Y6921810D01*
X33936055Y6792884D01*
X33767704Y6456414D01*
X33668229Y6093565D01*
X33641455Y5718282D01*
X31795000Y5718282D01*
X31795000Y5891637D01*
X31747540Y6130236D01*
X31654443Y6354992D01*
X31519287Y6557267D01*
X31347267Y6729287D01*
X31144992Y6864443D01*
X30920236Y6957540D01*
X30681637Y7005000D01*
X30438363Y7005000D01*
X30199764Y6957540D01*
X29975008Y6864443D01*
X29772733Y6729287D01*
X29600713Y6557267D01*
X29465557Y6354992D01*
X29372460Y6130236D01*
X29325000Y5891637D01*
X25582573Y5891637D01*
X25497219Y5937259D01*
X25292696Y5999300D01*
X25080000Y6020249D01*
X24867303Y5999300D01*
X24662780Y5937259D01*
X24474290Y5836509D01*
X24309078Y5700922D01*
X24211109Y5581547D01*
X24154962Y5649962D01*
X24020387Y5760405D01*
X23866851Y5842472D01*
X23700255Y5893008D01*
X23527001Y5910072D01*
X23001999Y5910072D01*
X22828745Y5893008D01*
X22662149Y5842472D01*
X22508613Y5760405D01*
X22374038Y5649962D01*
X22352000Y5623109D01*
X22329962Y5649962D01*
X22257726Y5709245D01*
X22541002Y5992520D01*
X22570001Y6016319D01*
X22596332Y6048403D01*
X22664974Y6132043D01*
X22735546Y6264073D01*
X22749321Y6309483D01*
X22779003Y6407334D01*
X22790000Y6518987D01*
X22790000Y6518996D01*
X22793546Y6555000D01*
X22977014Y6555000D01*
X23167314Y6592853D01*
X23305000Y6649884D01*
X23442686Y6592853D01*
X23632986Y6555000D01*
X23827014Y6555000D01*
X24017314Y6592853D01*
X24128306Y6638827D01*
X24173492Y6554290D01*
X24309079Y6389078D01*
X24474291Y6253491D01*
X24662781Y6152741D01*
X24867304Y6090700D01*
X25080000Y6069751D01*
X25292697Y6090700D01*
X25497220Y6152741D01*
X25685710Y6253491D01*
X25850922Y6389078D01*
X25986509Y6554290D01*
X26087259Y6742780D01*
X26149300Y6947303D01*
X26164478Y7101415D01*
X34408190Y7101415D01*
X35560000Y5949605D01*
X36711810Y7101415D01*
X36582884Y7393945D01*
X36246414Y7562296D01*
X35883565Y7661771D01*
X35508282Y7688545D01*
X35134985Y7641591D01*
X34778022Y7522713D01*
X34537116Y7393945D01*
X34408190Y7101415D01*
X26164478Y7101415D01*
X26165000Y7106706D01*
X26165000Y8713294D01*
X26149300Y8872697D01*
X26087259Y9077220D01*
X25986509Y9265710D01*
X25850922Y9430922D01*
X25685710Y9566509D01*
X25497219Y9667259D01*
X25292696Y9729300D01*
X25080000Y9750249D01*
X24867303Y9729300D01*
X24662780Y9667259D01*
X24490000Y9574906D01*
X24490000Y10083258D01*
X24493676Y10120581D01*
X24490000Y10157904D01*
X24490000Y10157913D01*
X24479003Y10269566D01*
X24435546Y10412827D01*
X24411904Y10457057D01*
X24364974Y10544857D01*
X24293799Y10631583D01*
X24270001Y10660581D01*
X24241004Y10684378D01*
X23967263Y10958119D01*
X28650000Y10958119D01*
X28650000Y10581881D01*
X28723400Y10212873D01*
X28867380Y9865276D01*
X29076406Y9552446D01*
X29342446Y9286406D01*
X29655276Y9077380D01*
X30002873Y8933400D01*
X30371881Y8860000D01*
X30748119Y8860000D01*
X31117127Y8933400D01*
X31464724Y9077380D01*
X31777554Y9286406D01*
X32043594Y9552446D01*
X32105101Y9644497D01*
X32134662Y9600256D01*
X32390256Y9344662D01*
X32690801Y9143844D01*
X33024750Y9005518D01*
X33379268Y8935000D01*
X33740732Y8935000D01*
X34095250Y9005518D01*
X34429199Y9143844D01*
X34729744Y9344662D01*
X34985338Y9600256D01*
X35022506Y9655882D01*
X35199764Y9582460D01*
X35438363Y9535000D01*
X35681637Y9535000D01*
X35920236Y9582460D01*
X36097494Y9655882D01*
X36134662Y9600256D01*
X36390256Y9344662D01*
X36690801Y9143844D01*
X37024750Y9005518D01*
X37379268Y8935000D01*
X37740732Y8935000D01*
X38095250Y9005518D01*
X38429199Y9143844D01*
X38729744Y9344662D01*
X38985338Y9600256D01*
X39014899Y9644497D01*
X39076406Y9552446D01*
X39342446Y9286406D01*
X39655276Y9077380D01*
X40002873Y8933400D01*
X40371881Y8860000D01*
X40748119Y8860000D01*
X41117127Y8933400D01*
X41464724Y9077380D01*
X41498372Y9099863D01*
X52966000Y9099863D01*
X52966000Y8886137D01*
X53007696Y8676517D01*
X53089485Y8479060D01*
X53208225Y8301353D01*
X53359353Y8150225D01*
X53537060Y8031485D01*
X53734517Y7949696D01*
X53944137Y7908000D01*
X54157863Y7908000D01*
X54367483Y7949696D01*
X54564940Y8031485D01*
X54742647Y8150225D01*
X54893775Y8301353D01*
X55012515Y8479060D01*
X55094304Y8676517D01*
X55136000Y8886137D01*
X55136000Y9099863D01*
X55094304Y9309483D01*
X55012515Y9506940D01*
X54893775Y9684647D01*
X54742647Y9835775D01*
X54564940Y9954515D01*
X54367483Y10036304D01*
X54157863Y10078000D01*
X53944137Y10078000D01*
X53734517Y10036304D01*
X53537060Y9954515D01*
X53359353Y9835775D01*
X53208225Y9684647D01*
X53089485Y9506940D01*
X53007696Y9309483D01*
X52966000Y9099863D01*
X41498372Y9099863D01*
X41777554Y9286406D01*
X42043594Y9552446D01*
X42252620Y9865276D01*
X42396600Y10212873D01*
X42470000Y10581881D01*
X42470000Y10958119D01*
X42396600Y11327127D01*
X42252620Y11674724D01*
X42043594Y11987554D01*
X41777554Y12253594D01*
X41464724Y12462620D01*
X41117127Y12606600D01*
X40748119Y12680000D01*
X40371881Y12680000D01*
X40002873Y12606600D01*
X39655276Y12462620D01*
X39342446Y12253594D01*
X39076406Y11987554D01*
X39014899Y11895503D01*
X38985338Y11939744D01*
X38729744Y12195338D01*
X38429199Y12396156D01*
X38095250Y12534482D01*
X37740732Y12605000D01*
X37379268Y12605000D01*
X37024750Y12534482D01*
X36690801Y12396156D01*
X36390256Y12195338D01*
X36134662Y11939744D01*
X36097494Y11884118D01*
X35920236Y11957540D01*
X35681637Y12005000D01*
X35438363Y12005000D01*
X35199764Y11957540D01*
X35022506Y11884118D01*
X34985338Y11939744D01*
X34729744Y12195338D01*
X34429199Y12396156D01*
X34095250Y12534482D01*
X33740732Y12605000D01*
X33379268Y12605000D01*
X33024750Y12534482D01*
X32690801Y12396156D01*
X32390256Y12195338D01*
X32134662Y11939744D01*
X32105101Y11895503D01*
X32043594Y11987554D01*
X31777554Y12253594D01*
X31464724Y12462620D01*
X31117127Y12606600D01*
X30748119Y12680000D01*
X30371881Y12680000D01*
X30002873Y12606600D01*
X29655276Y12462620D01*
X29342446Y12253594D01*
X29076406Y11987554D01*
X28867380Y11674724D01*
X28723400Y11327127D01*
X28650000Y10958119D01*
X23967263Y10958119D01*
X23492383Y11432998D01*
X23468581Y11462001D01*
X23352856Y11556974D01*
X23220827Y11627546D01*
X23077566Y11671003D01*
X22965913Y11682000D01*
X22965902Y11682000D01*
X22928580Y11685676D01*
X22891258Y11682000D01*
X22578527Y11682000D01*
X22569472Y11711851D01*
X22487405Y11865387D01*
X22376962Y11999962D01*
X22242387Y12110405D01*
X22088851Y12192472D01*
X21922255Y12243008D01*
X21749001Y12260072D01*
X21223999Y12260072D01*
X21050745Y12243008D01*
X20884149Y12192472D01*
X20730613Y12110405D01*
X20596038Y11999962D01*
X20574000Y11973109D01*
X20551962Y11999962D01*
X20417387Y12110405D01*
X20263851Y12192472D01*
X20097255Y12243008D01*
X19924001Y12260072D01*
X19876622Y12260072D01*
X19953786Y12446362D01*
X19993560Y12646321D01*
X19993560Y12850199D01*
X19953786Y13050158D01*
X19875765Y13238516D01*
X19762497Y13408034D01*
X19718560Y13451971D01*
X19718560Y16074117D01*
X19722236Y16111440D01*
X19718560Y16148763D01*
X19718560Y16148773D01*
X19707563Y16260426D01*
X19664106Y16403687D01*
X19593534Y16535716D01*
X19498561Y16651441D01*
X19469563Y16675239D01*
X15889801Y20255000D01*
X16031939Y20255000D01*
X16231898Y20294774D01*
X16420256Y20372795D01*
X16589774Y20486063D01*
X16733937Y20630226D01*
X16847205Y20799744D01*
X16925226Y20988102D01*
X16965000Y21188061D01*
X16965000Y21335140D01*
X17005003Y21467014D01*
X17016000Y21578667D01*
X17016632Y21585081D01*
X17042324Y21592875D01*
X17362200Y21272998D01*
X17385999Y21243999D01*
X17501724Y21149026D01*
X17571928Y21111501D01*
X17571928Y21034000D01*
X17584188Y20909518D01*
X17620498Y20789820D01*
X17679463Y20679506D01*
X17758815Y20582815D01*
X17855506Y20503463D01*
X17965820Y20444498D01*
X18085518Y20408188D01*
X18210000Y20395928D01*
X18610000Y20395928D01*
X18734482Y20408188D01*
X18735000Y20408345D01*
X18735518Y20408188D01*
X18860000Y20395928D01*
X19260000Y20395928D01*
X19384482Y20408188D01*
X19385000Y20408345D01*
X19385518Y20408188D01*
X19510000Y20395928D01*
X19910000Y20395928D01*
X20034482Y20408188D01*
X20154180Y20444498D01*
X20264494Y20503463D01*
X20361185Y20582815D01*
X20434538Y20672196D01*
X20435668Y20668470D01*
X20517735Y20514934D01*
X20589811Y20427109D01*
X20583735Y20419706D01*
X20501668Y20266170D01*
X20451132Y20099574D01*
X20434068Y19926320D01*
X20434068Y18976320D01*
X20451132Y18803066D01*
X20501668Y18636470D01*
X20583735Y18482934D01*
X20694178Y18348358D01*
X20812141Y18251549D01*
X20812141Y18219632D01*
X20768203Y18175694D01*
X20654935Y18006176D01*
X20576914Y17817818D01*
X20537140Y17617859D01*
X20537140Y17413981D01*
X20576914Y17214022D01*
X20654935Y17025664D01*
X20768203Y16856146D01*
X20912366Y16711983D01*
X21081884Y16598715D01*
X21270242Y16520694D01*
X21470201Y16480920D01*
X21532339Y16480920D01*
X22202261Y15810997D01*
X22226059Y15781999D01*
X22341784Y15687026D01*
X22473813Y15616454D01*
X22617074Y15572997D01*
X22728727Y15562000D01*
X22728737Y15562000D01*
X22766060Y15558324D01*
X22803383Y15562000D01*
X30566189Y15562000D01*
X30610126Y15518063D01*
X30779644Y15404795D01*
X30968002Y15326774D01*
X31167961Y15287000D01*
X31371839Y15287000D01*
X31571798Y15326774D01*
X31760156Y15404795D01*
X31929674Y15518063D01*
X32073837Y15662226D01*
X32187105Y15831744D01*
X32265126Y16020102D01*
X32304900Y16220061D01*
X32304900Y16423939D01*
X32265126Y16623898D01*
X32187105Y16812256D01*
X32073837Y16981774D01*
X31929674Y17125937D01*
X31760156Y17239205D01*
X31571798Y17317226D01*
X31371839Y17357000D01*
X31167961Y17357000D01*
X30968002Y17317226D01*
X30779644Y17239205D01*
X30610126Y17125937D01*
X30566189Y17082000D01*
X23080862Y17082000D01*
X22607140Y17555721D01*
X22607140Y17617859D01*
X22567366Y17817818D01*
X22489345Y18006176D01*
X22376077Y18175694D01*
X22332140Y18219631D01*
X22332140Y18251550D01*
X22450102Y18348358D01*
X22455482Y18354914D01*
X22520955Y18275135D01*
X22617646Y18195783D01*
X22727960Y18136818D01*
X22847658Y18100508D01*
X22972140Y18088248D01*
X23186390Y18091320D01*
X23345140Y18250070D01*
X23345140Y19324320D01*
X23599140Y19324320D01*
X23599140Y18250070D01*
X23757890Y18091320D01*
X23972140Y18088248D01*
X24096622Y18100508D01*
X24216320Y18136818D01*
X24326634Y18195783D01*
X24423325Y18275135D01*
X24502677Y18371826D01*
X24561642Y18482140D01*
X24597952Y18601838D01*
X24610212Y18726320D01*
X24607140Y19165570D01*
X24448390Y19324320D01*
X23599140Y19324320D01*
X23345140Y19324320D01*
X23325140Y19324320D01*
X23325140Y19578320D01*
X23345140Y19578320D01*
X23345140Y20652570D01*
X23279140Y20718570D01*
X23279140Y21356320D01*
X23533140Y21356320D01*
X23533140Y20282070D01*
X23599140Y20216070D01*
X23599140Y19578320D01*
X24448390Y19578320D01*
X24607140Y19737070D01*
X24610212Y20176320D01*
X24597952Y20300802D01*
X24561642Y20420500D01*
X24502677Y20530814D01*
X24501234Y20532573D01*
X24531952Y20633838D01*
X24544212Y20758320D01*
X24541140Y21197570D01*
X24382390Y21356320D01*
X23533140Y21356320D01*
X23279140Y21356320D01*
X23259140Y21356320D01*
X23259140Y21610320D01*
X23279140Y21610320D01*
X23279140Y22684570D01*
X23533140Y22684570D01*
X23533140Y21610320D01*
X24382390Y21610320D01*
X24541140Y21769070D01*
X24544212Y22208320D01*
X24531952Y22332802D01*
X24495642Y22452500D01*
X24436677Y22562814D01*
X24357325Y22659505D01*
X24260634Y22738857D01*
X24150320Y22797822D01*
X24030622Y22834132D01*
X23906140Y22846392D01*
X23691890Y22843320D01*
X23533140Y22684570D01*
X23279140Y22684570D01*
X23120390Y22843320D01*
X22906140Y22846392D01*
X22781658Y22834132D01*
X22661960Y22797822D01*
X22551646Y22738857D01*
X22454955Y22659505D01*
X22389482Y22579726D01*
X22384102Y22586282D01*
X22249526Y22696725D01*
X22095990Y22778792D01*
X21929394Y22829328D01*
X21756140Y22846392D01*
X21256140Y22846392D01*
X21082886Y22829328D01*
X20916290Y22778792D01*
X20762754Y22696725D01*
X20628178Y22586282D01*
X20593478Y22544000D01*
X20547087Y22544000D01*
X20535812Y22658482D01*
X20499502Y22778180D01*
X20440537Y22888494D01*
X20361185Y22985185D01*
X20264494Y23064537D01*
X20171957Y23114000D01*
X20264494Y23163463D01*
X20361185Y23242815D01*
X20440537Y23339506D01*
X20499502Y23449820D01*
X20535812Y23569518D01*
X20548072Y23694000D01*
X20548072Y25194000D01*
X20540965Y25266163D01*
X20590222Y25315420D01*
X20677254Y25323992D01*
X20843850Y25374528D01*
X20997386Y25456595D01*
X21131962Y25567038D01*
X21242405Y25701614D01*
X21324472Y25855150D01*
X21375008Y26021746D01*
X21392072Y26195000D01*
X21392072Y27145000D01*
X21375008Y27318254D01*
X21324472Y27484850D01*
X21242405Y27638386D01*
X21131962Y27772962D01*
X20997386Y27883405D01*
X20843850Y27965472D01*
X20677254Y28016008D01*
X20504000Y28033072D01*
X20004000Y28033072D01*
X19830746Y28016008D01*
X19664150Y27965472D01*
X19510614Y27883405D01*
X19376038Y27772962D01*
X19304000Y27685183D01*
X19231962Y27772962D01*
X19097386Y27883405D01*
X18943850Y27965472D01*
X18777254Y28016008D01*
X18604000Y28033072D01*
X18104000Y28033072D01*
X17930746Y28016008D01*
X17764150Y27965472D01*
X17610614Y27883405D01*
X17476038Y27772962D01*
X17365595Y27638386D01*
X17283528Y27484850D01*
X17232992Y27318254D01*
X17215928Y27145000D01*
X17215928Y26195000D01*
X17232992Y26021746D01*
X17283528Y25855150D01*
X17365595Y25701614D01*
X17476038Y25567038D01*
X17610614Y25456595D01*
X17625957Y25448394D01*
X17620498Y25438180D01*
X17588289Y25332000D01*
X17455770Y25332000D01*
X17358962Y25449962D01*
X17224386Y25560405D01*
X17070850Y25642472D01*
X16904254Y25693008D01*
X16731000Y25710072D01*
X15781000Y25710072D01*
X15607746Y25693008D01*
X15441150Y25642472D01*
X15287614Y25560405D01*
X15153038Y25449962D01*
X15056230Y25332000D01*
X14980000Y25332000D01*
X14980000Y25913289D01*
X22297150Y33230439D01*
X35063270Y20464318D01*
X35087069Y20435319D01*
X35202794Y20340346D01*
X35334823Y20269774D01*
X35478084Y20226317D01*
X35589737Y20215320D01*
X35589745Y20215320D01*
X35627070Y20211644D01*
X35664395Y20215320D01*
X49165684Y20215320D01*
X49240175Y20035484D01*
X49353443Y19865966D01*
X49497606Y19721803D01*
X49667124Y19608535D01*
X49855482Y19530514D01*
X50055441Y19490740D01*
X50259319Y19490740D01*
X50459278Y19530514D01*
X50647636Y19608535D01*
X50817154Y19721803D01*
X50961317Y19865966D01*
X51074585Y20035484D01*
X51152606Y20223842D01*
X51192380Y20423801D01*
X51192380Y20627679D01*
X51152606Y20827638D01*
X51074585Y21015996D01*
X50961317Y21185514D01*
X50817154Y21329677D01*
X50647636Y21442945D01*
X50459278Y21520966D01*
X50259319Y21560740D01*
X50192458Y21560740D01*
X50132076Y21610294D01*
X50000047Y21680866D01*
X49856786Y21724323D01*
X49745133Y21735320D01*
X49745122Y21735320D01*
X49707800Y21738996D01*
X49670478Y21735320D01*
X35941872Y21735320D01*
X32647192Y25030000D01*
X44943928Y25030000D01*
X44943928Y23230000D01*
X44956188Y23105518D01*
X44992498Y22985820D01*
X45051463Y22875506D01*
X45130815Y22778815D01*
X45227506Y22699463D01*
X45337820Y22640498D01*
X45457518Y22604188D01*
X45582000Y22591928D01*
X47382000Y22591928D01*
X47506482Y22604188D01*
X47626180Y22640498D01*
X47736494Y22699463D01*
X47833185Y22778815D01*
X47912537Y22875506D01*
X47965880Y22975303D01*
X48003495Y22937688D01*
X48254905Y22769701D01*
X48534257Y22653989D01*
X48830816Y22595000D01*
X49133184Y22595000D01*
X49429743Y22653989D01*
X49709095Y22769701D01*
X49960505Y22937688D01*
X50174312Y23151495D01*
X50232000Y23237831D01*
X50289688Y23151495D01*
X50503495Y22937688D01*
X50754905Y22769701D01*
X51034257Y22653989D01*
X51330816Y22595000D01*
X51633184Y22595000D01*
X51929743Y22653989D01*
X52209095Y22769701D01*
X52460505Y22937688D01*
X52674312Y23151495D01*
X52842299Y23402905D01*
X52958011Y23682257D01*
X53017000Y23978816D01*
X53017000Y24281184D01*
X52958011Y24577743D01*
X52842299Y24857095D01*
X52674312Y25108505D01*
X52460505Y25322312D01*
X52209095Y25490299D01*
X51929743Y25606011D01*
X51633184Y25665000D01*
X51330816Y25665000D01*
X51034257Y25606011D01*
X50754905Y25490299D01*
X50503495Y25322312D01*
X50289688Y25108505D01*
X50232000Y25022169D01*
X50174312Y25108505D01*
X49960505Y25322312D01*
X49709095Y25490299D01*
X49429743Y25606011D01*
X49133184Y25665000D01*
X48830816Y25665000D01*
X48534257Y25606011D01*
X48254905Y25490299D01*
X48003495Y25322312D01*
X47965880Y25284697D01*
X47912537Y25384494D01*
X47833185Y25481185D01*
X47736494Y25560537D01*
X47626180Y25619502D01*
X47506482Y25655812D01*
X47382000Y25668072D01*
X45582000Y25668072D01*
X45457518Y25655812D01*
X45337820Y25619502D01*
X45227506Y25560537D01*
X45130815Y25481185D01*
X45051463Y25384494D01*
X44992498Y25274180D01*
X44956188Y25154482D01*
X44943928Y25030000D01*
X32647192Y25030000D01*
X25825094Y31852098D01*
X41927000Y31852098D01*
X41927000Y31407902D01*
X42013658Y30972241D01*
X42183645Y30561857D01*
X42430427Y30192521D01*
X42744521Y29878427D01*
X43113857Y29631645D01*
X43524241Y29461658D01*
X43959902Y29375000D01*
X44404098Y29375000D01*
X44839759Y29461658D01*
X45250143Y29631645D01*
X45619479Y29878427D01*
X45933573Y30192521D01*
X46180355Y30561857D01*
X46350342Y30972241D01*
X46437000Y31407902D01*
X46437000Y31852098D01*
X46350342Y32287759D01*
X46180355Y32698143D01*
X45933573Y33067479D01*
X45619479Y33381573D01*
X45250143Y33628355D01*
X44839759Y33798342D01*
X44404098Y33885000D01*
X43959902Y33885000D01*
X43524241Y33798342D01*
X43113857Y33628355D01*
X42744521Y33381573D01*
X42430427Y33067479D01*
X42183645Y32698143D01*
X42013658Y32287759D01*
X41927000Y31852098D01*
X25825094Y31852098D01*
X23332150Y34345041D01*
X23332150Y34373149D01*
X28943301Y39984298D01*
X29203101Y39724498D01*
X29226899Y39695499D01*
X29342624Y39600526D01*
X29474653Y39529954D01*
X29617914Y39486497D01*
X29729567Y39475500D01*
X29729576Y39475500D01*
X29766899Y39471824D01*
X29804222Y39475500D01*
X31834970Y39475500D01*
X31942038Y39345038D01*
X32076613Y39234595D01*
X32230149Y39152528D01*
X32396745Y39101992D01*
X32569999Y39084928D01*
X33470001Y39084928D01*
X33643255Y39101992D01*
X33809851Y39152528D01*
X33963387Y39234595D01*
X34097962Y39345038D01*
X34208405Y39479613D01*
X34290472Y39633149D01*
X34341008Y39799745D01*
X34358072Y39972999D01*
X34358072Y40498001D01*
X34341008Y40671255D01*
X34290472Y40837851D01*
X34208405Y40991387D01*
X34097962Y41125962D01*
X34071109Y41148000D01*
X34097962Y41170038D01*
X34125397Y41203468D01*
X34129595Y41195614D01*
X34240038Y41061038D01*
X34374614Y40950595D01*
X34528150Y40868528D01*
X34694746Y40817992D01*
X34868000Y40800928D01*
X35368000Y40800928D01*
X35541254Y40817992D01*
X35707850Y40868528D01*
X35861386Y40950595D01*
X35995962Y41061038D01*
X36068000Y41148817D01*
X36140038Y41061038D01*
X36274614Y40950595D01*
X36428150Y40868528D01*
X36594746Y40817992D01*
X36768000Y40800928D01*
X37268000Y40800928D01*
X37441254Y40817992D01*
X37607850Y40868528D01*
X37761386Y40950595D01*
X37895962Y41061038D01*
X38006405Y41195614D01*
X38088472Y41349150D01*
X38139008Y41515746D01*
X38156072Y41689000D01*
X38156072Y42639000D01*
X38139008Y42812254D01*
X38088472Y42978850D01*
X38006405Y43132386D01*
X37895962Y43266962D01*
X37820500Y43328892D01*
X37820500Y47582970D01*
X37950962Y47690038D01*
X37973000Y47716891D01*
X37995038Y47690038D01*
X38125500Y47582970D01*
X38125500Y46567323D01*
X38121824Y46530000D01*
X38125500Y46492678D01*
X38125500Y46492668D01*
X38136497Y46381015D01*
X38161068Y46300015D01*
X38179954Y46237754D01*
X38250526Y46105724D01*
X38290371Y46057174D01*
X38345499Y45989999D01*
X38374503Y45966196D01*
X39097722Y45242977D01*
X39090928Y45174000D01*
X39090928Y44874000D01*
X39106071Y44720255D01*
X39150916Y44572418D01*
X39223742Y44436171D01*
X39321749Y44316749D01*
X39441171Y44218742D01*
X39577418Y44145916D01*
X39725255Y44101071D01*
X39879000Y44085928D01*
X40769000Y44085928D01*
X40769001Y41170703D01*
X37854459Y38256160D01*
X37792321Y38256160D01*
X37592362Y38216386D01*
X37404004Y38138365D01*
X37234486Y38025097D01*
X37090323Y37880934D01*
X36977055Y37711416D01*
X36899034Y37523058D01*
X36859260Y37323099D01*
X36859260Y37119221D01*
X36899034Y36919262D01*
X36977055Y36730904D01*
X37090323Y36561386D01*
X37234486Y36417223D01*
X37404004Y36303955D01*
X37592362Y36225934D01*
X37792321Y36186160D01*
X37996199Y36186160D01*
X38196158Y36225934D01*
X38384516Y36303955D01*
X38554034Y36417223D01*
X38698197Y36561386D01*
X38811465Y36730904D01*
X38889486Y36919262D01*
X38929260Y37119221D01*
X38929260Y37181359D01*
X42040003Y40292101D01*
X42069001Y40315899D01*
X42163974Y40431624D01*
X42234546Y40563653D01*
X42278003Y40706914D01*
X42289000Y40818567D01*
X42292677Y40855900D01*
X42289000Y40893233D01*
X42289000Y42120279D01*
X46125000Y42120279D01*
X46125000Y41699721D01*
X46207047Y41287244D01*
X46367988Y40898698D01*
X46601637Y40549017D01*
X46899017Y40251637D01*
X47248698Y40017988D01*
X47637244Y39857047D01*
X48049721Y39775000D01*
X48470279Y39775000D01*
X48882756Y39857047D01*
X49271302Y40017988D01*
X49620983Y40251637D01*
X49918363Y40549017D01*
X50152012Y40898698D01*
X50312953Y41287244D01*
X50395000Y41699721D01*
X50395000Y42120279D01*
X50312953Y42532756D01*
X50152012Y42921302D01*
X49918363Y43270983D01*
X49620983Y43568363D01*
X49271302Y43802012D01*
X48882756Y43962953D01*
X48470279Y44045000D01*
X48049721Y44045000D01*
X47637244Y43962953D01*
X47248698Y43802012D01*
X46899017Y43568363D01*
X46601637Y43270983D01*
X46367988Y42921302D01*
X46207047Y42532756D01*
X46125000Y42120279D01*
X42289000Y42120279D01*
X42289000Y44088252D01*
X42380750Y44089000D01*
X42539500Y44247750D01*
X42539500Y44897000D01*
X42793500Y44897000D01*
X42793500Y44247750D01*
X42952250Y44089000D01*
X43329000Y44085928D01*
X43453482Y44098188D01*
X43496326Y44111185D01*
X43527815Y44072815D01*
X43624506Y43993463D01*
X43734820Y43934498D01*
X43854518Y43898188D01*
X43979000Y43885928D01*
X44418250Y43889000D01*
X44577000Y44047750D01*
X44577000Y44897000D01*
X44831000Y44897000D01*
X44831000Y44047750D01*
X44989750Y43889000D01*
X45429000Y43885928D01*
X45553482Y43898188D01*
X45673180Y43934498D01*
X45783494Y43993463D01*
X45880185Y44072815D01*
X45959537Y44169506D01*
X46018502Y44279820D01*
X46054812Y44399518D01*
X46067072Y44524000D01*
X46064000Y44738250D01*
X45905250Y44897000D01*
X44831000Y44897000D01*
X44577000Y44897000D01*
X42793500Y44897000D01*
X42539500Y44897000D01*
X42519500Y44897000D01*
X42519500Y45035928D01*
X43179000Y45035928D01*
X43332745Y45051071D01*
X43480582Y45095916D01*
X43583636Y45151000D01*
X44577000Y45151000D01*
X44577000Y45171000D01*
X44831000Y45171000D01*
X44831000Y45151000D01*
X45905250Y45151000D01*
X46064000Y45309750D01*
X46067072Y45524000D01*
X46054812Y45648482D01*
X46018502Y45768180D01*
X45959537Y45878494D01*
X45880185Y45975185D01*
X45800406Y46040658D01*
X45806962Y46046038D01*
X45917405Y46180614D01*
X45999472Y46334150D01*
X46050008Y46500746D01*
X46067072Y46674000D01*
X46067072Y46760110D01*
X46288122Y46981160D01*
X46350259Y46981160D01*
X46550218Y47020934D01*
X46738576Y47098955D01*
X46908094Y47212223D01*
X47052257Y47356386D01*
X47165525Y47525904D01*
X47243546Y47714262D01*
X47283320Y47914221D01*
X47283320Y48118099D01*
X47243546Y48318058D01*
X47165525Y48506416D01*
X47052257Y48675934D01*
X46908094Y48820097D01*
X46738576Y48933365D01*
X46550218Y49011386D01*
X46350259Y49051160D01*
X46146381Y49051160D01*
X45946422Y49011386D01*
X45758064Y48933365D01*
X45588546Y48820097D01*
X45444383Y48675934D01*
X45331115Y48506416D01*
X45253094Y48318058D01*
X45213320Y48118099D01*
X45213320Y48058692D01*
X45179000Y48062072D01*
X44759939Y48062072D01*
X44757000Y48482250D01*
X44598250Y48641000D01*
X43749000Y48641000D01*
X43749000Y48621000D01*
X43495000Y48621000D01*
X43495000Y48641000D01*
X43475000Y48641000D01*
X43475000Y48895000D01*
X43495000Y48895000D01*
X43495000Y48915000D01*
X43749000Y48915000D01*
X43749000Y48895000D01*
X44598250Y48895000D01*
X44757000Y49053750D01*
X44760072Y49493000D01*
X44747812Y49617482D01*
X44711502Y49737180D01*
X44652537Y49847494D01*
X44573185Y49944185D01*
X44476494Y50023537D01*
X44366180Y50082502D01*
X44246482Y50118812D01*
X44122000Y50131072D01*
X43907750Y50128000D01*
X43765351Y49985601D01*
X43778472Y50010149D01*
X43829008Y50176745D01*
X43846072Y50349999D01*
X43846072Y51250001D01*
X43829008Y51423255D01*
X43778472Y51589851D01*
X43696405Y51743387D01*
X43585962Y51877962D01*
X43451387Y51988405D01*
X43297851Y52070472D01*
X43131255Y52121008D01*
X42958001Y52138072D01*
X42482000Y52138072D01*
X42482000Y53775157D01*
X42485676Y53812480D01*
X42482000Y53849803D01*
X42482000Y53849813D01*
X42471003Y53961466D01*
X42427546Y54104727D01*
X42417985Y54122614D01*
X42356974Y54236757D01*
X42285799Y54323483D01*
X42262001Y54352481D01*
X42233003Y54376279D01*
X40798284Y55810997D01*
X40774481Y55840001D01*
X40658756Y55934974D01*
X40526727Y56005546D01*
X40383466Y56049003D01*
X40271813Y56060000D01*
X40271802Y56060000D01*
X40234480Y56063676D01*
X40197158Y56060000D01*
X36587333Y56060000D01*
X36550000Y56063677D01*
X36512667Y56060000D01*
X36401014Y56049003D01*
X36257753Y56005546D01*
X36125724Y55934974D01*
X36009999Y55840001D01*
X35986196Y55810997D01*
X35567158Y55391959D01*
X35538160Y55368161D01*
X35514362Y55339163D01*
X35514361Y55339162D01*
X35443186Y55252436D01*
X35418422Y55206106D01*
X35368000Y55211072D01*
X34868000Y55211072D01*
X34694746Y55194008D01*
X34528150Y55143472D01*
X34374614Y55061405D01*
X34240038Y54950962D01*
X34129595Y54816386D01*
X34107109Y54774317D01*
X34097962Y54785462D01*
X33963387Y54895905D01*
X33809851Y54977972D01*
X33643255Y55028508D01*
X33470001Y55045572D01*
X32569999Y55045572D01*
X32396745Y55028508D01*
X32230149Y54977972D01*
X32076613Y54895905D01*
X31942038Y54785462D01*
X31834970Y54655000D01*
X31066033Y54655000D01*
X31026828Y54713675D01*
X30837675Y54902828D01*
X30651487Y55027234D01*
X30695000Y55026928D01*
X30819482Y55039188D01*
X30939180Y55075498D01*
X31049494Y55134463D01*
X31146185Y55213815D01*
X31225537Y55310506D01*
X31284502Y55420820D01*
X31320812Y55540518D01*
X31333072Y55665000D01*
X31330000Y56102250D01*
X31171250Y56261000D01*
X30099000Y56261000D01*
X30099000Y56241000D01*
X29845000Y56241000D01*
X29845000Y56261000D01*
X28772750Y56261000D01*
X28614000Y56102250D01*
X28610928Y55665000D01*
X28623188Y55540518D01*
X28659498Y55420820D01*
X28718463Y55310506D01*
X28797815Y55213815D01*
X28894506Y55134463D01*
X29004820Y55075498D01*
X29124518Y55039188D01*
X29249000Y55026928D01*
X29292513Y55027234D01*
X29106325Y54902828D01*
X28917172Y54713675D01*
X28768556Y54491254D01*
X28666187Y54244114D01*
X28614000Y53981751D01*
X28614000Y53714249D01*
X28666187Y53451886D01*
X28768556Y53204746D01*
X28917172Y52982325D01*
X29106325Y52793172D01*
X29328746Y52644556D01*
X29575886Y52542187D01*
X29838249Y52490000D01*
X30105751Y52490000D01*
X30368114Y52542187D01*
X30489483Y52592460D01*
X30480081Y52581003D01*
X27675378Y49776299D01*
X27646380Y49752501D01*
X27622582Y49723503D01*
X27622581Y49723502D01*
X27551406Y49636776D01*
X27480834Y49504746D01*
X27437378Y49361485D01*
X27422704Y49212500D01*
X27426381Y49175168D01*
X27426380Y41853342D01*
X27422704Y41816020D01*
X27426380Y41778698D01*
X27426380Y41778688D01*
X27437377Y41667035D01*
X27469407Y41561446D01*
X27480834Y41523774D01*
X27551406Y41391744D01*
X27581599Y41354954D01*
X27646379Y41276019D01*
X27675382Y41252217D01*
X27868498Y41059101D01*
X22138323Y35328924D01*
X21995252Y35300466D01*
X21806894Y35222445D01*
X21637376Y35109177D01*
X21493213Y34965014D01*
X21379945Y34795496D01*
X21301924Y34607138D01*
X21262150Y34407179D01*
X21262150Y34345042D01*
X13708998Y26791889D01*
X13680000Y26768091D01*
X13656202Y26739093D01*
X13656201Y26739092D01*
X13585026Y26652366D01*
X13514454Y26520336D01*
X13484180Y26420532D01*
X13470998Y26377076D01*
X13460814Y26273677D01*
X13456324Y26228090D01*
X660000Y26228090D01*
X660000Y39580279D01*
X4215000Y39580279D01*
X4215000Y39159721D01*
X4297047Y38747244D01*
X4457988Y38358698D01*
X4691637Y38009017D01*
X4989017Y37711637D01*
X5338698Y37477988D01*
X5727244Y37317047D01*
X6139721Y37235000D01*
X6560279Y37235000D01*
X6972756Y37317047D01*
X7361302Y37477988D01*
X7710983Y37711637D01*
X8008363Y38009017D01*
X8242012Y38358698D01*
X8402953Y38747244D01*
X8485000Y39159721D01*
X8485000Y39580279D01*
X8402953Y39992756D01*
X8242012Y40381302D01*
X8008363Y40730983D01*
X7710983Y41028363D01*
X7361302Y41262012D01*
X6972756Y41422953D01*
X6560279Y41505000D01*
X6139721Y41505000D01*
X5727244Y41422953D01*
X5338698Y41262012D01*
X4989017Y41028363D01*
X4691637Y40730983D01*
X4457988Y40381302D01*
X4297047Y39992756D01*
X4215000Y39580279D01*
X660000Y39580279D01*
X660000Y41636620D01*
X16134380Y57111000D01*
X28610928Y57111000D01*
X28614000Y56673750D01*
X28772750Y56515000D01*
X29845000Y56515000D01*
X29845000Y57587250D01*
X30099000Y57587250D01*
X30099000Y56515000D01*
X31171250Y56515000D01*
X31330000Y56673750D01*
X31333072Y57111000D01*
X31320812Y57235482D01*
X31284502Y57355180D01*
X31225537Y57465494D01*
X31146185Y57562185D01*
X31049494Y57641537D01*
X30939180Y57700502D01*
X30819482Y57736812D01*
X30695000Y57749072D01*
X30257750Y57746000D01*
X30099000Y57587250D01*
X29845000Y57587250D01*
X29686250Y57746000D01*
X29249000Y57749072D01*
X29124518Y57736812D01*
X29004820Y57700502D01*
X28894506Y57641537D01*
X28797815Y57562185D01*
X28718463Y57465494D01*
X28659498Y57355180D01*
X28623188Y57235482D01*
X28610928Y57111000D01*
X16134380Y57111000D01*
X20593381Y61570000D01*
X35286620Y61570000D01*
X55220000Y41636619D01*
G37*
G04 #@! TD.AperFunction*
D23*
X36059595Y51743387D02*
X35977528Y51589851D01*
X35926992Y51423255D01*
X35909928Y51250001D01*
X35909928Y50349999D01*
X35926992Y50176745D01*
X35977528Y50010149D01*
X36059595Y49856613D01*
X36119187Y49784000D01*
X36059595Y49711387D01*
X35977528Y49557851D01*
X35926992Y49391255D01*
X35909928Y49218001D01*
X35909928Y48317999D01*
X35926992Y48144745D01*
X35977528Y47978149D01*
X36059595Y47824613D01*
X36170038Y47690038D01*
X36300500Y47582970D01*
X36300501Y43391242D01*
X36274614Y43377405D01*
X36140038Y43266962D01*
X36068000Y43179183D01*
X35995962Y43266962D01*
X35861386Y43377405D01*
X35707850Y43459472D01*
X35541254Y43510008D01*
X35368000Y43527072D01*
X34868000Y43527072D01*
X34694746Y43510008D01*
X34528150Y43459472D01*
X34374614Y43377405D01*
X34240038Y43266962D01*
X34129595Y43132386D01*
X34052545Y42988235D01*
X33963387Y43061405D01*
X33809851Y43143472D01*
X33643255Y43194008D01*
X33470001Y43211072D01*
X32569999Y43211072D01*
X32396745Y43194008D01*
X32230149Y43143472D01*
X32076613Y43061405D01*
X31942038Y42950962D01*
X31834970Y42820500D01*
X30982003Y42820500D01*
X30837675Y42964828D01*
X30651487Y43089234D01*
X30695000Y43088928D01*
X30819482Y43101188D01*
X30939180Y43137498D01*
X31049494Y43196463D01*
X31146185Y43275815D01*
X31225537Y43372506D01*
X31284502Y43482820D01*
X31320812Y43602518D01*
X31333072Y43727000D01*
X31330000Y44164250D01*
X31171250Y44323000D01*
X30099000Y44323000D01*
X30099000Y44303000D01*
X29845000Y44303000D01*
X29845000Y44323000D01*
X29825000Y44323000D01*
X29825000Y44577000D01*
X29845000Y44577000D01*
X29845000Y45649250D01*
X30099000Y45649250D01*
X30099000Y44577000D01*
X31171250Y44577000D01*
X31330000Y44735750D01*
X31333072Y45173000D01*
X31320812Y45297482D01*
X31284502Y45417180D01*
X31225537Y45527494D01*
X31146185Y45624185D01*
X31049494Y45703537D01*
X30939180Y45762502D01*
X30819482Y45798812D01*
X30695000Y45811072D01*
X30257750Y45808000D01*
X30099000Y45649250D01*
X29845000Y45649250D01*
X29686250Y45808000D01*
X29249000Y45811072D01*
X29124518Y45798812D01*
X29004820Y45762502D01*
X28946380Y45731265D01*
X28946380Y48897699D01*
X31358682Y51310000D01*
X31834970Y51310000D01*
X31942038Y51179538D01*
X32076613Y51069095D01*
X32230149Y50987028D01*
X32396745Y50936492D01*
X32569999Y50919428D01*
X33470001Y50919428D01*
X33643255Y50936492D01*
X33809851Y50987028D01*
X33963387Y51069095D01*
X34097962Y51179538D01*
X34205030Y51310000D01*
X35268678Y51310000D01*
X35306000Y51306324D01*
X35343322Y51310000D01*
X35343333Y51310000D01*
X35454986Y51320997D01*
X35598247Y51364454D01*
X35730276Y51435026D01*
X35846001Y51529999D01*
X35869803Y51559002D01*
X36084339Y51773538D01*
X36059595Y51743387D01*
G04 #@! TA.AperFunction,Conductor*
D24*
G36*
X36059595Y51743387D02*
G01*
X35977528Y51589851D01*
X35926992Y51423255D01*
X35909928Y51250001D01*
X35909928Y50349999D01*
X35926992Y50176745D01*
X35977528Y50010149D01*
X36059595Y49856613D01*
X36119187Y49784000D01*
X36059595Y49711387D01*
X35977528Y49557851D01*
X35926992Y49391255D01*
X35909928Y49218001D01*
X35909928Y48317999D01*
X35926992Y48144745D01*
X35977528Y47978149D01*
X36059595Y47824613D01*
X36170038Y47690038D01*
X36300500Y47582970D01*
X36300501Y43391242D01*
X36274614Y43377405D01*
X36140038Y43266962D01*
X36068000Y43179183D01*
X35995962Y43266962D01*
X35861386Y43377405D01*
X35707850Y43459472D01*
X35541254Y43510008D01*
X35368000Y43527072D01*
X34868000Y43527072D01*
X34694746Y43510008D01*
X34528150Y43459472D01*
X34374614Y43377405D01*
X34240038Y43266962D01*
X34129595Y43132386D01*
X34052545Y42988235D01*
X33963387Y43061405D01*
X33809851Y43143472D01*
X33643255Y43194008D01*
X33470001Y43211072D01*
X32569999Y43211072D01*
X32396745Y43194008D01*
X32230149Y43143472D01*
X32076613Y43061405D01*
X31942038Y42950962D01*
X31834970Y42820500D01*
X30982003Y42820500D01*
X30837675Y42964828D01*
X30651487Y43089234D01*
X30695000Y43088928D01*
X30819482Y43101188D01*
X30939180Y43137498D01*
X31049494Y43196463D01*
X31146185Y43275815D01*
X31225537Y43372506D01*
X31284502Y43482820D01*
X31320812Y43602518D01*
X31333072Y43727000D01*
X31330000Y44164250D01*
X31171250Y44323000D01*
X30099000Y44323000D01*
X30099000Y44303000D01*
X29845000Y44303000D01*
X29845000Y44323000D01*
X29825000Y44323000D01*
X29825000Y44577000D01*
X29845000Y44577000D01*
X29845000Y45649250D01*
X30099000Y45649250D01*
X30099000Y44577000D01*
X31171250Y44577000D01*
X31330000Y44735750D01*
X31333072Y45173000D01*
X31320812Y45297482D01*
X31284502Y45417180D01*
X31225537Y45527494D01*
X31146185Y45624185D01*
X31049494Y45703537D01*
X30939180Y45762502D01*
X30819482Y45798812D01*
X30695000Y45811072D01*
X30257750Y45808000D01*
X30099000Y45649250D01*
X29845000Y45649250D01*
X29686250Y45808000D01*
X29249000Y45811072D01*
X29124518Y45798812D01*
X29004820Y45762502D01*
X28946380Y45731265D01*
X28946380Y48897699D01*
X31358682Y51310000D01*
X31834970Y51310000D01*
X31942038Y51179538D01*
X32076613Y51069095D01*
X32230149Y50987028D01*
X32396745Y50936492D01*
X32569999Y50919428D01*
X33470001Y50919428D01*
X33643255Y50936492D01*
X33809851Y50987028D01*
X33963387Y51069095D01*
X34097962Y51179538D01*
X34205030Y51310000D01*
X35268678Y51310000D01*
X35306000Y51306324D01*
X35343322Y51310000D01*
X35343333Y51310000D01*
X35454986Y51320997D01*
X35598247Y51364454D01*
X35730276Y51435026D01*
X35846001Y51529999D01*
X35869803Y51559002D01*
X36084339Y51773538D01*
X36059595Y51743387D01*
G37*
G04 #@! TD.AperFunction*
M02*
